<svg xmlns="http://www.w3.org/2000/svg" id="Layer_1" viewBox="0 0 606 317.7" width="555" height="350">
              <style>
                .f-choice-0{fill:#E6EFFD;} .f-choice-1{fill:#8498BC;} .f-choice-2{fill:#4AD1FD;} .f-choice-3{fill:#CAD3E3;} .f-choice-4{fill:#FFFFFF;} .f-choice-5{fill:#4E90F5;} .f-choice-6{fill:#5F72FB;} .f-choice-7{fill:#FFD277;} .f-choice-8{fill:#F55A2E;} .f-choice-9{fill:#016797;} .f-choice-10{fill:#92D1D7;} .f-choice-11{fill:#F4F2F2;} .f-choice-12{fill:#88ACE5;} .f-choice-13{fill:#6199DA;} .f-choice-14{fill:#F0F0F0;} .f-choice-15{fill:#C4DAF5;} .f-choice-16{fill:url(#SVGID_1_);} .f-choice-17{fill:url(#SVGID_2_);} .f-choice-18{fill:#262629;} .f-choice-19{fill:#3A5997;} .f-choice-20{fill:#404041;} .f-choice-21{fill:#4AD1FD;stroke:#3BB878;stroke-miterlimit:10;} .f-choice-22{fill:#2E2E2E;} .f-choice-23{fill:none;stroke:#3BB878;stroke-linecap:round;stroke-linejoin:round;stroke-miterlimit:10;} .f-choice-24{fill:#E8F9EF;stroke:#3BAD69;stroke-miterlimit:10;} .f-choice-25{fill:#FFCF76;}
              </style>
              <g class="f-choice-a coding-svg" id="f-choice-a">
                    <path d="M579.7 170.2h-267c-3.3 0-6-2.7-6-6v-51c0-3.3 2.7-6 6-6h267c3.3 0 6 2.7 6 6v51c0 3.3-2.7 6-6 6z" class="f-choice-0"/>
                    <path d="M448.2 125.2h-67c-1.4 0-2.5-1.1-2.5-2.5s1.1-2.5 2.5-2.5h67c1.4 0 2.5 1.1 2.5 2.5 0 1.3-1.1 2.5-2.5 2.5z" class="f-choice-1"/>
                    <path d="M425.7 157.2h-44.5c-1.4 0-2.5-1.1-2.5-2.5s1.1-2.5 2.5-2.5h44.5c1.4 0 2.5 1.1 2.5 2.5 0 1.3-1.1 2.5-2.5 2.5zm139.5-32h-22c-1.4 0-2.5-1.1-2.5-2.5s1.1-2.5 2.5-2.5h22c1.4 0 2.5 1.1 2.5 2.5 0 1.3-1.1 2.5-2.5 2.5z" class="f-choice-2"/>
                    <path d="M394.2 139.2h-13c-1.4 0-2.5-1.1-2.5-2.5s1.1-2.5 2.5-2.5h13c1.4 0 2.5 1.1 2.5 2.5 0 1.3-1.1 2.5-2.5 2.5zm27 0h-13c-1.4 0-2.5-1.1-2.5-2.5s1.1-2.5 2.5-2.5h13c1.4 0 2.5 1.1 2.5 2.5 0 1.3-1.1 2.5-2.5 2.5z" class="f-choice-3"/>
                    <path d="M338.2 158.5h17c1.8 0 3.4-1.2 4.3-2.7 3.5-5 6.2-10.6 9.3-15.9.3-.5.6-1.1.8-1.7.6-2.1-1-4-2-5.7-.9-1.5-1.7-3-2.6-4.5-1.3-2.2-2.6-4.4-3.8-6.7-.9-1.7-1.8-4-3.6-4.9-.9-.5-2-.5-3.1-.5-5.9-.1-11.8 0-17.6 0-1.7 0-3.1.2-4.4 1.5-1.5 1.6-2.4 3.8-3.5 5.7-1 1.8-2.1 3.6-3.1 5.4-.9 1.6-1.8 3.1-2.7 4.7-.8 1.3-1.8 2.7-1.6 4.3.1.9.5 1.8.9 2.6 1.6 3.1 3.4 6.1 5.2 9.2.9 1.5 1.8 3.1 2.8 4.6.7 1.2 1.4 3 2.5 3.9.9.8 2.3.8 3.5.8.6-.1 1.1-.1 1.7-.1z" class="f-choice-4"/>
                    <path d="M339.1 127.6c1.1 0 2 .3 2.5.9.4.4.5.9.6 1.5v3.6c0 .5 0 1 .3 1.4.2.3.4.5.4.7s-.3.4-.7.7c-.1.1-.3.2-.5.3s-.3.2-.3.2c-.1 0-.2-.2-.4-.4-.1-.1-.2-.3-.4-.4 0 0-.1-.1-.2-.1l-.1-.1-.2-.1-.2.1-.1.1c-.4.4-.8.7-1.3.8-.4.1-.7.2-1.1.2-1.1 0-1.9-.6-2.2-1.4-.3-.7-.3-1.6 0-2.3s.8-1.2 1.5-1.4c.5-.2 1.1-.3 1.7-.4.1 0 .3 0 .5-.1h.2c.2 0 .5 0 .7-.2.1-.1.2-.4.2-.7 0-.7-.2-1.4-1.3-1.5h-.3c-.7 0-1.2.3-1.5 1-.1.2-.6.4-1 .4-.3 0-.5 0-.7-.1-.2-.2-.2-.3.1-.7 0-.1.1-.1.1-.2.9-1.2 2.2-1.8 3.7-1.8m-.5 8.2c.7 0 1.2-.7 1.3-1 .2-.4.4-.9.3-1.5v-.1c0-.2 0-.4-.1-.6-.1-.1-.3-.2-.6-.2-.8 0-1.8.1-2.2 1.1s-.3 1.8.6 2.2c.2 0 .5.1.7.1m.5-8.5c-1.4 0-2.9.6-3.5 1.7-.2.4-.7.9-.1 1.3.2.1.5.2.8.2.6 0 1.1-.2 1.3-.5.3-.6.7-.8 1.3-.8h.2c.8.1 1 .6 1 1.3 0 .8-.5.6-.9.7-.7.1-1.5.2-2.2.5-1.6.6-2.4 2.4-1.8 4 .4 1 1.3 1.6 2.5 1.6.4 0 .8 0 1.2-.2.6-.2 1.1-.6 1.5-1 .1.1.2.1.2.2.3.2.5.9.9.9.1 0 .3 0 .5-.2.6-.5 1.9-.8.7-2-.3-.4-.3-.9-.3-1.3v-3.5c0-.7-.2-1.2-.6-1.7-.6-.8-1.7-1.2-2.7-1.2zm-.5 8.2c-.1 0-.3 0-.5-.1-.8-.4-.8-1.2-.5-1.9.4-.8 1.2-1 2-1 .7 0 .2.6.3.7 0 .5 0 .9-.3 1.3-.2.6-.5 1-1 1zm20.6-5.1s.1.1.1.4v6.7c0 .3-.1.5-.5.6-.3.1-.6.2-.8.2-1.2.4-2.4.7-3.5 1.2-.2.1-.3.1-.4.1v-7c0-.4.1-.6.5-.7 1.8-.5 3.2-1 4.4-1.4 0-.1.1-.1.2-.1m0-.2c-.1 0-.2 0-.4.1-1.4.5-2.9 1-4.4 1.4-.5.1-.7.5-.7.9v6.6c0 .5 0 .8.4.8.1 0 .3 0 .5-.1 1.4-.5 2.9-1 4.3-1.4.4-.1.7-.3.7-.8V131c-.1-.6-.2-.8-.4-.8zm-19.3 11.9h.2c1.7.6 3.1 1 4.6 1.4.3.1.4.2.4.7v7.1s-.1 0-.3-.1c-1.2-.5-2.5-.8-3.7-1.2l-.8-.2c-.4-.1-.5-.2-.4-.6v-6.7c-.1-.3-.1-.3 0-.4m0-.3c-.3 0-.4.2-.4.6v6.7c0 .5.2.7.6.8 1.5.5 3 .9 4.4 1.4.2 0 .3.1.4.1.3 0 .3-.3.3-.7v-6.6c0-.4-.1-.7-.6-.9-1.5-.5-3-.9-4.5-1.4h-.2zm7.1-11.4s.1 0 .3.1c1.5.5 3.1 1 4.3 1.4.3.1.4.2.4.6v7.1h-.2c-1.4-.5-2.9-1-4.5-1.5-.3-.1-.4-.2-.3-.6v-6.6c-.1-.1-.1-.4 0-.5m0-.2c-.3 0-.3.3-.3.7v6.7c0 .4.1.7.5.8l4.5 1.5h.3c.2 0 .3-.2.3-.6v-6.8c0-.5-.1-.7-.6-.8-1.4-.4-2.9-.9-4.3-1.3-.1-.2-.3-.2-.4-.2zm5 11.9s.1.1.1.4v6.6c0 .4-.1.5-.5.7h-.2c-1.3.4-2.7.8-4 1.3-.2 0-.3.1-.4.1v-7c0-.4.1-.6.5-.7 1.4-.4 2.8-.8 4.3-1.4h.2m0-.3c-.1 0-.2 0-.4.1-1.4.5-2.9 1-4.3 1.4-.6.1-.7.5-.7.9v6.6c0 .5.1.7.3.7.1 0 .3 0 .5-.1 1.4-.5 2.8-.9 4.2-1.4.5-.1.7-.4.7-.9v-6.6c.1-.4 0-.7-.3-.7zm1-14v.3c1.3 0 2.8.3 4.5 1l-.6.2c-1.3.4-2.4.8-3.6 1.2h-.5c-1.2-.4-2.3-.7-3.5-1.1l-.6-.2c1.6-.7 3-1 4.3-1v-.4m0 0c-1.6 0-3.2.5-5 1.3 1.6.5 3.2 1 4.7 1.5h.7l4.8-1.5c-1.9-.8-3.6-1.3-5.2-1.3zm-7.2 12c1.4 0 2.9.3 4.5 1-1.5.8-2.7 1.1-4 1.1s-2.7-.3-4.7-1.1c1.4-.7 2.8-1 4.2-1m0-.3c-1.6 0-3.2.4-4.9 1.3 2.2.9 3.9 1.3 5.3 1.3 1.5 0 2.9-.5 4.6-1.4-1.7-.8-3.4-1.2-5-1.2z" class="f-choice-5"/>
                    <path d="M343.9 137.2c-1.1 1.1-2.8 1.8-4.8 1.8-1.2 0-2.4-.2-3.5-.7.9.2 1.9.3 2.7.3 1.9 0 3.7-.5 5.6-1.4m1-.8c-2.2 1.3-4.4 2-6.6 2-1.6 0-3.3-.4-5-1 1.6 1.3 3.7 1.9 5.7 1.9 2.5-.1 4.8-1 5.9-2.9z" class="f-choice-5"/>
                    <path d="M345.2 135.7c.2 0 .3 0 .4.1 0 0 .1.2 0 .4 0 .2 0 .4-.1.6 0-.3 0-.5-.2-.7s-.5-.2-.7-.2c.1-.1.4-.2.6-.2m0-.3c-.5 0-1.2.3-1.5.7h.8c.8 0 .7.3.7 1.6.6-.5.9-1.7.6-2-.2-.2-.4-.3-.6-.3zm-5.2-2.1c0 .5 0 .9-.3 1.3-.4.6-.9 1.2-1.7.7-.8-.4-.8-1.2-.5-1.9.4-.8 1.2-1 2-1 .7.1.4.7.5.9z" class="f-choice-5"/>
              </g>
              <g class="f-choice-b coding-svg" id="f-choice-b">
                    <path d="M579.7 89.2h-267c-3.3 0-6-2.7-6-6v-51c0-3.3 2.7-6 6-6h267c3.3 0 6 2.7 6 6v51c0 3.3-2.7 6-6 6z" class="f-choice-0"/>
                    <path d="M448.2 44.2h-67c-1.4 0-2.5-1.1-2.5-2.5s1.1-2.5 2.5-2.5h67c1.4 0 2.5 1.1 2.5 2.5 0 1.3-1.1 2.5-2.5 2.5z" class="f-choice-1"/>
                    <path d="M425.7 76.2h-44.5c-1.4 0-2.5-1.1-2.5-2.5s1.1-2.5 2.5-2.5h44.5c1.4 0 2.5 1.1 2.5 2.5 0 1.3-1.1 2.5-2.5 2.5zm139.5-32h-22c-1.4 0-2.5-1.1-2.5-2.5s1.1-2.5 2.5-2.5h22c1.4 0 2.5 1.1 2.5 2.5 0 1.3-1.1 2.5-2.5 2.5z" class="f-choice-6"/>
                    <path d="M394.2 58.2h-13c-1.4 0-2.5-1.1-2.5-2.5s1.1-2.5 2.5-2.5h13c1.4 0 2.5 1.1 2.5 2.5 0 1.3-1.1 2.5-2.5 2.5zm27 0h-13c-1.4 0-2.5-1.1-2.5-2.5s1.1-2.5 2.5-2.5h13c1.4 0 2.5 1.1 2.5 2.5 0 1.3-1.1 2.5-2.5 2.5z" class="f-choice-3"/>
                    <path d="M335.7 81h18.4c2 0 3.6-1.3 4.7-2.9 3.7-5.4 6.7-11.5 10-17.1.3-.6.7-1.2.9-1.8.6-2.3-1-4.3-2.1-6.2-.9-1.6-1.8-3.2-2.8-4.8-1.4-2.4-2.8-4.8-4.1-7.2-1-1.8-1.9-4.3-3.9-5.3-1-.5-2.2-.5-3.3-.6-6.3-.1-12.7 0-19 0-1.9 0-3.4.2-4.7 1.7-1.6 1.7-2.6 4.1-3.8 6.1-1.1 1.9-2.2 3.8-3.3 5.8-1 1.7-1.9 3.4-2.9 5-.8 1.4-1.9 2.9-1.7 4.6.1 1 .6 1.9 1 2.8 1.7 3.4 3.6 6.6 5.6 9.9 1 1.7 2 3.3 3 4.9.8 1.3 1.5 3.2 2.7 4.2 1 .8 2.4.8 3.7.8.5.1 1.1.1 1.6.1z" class="f-choice-4"/>
                    <path d="M341.1 48.3l4.2 2-5.9 2.3-3.9-2.4h-.1l5.7-1.9m11.2 9.1l3.2 1.8-.1.1-2.5 1.8-3.2-2h-.1l2.7-1.7m-8.3.5l.1.1 1.6 1.1-4.9 2.8-3.4-2.8-.2-.2 1.2-.6.1-.1 1.5 1.2.3.2v.1h.1l.1.1v-.2h.1l3.4-1.7m4 2.2l1.1.7.2.1.1.1 1.9 1.3-.1.1-3.2 2.3-1.4-1.1-.2-.2-.1-2.2.1-.1 1.6-1m-3.1 4.9l1.2 1-.1.1-4.2 3-3-2.9-.2-.2.7-.5h.1l1.7 1.6.3.3v.1h.1l.2.1v-.2l.1-.1 3.1-2.3m-3.7-17c-.1 0-.1 0 0 0l-6.1 1.9 1.3 6.6v.1l1.9 1.4-1.3.7 1 4.9v.1l1.3 1.2-.8.5.8 3.8v.1l3.2 3.4 4.1-3.3v-.1l-.1-2.2 1.3 1.2 3.3-2.6v-.1l.1-1.6 1 .7 2.7-2.1v-.1l.5-3.5-3.4-1.9h-.2l-2.9 1.8v1.5l-1.2-.8h-.2l-1.7 1-.1-1.7-1.8-1.2 1.6-.8.1-.1-.3-6.5-4.5-2.1.4-.2zm-1 11.3l-3.6-2.8-1.3-6.1 3.9 2.4 1 6.5zm.3.1l-1-6.6 6-2.3.3 6.2-5.3 2.7zm12 5.2l-.9-.7.1-1.7-2-1.3v-1.4l3.2 2-.4 3.1zm-11.2 2.2l-3.2-3-.9-4.5 3.4 2.9.7 4.6zm.3.1l-.7-4.7 4.9-2.8.2 4.6-4.4 2.9zm11.2-2.4l.3-3.2 2.5-1.8-.4 3.1-2.4 1.9zm-4.7 3.7v-3.4l3.2-2.3-.2 3.3-3 2.4zm-.3 0l-1.3-1.1V66l-1.2-1 1.1-.7v-.4l1.4 1.1v3.2zm-5.4 4.6l-.5-3.5 4.2-3 .1 3.4-3.8 3.1zm-.3-.2l-2.8-3-.7-3.3 3 3 .5 3.3z" class="f-choice-5"/>
                    <path d="M342.3 73l-.6-3.8 4.5-3.2.2 3.8-4.1 3.2zm-.2-3.7l.5 3.1 3.6-2.9-.1-3.1-4 2.9zm-1.7-9.6l-1-6.9 6.3-2.4.3 6.5-5.6 2.8zm-.7-6.8l.9 6.3 5-2.6-.3-5.9-5.6 2.2zm1.8 14.3l-.7-5.1 5.2-3 .2 4.9h-.1l-4.6 3.2zm-.4-4.9l.6 4.4 4.2-2.8-.2-4.2-4.6 2.6z" class="f-choice-5"/>
                    <path d="M348 68.5l-1.6-1.4v-1.2l-1.3-1.1 1.2-.9v-.6l1.7 1.3v3.9zm-1.4-1.5l1.1.9v-3l-1.2-.9c0 .1 0 .1-.1.2l-.9.7 1.1.9V67z" class="f-choice-5"/>
                    <path d="M348 68.5l-.1-3.7 3.5-2.6-.2 3.7-3.2 2.6zm.2-3.5v3l2.7-2.1.2-2.9-2.9 2z" class="f-choice-5"/>
                    <path d="M342.6 73.2h-.3l-3.3-3.4s-.1-.1-.1-.2l-.8-4 .1-.1.8-.5-1.1-1.1s-.1-.1-.1-.2l-1-5.1v-.1l1.2-.5-1.6-1.3c-.1 0-.1-.1-.1-.2l-1.3-6.6v-.1h.2l6.2-1.9 4.6 2.2v.2l.3 6.5c0 .1-.1.2-.1.2l-1.4.7 1.6 1.1.1 1.6 1.5-.9h.1c.1 0 .1 0 .2.1l.9.6v-1.3l3-1.8h.3l3.6 2v.1c.1.1.2.1.2.2h-.1.1l-.5 3.5c0 .1-.1.2-.1.2l-2.8 2.2h-.2l-.8-.6-.1 1.4c0 .2-.1.2-.1.2l-3.3 2.6h-.2l-1.1-1 .1 1.9c0 .1 0 .2-.1.2l-4.5 3.2zm-.1-.3l4.1-3.2-.1-2.6 1.6 1.3 3.3-2.6.1-1.9 1.2.8 2.7-2.1.5-3.5s-.1 0-.1-.1h-.1l-3.3-1.8h-.1l-2.8 1.7-.1 1.7-1.4-1-1.8 1.1-.1-1.9-1.9-1.3 1.8-.9-.3-6.4-4.4-2.1-6 1.9 1.3 6.5 2 1.6-1.5.7 1 4.9 1.4 1.4-1 .6v.1l.8 3.8 3.2 3.3z" class="f-choice-5"/>
                    <path d="M340.3 59.7l-3.9-3v-.1l-1.3-6.5 4.3 2.6.9 7zm-3.6-3.2L340 59l-.9-6.1-3.6-2.2 1.2 5.8zm15.9 8.3l-1.2-.8.1-1.7-2-1.4V59l3.5 2.2-.4 3.6zm-.9-1l.7.5.3-2.9-2.9-1.8v1.1l2 1.4v.1l-.1 1.6zM339 67.1l2.4 2.3.4 2.4-2.2-2.4-.6-2.3m-.4-.8l.7 3.3 2.8 3-.5-3.3-3-3zm2.8.8l-3.5-3.3-1-4.9 3.8 3.2.7 5zm-3.2-3.4l2.8 2.7-.6-4.1-3.1-2.6.9 4z" class="f-choice-5"/>
                    <path d="M352.6 64.8l.3-3.6 2.8-2.1-.5 3.5-2.6 2.2zm.6-3.4l-.2 2.8 2.1-1.6.4-2.7-2.3 1.5z" class="f-choice-5"/>
              </g>
                <g class="f-choice-babbuls">
                    <path d="M398.6 254.4c.6-1.3 1.2-1.2 1.2.3s1.1 3.2 2.4 3.9c1.3.6 1.2 1.2-.3 1.2s-3.2 1.1-3.9 2.4c-.6 1.3-1.2 1.2-1.2-.3s-1.1-3.2-2.4-3.9c-1.3-.6-1.2-1.2.3-1.2s3.2-1.1 3.9-2.4z" class="f-choice-7 lg-logo-3"/>
                    <path d="M216.4 52.7c.6-1.2 1-1.1 1 .2s.9 2.8 2.1 3.4c1.2.6 1.1 1-.2 1s-2.8.9-3.4 2.1c-.6 1.2-1 1.1-1-.2s-.9-2.8-2.1-3.4c-1.2-.6-1.1-1 .2-1 1.3.1 2.9-.9 3.4-2.1z" class="f-choice-8 ci-dot"/>
                    <path d="M44 110.4c.5-1.1.9-1 .9.2s.8 2.5 1.9 3.1c1.1.5 1 .9-.2.9s-2.5.8-3.1 1.9c-.5 1.1-.9 1-.9-.2s-.8-2.5-1.9-3.1c-1.1-.5-1-.9.2-.9s2.6-.8 3.1-1.9z" class="f-choice-9 ci-dot"/>
                    <path d="M380.9 209c.5-1.1.9-1 .9.2s.8 2.5 1.9 3.1 1 .9-.2.9-2.5.8-3.1 1.9c-.5 1.1-.9 1-.9-.2s-.8-2.5-1.9-3.1-1-.9.2-.9c1.3 0 2.6-.8 3.1-1.9z" class="f-choice-10 lg-logo-1"/>
                    <path d="M271 50c-.2 0-.4 0-.6-.1-.7-.2-1.2-.6-1.6-1.2-.4-.6-.5-1.3-.3-2s.6-1.2 1.2-1.6c1.2-.7 2.8-.3 3.6.9.4.6.5 1.3.3 2s-.6 1.2-1.2 1.6c-.5.3-.9.4-1.4.4zm-1.7-1.6c.3.4.7.8 1.2.9.5.1 1 0 1.5-.2.4-.3.8-.7.9-1.2s0-1-.2-1.5c-.5-.9-1.7-1.2-2.7-.7-.9.6-1.2 1.8-.7 2.7z" class="f-choice-21 built-bbule-1"/>
                    <g id="XMLID_283_" class="ci-dot">
                        <g id="XMLID_291_">
                        <path id="XMLID_295_" d="M541.8 202.2c-.2 0-.4-.1-.6-.2-.3-.3-.3-.8 0-1.1l1.6-1.6c.3-.3.8-.3 1.1 0 .3.3.3.8 0 1.1l-1.6 1.6c-.1.2-.3.2-.5.2z" class="f-choice-2"/>
                        <path id="XMLID_294_" d="M538 206.1c-.2 0-.4-.1-.6-.2-.3-.3-.3-.8 0-1.1l1.6-1.6c.3-.3.8-.3 1.1 0 .3.3.3.8 0 1.1l-1.6 1.6c-.1.1-.3.2-.5.2z" class="f-choice-2"/>
                        </g>
                        <g id="XMLID_285_">
                        <path id="XMLID_289_" d="M539.6 202.2c-.2 0-.4-.1-.6-.2l-1.6-1.6c-.3-.3-.3-.8 0-1.1.3-.3.8-.3 1.1 0l1.6 1.6c.3.3.3.8 0 1.1-.1.2-.3.2-.5.2z" class="f-choice-2"/>
                        <path id="XMLID_287_" d="M543.4 206.1c-.2 0-.4-.1-.6-.2l-1.6-1.6c-.3-.3-.3-.8 0-1.1.3-.3.8-.3 1.1 0l1.6 1.6c.3.3.3.8 0 1.1-.1.1-.3.2-.5.2z" class="f-choice-2"/>
                        </g>
                    </g>
                    <path d="M421.2 127.7c-.1 0-.1.1 0 0-.1.1-.1.2 0 .2v-.2" class="f-choice-22"/>
                    <path d="M124.2 28.5v-4.6m2.3 2.3h-4.6" class="f-choice-23"/>
                    <path d="M242.9 115.9h4.4v4.4h-4.4z" class="f-choice-24 ci-dot"/>
                    <ellipse cx="48" cy="35.1" transform="rotate(-45 48 35.056)" class="f-choice-25 built-bbule-1" rx="6.1" ry="6.1"/>
                </g>
              <path d="M151.8 220.6c1.5 2.9 16.4 18.4 16.4 18.4s52.5.2 56-1.9c3.6-2 15.4-9.6 16.4-9.1s13.3 2.1 13.3 2.1 14.2 9.3 12.4 11.5c-1.7 2.1-7.5-1.4-7.5-1.4l-5.5-3.6-5.7-.3 3.8 8.5s-1.2 3.6-1.7 3.8-2.6.2-2.6.2l-1.5 2.3-3.7.2s-1.3 2.1-3.2 2.3c-1.8.2-11.3.9-13.5-.1s-6.3-2.1-6.3-2.1-56.2 7.9-58 6.8-19.3-19.8-20.4-18.6c-1.2 1.1 11.3-19 11.3-19z" class="f-choice-11"/>
              <path d="M162.6 229.3c.8.8-10.6 23.7-10.6 23.7s-28.8-31.4-28.5-32.6c.2-1.2 1.6-30.5 1.6-30.5l37.5 39.4z" class="f-choice-12"/>
              <path d="M105 178c1.6.8 16.1 6.6 20 11.9 9.4 12.9-5.9 65 .6 115.2H68.8c-11.1-69.3-1-116.2 36.2-127.1z" class="f-choice-13"/>
              <path d="M130.2 167.1c-3.9 13.7-5.4 24.9-4.5 33.1-4.6.7-30.6-15.7-23.2-19.9 4.3-2.5 6.8-6 7.5-23.4l20.2 10.2zm17.4 64.7c1.5 2.7 9.5 15.2 9.5 15.2s53.1 1.8 56.4-.3c3.3-2.1 14.1-9.8 15.1-9.5 1 .4 12.8 1.4 12.8 1.4s13.9 8.1 12.4 10.2c-1.5 2.1-7.1-1-7.1-1l-5.4-3.1h-5.4c2.8.7 5.8 1.7 6.3 1.9.8.3 10.9 9.4 10.9 9.6s.3 1-2.6 1.2c-2.9.2-3.7-.9-4-1s-6.3-4.6-6.3-4.6l-4.3-1.5 8.2 5.5 5.2 5.7c-2.1 3.1-7.8-1-9.4-3.3-.8-.6-5.8-2.5-5.6-1.5.6 4.6-2.7 4.3-6.1 4.8-1.7.3-10.7 1.4-12.8.6-2.1-.9-6.1-1.6-6.1-1.6s-52.1 9.7-57.9 7.3c-5.8-2.4-14-19.4-15-18.2-1.1 1.2 11.2-17.8 11.2-17.8z" class="f-choice-14"/>
              <path d="M95 185.6c1.5-1.6 5.5-9.5 16-.8s43.7 53.7 43.7 53.7l-15.2 18.8s-35.8-40.1-42.2-48.6c-6.4-8.5-2.3-23.1-2.3-23.1z" class="f-choice-15"/>
              <linearGradient id="SVGID_1_" x1="130.4" x2="558.8" y1="42.45" y2="42.45" gradientUnits="userSpaceOnUse" gradientTransform="matrix(1 0 0 -1 0 320)">
                <stop offset="0" stop-color="#FFF"/>
                <stop offset="1" stop-color="#EFF5FB"/>
              </linearGradient>
              <path d="M130.4 272.5h428.4v10.1H130.4z" class="f-choice-16"/>
              <linearGradient id="SVGID_2_" x1="130.4" x2="558.8" y1="47.5" y2="47.5" gradientUnits="userSpaceOnUse" gradientTransform="matrix(1 0 0 -1 0 320)">
                <stop offset="0" stop-color="#FFF"/>
                <stop offset="1" stop-color="#EFF5FB"/>
              </linearGradient>
              <path d="M130.4 269.1h428.4v6.8H130.4z" class="f-choice-17"/>
              <path d="M313.6 189.5l-35.5 76c-.7 1.4-2.1 1.9-3.2 1-1.1-.8-1.5-2.7-.8-4.1l35.5-76c.7-1.4 2.1-1.9 3.2-1 1.1.9 1.4 2.7.8 4.1z" class="f-choice-12"/>
              <path d="M313.6 189.5l-35.5 76c-.7 1.4-2.1 1.9-3.2 1 0 0-.1 0-.1-.1l38-81c1.1.9 1.4 2.7.8 4.1z" class="f-choice-15"/>
              <path d="M262.2 262.5h6.2v1.3h-6.2zm-6.6 0h6.2v1.3h-6.2zm-6.7 0h6.2v1.3h-6.2zm-6.6 0h6.2v1.3h-6.2z" class="f-choice-12"/>
              <path d="M205.3 263.2h69.4c1.3 0 2.3 1.3 2.3 3 0 1.6-1 3-2.3 3h-69.4c-1.3 0-2.3-1.3-2.3-3s1-3 2.3-3z" class="f-choice-15"/>
              <path d="M220.5 265.5h6.2v2h-6.2zm-8.2 0h6.2v2h-6.2zm55.3-.7h-36.4c-.3 0-.6.3-.6.7v1.7c0 .4.3.7.6.7h36.4c.3 0 .6-.3.6-.7v-1.7c0-.4-.2-.7-.6-.7zm-128.1-7.5s-6.2-6.9-13.8-15.6c-1.6 19.2-2.9 41.5-.1 63.4h-24.5c1.3-17.8 4.3-85.4 2.9-88.3-.4-2.1 24.7 24.8 31.3 30.5l1.5 1.2c2.7 1.9 5.4 2.6 7.6 2.6l-3.5 4.4-1.4 1.8z" class="f-choice-12"/>
              <path d="M34.1 165.1c-10.4-2.5-19.4.7-20.5 12.2-.1 1.1 24.2 59.4 25.9 83.3.7 9.4 4.3 28.9 6.2 44.5H74c-5-35.9-11.3-133.2-39.9-140z" class="f-choice-15"/>
              <path d="M14.5 172.8c-.5 1.3-.8 2.8-.9 4.5-.1 1.1 23.2 56.8 29.7 127.8h15.3c-3.8-38.6-8.7-120.7-44.1-132.3z" class="f-choice-12"/>
              <path d="M60.4 275.6c4.5-.3 123-4.5 95.7 16.5-2.5 2-22.3-3.5-45-3.9-26.5-.4-56.5 4.1-58.8 3.9-4.2-.4-7.6-4.4-5.7-10.8 1.9-6.3 13.8-5.7 13.8-5.7z" class="f-choice-12"/>
              <path d="M127.2 282.9c14.7 1.3 27.2 3 33 4-.2 1.5-1.5 3.3-4 5.2-.2.2-.6.3-1.1.4-2.7-1.1-4.9-1.8-5-.2-5.2-.6-13.2-2-22.6-3-5.1-.5-10.7-1-16.4-1h-3.9c-12.9 0-26.2 1.1-36.5 2.1-.2 0-.4 0-.6.1-9.8 1-16.8 1.9-17.8 1.8-1.7-.2-3.2-.9-4.3-2.1 4-3.8 11.6-6.1 21.1-7.4.4 0 .7-.1 1.1-.1 11-1.4 24.4-1.5 37.5-.9 6.7.1 13.3.5 19.5 1.1z" class="f-choice-13"/>
              <path id="XMLID_313_" d="M100.6 148.1c.1.2 1.1 4.1 1.1 4.1l4.1-1-.2-.6c2 .7 6.2-.6 6.8-.8 2-.9 3.8-2.1 3.8-2.1l-.2-.5s.1-.6-.6-.5c-6.8 1.1-8.7-.5-10.1-.7-.2-.1-4.7 2.1-4.7 2.1z" class="f-choice-18"/>
              <path id="XMLID_312_" d="M128.7 66.1c27.4 0 55.8 22.1 50.7 51.7-1.4 8.3-9.5 11.7-10.2 15.8 3.8 11.1 8.8 10.9 8 15.3-.4 1.9-5.3 2.5-9 2.7-5 16.2-21.8 23.3-39.5 23.3-27.5 0-49.7-24.4-49.7-54.4s22.3-54.4 49.7-54.4z" class="f-choice-14"/>
              <path id="XMLID_310_" d="M191 89c5.1 8.4.9 21.7.9 19.6 0-1.7-3.9-6.6-7.4-9.7-.1.6-.2 1.3-.4 2.1-2 6.7-11.1 9.4-11.1 9.4s-.1-1.6-.5-6.1c-.2-2-1.2-3.4-2.3-4.4-.8.1-1.7.1-2.6.2-.3 1-1.5 2.4-4.5 4-7 3.9-15.9 5-14.9 5s7.2-2.8 4.4-8.5c-3.2 0-6.2-.1-8.7-.4-10.6-1-15.7 1.4-20.2 6.1-4.4 4.8-6.8 31.1-8.5 30.4s-6.5-2-6.5-2 5.5-17.8 4.4-24.6c-1-6.8-3.8-9.6-13-6.5-13.8 4.6-10.3 21.8-3.1 31.4 0 0-2.4 15.6-4.7 17.8-2.3 2.2-8 4.1-7.1 3.7.9-.3 1-5.5 1-5.5l-4.3 2s-1.2-5.6-.5-6.8-5.1-19.5-6.1-31.8c-2-23.9 9.6-51 30.5-45.3 12.3-10.8 77-9.5 85.2 19.9z" class="f-choice-19"/>
              <path id="XMLID_307_" d="M176.1 126.5l-1.8-.7-1.4 3.5c-10.3-4-61.4-23.9-62.6-23.2-1.4.8 0 2.4 0 2.4L171 134l-6.2 15.3 1.8.7 8.1-20 1.4-3.5z" class="f-choice-20"/>
              <path id="XMLID_303_" d="M102.1 136.7c7.2 0 13.1-8.3 13.1-18.4s-5.9-18.4-13.1-18.4S89 108.2 89 118.3s5.9 18.4 13.1 18.4z" class="f-choice-14"/>
              <path id="XMLID_302_" d="M105.7 106.5c-.9-.1-6-1.1-9.1 2.6-3.2 3.7-2.6 14.4-.2 17.5 2.5 3.1 6.9 4.4 10 2.4s4.2-4.4 1.6-6.1-4.6-3.3-3.8-4.7c.9-1.4 2.3-.9 3.4-2 1.1-1.2.4-4.6-.3-7.2-.7-2.7-1.6-2.5-1.6-2.5z" class="f-choice-15"/>
              <path id="XMLID_298_" d="M176.2 124.8c6.5-5.8-15.9-8.3-17.7-5.7 7 1 12 1.6 17.7 5.7z" class="f-choice-19"/>
            </svg>