<svg xmlns="http://www.w3.org/2000/svg" id="Layer_1" viewBox="0 0 667 564">
          <style>
            .c-database-0{fill:#FACADB;} .c-database-1{fill:#F7DCD2;} .c-database-2{fill:#FFF6E7;} .c-database-3{fill:#FFF1C4;} .c-database-4{fill:#F3F0EF;} .c-database-5{fill:#E49800;} .c-database-6{fill:#FFFFFF;} .c-database-7{fill:#CBA477;} .c-database-8{fill:#3A729C;} .c-database-9{fill:#0E0E0E;} .c-database-10{fill:#363636;} .c-database-11{fill:#4173A1;} .c-database-12{fill:#F4F5F7;} .c-database-13{fill:#396C9D;} .c-database-14{fill:#396D9D;} .c-database-15{fill:#3A6D9D;} .c-database-16{fill:#3B6E9E;} .c-database-17{fill:#EB5195;} .c-database-18{fill:#2FAACA;} .c-database-19{fill:#054F82;} .c-database-20{fill:#FAFBFC;} .c-database-21{fill:#FDFDFE;} .c-database-22{fill:#045285;}
          </style>
          <path d="M512 528h-45c-1.6 0-3-1.3-3-3v-46c0-1.6 1.4-3 3-3h45c1.7 0 3 1.4 3 3v46c0 1.7-1.3 3-3 3zm-311-86h-30c-1.6 0-3-1.4-3-3v-31c0-1.6 1.4-3 3-3h30c1.6 0 3 1.4 3 3v31c0 1.6-1.4 3-3 3z" class="c-database-0"/>
          <path d="M335 406h-46c-1.6 0-3-1.4-3-3v-46c0-1.6 1.4-3 3-3h46c1.6 0 3 1.4 3 3v46c0 1.6-1.4 3-3 3z" class="c-database-1 lg-logo-1"/>
          <path d="M117 483H87c-1.7 0-3-1.4-3-3v-29c0-1.6 1.3-3 3-3h30c1.7 0 3 1.4 3 3v29c0 1.6-1.3 3-3 3z" class="c-database-2 lg-logo-2"/>
          <path d="M258 548h-28c-1.6 0-3-1.3-3-3v-28c0-1.7 1.4-3 3-3h28c1.6 0 3 1.3 3 3v28c0 1.7-1.4 3-3 3z" class="c-database-3 lg-logo-3"/>
          <path d="M82 248H53c-1.7 0-3-1.4-3-3v-27c0-1.6 1.3-3 3-3h29c1.7 0 3 1.4 3 3v27c0 1.6-1.3 3-3 3zM277 97h-29c-1.6 0-3-1.3-3-3V65c0-1.7 1.4-3 3-3h29c1.6 0 3 1.3 3 3v29c0 1.7-1.4 3-3 3zm369-13h-45c-1.7 0-3-1.3-3-3V31c0-1.6 1.3-3 3-3h45c1.7 0 3 1.4 3 3v50c0 1.7-1.3 3-3 3z" class="c-database-4 lg-logo-6"/>
          <path d="M604 232h-60c-1.7 0-3-1.4-3-3v-63c0-1.6 1.3-3 3-3h60c1.7 0 3 1.4 3 3v63c0 1.6-1.3 3-3 3z" class="c-database-2 lg-logo-4"/>
          <path d="M360 452h60c1.6 0 3-1.4 3-3v-65c0-1.6-1.4-3-3-3h-60c-1.6 0-3 1.4-3 3v65c0 1.6 1.4 3 3 3z" class="c-database-3 lg-logo-9"/>          
          <g class="lg-logo-4">
            <path d="M488 411h-86c-5.5 0-10-4.5-10-10v-81c0-5.5 4.5-10 10-10h86c5.5 0 10 4.5 10 10v81c0 5.5-4.5 10-10 10z" class="c-database-5"/>
            <path d="M410.4 370.5v9.9c0 .7-.2 1-.9 1-2-.1-1.7.2-1.7-1.7v-9.1c0-1.5.5-2 1.9-2.3 2-.3 2.9.2 3.7 2.1 1.2 2.7 2.3 5.4 3.5 8.1.1.3.3.5.5 1 .2-.3.3-.6.4-.8 1.3-2.8 2.5-5.6 3.8-8.5.9-2 3-2.6 4.8-1.5.7.4.8 1 .8 1.7v10.2c0 .6-.2.8-.8.8-2.3 0-1.8.2-1.8-1.7v-9.1c-.1 0-.2 0-.2-.1-.1.3-.3.5-.4.8-1.3 2.8-2.5 5.6-3.8 8.5-.8 1.7-2 2.2-3.8 1.7-.8-.2-1.2-.9-1.5-1.6-1.3-2.9-2.6-5.7-3.9-8.6-.1-.3-.3-.5-.4-.8 0-.1-.1-.1-.2 0zm61.6 10.3c.9.8 1.7 1.5 2.5 2.3-1.6.1-3.1.3-4.1-1.1-.7-.9-1.6-.8-2.6-.8-1.8 0-3.6 0-5.4-.2-1.8-.3-2.5-1.3-2.5-3.2v-5.7c0-2.2.8-3.3 3-3.5 2.6-.2 5.2-.2 7.8 0 2.1.2 3 1.4 3 3.5v5.1c.1 1.5.1 2.9-1.7 3.6zm-6.4-3.2c1.7-.3 3.2-.2 4.3 1.3l.1.1c.6.5 1 .4 1.3-.3.1-.3.2-.7.2-1v-5.5c0-1.3-.5-1.9-1.8-2-1.7-.1-3.4-.1-5 0-1.3.1-1.7.7-1.7 2v5.9c0 .8.4 1.4 1.1 1.5 1.2.2 2.4.2 3.5.3 0-.1.1-.2.1-.3-.8-.8-1.4-1.4-2.1-2zm26.6-11.9c-1.7.4-3.2.7-4.7 1 0 .1-.1.2-.1.3.5.4 1.1.9 1.7 1.3 1.6.9 2.7 2.2 3.9 3.6-1.9-1.1-3.8-2.1-5.5-3.3-.7-.5-1.2-1.3-1.9-2.1 1.8-1 3.5-1.1 5.4-1.1-.4-.4-.5-.6-.8-.8-1.8-1.3-3.6-2.5-5.8-3.1-.5-.2-1.1-.7-1.4-1.3-1-1.8-1.8-3.7-2.6-5.6-1.9-4.4-5-7.7-9.4-9.7-.9-.4-2.1-.4-3.1-.7-.4-.1-.8-.3-1.1-.4-1.1-.5-2.1-1.1-3.2-1.6-.8-.3-1.3.3-1 1.1.2.4.4.8.7 1.2 1.2 1.4 1.9 3 2.5 4.6.4 1.2 1.1 2.3 1.8 3.4.4.7.3 1.3.1 1.9-.6 1.6-.9 3.3-.6 4.9.2.9.5 1.7.8 2.6.1.3.5.5.9.9.4-1.8.2-3.6 1.6-4.7 1.2 2.2 2.5 4.5 3.6 6.7-1.5-1-2.6-2.6-3.3-4.4h-.2c-.1.5-.2 1.1-.3 1.6-.1.6-.2 1.3-.9 1.5-.8.2-1.3-.2-1.7-.8-1.3-1.8-1.6-3.9-1.3-6.1.1-1 .5-2 .7-3 .1-.2.1-.6-.1-.8-1.1-1.3-1.7-2.9-2.2-4.5-.4-1.3-1-2.3-1.8-3.3-.4-.5-.8-1.1-1-1.7-.5-1.3.3-2.4 1.7-2.4s2.6.8 3.8 1.5c.5.3 1.1.5 1.7.6 1.2.4 2.5.5 3.5 1 3.4 1.8 6.1 4.3 8.1 7.7.8 1.4 1.4 2.9 2 4.3.1.2.2.4.3.7.8 2.1 2 3.7 4.3 4.5 1.7 1 3.4 2.5 4.9 4.5zm-62.4 6.7h2.7v5.8c0 .9.4 1.4 1.3 1.5 2.2.1 4.4 0 6.6 0 0-.4.1-.8.1-1.1v-5.5c0-.5.2-.8.7-.7h1.9c0 .4.1.8.1 1.2v8.6c0 1.2-.5 2-1.5 2.4-1 .4-2.1.6-3.2.7-2.5.1-5.1 0-7.6 0-.7 0-.9-.2-.9-.9 0-.8.3-.9 1-.8h7.9c1.6-.2 1.9-.6 1.6-2.3h-1.4c-2.1-.1-4.1 0-6.2-.2-.7 0-1.4-.4-2-.8-.5-.4-.9-1-1-1.5-.2-2.2-.1-4.3-.1-6.4zm20.5 8.8h-4.1c-.6 0-.7-.3-.7-.8 0-.6.2-.8.8-.8h7c1.8-.2 2.5-1.5 1.8-3.1-.3-.8-1.1-.9-1.8-.9-1.1 0-2.3.1-3.4 0s-2.2-.4-3.2-.8c-.8-.3-1.3-1.1-1.2-2.1v-.2c-.3-3 1.3-3.9 4-4 2.6-.1 5.1 0 7.7 0 .7 0 .8.3.8.8 0 .6-.1.9-.8.9h-7.1c-1.9 0-2.8 1.6-1.7 3.2.3.4.9.7 1.5.7 1.2.1 2.5-.1 3.7.1 1 .1 2 .4 2.9.7.9.3 1.5 1.1 1.3 2.1v.7c0 2.3-1.1 3.5-3.5 3.6-1.3-.1-2.6-.1-4-.1zm25.6-7.4v-4.5c0-.7.2-.9.9-.9 2 .1 1.7-.2 1.7 1.7v7.6c0 1.3.3 1.7 1.6 1.8 1.6.1 3.1.1 4.7.1h2.9c.5 0 .6.3.6.7 0 .4.1.9-.5.8-3 0-6 0-9-.2-2-.2-2.8-1.3-2.8-3.4-.1-1.2-.1-2.4-.1-3.7z" class="c-database-6"/>
            <path d="M469 348.1c-.4-.6-.7-1.1-1-1.6.5-.4.8-.1 1.1.3.3.4.4.9-.1 1.3z" class="c-database-6"/>
          </g>
          <g class="lg-logo-3">
            <path d="M164 405H84c-5.5 0-10-4.5-10-10v-86c0-5.5 4.5-10 10-10h80c5.5 0 10 4.5 10 10v86c0 5.5-4.5 10-10 10z" class="c-database-7"/>
            <path d="M104.7 380.7c-.2-.3-.5-.2-.7-.3-2.7-1-4.2-4.2-3.2-7 .9-2.7 3.9-4.3 6.6-3.4 1 .3 1.7.9 2.6 1.8v-1c0-.8.3-1 1.1-.8.3.1.2.3.2.5v9.4c0 .5-.3.5-.6.5s-.8.2-.7-.5v-1.3c-.9 1.1-2 1.7-3.2 2.1h-2.1zm-2.9-5.4c0 2.3 1.8 4.2 4.1 4.2s4.1-1.9 4.1-4.2c0-2.4-1.8-4.2-4.1-4.2s-4.1 1.8-4.1 4.2zm26.4 5.4c-.2-.3-.5-.2-.7-.3-2.7-1-4.2-4.2-3.2-7 .9-2.7 3.9-4.3 6.6-3.4.5.2.9.4 1.3.7.4.3.7.7 1.2 1.1v-.8c0-.9 0-.9.9-.9.4 0 .4.2.4.5v9.4c0 .5-.3.5-.6.5s-.8.2-.7-.5v-1.3c-.9 1.1-2 1.7-3.2 2.1-.7-.1-1.3-.1-2-.1zm1.2-9.6c-2.3 0-4.1 1.8-4.1 4.2 0 2.3 1.8 4.2 4.1 4.2s4.1-1.9 4.1-4.2c0-2.4-1.8-4.2-4.1-4.2zm35.6-2.4c-.2.1-.2.3-.4.4-.6.7-1.7.8-2.4.2-.7-.6-.7-1.9-.1-2.5.7-.6 1.8-.5 2.5.2.1.2.2.4.4.5v1.2zm-.3-.6c0-.7-.6-1.3-1.3-1.4-.8 0-1.4.6-1.4 1.3 0 .7.6 1.3 1.3 1.4.8.1 1.4-.5 1.4-1.3zm-22-11.7c-1.7 1.1-3.4 1.3-5.2.9-1-.3-1.9-.7-2.5-1.5-.2-.3-.5-.3-.8-.2-.6.3-1.2.7-1.6 1.3-.2.3-.5.6-.7.9-1.2 2.4-3.3 3.6-5.8 4.3-1.3.3-2.5.8-3.9.8-.2 0-.4.1-.5-.1-.1-.2.1-.4.2-.5.8-1.2 1.8-2.3 2.5-3.6.9-1.6.9-1.6-.8-1.8-2.9-.4-5.8-.9-8.7-1-1.7-.1-3.3 0-5 .2-1.8.3-3.4 1.2-4.8 2.2-2 1.5-4.1 2.6-6.5 3.1-1.4.3-2.9.4-4.3.1-.1 0-.2 0-.4-.1-.5-.2-1-.3-1.2-.8-.1-.6.4-.9.8-1.1.4-.3.9-.5 1.3-1-1 .1-1.9.1-2.7-.6-.3-.3-.3-.5 0-.8 1.1-1 2.4-1.3 3.8-1.5 1.5-.2 3-.3 4.5-.4 1.2-.1 2.2-.7 2.9-1.7.2-.3.5-.6.7-1 2.7-4.6 7-6.9 11.8-8.2 2.6-.7 5.2-1.1 7.7-1.9 3.5-1.1 6.2-3.2 8.2-6.3 1.3-2.1 2.5-4.2 4-6.2 1.3-1.8 2.9-3.4 5-4.3 1.5-.6 3.2-.7 4.8-.9 1.2-.2 2.4-.4 3.6-.9 1.4-.6 2.2 0 2.2 1.5s-.5 2.8-1.6 3.9c-.7.7-1.4 1.4-2.2 1.9-2.4 1.6-3.6 3.8-4.1 6.7-.6 3.9-1.7 7.7-2.9 11.5-.6 2-.4 3.9.4 5.8.5.4 1 .9 1.8 1.3zm-8.4-5.3c.3.3.4.7.4 1 0 .5.1.9.1 1.4 0 .4.2.5.5.2.7-.5 1.3-1 1.9-1.6 1.7-2 2.7-4.3 3.5-6.8 1.1-3.3 1.7-6.8 2.5-10.2.4-1.7 1.2-2.9 2.6-3.9.8-.5 1.5-1.1 2.3-1.6.9-.7 1.7-1.5 2.1-2.6.2-.6.2-1-.5-1-.2 0-.6-.1-.7-.2-.5-1.1-1.3-.5-2.1-.4-.5.1-1.1 0-1.6.1-.7 0-1.5.1-2.2.2-2.7.4-4.7 2.1-6.2 4.2-1.2 1.6-2.1 3.4-3.1 5.1-1.4 2.4-3 4.6-5.5 6-2.4 1.4-4.9 2.4-7.6 3-2.7.6-5.5 1.1-8 2.3-3.2 1.5-6.1 3.4-7.9 6.6-.3.5-.7.9-1 1.4-.7 1-1.7 1.4-2.9 1.5-1.8.1-3.6.3-5.3.4-.8.1-1.6.3-2.3.8-.4.3-.4.5.1.6.7.2 1.5.1 2.2.1.2 0 .4-.1.5.2.1.2-.1.4-.2.5-.2.3-.6.6-.9.8l-.9.6c-.1.1-.2.2-.2.4s.2.1.3.1c1.4.2 2.9.2 4.3-.1 2.5-.5 4.7-1.6 6.7-3 3.3-2.4 7-2.9 11-2.4 2.5.3 5 .7 7.6.7 1.1 0 1.7-.5 2.1-1.4l.9-2.4c.2-.5.4-1 1.1-1.2.1 4.3-1.7 7.8-4.3 11.1 6-1.1 8.9-5.3 10.7-10.5zm4.9.3c-1 1-2 1.9-2.7 3.1-.2.4-.2.8.2 1 1.2.8 2.6 1 4.1.8-.9-1.5-1.3-3.1-1.6-4.9zm-54.3 15l5.7 11.4c1.9-3.9 3.8-7.7 5.7-11.6.4 1.1.4 2 .5 3l1.5 10.5c0 .2.3.7-.2.7-.4 0-1 .4-1.1-.5-.4-2.8-.8-5.7-1.2-8.5 0-.2 0-.5-.2-.7-.7 1.5-1.5 2.9-2.2 4.4l-2.4 4.8c-.1.2-.1.5-.5.5-.3 0-.3-.3-.4-.5-1.4-2.9-2.9-5.7-4.3-8.6-.1-.2-.2-.5-.5-.7-.2 1.8-.5 3.6-.7 5.3-.2 1.4-.4 2.7-.6 4.1-.1.8-.7.4-1.1.4-.5 0-.2-.4-.2-.6.6-4.3 1.2-8.6 1.8-13 0-.1 0-.2.1-.4h.3zm52.8 7V367c0-.3-.1-.6.4-.6 1.9 0 3.7-.1 5.6.2 4.1.6 6.1 3.9 5.7 7.8-.4 3.8-2.6 5.7-6.6 6-1.6.1-3.1 0-4.7 0-.5 0-.5-.3-.5-.6.1-2.1.1-4.3.1-6.4zm1.3-.1v5.1c0 .3 0 .6.5.6 1.4 0 2.8 0 4.2-.2 2.1-.3 3.6-1.6 4.1-3.7.2-.9.2-1.8.1-2.7-.3-2.3-1.9-4-4.2-4.5-1.3-.3-2.7-.2-4.1-.3-.6 0-.7.2-.6.7v5zm18.9-.5c1.4.5 2.5 1.4 2.7 2.9.4 2.1-1 4.1-3.2 4.6-1.6.3-3.2.1-4.8.1-.5 0-.3-.4-.3-.7v-12.9c0-.3.1-.5.4-.4 1.2.1 2.5-.1 3.7.1 1.4.2 2.6.8 3 2.3.4 1.5-.1 2.8-1.4 3.8 0 0 0 .1-.1.2zm-4.2 3.5v2.1c0 .4.1.6.6.6.8-.1 1.6 0 2.3-.1 1.6-.1 2.6-1.2 2.7-2.5 0-1.3-1-2.4-2.6-2.7-.8-.1-1.6-.1-2.4-.1-.4 0-.6.1-.6.6v2.1zm0-6.3v1.9c0 .3 0 .4.4.4 1 0 1.9 0 2.8-.4 1-.4 1.4-1.2 1.2-2.3-.1-.9-.6-1.4-1.6-1.6-.3-.1-.7-.1-1-.1-1.7-.1-1.7-.1-1.7 1.7-.1 0-.1.2-.1.4zm-38.9 1.4c.3-.4.6-.7.8-1 .4-.5 1-.7 1.6-.6.3.1.9 0 .9.4-.1.4-.2 1.1-1.1.9-.7-.2-1.1.4-1.5.9-.6 1-.7 2.1-.7 3.2 0 1.5-.1 3 0 4.5 0 .6-.2.6-.7.6-.5 0-.7-.1-.7-.6v-9c0-.6.1-.7.7-.7s.8.2.7.7v.7zm5.3 3.8v-4.5c0-.6.3-.6.7-.6.5 0 .6.1.6.6v9.2c0 .6-.3.6-.7.6-.4 0-.7 0-.7-.6.1-1.6.1-3.2.1-4.7zm.7-7c-.6 0-1.1-.5-1.1-1.1 0-.6.5-1.1 1.1-1.1.6 0 1.1.5 1.1 1.1 0 .7-.5 1.2-1.1 1.1z" class="c-database-6"/>
            <path d="M162.6 369.1c0-.6-.1-1.2 0-1.6.1-.5.6-.2.9-.2.3 0 .6.3.4.6-.3.4-.1.7.1 1-.2.2-.3.1-.4-.1-.2-.2-.2-.6-.6-.5-.3 0 .1.5-.4.8zm1-1.4c-.1-.2-.2-.2-.4-.2s-.3.1-.3.3c.1.2.3.2.4.2.2-.1.4-.1.3-.3zM142.3 329c-.3 0-.8 0-.9-.4-.1-.4.2-.7.5-1 .5-.5 1.2-.6 2-.6.3 0 .4.1.4.4 0 .9-.8 1.6-2 1.6zm5.5-2.2c.1-.2.3-.3.4-.5.1.4-.2.6-.3.8-.2 0-.1-.2-.1-.3zm.3-.6c-.1.1-.2.1-.3.2-.1-.2.1-.4.2-.4.1-.1.1.1.1.2z" class="c-database-6"/>
            <path d="M147.8 326.3v.2l-.1-.1c0-.1 0-.1.1-.1z" class="c-database-6"/>
          </g>
          <g class="lg-logo-6">
            <path d="M367 330H214c-5.5 0-10-4.5-10-10V163c0-5.5 4.5-10 10-10h153c5.5 0 10 4.5 10 10v157c0 5.5-4.5 10-10 10z" class="c-database-8"/>
            <g id="h6JorD.tif">
                <path d="M311.5 179.9c1 .9 2.4.7 3.6.9 4.7 1 8.9 3.2 12.6 6.3 4.4 3.6 5.9 8.2 5.4 13.7-1.1 12.3-5.5 23.4-11.3 34.1-.4.7-1.1 1.4-1.1 2.5 2.7.4 5.3 0 7.9-.4 1.6-.3 3.2-.5 4.4 1 1.3 1.6.7 3.2 0 4.7-1.8 3.8-4.7 6.3-8.8 7.3-2.8.7-5.7 1.2-8.6.9-1.9-.3-2.1.5-2.2 2-.4 4-.9 8-1.5 12-1.2 8.3-5 12.1-13.3 13.7-2.3.4-4.6.7-6.9.1-4.7-1.1-7.7-3.9-8.6-8.7-1-4.9-1.1-9.9-1.2-14.9 0-1.4-.2-1.7-1.7-1.2-5.2 1.7-10.2.6-14.9-1.8-.9-.4-1.2-.5-2 0-3.4 2.5-6.4 2.2-9.5-.8-3-2.8-4.8-6.4-6.4-10.2-4.5-10.5-7.5-21.4-9.1-32.7-.7-4.4-.4-8.9.9-13.2 2.3-7.8 7.6-12.3 15.6-13.5 6.4-1 12.5.1 18.6 1.8 1.3.4 2.4.3 3.6-.3 4.9-2.4 10.1-2.5 15.4-1.6 3.6.6 6.8-.7 10.1-1.8h1.9c.3.7.9.3 1.4.4 1.6-.2 3.4.7 4.9-.4.2.1.5.1.8.1zm-27.2 69.5c.1 5.9 0 11.3.7 16.6.8 6.3 4.2 10.3 9.6 10.3 9.2.1 14-3.9 15.1-11.7.7-4.7 1.4-9.4 1.8-14.1.2-1.9.7-2.4 2.7-2.1 3.4.5 6.8-.2 10-1.3 2.4-.9 4.4-2.3 6.1-4.2.7-.9 1.1-1.9.5-2.9-.5-1-1.5-1.2-2.5-1.1-1 .1-1.9.3-2.9.4-2.2.3-4.3.5-6.5.3-1.5-.2-2-.6-1-2.1 3-4.6 5.4-9.5 7.4-14.6 3-7.7 5.5-15.5 5.2-23.9-.1-2.4-.4-4.8-2-6.8-2.5-3-5.5-5.4-9.2-6.9-7.3-2.9-14.8-2.8-22.3-.9-1.3.3-2.5.4-3.8.2-5.6-.7-11.1-1-16.1 2.3-.9.6-1.7.2-2.5-.1-5.1-1.6-10.3-2.6-15.7-2.5-10.4.3-15.9 5.1-17.7 15.2-.3 2-.5 4-.4 6 .4 9.4 2.9 18.2 5.7 27.1 1.7 5.2 3.6 10.4 7 14.7 3.8 4.8 7.8 4.9 11.8.3 2.1-2.4 4.2-4.9 6.4-7.3.4-.5.8-1.1 1.8-.7 1.3.6 2.8.9 4.2 1.4-1.4 3.1-4.4 3.3-7.1 4-1.6.4-3.6.8-3.7 2.9-.1 2.3 1.9 3 3.6 3.6l1.2.3c4.5 1.2 8.6.5 12.6-2.4z" class="c-database-9"/>
                <path d="M310.6 179.9c-1.6 1.1-3.3.3-4.9.4.1-.1.1-.3.1-.4h4.8z" class="c-database-10"/>
                <path d="M305.7 179.9c0 .2 0 .3-.1.4-.5-.1-1.1.3-1.4-.4h1.5z" class="c-database-11"/>
                <path d="M284.3 249.4c-4 2.9-8.1 3.6-12.6 2.6l-1.2-.3c-1.8-.7-3.7-1.3-3.6-3.6.1-2.1 2-2.4 3.7-2.9 2.7-.7 5.7-.9 7.1-4-1.4-.4-2.9-.8-4.2-1.4-1-.4-1.3.2-1.8.7-2.1 2.4-4.3 4.8-6.4 7.3-4 4.6-8 4.5-11.8-.3-3.4-4.4-5.4-9.5-7-14.7-2.8-8.8-5.4-17.7-5.7-27.1-.1-2 0-4 .4-6 1.8-10.2 7.3-14.9 17.7-15.2 5.4-.2 10.6.9 15.7 2.5.8.3 1.6.7 2.5.1 5-3.3 10.5-3 16.1-2.3 1.3.2 2.5.1 3.8-.2 7.5-1.9 15-2.1 22.3.9 3.7 1.5 6.7 3.8 9.2 6.9 1.7 2 1.9 4.4 2 6.8.3 8.4-2.2 16.2-5.2 23.9-2 5.1-4.5 10-7.4 14.6-1 1.5-.5 1.9 1 2.1 2.2.3 4.3 0 6.5-.3 1-.1 1.9-.3 2.9-.4 1-.1 2 .1 2.5 1.1.6 1.1.2 2-.5 2.9-1.6 2-3.7 3.4-6.1 4.2-3.2 1.2-6.6 1.8-10 1.3-2-.3-2.5.2-2.7 2.1-.5 4.7-1.2 9.4-1.8 14.1-1.1 7.8-5.9 11.7-15.1 11.7-5.4 0-8.8-4-9.6-10.3-.7-5.5-.6-10.9-.7-16.8zm-3.2-38.1c-.1-1.6-1.4-1.8-2.6-1.9-3.4-.4-6.3.8-9.2 2.5-.5.3-.8.8-.7 1.4.6 4.6-.2 9.2-.3 13.8-.1 5.3 3.6 9.8 8.3 10.8 1.1.2 1.7.2 2.2-1.1.8-2.5 1.9-5 2.9-7.4 2.2-5.7 1.5-11.4.1-17.1-.1-.5-.2-1-.7-1zm-12-2.7c1.5-.5 2.9-1.1 4.3-1.5 1.5-.5 3-.7 4.5-.6 3.4.2 5.7 1.8 6.6 5 1.8 6.9 2.2 13.8-1 20.5-.8 1.6-1.3 3.3-2 4.9-.3.9-.3 1.3.9 1.6 3.2.8 4.6 2.8 4.7 6.1 0 1-.1 2.1-.1 3.1-.1 6.1-.1 12.3.7 18.3.6 4.2 3.1 7.2 6.5 7.3 5.7.2 11.4-1.8 12.4-8.8 1-6.6 1.9-13.2 2.4-19.9.2-2.5.5-4.9 3.2-6 1-.4.6-.9.2-1.5-2.8-3.6-4.5-7.8-6.6-11.8-1.6-3.1-2.9-6.3-3.5-9.7-1-6 2-9.7 8.1-9.9h3c-2.3-9.5-12.6-17.6-22.9-19-11.7-1.2-20.8 6.3-21.4 21.9zm4.4-19.2c-5.1-1.6-10-2.5-14.9-2.3-8 .4-12.9 4.4-14.5 12.3-.8 3.6-.8 7.2-.2 10.8 1.3 8.2 3.3 16.2 6.1 24.1 1.5 4.2 3.2 8.5 6.2 11.9 2.3 2.6 4.1 2.6 6.5 0 2.1-2.3 4.1-4.8 6.2-7.1 1-1.1 1.2-1.7.1-2.9-2.2-2.3-3.6-5.3-3.5-8.5.2-5.9.2-11.9.4-17.8.2-7.5 2.3-14.5 7.6-20.5zm42.5 44.7c2.7-3.7 4.7-7.7 6.3-11.9 2.9-7.1 5.1-14.4 5.3-22.2.1-3.2-1-5.7-3.4-7.9-3.8-3.4-8.1-5.4-13.1-6.1-3.6-.5-7.1-.4-11.1.5 7.7 4 12.8 9.7 16 17.1.9 2 1.2 4 1 6.1-.3 3.5-1.1 7-.7 10.6.6 4.7 1.2 9.2-.3 13.8zm-3.1-1.3c1.6-3 1.3-6 1-8.9-.5-4-.5-7.9.1-11.8.5-3.3.4-3.4-3.1-3.3-.3 0-.6 0-1 .1-3.6.3-5 2-4.8 5.6.1 1.8.6 3.5 1.2 5.2 1.7 4.5 4.2 8.6 6.6 13.1zm-42.4 15.5c4.4 2.3 10.1 1.2 13-2.5 1.1-1.4 1-2.7-.2-3.8-1.4-1.3-2.4-.3-3.1.8-1.9 2.9-4.6 4.3-8 4.8-.6.1-1.2.2-1.7.7zm56.6-6.5c-4.4.4-8.2 1.2-12-.7-1.2-.6-2.6.6-2.9 2.1-.2 1-.2 2 1.2 2.1 4.8.7 9.3-.1 13.7-3.5zm-11.7-7.4c-.1.1-.2.3-.3.4.1.1.3.2.4.1.1-.1.2-.3.3-.4-.1 0-.2 0-.4-.1z" class="c-database-12"/>
                <path d="M269.1 208.6c.6-15.6 9.7-23.1 21.7-21.5 10.3 1.3 20.6 9.5 22.9 19h-3c-6.1.2-9.1 3.9-8.1 9.9.6 3.5 1.8 6.7 3.5 9.7 2.1 4 3.9 8.2 6.6 11.8.4.6.8 1-.2 1.5-2.6 1.2-3 3.5-3.2 6-.5 6.7-1.5 13.3-2.4 19.9-1 7-6.8 9-12.4 8.8-3.4-.1-6-3.2-6.5-7.3-.8-6.1-.8-12.2-.7-18.3 0-1 .1-2.1.1-3.1-.1-3.3-1.5-5.3-4.7-6.1-1.2-.3-1.2-.7-.9-1.6.6-1.7 1.2-3.3 2-4.9 3.2-6.7 2.8-13.6 1-20.5-.9-3.2-3.2-4.9-6.6-5-1.5-.1-3.1.1-4.5.6-1.7 0-3.2.5-4.6 1.1z" class="c-database-13"/>
                <path d="M273.5 189.4c-5.4 6-7.5 13.1-7.6 20.6-.1 5.9-.1 11.9-.4 17.8-.1 3.3 1.2 6.2 3.5 8.5 1.1 1.2 1 1.8-.1 2.9-2.2 2.3-4.1 4.7-6.2 7.1-2.3 2.5-4.2 2.5-6.5 0-3-3.5-4.7-7.7-6.2-11.9-2.8-7.8-4.8-15.9-6.1-24.1-.6-3.6-.6-7.2.2-10.8 1.6-7.8 6.5-11.9 14.5-12.3 5-.3 9.8.6 14.9 2.2z" class="c-database-14"/>
                <path d="M316 234.1c1.5-4.6.9-9.1.3-13.7-.4-3.6.4-7.1.7-10.6.2-2.1-.1-4.1-1-6.1-3.2-7.4-8.3-13.1-16-17.1 4-.9 7.5-1 11.1-.5 5 .7 9.4 2.7 13.1 6.1 2.4 2.2 3.5 4.7 3.4 7.9-.2 7.8-2.4 15-5.3 22.2-1.6 4.1-3.6 8.1-6.3 11.8zm-34.9-22.8c.5 0 .7.4.8.8 1.4 5.7 2.1 11.4-.1 17.1-1 2.5-2.1 4.9-2.9 7.4-.4 1.3-1.1 1.3-2.2 1.1-4.8-.9-8.4-5.5-8.3-10.8.1-4.6.9-9.2.3-13.8-.1-.6.2-1.1.7-1.4 2.8-1.7 5.8-2.9 9.2-2.5 1 .3 2.4.5 2.5 2.1-1.3.3-2.3-.8-3.6-.6-.6.1-1.4.1-1.6.8-.3.8.3 1.4.9 1.8 1.7 1.6 3.6.7 4.3-2z" class="c-database-15"/>
                <path d="M312.9 232.8c-2.4-4.5-4.9-8.6-6.6-13.2-.6-1.7-1.1-3.4-1.2-5.2-.2-3.6 1.2-5.3 4.8-5.6.3 0 .6 0 1-.1 3.5-.1 3.6-.1 3.1 3.3-.6 3.9-.6 7.8-.1 11.8.3 3 .6 6-1 9zm-1.3-21.6c0-1-.8-1.2-1.5-1.1-1.1 0-2.5 0-2.8 1.3-.3 1 .9 1.4 1.7 1.5 1.3.1 2.1-.6 2.6-1.7zm-41.1 37.1c.5-.5 1.1-.6 1.7-.7 3.3-.5 6.1-2 8-4.8.7-1.1 1.7-2.1 3.1-.8 1.2 1.2 1.3 2.4.2 3.8-2.9 3.7-8.6 4.9-13 2.5z" class="c-database-16"/>
                <path d="M327.1 241.8c-4.4 3.4-8.9 4.1-13.8 3.6-1.4-.2-1.4-1.1-1.2-2.1.3-1.6 1.7-2.8 2.9-2.1 3.9 1.9 7.7 1.1 12.1.6z" class="c-database-11"/>
                <path d="M315.4 234.4c.2.1.3.1.4.2-.1.2-.2.3-.3.4-.1 0-.2-.1-.4-.1.2-.2.2-.3.3-.5z" class="c-database-15"/>
                <path d="M281.1 211.3c-.7 2.6-2.6 3.5-4.3 2-.6-.5-1.2-1-.9-1.8.3-.7 1-.7 1.6-.8 1.3-.2 2.3.9 3.6.6 0 .1 0 0 0 0zm30.5-.1c-.5 1.1-1.3 1.8-2.6 1.7-.9-.1-2-.5-1.7-1.5.3-1.3 1.7-1.2 2.8-1.3.7-.1 1.5 0 1.5 1.1z" class="c-database-12"/>
            </g>
            <path d="M362 310.6c-4.3 0-8.7-.1-13 0-1.2 0-1.6-.3-1.6-1.6.1-5.7 0-11.4 0-17.1 0-.7-.1-1.4 1-1.4 1.2 0 1 .8 1 1.4v15.5c0 1.1.3 1.4 1.4 1.4 3.7-.1 7.4.2 11.2-.2v2zm-26 .5c-4 0-7.4-1.3-9.3-5-2-3.9-2-8 .4-11.8 2.3-3.7 7.1-5.2 12-3.9 4.2 1.1 6.8 4.4 7.1 9 .2 3.1-.2 6-2.5 8.4-.5.6-.4.9.1 1.3s1 .8 1.5 1.3c.4.3.8.6.2 1.2-.4.4-.8 1.1-1.4.3-1.5-1.8-3.2-2.1-5.3-1.1-.9.3-1.9.2-2.8.3zm-8.6-10.8c-.1 4.4 2 7.6 5.6 8.7 3.8 1.2 7.8-.1 9.7-3 2.1-3.2 1.9-8.7-.4-11.5-2.3-2.7-6-3.6-9.6-2.4-3.4 1.2-5.2 4.1-5.3 8.2zM317 311.1c-1.6-.1-3.2-.2-4.7-.8-2.4-.9-3.6-2.7-3.8-5.3 0-.5-.2-1.1.6-1 .6.1 1.2-.4 1.5.7 1.1 4.4 7.2 6.4 10.8 3.6 1.2-.9 1.4-2.3 1.3-3.7-.1-1.3-.9-2.2-2.2-2.5-2.6-.6-5.1-1.1-7.7-1.8-3.2-.9-4.5-3.4-3.6-6.6.4-1.4 1.2-2.4 2.5-2.8 3-1.1 6.1-1.2 9.2-.1 2 .7 3 2.3 3.3 4.3.1.5.2 1.1-.6 1-.6 0-1.3.4-1.6-.7-.8-2.9-1.8-3.6-4.8-3.8-1-.1-2.1 0-3.1.1-2 .3-3 1.4-3.1 3.2-.1 2 .6 3 2.7 3.5 2.1.6 4.3.9 6.4 1.5 3.5.9 4.8 2.3 4.7 5.2 0 3-1.7 4.9-5.1 5.5-.7.3-1.7.4-2.7.5zm-85.7-9.8v-6.9c0-.9.2-1.4 1.2-1.4 2.4 0 4.8-.1 7.2 0 3 .1 4.6 1.7 4.6 4.6 0 2.9-1.6 4.7-4.6 4.9-1.8.1-3.5.1-5.3 0-1 0-1.3.3-1.3 1.3.1 1.6 0 3.2 0 4.8 0 .8-.2 1.1-1 1.1s-1-.4-1-1.1c.2-2.5.2-4.9.2-7.3zm5.5-.2c1 0 2 .1 3 0 1.9-.2 2.9-1.4 2.8-3.4 0-2-1-3.1-2.9-3.3-1.1-.1-2.2-.1-3.3-.1-3.3 0-3.3 0-3.3 3.2.1 3.7.1 3.7 3.7 3.6zm48.1 6.7c-3.2 2.1-6.9 2-8.8-.2-1.7-2.1-1.5-6.1.4-7.9 2.1-2 5.8-1.8 8.4.4 0-.3.1-.6.1-.8 0-.7.4-.6.9-.6s.6.3.6.7c0 3.5.1 7-.1 10.5-.1 2.3-1.4 3.5-3.6 4-1.5.3-3.1.3-4.6-.1-1.3-.3-2.2-1-2.5-2.3-.1-.3-.5-.8.1-.9.4-.1.9-.2 1.2.4 1.2 1.9 3.5 2.6 5.8 1.8 1.8-.6 2.4-2.2 2.1-5zm.1-3.9c0-2.7-1.6-4.4-4.2-4.4-2.7 0-4.3 1.6-4.4 4.3 0 2.8 1.5 4.4 4.3 4.5 2.7 0 4.3-1.7 4.3-4.4zm16.4.5c-1.3 0-2.6.1-3.9 0-1.1-.1-1.2.4-1 1.3.4 1.6 1.4 2.7 3.1 3 1.8.3 3.4.2 4.5-1.5.2-.2.3-.5.4-.7.3-.7 1-.6 1.4-.4.5.2.1.8-.1 1.1-1.1 2.3-4.2 3.4-7.2 2.5-2.6-.8-4.1-3.3-3.8-6.3.3-2.8 2.1-4.6 4.9-4.9 3.8-.4 6.4 1.6 6.7 4.9.1.9-.1 1.2-1 1.1-1.4-.1-2.7-.1-4-.1zm-.8-1h3.3c.9 0 1.1-.2.8-1.1-.5-1.6-2-2.8-3.8-2.9-2-.1-3.5.8-4.2 2.5-.4 1-.5 1.7.9 1.5h3zm-38-5.1c2.9 0 4.4.8 4.9 2.5.1.4.5 1-.3 1.2-.5.1-.8 0-1.1-.6-.8-2-4.4-2.7-6-1.3-.5.4-.7 1-.6 1.6.1.8.7 1.1 1.3 1.3 1.4.3 2.8.5 4.2.7 2.2.4 3.1 1.3 3.1 3s-1 2.7-3 3.1c-1.6.3-3.2.3-4.7-.1-1.3-.3-2.3-1-2.6-2.5-.1-.4-.4-.9.3-1 .4-.1.9-.2 1.2.5.9 2.1 4.8 2.9 6.6 1.5.6-.5.8-1 .7-1.7-.1-.8-.6-1.3-1.4-1.4-1.3-.3-2.7-.5-4.1-.7-2.3-.4-3.2-1.2-3.1-2.9 0-1.8 1.2-2.8 3.4-3 .4-.1.9-.1 1.2-.2zm-12.1 0c3.7 0 5.9 2.1 5.9 5.7 0 3.7-2.2 5.9-6 5.9-3.6 0-5.8-2.3-5.8-5.9.2-3.5 2.4-5.7 5.9-5.7zm4.4 5.8c0-3-1.5-4.6-4.4-4.6-2.7 0-4.3 1.8-4.3 4.7 0 3 1.6 4.6 4.4 4.5 2.9 0 4.4-1.6 4.3-4.6z" class="c-database-6"/>
            <path d="M271 304.1v-2.6c0-.9.2-1.8-1.3-1.6-.4.1-.6-.1-.6-.6 0-.3.2-.6.5-.5 1.7.3 1.4-.9 1.4-1.8v-1.3c0-.5.3-.5.7-.5.3 0 .7 0 .7.5s.1 1 0 1.5c-.1 1.2.1 1.9 1.5 1.7.4-.1 1-.2 1 .5s-.6.6-1 .5c-1.4-.2-1.6.4-1.6 1.6.1 1.7.1 3.4 0 5.1 0 1.2.3 2.1 1.7 2 .4 0 .8-.1.8.5 0 .7-.5.6-.9.6-2.1.2-2.9-.6-3-2.7.1-1 .1-2 .1-2.9zm19.3-4.1c.9-1.4 2.1-1.7 3.5-1.6.5 0 1-.1 1 .7 0 .8-.4.7-.9.7-2.5.1-3.6 1.1-3.7 3.6-.1 1.6 0 3.3-.1 4.9 0 .5.3 1.3-.7 1.3-1.1 0-.8-.8-.8-1.4V300c0-.5-.4-1.1.5-1.3.9-.2 1 .5 1.2 1.3z" class="c-database-6"/>
          </g>
          <g class="lg-logo-1">
            <path d="M193 153h-82c-5.5 0-10-4.5-10-10V60c0-5.5 4.5-10 10-10h82c5.5 0 10 4.5 10 10v83c0 5.5-4.5 10-10 10z" class="c-database-17"/>
            <path d="M149.5 97.3c-5.3 0-9.4-3.8-9.8-8.5 0-.2 0-.3-.1-.5-.1-1.3.1-2.4 1.2-3.3 2.3-1.9 4.5-4 6.8-6.1.3-.3.5-.3.8-.1 2.5 1.1 4.9 2.3 7.4 3.4.4.2.6.4.8.7.3.7.7 1.4 1.1 2 .4.7.5 1.4.3 2.1-.4 1.9-.7 3.8-1.1 5.7-.1.4-.3.7-.5 1-1.9 2.4-4.4 3.5-6.9 3.6zm6.5-35c5.7 0 10.2 5.3 9.2 10.9 0 .3-.2.5-.4.6-2.6 2.2-5.1 4.5-7.7 6.8-.3.2-.5.3-.8.1-2.5-1.2-5-2.3-7.5-3.4-.3-.1-.4-.3-.5-.5-.3-.6-.5-1.2-.9-1.8-.5-.9-.6-1.7-.3-2.7.4-1.8.7-3.6 1.1-5.4.1-.3.2-.6.4-.8 1.8-2.5 4.3-3.7 7.4-3.8zm14 19c-.2 2.2-1.4 4.1-3.9 5.2-.3.1-.5.1-.8.1-1.8-.4-3.6-.9-5.4-1.3-.3-.1-.5-.2-.7-.5-.4-.8-.8-1.6-1.3-2.4-.2-.3-.1-.4.1-.7 2.5-2.2 5-4.4 7.6-6.7.3-.2.5-.2.7-.1 2.3 1.1 3.8 3.5 3.7 6.4zm-30.6-8.4c.6.1 1.2.3 1.7.4 1.3.3 2.7.7 4 .9.3.1.5.2.6.5.3.8.7 1.5 1.1 2.3.1.3.2.5-.1.7-2.5 2.2-4.9 4.5-7.4 6.7-.2.2-.4.2-.6.1-2.3-1-3.8-3.4-3.7-6.1.1-2.4 1.9-4.8 4-5.5.2.1.3 0 .4 0zm4.7-7.4c.8 0 1.5.2 2.3.7.3.2.4.4.3.7-.4 1.9-.7 3.8-1.1 5.7-.1.4-.2.4-.5.3l-4.8-1.2c-.3-.1-.5-.2-.5-.5-.8-2.9 1.4-5.7 4.3-5.7zm21.4 24.2c-.1 1.6-.8 2.9-2.3 3.8-1.5.8-3 .8-4.4-.1-.3-.2-.4-.3-.3-.7.4-1.8.7-3.7 1-5.5.1-.4.2-.5.6-.4 1.5.4 2.9.8 4.4 1 .7.1.9.5 1 1.1v.8zm-44.1 41.7h-4.7c-.4 0-.6.1-.5.5.1.4.2.9.3 1.4.5 1.6 1.5 2.7 3.2 3 1.9.3 3.6-.1 4.7-1.8.1-.2.3-.4.4-.6.4-.4 1-.5 1.6-.2.5.3.7.9.5 1.5-.3.9-.9 1.6-1.7 2.1-3.7 2.8-11.2 2-12.2-5.2-.4-2.9.1-5.6 2.3-7.7 3.6-3.6 10.4-2.2 12 2.5.4 1 .5 2 .3 3.1-.1 1-.8 1.5-1.7 1.5-1.4-.1-3-.1-4.5-.1zm-.8-2.4h3.3c1.3 0 1.3 0 .9-1.3-.6-2-2.3-3.1-4.7-3-2.1.1-3.5 1.5-3.9 3.7-.1.4 0 .5.4.5 1.4.1 2.7.1 4 .1zm24.1 7.8c-2.2 2.1-4.7 2.3-7.3 1.5-1.8-.5-2.9-1.8-3-3.7-.1-1.9.6-3.5 2.3-4.4 1.3-.7 2.8-.9 4.3-1.1.9-.1 1.8-.2 2.6-.5.6-.2 1.1-.6 1.2-1.3.1-.8-.1-1.4-.8-1.8-1.6-.9-3.2-.9-4.8-.1-.6.3-.8.8-1.1 1.4-.4.8-1.1 1-1.8.7-.7-.3-1-1-.6-1.8.5-1.3 1.5-2.2 2.9-2.6 2.1-.6 4.2-.6 6.3.1 2 .7 2.9 2 2.9 4.1v10c0 .6-.1 1.1-.6 1.4-.9.7-2.1.2-2.3-1-.2-.5-.2-.7-.2-.9zm0-4.6V131c0-.3-.1-.4-.4-.3-.9.3-1.8.3-2.7.5-1.1.2-2.3.3-3.3.9-.9.6-1.1 1.5-1 2.5.1.9.8 1.3 1.7 1.5.8.2 1.6.2 2.4 0 1.3-.2 2.5-.8 3-2.1.3-.6.3-1.2.3-1.8zm10.2-9.8c2.8 0 4.7.4 6 2.2.2.3.4.6.5.9.4.8.2 1.5-.6 1.9-.8.4-1.5.2-1.8-.6-.6-1.4-1.6-2-3.1-2-.8 0-1.7 0-2.4.3-.6.3-1.1.7-1.1 1.5s.5 1.1 1 1.4c1.2.6 2.5.7 3.8 1 1 .2 2 .5 2.9.9 1.5.7 2.5 1.8 2.5 3.6.1 1.9-.6 3.4-2.3 4.2-3 1.4-6 1.5-8.9-.4-.9-.6-1.7-1.4-2-2.5-.2-.6-.2-1.1.3-1.6.7-.7 1.7-.6 2.1.3.5 1.2 1.3 2.1 2.5 2.5 1.2.4 2.4.4 3.6 0 .5-.2 1-.5 1.3-1 .7-1.1.4-2.2-.7-2.7-1.1-.6-2.4-.8-3.6-1-1-.2-1.9-.4-2.8-.8-1.4-.6-2.4-1.6-2.5-3.2-.1-1.7.5-3.1 2-4 1.3-.8 2.6-1 3.3-.9zm22.2 8.1c.1-3.4 1.3-6.1 4.5-7.6 2.8-1.3 6.3-.6 8.4 1.5.4.4.7.8.9 1.2.2.6.1 1.2-.5 1.5-.6.4-1.4.3-1.8-.2-.1-.1-.2-.2-.2-.3-1.1-1.7-2.6-2.3-4.5-2-1.8.3-3 1.4-3.5 3.2-.6 1.9-.6 3.8.2 5.6 1 2.3 3.6 3.3 5.9 2.3.9-.4 1.6-1 1.9-1.9.3-.8.9-1.1 1.7-.8.7.3 1 .9.8 1.7-.5 1.8-1.9 2.8-3.5 3.4-1.8.6-3.6.6-5.4-.1-2.9-1.1-4.4-3.4-4.8-6.5 0-.3-.1-.6-.1-1 0 .2 0 .1 0 0zm-11.6.8v-5.7c0-.4-.1-.6-.5-.5h-1.1c-.7-.1-1.1-.6-1.1-1.2s.4-1.2 1-1.2c.4-.1.8-.1 1.3 0 .3 0 .4-.1.4-.4v-2.5c0-.9.5-1.5 1.4-1.5.9 0 1.4.6 1.5 1.6v2.5c0 .4.1.5.5.5h1.1c.7.1 1.1.6 1.1 1.3 0 .7-.5 1.1-1.2 1.2h-1c-.5-.1-.6.1-.6.6v11.5c-.1.8-.6 1.4-1.4 1.4-.8 0-1.4-.6-1.4-1.4v-6.2zm-33-3.6v9.5c0 .7-.4 1.3-1 1.4-.6.2-1.2-.1-1.6-.6-.2-.3-.3-.6-.3-.9v-18.9c0-.9.6-1.5 1.4-1.5.8 0 1.4.6 1.4 1.5.1 3.2.1 6.4.1 9.5zm43 3v6.4c0 1-.6 1.6-1.5 1.6-.8 0-1.4-.7-1.4-1.6v-12.9c0-.8.4-1.4 1.1-1.6 1-.2 1.8.4 1.8 1.6v6.5zm.1-12.3c0 .9-.7 1.6-1.6 1.6-.9 0-1.6-.7-1.6-1.6 0-.9.7-1.6 1.7-1.6.9 0 1.5.7 1.5 1.6z" class="c-database-6"/>
          </g>
          <g class="lg-logo-9">
            <path d="M520 190H397c-5.5 0-10-4.5-10-10V62c0-5.5 4.5-10 10-10h123c5.5 0 10 4.5 10 10v118c0 5.5-4.5 10-10 10z" class="c-database-18"/>
            <path d="M505.3 157.7c2.6.8 3.5 2.8 3.4 5.2-.1 2.4-1.6 4.1-4.1 4.8-.8.2-1.6.3-2.5.3h-8.9c-.3 0-.4-.1-.4-.4v-18.2c0-.3.1-.4.4-.4h9c1.1 0 2.2.2 3.2.6 1.3.6 2.1 1.6 2.3 3 .2 1.4.1 2.8-.9 4-.4.4-.9.8-1.5 1.1zm-5.6 1.9h-2.4c-.3 0-.4 0-.4.3v4.4c0 .3.1.4.4.4h3.9c.5 0 1 0 1.5-.2.7-.2 1.3-.6 1.6-1.3.7-1.7-.2-3.3-2-3.6-.9-.1-1.8 0-2.6 0zm-.4-2.9h2.1c.9-.1 1.8-.3 2.2-1.3.4-1.2.2-2.8-1.8-3-1.5-.2-3 0-4.6-.1-.2 0-.2.1-.2.3v3.8c0 .2.1.3.3.3h2zm-24.7 1.8v-9.1c0-.3.1-.4.4-.4h8.1c4.1 0 7.4 2.7 8.1 6.8.5 2.6.4 5.1-.7 7.5-1.2 2.8-3.4 4.3-6.4 4.6-1.1.1-2.2.1-3.3.1H475c-.3 0-.4-.1-.4-.4.1-3 0-6.1 0-9.1zm4.2 0v5.7c0 .3 0 .4.3.4h3.5c2.2-.1 3.8-1.2 4.3-3.4.4-1.6.4-3.1 0-4.7-.5-2.3-1.9-3.5-4.3-3.8-1.2-.1-2.3 0-3.5-.1-.4 0-.5.1-.5.4.3 1.8.2 3.6.2 5.5zm-23.7 7.5c-.2.3-.4.5-.5.7-.9 1-2 1.5-3.3 1.6-.7.1-1.4 0-2-.1-1.8-.4-2.9-1.5-3.2-3.4-.1-.7-.2-1.4-.2-2.1v-8.1c0-.3.1-.4.4-.4h3c.3 0 .4.1.4.4v7.5c0 .4 0 .9.1 1.3.3 1.5 1.1 2.2 2.8 2 1.5-.2 2.2-1.1 2.4-2.8.1-1.3.1-2.7.1-4v-4c0-.2 0-.3.3-.3h3.2c.2 0 .3.1.3.3v13.2c0 .2-.1.3-.3.3h-3c-.2 0-.3-.1-.3-.3-.2-.6-.2-1.1-.2-1.8zm-34-9.8l.1-.1c1.2-1.8 3-2.3 5.1-2.1 1 .1 2 .4 2.7 1.1.9.8 1.1 1.9 1.3 3 .1.8.1 1.6.1 2.4v7.2c0 .3-.1.4-.4.4h-3c-.3 0-.4-.1-.4-.4v-7.2c0-.5 0-1-.1-1.5-.3-1.6-1.1-2.2-2.8-2-1.5.2-2.2 1.1-2.4 2.7-.1 1.1-.1 2.3-.1 3.4v4.7c0 .3-.1.3-.3.3h-3.2c-.2 0-.3-.1-.3-.3v-13.1c0-.3.1-.3.3-.3h2.9c.3 0 .4.1.4.4.1.3.1.8.1 1.4zm52.8 11.8h-4.2c-.2 0-.2-.1-.3-.2-.8-1.2-1.6-2.5-2.5-3.7-.1-.1-.2-.2-.3-.4-.6.9-1.2 1.7-1.7 2.6-.3.5-.6 1-1 1.5-.1.1-.2.2-.4.2h-4c.3-.4.6-.9.8-1.3l3.9-5.7c.2-.2.2-.4 0-.7-1.4-1.9-2.7-3.9-4-5.8-.1-.1-.1-.2-.2-.4h4c.2 0 .4.1.5.3.7 1.1 1.5 2.2 2.2 3.3.5-.8 1.1-1.6 1.6-2.4.3-.4.5-.9.8-1.1.4-.2.9-.1 1.4-.1h2.8l-1.5 2.1c-.9 1.3-1.9 2.7-2.8 4-.2.2-.2.4 0 .6 1.6 2.2 3.1 4.4 4.6 6.7.1.2.2.4.3.5zm-40.9-5.6v-5.3c0-.3-.1-.4-.4-.3H431c-.3 0-.4-.1-.3-.4v-1.8c0-.3 0-.4.4-.4h1.6c.2 0 .3-.1.3-.3 0-.6 0-1.2.1-1.8.4-1.7 1.6-2.8 3.3-3 1-.1 2-.1 3 0 .2 0 .2.1.2.2v2.4c0 .2-.1.3-.3.2-.4-.1-.8-.1-1.2-.1-.8 0-1.2.4-1.3 1.2-.1 1.1-.1 1.1 1 1.1h1.2c.3 0 .3.1.3.4v1.9c0 .3-.1.3-.3.3h-1.9c-.3 0-.4.1-.4.4v10.2c0 .6 0 .6-.7.6h-2.8c-.3 0-.4-.1-.4-.4.2-1.6.2-3.4.2-5.1zm-17.2-3.9v9.1c0 .3-.1.4-.4.4h-3.5c-.3 0-.3-.1-.3-.3v-18.4c0-.3.1-.3.3-.3h3.5c.3 0 .3.1.3.4.1 3 .1 6.1.1 9.1zm24.9 0v-9.1c0-.3.1-.4.4-.4h3c.3 0 .4 0 .4.3v18.4c0 .3-.1.3-.3.3h-3.1c-.3 0-.3-.1-.3-.4-.1-3-.1-6.1-.1-9.1z" class="c-database-6"/>
            <path d="M457.8 109.2c-3.1 2.7-7.5 1.5-8.9-1.9-.4-.9-.6-1.9-.4-2.8.1-.4-.1-.6-.4-.9-.8-.6-1.6-.9-2.7-.9-1.6 0-3 .2-4.5.6-.4.1-.6.2-.8.7-.8 2.5-2.8 4-5.3 4s-4.5-1.5-5.3-4c-.1-.2 0-.4-.3-.5v-1.9c.3-.2.2-.5.3-.8 1.4-4 6.5-5.1 9.3-1.9.3.3.6.5 1 .3.5-.3 1.3 0 1.5-.9.2-1.2.9-2.1 1.9-2.6.8-.5.3-1.1.4-1.7.1-.5-.3-.6-.6-.8-2.6-1.2-3.9-3.8-3.2-6.5.7-2.7 3.1-4.3 5.9-4 2.6.2 4.7 2.4 4.9 5.1.1 2-.6 3.6-2.3 4.8-.4.3-.6.6-.5 1.1.1 1.4-.1 2.8.8 4 .2.3.3.7.3 1 0 .5.2.7.6 1 .8.7 1.6 1.1 2.7.5.7-.4 1.6-.4 2.5-.1.1-.4-.2-.4-.4-.5-2.1-1.2-3.2-3.5-2.8-5.6.4-2.4 2-4.1 4.4-4.6.4-.1.7-.2.8-.7.3-.9.3-1.8 0-2.8-.4-1.5-1-2.8-1.8-4-.3-.5-.6-.7-1.2-.7-3.1 0-5.4-2.4-5.4-5.5 0-3 2.4-5.4 5.4-5.5 3 0 5.5 2.4 5.6 5.4 0 1-.3 2-.8 2.9-.4.7.5 2.1 1.3 2 1.2-.1 2.3.3 3.3 1.1.7.6 1.2-.2 1.8-.2.4-.1.5-.4.5-.8.2-2.9 2.8-5.2 5.8-5 2.9.1 5.3 2.7 5.2 5.6-.1 3-2.5 5.3-5.4 5.4-1.3 0-2.4-.3-3.4-1.1-.3-.3-.6-.3-.9-.1-.5.2-1 .4-1.6.6-.7.2-1.4.5-1.8 1.2-.3.4-.7.7-1.1.8-.5.2-.6.5-.8.9-.4 1-.5 1.8.4 2.7.7.7.9 1.6 1 2.6.3-.1.2-.4.3-.6.5-2.3 2.3-3.9 4.6-4.3 2.1-.3 4.3.7 5.5 2.6.5.8 2.4 1 3.1.3.3-.3.6-.7 1-.8 1.5-.5 2-1.9 3-2.9.3-.3.2-.6.1-.9-1.1-3.6 1.2-7.1 5-7.4 2.8-.2 5.4 2.1 5.7 5 .3 2.8-1.7 5.5-4.5 6-.7.1-1.5.1-2.2 0-.4-.1-.7-.1-1 .3-.3.5-1.1.8-.7 1.6.5 1 .5 2.1 0 3.1-.4.8.2 1.1.5 1.7.3.6.8.5 1.3.4 2.8-.5 5.5 1.1 6.3 3.8.7 2.3-.1 4.7-2.1 6.1-1.9 1.4-4.5 1.4-6.4 0-1.9-1.4-2.8-3.8-2-6.1.2-.6.1-.9-.3-1.3s-.7-.8-1-1.2c-.4-.5-.8-1-1.6-1.2-.3-.1-.6-.3-.8-.5-.7-1.1-1.8-.8-2.8-.8-.2 0-.4.1-.4.2-.6 1.4-1.8 2.2-3.1 3h-.4c-3.9.7-6.2-1.1-7.2-4.9-.8 3.6-3.1 5.1-6.7 5 2.4 1.2 3.5 2.9 3.5 5.3 0 1.2-.5 2.1-1 3.1-.4-.3-.6 0-.7.4zm16.6-14h.6c.9-.1 1.8-.1 2.3 1 .1.3.5.5.9.6.7.1 1 .5 1.4 1 .6.8 1.3 1.6 2 2.4.5.5.6.9.2 1.7-.9 1.8-.3 3.9 1.4 5s3.8.8 5.1-.7c1.2-1.3 1.4-3.5.3-5-1.1-1.6-3.1-2.1-4.9-1.3-.5.2-.8.2-1.1-.2-.6-.8-1.3-1.7-2-2.5-.3-.3-.3-.5 0-.9 1-1.1 1-2.3 0-3.3-.4-.4-.3-.7 0-1 .6-.7 1.2-1.4 1.7-2.1.4-.6.8-.7 1.5-.4 1.7.7 3.6 0 4.7-1.5 1-1.5.9-3.5-.3-4.9-1.3-1.5-3.6-1.8-5.2-.7-1.7 1.1-2.2 3.3-1.4 5.1.1.3.6.6.2 1-1.4 1.3-2 3.4-4.1 4.1-.2.1-.5.2-.5.4-.5 1.2-1.4 1-2.4 1h-2c-.5 0-.7-.1-.9-.6-.7-1.9-2.5-2.9-4.5-2.6-1.7.3-3.1 1.8-3.2 3.5-.1 2.1 1 3.8 2.8 4.3 1.8.5 3.9-.2 4.6-1.9.5-1.2 1.1-1.5 2.2-1.3.3-.2.5-.2.6-.2zm-20.5-23.6c-2.3 0-4.1 1.8-4 4 0 2.2 1.9 4.2 4.1 3.9 1.3-.2 1.7.4 2.2 1.2.2.3.4.6.6 1 .6 1 1.4 1.8 1.3 3.1 0 .2.1.5.2.6.9.8.6 1.7.2 2.6l-.6 1.8c-.1.6-.4.8-1 .8-2 0-3.9 1.5-3.9 4.1 0 1.9 1.4 3.5 3.2 3.8 1.8.3 3.7-.6 4.4-2.2.8-1.8.4-3.7-1.3-4.9-.4-.3-.5-.6-.3-1 .4-1 .7-2 1-3 .1-.3.2-.6.7-.7.7 0 1.3-.5 1.6-1.1.2-.3.5-.5.8-.6 1.2-.5 2.5-.9 3.7-1.4.4-.2.6-.1 1 .2.9 1 2 1.4 3.3 1.3 2.2-.2 3.9-2.2 3.6-4.2-.3-2.4-2.1-4-4.3-3.7-2.4.3-3.9 2.2-3.6 4.5.1.4 0 .6-.4.7-1.1.4-2.1.8-3.2 1.3-.4.2-.6 0-.8-.3-.8-1.3-1.9-1.7-3.2-1-.4.2-.6.1-.8-.2-.6-.9-1.1-1.8-1.7-2.7-.3-.4-.3-.7.1-1.1 1.1-1.3 1.3-2.8.6-4.4-.6-1.7-1.8-2.4-3.5-2.4zm-4.6 16.7c0-2.8-2.3-4.7-4.7-4.2-1.9.4-3.3 2-3.3 3.8 0 2 1.2 3.6 3.3 4 .3.1.6 0 .6.5 0 1.2.1 2.5.2 3.7 0 .3-.1.4-.4.5-1.8.5-2.1 1-2.1 2.8 0 .4-.1.6-.5.7-1.1.3-2.2.6-3.2.9-.4.1-.6 0-.8-.4-.8-1.4-2-2.1-3.6-2-1.9 0-3.6 1.6-3.8 3.5-.2 2.2 1.2 4 3.2 4.4 1.9.4 4.2-.8 4.5-2.7.2-1.4 1-1.7 2.1-1.9.2 0 .5-.1.7-.2 1.2-.3 2.3-.9 3.6-.3.4.2.8 0 1.2-.2.4-.3.8-.1 1.1.1.8.6 1.6 1.2 2.4 1.7.5.3.6.7.4 1.3-.5 1.7.2 3.5 1.7 4.4 1.5.9 3.5.8 4.7-.4 1.6-1.4 1.8-3.8.4-5.5-1.2-1.6-3.6-2-5.3-.8-.5.4-.9.4-1.3 0l-2.4-1.8c-.3-.2-.5-.4-.4-.9.1-.8-.1-1.5-.6-2-.2-.2-.3-.4-.3-.6-.1-1.3-.1-2.7-.2-4 0-.5.1-.8.6-1 1.5-.9 2.2-2.1 2.2-3.4z" class="c-database-19"/>
            <path d="M470.1 99.8c.9.1 1.8-.1 2.8.1 3.9 1 5.5 5.7 2.9 8.9-.7.9-.3 2.7.8 3.2.4.2.8.4 1 .7.9 1.3 2.4 1.3 3.7 2 .4.2.6-.1.8-.3 1.8-1.3 4.2-1.4 6.1-.3 1.9 1.1 2.9 3.4 2.6 5.6-.3 2.2-2 3.9-4.2 4.5-3.2.8-6.4-1.5-6.7-4.8 0-.4-.1-.8-.6-.8-.6-.1-1.1-.8-1.8-.1-.8.8-1.9 1.1-3 1-1-.1-.9.7-1.3 1.1-.4.4-.2.7 0 1.1 1.9 3.4-.1 7.7-3.9 8.2-3.2.4-6.1-1.8-6.3-5.1-.2-3.2 2.3-5.9 5.5-5.9.6 0 .9-.2 1.2-.7.2-.4.5-.8.8-1.2.4-.6.8-1.2.8-2 0-.5.2-.9.4-1.3.3-.4.2-.8.1-1.2-.2-1-.6-1.8-1.9-1.9-.9-.1-1.6-.8-2.4-1.3.9 1.6 1.1 3.3.5 5-1 3-4.4 4.4-7.4 3.2-.6-.2-.9-.1-1.3.2-.8.5-1.2 1.1-1.5 2.1-.5 1.4-.8 2.8-.9 4.3 0 .5.1.9.6 1.2 2 1.4 2.8 4 1.9 6.3-.8 2.3-3 3.7-5.6 3.6-2.4-.2-4.4-1.9-4.9-4.3-.6-2.5.7-5.1 3.1-6.2.3-.2.8-.2.6-.8-.1-.6.4-1.3-.4-1.8-1-.5-1.7-1.4-1.8-2.5-.2-.9-.9-.8-1.4-1-.5-.2-.8 0-1.2.4-2.1 2.2-5.3 2.4-7.6.5-2.2-1.8-2.6-5.1-1-7.4 1.3-1.8 3.2-2.6 5.4-2.2 2.2.3 3.6 1.6 4.3 3.7.2.6.5.8 1 .9.5.1 1 .2 1.4.4.7.2 1.4.3 2.1.1.4-.1.9-.1 1.3 0 .5.2.9 0 1.3-.3.9-.5 1.4-1.1 1.2-2.3-.2-1 .4-2.1.8-3 .2-.2.5-.3.3-.7.3.2.3-.1.5-.2.6-.5 1.2-1 2-1.2 2.2-.7 4.1-.2 5.8 1.3 0 .1 0 .3.2.2.1-.1 0-.2-.1-.3-.7-1.3-1-2.6-.7-4.1.4-2 1.8-3.3 3.6-4.1.3-.3.6-.2.5-.5zm-1.7 28.5c1.7 0 2.9-.8 3.6-2.3.8-1.5.5-3.1-.6-4.3-.4-.4-.4-.7-.1-1.1.6-.9 1.2-1.8 1.7-2.7.2-.4.4-.4.8-.2 1.4.6 2.5.2 3.2-1.1.2-.4.4-.4.7-.3.8.4 1.7.7 2.5 1 .8.2 1.3.5 1 1.5-.1.2.1.5.1.7.3 1.9 1.8 3.1 3.7 3.3 1.6.2 3.3-.9 3.9-2.5.7-1.8.2-3.6-1.4-4.8-1.3-1-3.5-1.1-4.6.1-.9 1-1.7.8-2.7.3-.3-.1-.5-.2-.8-.3-1.1-.5-2.3-.6-3-1.8-.1-.2-.4-.4-.6-.4-1.2-.1-1.5-1-1.7-2-.1-.3-.2-.7-.3-1-.5-1-.4-1.7.5-2.4 1.3-1.1 1.5-3.1.6-4.6-.8-1.4-2.5-2.3-4-2-2.1.4-3.7 2.2-3.5 4.1.2 2.3 1.8 3.9 4.2 3.9.4 0 .5.1.6.4.3.9.5 1.8.9 2.7.2.6.4 1.2-.2 1.7-.3.3-.5.7-.4 1.1.2 1-.5 1.6-.9 2.4-.5.8-1 1.5-1.5 2.3-.3.4-.5.6-1 .5-2.5-.4-4.6 1.3-4.8 3.8-.1 2 1.8 4 4.1 4zm-5.6-20c-2.7 0-4.6 2.4-3.8 5.1.2.6.1.9-.4 1.2-.8.5-1.5 1.1-2.3 1.7-.4.3-.8.5-1.3.2s-1.1-.3-1.6 0c-.4.2-.8.2-1.3.1-1.2-.3-2.5-.7-3.7-1-.5-.1-.6-.3-.6-.7-.1-1.5-.9-2.5-2.2-3.2-1.9-1-4.2-.2-5.2 1.7s-.3 4.3 1.5 5.4c1.8 1.1 4.2.5 5.3-1.3.4-.6.7-.7 1.3-.5.9.3 1.9.5 2.8.7.4.1.6.3.6.7 0 1.7.4 2.3 2 2.7.5.1.5.3.5.7-.1 1-.2 2.1-.2 3.1 0 .6-.2.8-.8.9-1.9.4-3.3 2.3-3.1 4.2.2 2.1 1.8 3.6 3.8 3.7 1.7.1 3.5-1.2 4-2.9.6-1.9-.3-3.9-2.2-4.8-.5-.2-.6-.5-.6-1 .2-1.1.1-2.2.2-3.3 0-.6.1-1.2.6-1.7.4-.4.6-1.1.4-1.7-.1-.4 0-.6.4-.9.8-.6 1.7-1.2 2.5-1.8.5-.4.8-.4 1.3 0 1.4 1 3.3.9 4.6-.1 1.4-1 1.9-2.8 1.4-4.4-.6-1.7-2.1-2.8-3.9-2.8z" class="c-database-19"/>
            <path d="M458.5 108.5c.2.4-.2.5-.3.7h-.4c.1-.4.3-.7.7-.7z" class="c-database-20"/>
            <path d="M474.4 95.2h-.5c-1.1-.2-1.8.1-2.2 1.3-.7 1.7-2.7 2.4-4.6 1.9-1.8-.5-2.9-2.2-2.8-4.3.1-1.7 1.5-3.2 3.2-3.5 2-.3 3.8.7 4.5 2.6.2.5.4.7.9.6h2c.9 0 1.9.2 2.4-1 .1-.2.3-.4.5-.4 2.1-.7 2.7-2.8 4.1-4.1.4-.4-.1-.7-.2-1-.9-1.8-.3-4 1.4-5.1 1.6-1.1 3.9-.8 5.2.7 1.2 1.4 1.3 3.4.3 4.9-1 1.5-2.9 2.2-4.7 1.5-.7-.3-1.1-.2-1.5.4-.5.7-1.1 1.4-1.7 2.1-.3.3-.4.6 0 1 1 1 .9 2.2 0 3.3-.3.3-.3.5 0 .9.7.8 1.4 1.6 2 2.5.3.4.6.5 1.1.2 1.8-.8 3.8-.2 4.9 1.3 1.1 1.5.9 3.6-.3 5-1.3 1.5-3.5 1.8-5.1.7-1.7-1.1-2.3-3.2-1.4-5 .4-.7.3-1.1-.2-1.7-.7-.7-1.3-1.6-2-2.4-.4-.5-.7-.9-1.4-1-.3 0-.7-.3-.9-.6-.5-1.1-1.4-1-2.3-1-.2.2-.4.2-.7.2zm8.9 7.2c-.5 1.1-.3 2.2.6 2.9.9.7 2 .7 2.9.1.9-.6 1.2-1.8.8-2.8-.4-1-1.4-1.6-2.5-1.4-.3 0-.8 0-.7.4 0 .3.4.4.7.3h.2c1 0 1.7.7 1.7 1.6 0 .9-.6 1.5-1.5 1.6-1 0-1.7-.6-1.7-1.6-.1-.5 0-.9-.5-1.1zm4.4-16.8c0-1.3-.9-2.3-2.1-2.4-1.2-.1-2.3.7-2.5 2-.1.5-.2 1.2.3 1.3.5.1.4-.6.4-1.1.1-.8.7-1.5 1.6-1.5.9 0 1.6.7 1.6 1.5.1 1.1-.7 1.8-1.9 1.7-.4 0-.6 0-.7.4-.1.3.3.3.5.4 1.3.4 2.8-.7 2.8-2.3zm-21.6 9c0 1 .6 1.8 1.6 2.1.9.3 1.9-.1 2.4-.9.1-.2.4-.4.1-.6-.2-.2-.5-.1-.7.2-.1.1-.2.3-.3.3-.6.4-1.2.5-1.8.1-.6-.4-.8-1-.6-1.6.2-.7.7-1 1.5-1 .5 0 .9.2 1.2.6.2.2.5.3.7.1.3-.2 0-.4-.1-.6-.6-.8-1.6-1.1-2.5-.9-.9.3-1.5 1.2-1.5 2.2z" class="c-database-6"/>
            <path d="M453.9 71.6c1.7 0 2.9.8 3.6 2.3.7 1.6.5 3.1-.6 4.4-.4.4-.3.7-.1 1.1.6.9 1.2 1.8 1.7 2.7.2.4.4.4.8.2 1.3-.6 2.4-.3 3.2 1 .2.3.4.5.8.3 1.1-.4 2.1-.9 3.2-1.3.4-.1.4-.3.4-.7-.3-2.3 1.3-4.2 3.6-4.5 2.2-.2 4 1.4 4.3 3.7.2 2-1.5 4-3.6 4.2-1.3.1-2.5-.3-3.3-1.3-.3-.4-.5-.4-1-.2-1.2.5-2.5 1-3.7 1.4-.3.1-.6.3-.8.6-.4.6-.9 1-1.6 1.1-.5 0-.6.3-.7.7-.3 1-.6 2-1 3-.2.5-.1.7.3 1 1.6 1.2 2.1 3.1 1.3 4.9-.7 1.6-2.6 2.5-4.4 2.2-1.8-.3-3.2-1.9-3.2-3.8 0-2.6 1.9-4 3.9-4.1.6 0 .9-.2 1-.8.1-.6.3-1.2.6-1.8.4-.9.7-1.8-.2-2.6-.2-.1-.3-.4-.2-.6.2-1.3-.7-2.1-1.3-3.1-.2-.3-.4-.6-.6-1-.5-.9-1-1.4-2.2-1.2-2.2.3-4.1-1.7-4.1-3.9-.2-2.2 1.6-3.9 3.9-3.9zm2.3 4c0-1.3-.9-2.3-2.1-2.4-1.3-.1-2.4.8-2.6 2.1-.2 1.1.8 2.4 2 2.6.2 0 .5.2.6-.1.1-.3-.1-.5-.4-.7-.1 0-.2 0-.3-.1-.9-.3-1.3-1.2-1-2.1.3-.8 1.2-1.2 2-1 .9.3 1.3 1.2 1 2.1 0 .1-.1.2-.1.3-.2.3-.2.5.1.7.3.2.4-.2.6-.4.2-.3.2-.7.2-1zm13 7c1 .9 2 1 2.9.3.9-.6 1.3-1.7 1-2.8-.4-1.1-1.3-1.7-2.5-1.6-1 .1-1.9.9-2.1 2-.1.3-.2.6.2.7.3.1.5-.2.6-.5 0-.2.1-.5.2-.7.4-.7 1.3-1 2.1-.6.7.3 1.1 1.2.9 1.9-.2.8-1 1.3-1.9 1.1-.6.1-1-.2-1.4.2zm-12 14.1c1.6 0 2.7-1.7 2-3.1-.2-.3-.3-.9-.7-.7-.5.2-.1.6 0 1 .2.6.2 1.3-.4 1.8-.5.4-1.1.5-1.6.2-.6-.3-.8-.9-.7-1.6.1-.6.4-.9 1-1.1.3-.1.5-.4.4-.7-.1-.4-.5-.1-.7 0-1 .3-1.6 1.4-1.4 2.4.1 1.1.9 1.8 2.1 1.8z" class="c-database-6"/>
            <path d="M449.3 88.3c-.1 1.3-.7 2.6-2.2 3.3-.5.2-.6.5-.6 1 .1 1.3.1 2.7.2 4 0 .3.1.4.3.6.6.6.7 1.3.6 2-.1.4.1.6.4.9.8.6 1.7 1.1 2.4 1.8.5.4.8.4 1.3 0 1.7-1.2 4.1-.8 5.3.8 1.3 1.7 1.1 4.1-.4 5.5-1.3 1.2-3.3 1.3-4.7.4-1.5-1-2.3-2.7-1.7-4.4.2-.6.1-1-.4-1.3-.8-.5-1.6-1.1-2.4-1.7-.4-.3-.7-.4-1.1-.1-.4.2-.8.3-1.2.2-1.3-.6-2.4.1-3.6.3-.2.1-.4.1-.7.2-1.1.2-1.9.5-2.1 1.9-.3 1.9-2.5 3.1-4.5 2.7-2-.4-3.4-2.2-3.2-4.4.2-1.9 1.9-3.5 3.8-3.5 1.6 0 2.8.6 3.6 2 .2.4.4.5.8.4 1.1-.3 2.2-.6 3.2-.9.4-.1.5-.3.5-.7 0-1.8.4-2.3 2.1-2.8.3-.1.4-.2.4-.5-.1-1.2-.1-2.5-.2-3.7 0-.4-.3-.4-.6-.5-2-.4-3.3-2-3.3-4 0-1.9 1.3-3.4 3.3-3.8 2.4-.5 4.7 1.5 4.7 4.3zM443 88c0 1 .7 1.9 1.6 2.2.2 0 .4.2.5-.1.1-.1 0-.4 0-.5-.1-.1-.3-.2-.5-.3-.8-.5-1-1.6-.4-2.4.5-.6 1.6-.8 2.2-.3.8.6.9 1.5.3 2.3-.2.3-.5.7-.2.9.3.3.6-.2.8-.5.6-.8.7-2 .1-2.8-.6-.9-1.7-1.2-2.6-.9-1.1.4-1.8 1.4-1.8 2.4zm-5.8 14.7c-.4 0-.7.1-.9.5-.3.6-1 .9-1.6.7-.8-.1-1.3-.7-1.3-1.4-.1-.6.2-1.2.8-1.6.7-.4 1.4-.3 2 .3.2.2.4.5.7.2.3-.3-.1-.5-.2-.7-.8-.8-1.9-1-2.8-.4-1 .6-1.4 1.7-1.1 2.7.3 1.1 1.4 1.8 2.5 1.7.9 0 1.7-.8 1.9-2zm15.6.8c.3.5.8.2 1.2.2.8 0 1.4.6 1.5 1.3.1.7-.4 1.4-1.2 1.6-.8.2-1.5-.3-1.7-1.1-.1-.2-.1-.5-.1-.7-.1-.2-.2-.3-.4-.3s-.2.2-.2.3c-.2.9.5 2 1.5 2.3 1 .4 2.1-.1 2.6-.9.6-1 .4-2.1-.5-2.9-.9-.5-2-.5-2.7.2z" class="c-database-6"/>
            <path d="M469.8 100v-.2h.4c0 .3-.3.2-.4.2z" class="c-database-21"/>
            <path d="M468.4 128.3c-2.3 0-4.2-1.9-4-4.1.2-2.5 2.3-4.2 4.8-3.8.5.1.8 0 1-.5.5-.8 1-1.5 1.5-2.3.5-.7 1.1-1.4.9-2.4-.1-.4.1-.9.4-1.1.6-.5.5-1.1.2-1.7l-.9-2.7c-.1-.3-.2-.4-.6-.4-2.4 0-4-1.6-4.2-3.9-.1-1.9 1.4-3.7 3.5-4.1 1.5-.3 3.2.6 4 2 .8 1.5.7 3.5-.6 4.6-1 .8-1 1.5-.5 2.4.2.3.2.7.3 1 .3.9.5 1.9 1.7 2 .2 0 .5.2.6.4.6 1.2 1.9 1.3 3 1.8.3.1.6.2.8.3 1 .5 1.7.6 2.7-.3 1.2-1.2 3.3-1.1 4.6-.1 1.6 1.2 2.1 3 1.4 4.8-.6 1.5-2.3 2.6-3.9 2.5-1.9-.2-3.4-1.5-3.7-3.3 0-.2-.2-.5-.1-.7.3-1-.2-1.3-1-1.5-.9-.3-1.7-.6-2.5-1-.4-.2-.5-.1-.7.3-.7 1.3-1.8 1.7-3.2 1.1-.4-.2-.6-.1-.8.2-.6.9-1.1 1.8-1.7 2.7-.3.4-.3.7.1 1.1 1.1 1.3 1.4 2.8.6 4.3-.8 1.6-2 2.4-3.7 2.4zm-2.3-4c0 1.1.6 1.9 1.6 2.2 1 .3 2 0 2.6-.9.6-.8.6-1.9.1-2.6-.1-.2-.2-.5-.5-.3-.2.1-.3.3-.1.6.1.1.1.2.2.3.3.9-.1 1.8-1 2.2-.8.3-1.7-.1-2-.9-.4-.9 0-1.8 1-2.1.2-.1.3-.1.5-.2s.4-.3.3-.6c-.1-.2-.4-.1-.5-.1-1.3.2-2.2 1.2-2.2 2.4zm19.3-7.9c-.1 0-.1 0 0 0-.7 0-1.5.1-1.5.7 0 .5.8.1 1.2 0h.2c.9 0 1.6.6 1.7 1.5 0 1-.6 1.7-1.6 1.7-.9 0-1.4-.4-1.6-1.4-.1-.3-.2-.5-.5-.5-.4 0-.3.4-.3.6 0 .2 0 .4.1.6.4 1.1 1.6 1.7 2.7 1.4 1.2-.3 2-1.4 1.9-2.5-.1-1.2-1.1-2.1-2.3-2.1zm-12.5-9.4c.9-.7 1.2-1.6.7-2.6-.4-.9-1.4-1.5-2.3-1.3-1.1.2-1.9 1.1-2 2.2 0 .9.7 1.9 1.6 2.2.2 0 .4.2.6 0 .1-.2 0-.5-.2-.6-.1-.1-.2-.1-.3-.1-.8-.5-1.1-1.3-.7-2.1.4-.7 1.3-.9 2-.6.7.4 1 1.2.5 2-.2.3-.2.6.1.9z" class="c-database-6"/>
            <path d="M462.8 108.3c1.8 0 3.3 1.1 3.8 2.7s-.1 3.4-1.4 4.4c-1.4 1-3.2 1.1-4.6.1-.5-.4-.8-.3-1.3 0-.8.6-1.6 1.2-2.5 1.8-.3.2-.5.4-.4.9.2.6 0 1.2-.4 1.7s-.5 1.1-.6 1.7c-.1 1.1 0 2.2-.2 3.3-.1.5 0 .8.6 1 1.9.9 2.8 2.8 2.2 4.8-.5 1.7-2.3 3-4 2.9-2.1-.1-3.6-1.6-3.8-3.7-.2-1.8 1.2-3.8 3.1-4.2.6-.1.8-.3.8-.9 0-1 .1-2.1.2-3.1 0-.4 0-.6-.5-.7-1.6-.4-2-1-2-2.7 0-.5-.1-.6-.6-.7-.9-.2-1.9-.4-2.8-.7-.6-.2-1-.1-1.3.5-1.1 1.8-3.5 2.4-5.3 1.3-1.9-1.1-2.6-3.5-1.5-5.4 1-1.9 3.3-2.7 5.2-1.7 1.3.6 2.1 1.7 2.2 3.2 0 .5.2.6.6.7 1.3.3 2.5.7 3.7 1 .4.1.8.1 1.3-.1s1.1-.3 1.6 0 .9.2 1.3-.2c.7-.6 1.5-1.2 2.3-1.7.5-.3.6-.6.4-1.2-.7-2.6 1.2-5 3.9-5zm-7.5 19.1c-.1.7-.1.7.2 1 .2.2.4.5.4.8.1.9-.3 1.7-1.1 1.9-.8.2-1.7-.2-2-.9-.3-.7 0-1.6.7-2 .3-.2.7-.4.5-.8-.2-.4-.6 0-.9.1-1 .5-1.4 1.6-1.1 2.6.3 1 1.3 1.8 2.3 1.8.9 0 1.9-.8 2.2-1.7.4-1.1 0-2.1-1.2-2.8zm-9.2-12.6c-.3-1.3-1.1-2-2.3-2-1.1 0-2.1.7-2.4 1.9-.3 1 .3 2.2 1.3 2.6.9.5 2.2.2 2.8-.6.1-.2.5-.4.1-.7-.3-.2-.5-.1-.7.2-.1.1-.2.2-.3.2-.8.5-1.8.4-2.3-.3-.6-.8-.4-1.8.4-2.3.7-.5 1.7-.3 2.2.4.4.4.7.6 1.2.6zm15.5-.8c.2.3.5.3.7.4.9.2 1.9-.2 2.4-1 .5-.9.5-1.9-.2-2.6-.6-.8-1.6-1-2.5-.7-.9.4-1.5 1.3-1.4 2.2 0 .2-.1.4.2.4.2.1.4-.1.5-.3.1-.1 0-.3.1-.4.2-.9.9-1.5 1.8-1.3.7.2 1.3.9 1.2 1.6-.1.9-.9 1.4-1.8 1.2-.5.1-.8.2-1 .5z" class="c-database-6"/>
            <path d="M466.9 108.2c.1.1.2.3.1.3-.2.1-.1-.1-.2-.2l.1-.1z" class="c-database-20"/>
            <path d="M483.3 102.4c.5.2.5.6.5 1 0 1 .7 1.6 1.7 1.6.9 0 1.5-.6 1.5-1.6s-.7-1.6-1.7-1.6h-.2c-.3.1-.7.1-.7-.3s.4-.4.7-.4c1.1-.1 2.1.5 2.5 1.4.4 1 .1 2.2-.8 2.8-.9.6-2 .6-2.9-.1-.9-.6-1.1-1.7-.6-2.8zm4.4-16.8c0 1.5-1.4 2.7-2.8 2.3-.2-.1-.6 0-.5-.4.1-.3.3-.4.7-.4 1.2.2 2-.6 1.9-1.7 0-.9-.8-1.6-1.6-1.5-.8 0-1.5.6-1.6 1.5 0 .4.1 1.1-.4 1.1-.5-.1-.4-.8-.3-1.3.2-1.2 1.4-2.1 2.5-2 1.2.2 2.1 1.2 2.1 2.4zm-21.6 9c0-1 .6-1.8 1.5-2.1.9-.3 1.9 0 2.5.9.1.2.4.4.1.6-.2.2-.5.1-.7-.1-.3-.4-.7-.6-1.2-.6-.7 0-1.3.3-1.5 1-.2.6 0 1.2.6 1.6.6.4 1.2.3 1.8-.1l.3-.3c.2-.2.5-.3.7-.2.3.2 0 .4-.1.6-.5.8-1.5 1.2-2.4.9-1-.4-1.6-1.2-1.6-2.2zm-9.9-19c0 .3-.1.7-.3 1-.1.2-.2.6-.6.4-.3-.1-.3-.4-.1-.7.1-.1.1-.2.1-.3.3-.9-.2-1.8-1-2.1-.8-.3-1.8.2-2 1-.3.9.1 1.8 1 2.1.1 0 .2 0 .3.1.3.1.5.4.4.7-.1.3-.4.1-.6.1-1.2-.2-2.2-1.4-2-2.6.2-1.3 1.3-2.2 2.6-2.1 1.3 0 2.2 1.1 2.2 2.4zm13 7c.4-.4.9-.2 1.3-.1.9.2 1.7-.3 1.9-1.1.2-.8-.1-1.6-.9-1.9-.7-.4-1.7-.1-2.1.6-.1.2-.2.4-.2.7 0 .3-.2.6-.6.5-.4-.1-.3-.4-.2-.7.2-1.1 1.1-1.9 2.1-2 1.2-.1 2.1.5 2.5 1.6.4 1 0 2.1-1 2.8-.8.6-1.8.5-2.8-.4zm-12 14.1c-1.1 0-2-.7-2.2-1.8-.2-1 .4-2.1 1.4-2.4.2-.1.5-.3.7 0 .1.3-.1.6-.4.7-.5.2-.9.6-1 1.1-.1.7.1 1.2.7 1.6.6.3 1.1.2 1.6-.2.6-.5.6-1.1.4-1.8-.1-.4-.5-.8 0-1 .4-.2.6.4.7.7.7 1.4-.3 3.1-1.9 3.1zM443 88c0-1.1.7-2 1.7-2.3 1-.3 2 .1 2.6.9.6.8.6 2-.1 2.8-.2.3-.5.7-.8.5-.3-.2 0-.6.2-.9.6-.8.5-1.7-.3-2.3-.7-.5-1.7-.3-2.2.3-.6.8-.4 1.8.4 2.4.2.1.4.2.5.3.1.1.1.4 0 .5-.1.2-.3.1-.5.1-.8-.3-1.5-1.3-1.5-2.3zm-5.8 14.7c-.2 1.1-1 1.9-2.1 2-1.1.1-2.1-.7-2.5-1.7-.3-1 .1-2.1 1.1-2.7.9-.5 2.1-.4 2.8.4.2.2.6.4.2.7-.3.3-.5.1-.7-.2-.6-.6-1.3-.7-2-.3-.6.3-.9.9-.8 1.6.1.8.5 1.3 1.3 1.4.7.1 1.3-.1 1.6-.7.4-.3.7-.5 1.1-.5zm15.6.8c.8-.7 1.8-.7 2.6 0 .9.8 1.1 1.9.5 2.9-.5.9-1.6 1.3-2.6.9s-1.7-1.4-1.5-2.3c0-.1 0-.3.2-.3s.4.1.4.3c.1.2.1.5.1.7.2.8.9 1.2 1.7 1.1.8-.2 1.3-.8 1.2-1.6-.1-.8-.7-1.3-1.5-1.3-.4-.2-.8.1-1.1-.4zm13.3 20.8c0-1.2.9-2.2 2.1-2.4.2 0 .5-.1.5.1.1.2-.1.4-.3.6-.2.1-.3.1-.5.2-.9.4-1.3 1.3-1 2.1.3.8 1.2 1.2 2 .9.9-.3 1.3-1.2 1-2.2 0-.1-.1-.2-.2-.3-.2-.3 0-.5.1-.6.3-.2.4.1.5.3.5.8.5 1.9-.1 2.6-.6.9-1.7 1.2-2.6.9-.9-.3-1.5-1.1-1.5-2.2zm19.3-7.9c1.3 0 2.2.9 2.4 2.1.1 1.1-.7 2.2-1.9 2.5-1.1.3-2.3-.4-2.7-1.4-.1-.2-.1-.4-.1-.6 0-.2-.1-.6.3-.6.3 0 .4.2.5.5.2 1 .7 1.4 1.6 1.4 1 0 1.6-.7 1.6-1.7 0-.9-.7-1.6-1.7-1.5h-.2c-.4 0-1.2.5-1.2 0-.2-.6.7-.7 1.4-.7-.1 0-.1 0 0 0zm-12.5-9.4c-.3-.3-.2-.6-.1-1 .4-.8.2-1.7-.5-2-.7-.4-1.6-.1-2 .6-.4.7-.1 1.6.7 2.1.1.1.2.1.3.1.2.2.3.4.2.6-.1.2-.4.1-.6 0-.9-.2-1.7-1.2-1.6-2.2 0-1.1.9-2 2-2.2.9-.2 1.9.4 2.3 1.3.4 1.1.2 2-.7 2.7zm-17.6 20.4c1.2.7 1.6 1.7 1.3 2.8-.3.9-1.3 1.7-2.2 1.7-1 0-2.1-.8-2.3-1.8-.3-1 .2-2.1 1.1-2.6.3-.1.6-.5.9-.1.3.4-.2.6-.5.8-.7.4-1 1.3-.7 2 .3.7 1.2 1.1 2 .9.8-.2 1.2-1 1.1-1.9 0-.3-.2-.5-.4-.8-.4-.3-.4-.3-.3-1zm-9.2-12.6c-.5 0-.7-.2-1-.6-.5-.8-1.5-.9-2.2-.4-.8.5-1 1.6-.4 2.3.5.7 1.5.9 2.3.3.1-.1.2-.1.3-.2.2-.3.4-.4.7-.2.3.3 0 .5-.1.7-.6.8-1.9 1-2.8.6-1-.5-1.5-1.6-1.3-2.6.3-1.1 1.3-1.9 2.4-1.9.9 0 1.8.7 2.1 2zm15.5-.8c.3-.4.5-.4.9-.4.9.2 1.6-.4 1.8-1.2.1-.7-.5-1.5-1.2-1.6-.8-.2-1.6.4-1.8 1.3 0 .1 0 .3-.1.4-.1.2-.3.4-.5.3-.2-.1-.2-.3-.2-.4-.1-.9.5-1.9 1.4-2.2.9-.3 1.8-.1 2.5.7.6.8.7 1.8.2 2.6-.5.8-1.5 1.2-2.4 1-.2-.2-.4-.2-.6-.5z" class="c-database-22"/>
          </g>
        </svg>