<?xml version="1.0" encoding="utf-8"?>
<!-- Generator: Adobe Illustrator 21.0.0, SVG Export Plug-In . SVG Version: 6.00 Build 0)  -->
<svg version="1.1" id="Layer_1" xmlns="http://www.w3.org/2000/svg" xmlns:xlink="http://www.w3.org/1999/xlink" x="0px" y="0px"
	 viewBox="0 0 147.2 79.2" style="enable-background:new 0 0 147.2 79.2;" xml:space="preserve">
<style type="text/css">
	.st0{fill:#C4DAF5;}
	.st1{fill:#FFFFFF;stroke:#FBB833;stroke-linecap:round;stroke-linejoin:round;stroke-miterlimit:10;}
	.st2{fill:none;stroke:#DEEDFF;stroke-linecap:round;stroke-linejoin:round;stroke-miterlimit:10;}
	.st3{fill:#FFFFFF;stroke:#F1573B;stroke-linecap:round;stroke-linejoin:round;stroke-miterlimit:10;}
	.st4{fill:#FFFFFF;stroke:#70B544;stroke-linecap:round;stroke-linejoin:round;stroke-miterlimit:10;}
	.st5{fill:#6199DA;}
	.st6{fill:#88ACE5;}
	.st7{fill:#DEEDFF;}
	.st8{fill:none;stroke:#DEEDFF;stroke-miterlimit:10;}
	.st9{fill:none;stroke:#C4DAF5;stroke-miterlimit:10;}
	.st10{fill:none;stroke:#C4DAF5;stroke-linecap:round;stroke-miterlimit:10;}
	.st11{fill:#78909C;}
	.st12{fill:none;stroke:#FDFEFF;stroke-width:0.5;stroke-miterlimit:10;}
	.st13{fill:none;stroke:#FFFFFF;stroke-miterlimit:10;}
	.st14{fill:#546E7A;}
	.st15{fill:#264447;stroke:#FFFFFF;stroke-miterlimit:10;}
	.st16{fill:#23A3C2;}
	.st17{fill:#35BCDF;}
	.st18{fill:#23A0C8;}
	.st19{fill:#38B1D9;}
	.st20{fill:#2081A5;}
	.st21{fill:#1F91B4;}
	.st22{fill:#BEDAD8;}
	.st23{fill:#D3EDEC;}
	.st24{fill:#FFFFFF;}
</style>
<g id="XMLID_262_">
	<path id="XMLID_263_" class="st0" d="M15.7,54.9l4-6.4c0.1-0.2,0.4-0.4,0.6-0.4c7.5-0.2,9.5-3.9,10.9-6.6c0.5-0.9,0.9-1.7,1.4-2.2
		c0.5-0.5,1.6-1.1,5.5-1.1c4.2,0,9.3,0.7,10.6,0.8c4.3-2.6,7.7-3.9,10.3-3.9c1.7,0,2.9,0.5,3.8,1c0.7,0.3,1.2,0.5,1.7,0.5
		c0.4,0,1-0.1,2.2-1c5.5-4.2,14.4-8.5,14.7-8.7c0.2-0.1,0.3-0.1,0.5-0.1l7.5,1.8c0.1,0,0.2,0.1,0.2,0.1l12.6,7.8l8.9-0.9
		c0.2,0,0.4,0.1,0.6,0.2l5.4,5.3c2.4,0.5,15.7,3.2,17.7,5.7"/>
</g>
<path id="XMLID_210_" class="st1" d="M106.4,13.8c0.9-1.3,2.5-1.3,3.4,0"/>
<path id="XMLID_209_" class="st1" d="M13,16.7c1,0,2,0,3,0c0.7,0,1.4,0,2,0c0.8,0,1.4,0.1,2-0.8c0.7-1,2.3-0.8,3,0.2
	c0.3,0.4,0.6,0.5,1,0.5c1.1,0,2.2,0,3.2,0"/>
<path id="XMLID_208_" class="st2" d="M56.5,24.7c-1.4,0-2.9,0-4.3,0c-0.5,0-0.9-0.1-1-0.7c-0.1-0.4-0.3-0.6-0.7-0.6
	s-0.6,0.2-0.7,0.6c-0.1,0.6-0.4,0.7-0.9,0.7c-2.3,0-4.5,0-6.8,0"/>
<path id="XMLID_207_" class="st3" d="M35.3,8.2c-0.8,0-1.7,0-2.6,0c-0.5,0-0.9-0.2-0.8-0.7c0-0.5,0.4-0.7,0.8-0.7c0.3,0,0.6,0,0.9,0
	c0.7,0,1.2,0,1.7-0.7c0.7-1,2.3-0.9,3.1,0.2"/>
<path id="XMLID_206_" class="st4" d="M71.8,10.7c-0.4,0-0.8,0-1.3,0s-0.7-0.2-0.7-0.7c0-0.4,0.3-0.7,0.7-0.7c0.9,0,1.8,0,2.6,0
	c0.4,0,0.7,0.2,0.7,0.7c0,0.5-0.3,0.7-0.8,0.7C72.7,10.7,72.3,10.7,71.8,10.7z"/>
<g id="XMLID_202_">
	<rect id="XMLID_205_" x="56.2" y="22.5" class="st5" width="1.1" height="18.5"/>
	<path id="XMLID_204_" class="st6" d="M61.2,27.9c0,2.3-2,4.2-4.5,4.2c-2.5,0-4.5-1.9-4.5-4.2s2-18.7,4.5-18.7
		C59.2,9.2,61.2,25.6,61.2,27.9z"/>
	<path id="XMLID_203_" class="st7" d="M57.5,32.3c2.1-0.3,3.6-2.2,3.6-4.2c0-2.3-1.9-18.8-4.6-18.8v23H57.5z"/>
</g>
<g id="XMLID_198_">
	<polygon id="XMLID_201_" class="st5" points="68.9,30.3 68.4,30 66.8,31.9 66.8,29.8 66.6,29.8 66.6,31.9 65,30 64.6,30.3 
		66.6,32.7 66.6,37.7 66.8,37.7 66.8,32.7 	"/>
	<path id="XMLID_200_" class="st7" d="M69.3,26.3c-0.2,0-0.4,0-0.5,0.1c-0.4-0.7-1.3-1.2-2.2-1.2c-1,0-1.9,0.6-2.3,1.4
		c-0.2-0.1-0.5-0.1-0.7-0.1c-1.4,0-2.5,1.1-2.5,2.5c0,1.4,1.1,2.5,2.5,2.5c1,0,1.9-0.6,2.3-1.4c0.2,0.1,0.5,0.1,0.7,0.1
		c0.2,0,0.4,0,0.5-0.1c0.4,0.7,1.3,1.2,2.2,1.2c1.4,0,2.5-1.1,2.5-2.5C71.8,27.4,70.7,26.3,69.3,26.3z"/>
	<path id="XMLID_199_" class="st6" d="M69.3,26.3c-0.2,0-0.3,0-0.4,0.1c-0.4-0.7-1.5-1.2-2-1.2v5c0,0,0.2,0,0.4-0.1
		c0.4,0.7,1.2,1.2,2.1,1.2c1.4,0,2.5-1.1,2.5-2.5C71.8,27.4,70.7,26.3,69.3,26.3z"/>
</g>
<g id="XMLID_296_">
	<path id="XMLID_297_" class="st8" d="M134.2,47.6c2,2.4-18,2.7-20.8,2.9c-2.9,0.2,3.5,2.4-1.8,2.7c-53.8,5.5-95.4,2.4-95.4,2.4
		c-20.2,3.3-10.2,5.3,0,5.1s-12,8.4,2.7,10.2c14.6,1.8,33.4-3.1,32.8,2c-0.7,5.1,59.4,2.7,55.4-2c-4-4.7-6.4-5.4,1.3-5.2
		c7.8,0.1,19.9-3.4,15.7-5.6c-4.2-2.2-4.7-3.4,4.2-3.6C137.1,56.2,150.4,48.2,134.2,47.6z"/>
</g>
<g id="XMLID_292_">
	<path id="XMLID_293_" class="st9" d="M71.4,76.4c-8.2,0-18.3-0.4-20.1-2.5c-0.4-0.4-0.4-0.9-0.4-1.2c0.1-0.4-0.1-0.5-0.2-0.6
		c-0.5-0.6-2.3-0.9-5.1-0.9c-2.2,0-4.9,0.2-7.7,0.4c-3.5,0.2-7.4,0.5-11.4,0.5c-2.9,0-5.4-0.1-7.8-0.4c-3.5-0.4-5.3-1.3-5.7-2.6
		c-0.6-1.8,1.4-3.7,3.2-5.4c0.7-0.6,1.7-1.6,1.9-2c-0.2-0.1-0.6-0.2-1.6-0.2c-0.1,0-0.2,0-0.4,0c-3.3,0.1-6.4-0.1-8.7-0.4
		c-2.6-0.4-3.7-1-3.8-1.9c-0.1-1.1,0.8-2.4,12.3-4.3c0.1,0,0.1,0,0.2,0c0.1,0,11.8,0.9,30.5,0.9c21.8,0,43.6-1.1,64.9-3.3
		c0,0,0,0,0.1,0c0.6,0,1-0.1,1.2-0.1c-0.1-0.1-0.1-0.1-0.2-0.2c-0.4-0.4-1-0.9-0.7-1.6c0.2-0.7,1.1-0.7,1.4-0.8
		c0.5,0,1.5-0.1,2.9-0.1c10.3-0.4,16.1-1,17.3-1.7c-0.1-0.2-0.1-0.4,0-0.6c0.1-0.3,0.4-0.4,0.7-0.4c5.6,0.2,8.3,1.3,8.3,3.4
		c0,3.3-8.4,6.8-14.3,6.9c-4.4,0.1-5.8,0.4-6.3,0.7c0.2,0.2,0.8,0.7,2.4,1.5c1.3,0.7,1.3,1.6,1.2,2c-0.7,2.8-10.7,5-16.9,5l0,0
		c-0.1,0-0.3,0-0.4,0c-0.5,0-1,0-1.4,0c-1.7,0-2.4,0.1-2.8,0.2c0.2,0.4,0.8,1,1.4,1.6c0.6,0.6,1.3,1.4,2,2.3c0.4,0.4,0.5,1,0.2,1.5
		c-0.3,0.6-1,2.2-13.1,3.4C87.9,76,79.2,76.4,71.4,76.4z"/>
</g>
<g id="XMLID_290_">
	<path id="XMLID_196_" class="st10" d="M72.2,73.2c-1,0-2,0-2.9,0c-4.3,0-8-0.3-11.4-0.8"/>
</g>
<g id="XMLID_288_">
	<path id="XMLID_195_" class="st10" d="M88.7,72.3c-2.1,0.1-4.2,0.2-6.3,0.4c-2.3,0.1-4.7,0.3-7.1,0.4h0"/>
</g>
<g id="XMLID_286_">
	<path id="XMLID_188_" class="st10" d="M100.1,71c-2.6,0.5-5.3,0.8-8.3,1.1c0,0-0.1,0-0.1,0"/>
</g>
<g id="XMLID_284_">
	<path id="XMLID_187_" class="st10" d="M106.2,62.9c-2.6,0.2-4.4,0.8-5.2,1.8c-0.4,0.5-0.5,1.2-0.4,2.1"/>
</g>
<g id="XMLID_282_">
	<path id="XMLID_186_" class="st10" d="M110.4,61.2c2.6-0.2,4.7-0.4,6.6-0.9"/>
</g>
<g id="XMLID_280_">
	<path id="XMLID_185_" class="st10" d="M116.1,56.1c-2.2,1.3-4.4,1.4-6.5,1.4c-1.2,0-2.4,0-3.5,0.3c-0.1,0-0.1,0-0.2,0"/>
</g>
<g id="XMLID_278_">
	<path id="XMLID_184_" class="st10" d="M72.2,58.7c4.8-0.1,9.7-0.5,14.4-0.9c4.2-0.4,8.5-0.7,12.8-0.9"/>
</g>
<g id="XMLID_276_">
	<path id="XMLID_183_" class="st10" d="M57.5,59.1c3.3,0,6.8-0.1,10.4-0.2"/>
</g>
<g id="XMLID_272_">
	<path id="XMLID_178_" class="st10" d="M24.4,58.7c1.4,0.1,2.8,0.1,4.2,0.1"/>
</g>
<g id="XMLID_270_">
	<path id="XMLID_177_" class="st10" d="M53.3,69.8c-2.6-2.6-7-2.4-10.5-2.3c-2.3,0.1-4.6,0.3-6.9,0.5c-2.9,0.2-5.8,0.4-8.7,0.5
		c-3.5,0.1-6.3-0.1-9-0.5c-0.2,0-0.4-0.1-0.5-0.3"/>
</g>
<path id="XMLID_175_" class="st11" d="M76,30.9c0.6-0.3,1.1-0.6,1.6-0.9C77.1,30.3,76.5,30.6,76,30.9z"/>
<path id="XMLID_173_" class="st11" d="M77.6,30c0.4-0.2,0.7-0.4,1-0.5C78.3,29.7,77.9,29.8,77.6,30z"/>
<path id="XMLID_171_" class="st11" d="M68.2,35.7c2.4-1.7,5.3-3.4,7.7-4.8C73.5,32.3,70.6,34,68.2,35.7z"/>
<path id="XMLID_170_" class="st11" d="M93.8,32.5l-4.5-2.8L93.8,32.5z"/>
<path id="XMLID_169_" class="st11" d="M79,29.3c0.3-0.2,0.6-0.3,0.8-0.4C79.6,29,79.3,29.1,79,29.3z"/>
<path id="XMLID_167_" class="st11" d="M80.2,28.6c0.2-0.1,0.4-0.2,0.6-0.3C80.7,28.4,80.5,28.5,80.2,28.6z"/>
<path id="XMLID_165_" class="st6" d="M45.8,44.3c2-2,15.7,0,15.7,0c14.4-8.9,12.9,0.7,18.4-3.5c4.6-3.5,11.7-7.2,13.9-8.3l-4.5-2.8
	l-7.5-1.8c0,0-0.3,0.2-0.9,0.4c-0.2,0.1-0.4,0.2-0.6,0.3c-0.1,0.1-0.2,0.1-0.4,0.2c-0.2,0.1-0.5,0.3-0.8,0.4
	c-0.1,0.1-0.3,0.2-0.5,0.2c-0.3,0.2-0.7,0.4-1,0.5c-0.5,0.3-1.1,0.6-1.6,0.9c-2.5,1.4-5.3,3.1-7.7,4.8c-0.4,0.3-0.7,0.5-1.1,0.8
	c-5.5,4.2-4-5.3-18.4,3.5c0,0-0.1,0-0.4-0.1c-0.1,0-0.2,0-0.2,0c-0.2,0-0.4-0.1-0.7-0.1c-0.1,0-0.3,0-0.4-0.1c-0.1,0-0.3,0-0.5-0.1
	c-0.2,0-0.3,0-0.5-0.1c-0.2,0-0.4,0-0.5-0.1s-0.4-0.1-0.6-0.1c-0.1,0-0.2,0-0.3,0c-2-0.2-4.5-0.4-6.7-0.4c-1.7,0-3.3,0.1-4.2,0.5
	c-0.2,0.1-0.3,0.1-0.4,0.2C33.1,40,33.1,40,33,40.1c-2,2-2.4,8.9-12.9,9.1l-4,6.4c0,0,0,0,0,0h0c0,0,0,0,0,0c0.1,0,0.2,0,0.3,0
	c0,0,0.1,0,0.1,0c0,0,0.1,0,0.1,0s0.1,0,0.1,0c0.1,0,0.2,0,0.3,0c0,0,0,0,0.1,0c0.1,0,0.1,0,0.2,0c0,0,0.1,0,0.1,0
	c0.4,0,0.8,0.1,1.3,0.1c0,0,0,0,0.1,0c0.9,0.1,2.1,0.1,3.4,0.2h0c0.8,0,1.6,0.1,2.5,0.1h0c0.7,0,1.4,0.1,2.1,0.1c0.1,0,0.1,0,0.1,0
	c0.2,0,0.5,0,0.7,0c0,0,0.1,0,0.1,0c0.5,0,1,0,1.4,0.1c0,0,0.1,0,0.1,0c0.2,0,0.5,0,0.7,0c0.1,0,0.2,0,0.3,0c0.2,0,0.5,0,0.7,0l0,0
	l1.7-2.8C43.4,53.1,43.8,46.3,45.8,44.3z"/>
<g id="XMLID_159_">
	<path id="XMLID_163_" class="st0" d="M89.1,11.7c0.2,0,0.4,0,0.6,0c0.1,0.1,0.3,0.1,0.4,0.2c3.1,1.5,6.2,2.9,9.3,4.4
		c0.5,0.2,0.8,0.7,1,1.2c0.6,2.6,1.2,5.3,1.8,7.9c0.2,0.8,0.4,1.5,0.5,2.3c0,0.1,0,0.3,0,0.4c-0.1,0.4-0.2,0.7-0.5,1
		c-2,2.5-4,5-6,7.5c-0.4,0.5-0.8,0.9-1.3,1c-3.6,0-7.3,0-11,0c-0.4-0.2-0.8-0.4-1.1-0.8c-1.7-2.2-3.5-4.3-5.1-6.4
		c-0.6-0.7-1.3-1.3-1.6-2.3c0-0.2,0-0.3,0-0.5c0.1,0,0-0.1,0.1-0.2c0.8-3.3,1.5-6.6,2.3-9.8c0.1-0.6,0.5-1.1,1.1-1.4
		c2.1-1,4.2-2,6.3-3C86.9,12.7,88,12.1,89.1,11.7z"/>
	<path id="XMLID_161_" class="st12" d="M89,17.2c0-0.4-0.1-0.8-0.1-1.1c0-0.1,0-0.3,0-0.4c0.1-0.3,0.3-0.5,0.5-0.5
		c0.3,0,0.5,0.2,0.5,0.5c0,0.2,0,0.4,0,0.6c-0.1,0.3-0.1,0.6-0.1,1c0,0.2,0,0.4,0.1,0.5c0,0,0.1,0.1,0.1,0.1c0,0.2,0.1,0.2,0.3,0.2
		c1.6,0.2,3,0.9,4.2,2c0.1,0.1,0.2,0.1,0.3,0.1c0.7-0.1,1-0.6,1.4-1c0.1-0.1,0.2-0.2,0.4-0.3c0.2-0.1,0.5-0.1,0.7,0.1
		c0.2,0.2,0.2,0.5,0,0.7c-0.1,0.2-0.3,0.3-0.5,0.4c-0.3,0.2-0.6,0.4-0.9,0.6c-0.1,0.1-0.2,0.2-0.2,0.3c0,0,0,0.1,0,0.1
		c-0.2,0.1-0.1,0.3,0,0.4c0.8,1.4,1.2,2.9,1,4.5c0,0.1,0,0.2,0.1,0.3c0.5,0.5,1.1,0.3,1.7,0.4c0.2,0,0.3,0.1,0.5,0.1
		c0.2,0.1,0.4,0.4,0.4,0.6s-0.3,0.4-0.6,0.4c-0.2,0-0.4-0.1-0.6-0.2c-0.4-0.1-0.7-0.3-1.1-0.4c-0.1,0-0.2,0-0.4,0.1
		c0,0-0.1,0.1-0.1,0c-0.3-0.1-0.3,0.1-0.3,0.3c-0.6,1.5-1.5,2.7-2.9,3.6c-0.1,0.1-0.1,0.1-0.1,0.3c-0.1,0.7,0.4,1,0.7,1.5
		c0.1,0.2,0.2,0.3,0.2,0.5c0.1,0.3,0,0.5-0.3,0.7c-0.2,0.1-0.5,0.1-0.7-0.2c-0.1-0.2-0.2-0.3-0.2-0.5c-0.1-0.4-0.2-0.7-0.4-1
		c-0.1-0.1-0.1-0.2-0.3-0.3c0,0-0.1,0-0.1,0c-0.1-0.3-0.3-0.1-0.5-0.1c-1.5,0.5-3.1,0.5-4.5-0.1c-0.1-0.1-0.2-0.1-0.3,0.1
		c0,0,0,0,0,0c-0.5,0.3-0.5,0.9-0.7,1.3c-0.1,0.1-0.1,0.3-0.2,0.4c-0.2,0.3-0.5,0.5-0.8,0.3c-0.3-0.1-0.4-0.5-0.2-0.8
		c0.1-0.2,0.3-0.4,0.4-0.7c0.1-0.2,0.2-0.4,0.4-0.7c0.1-0.1,0.1-0.2,0-0.4c0,0,0-0.1,0-0.1c0.2-0.3-0.1-0.4-0.2-0.5
		c-1.3-0.9-2.3-2.1-2.8-3.6c-0.1-0.1-0.1-0.2-0.2-0.2c0,0,0,0-0.1,0c-0.5-0.2-0.9,0.1-1.4,0.2c-0.2,0.1-0.4,0.2-0.6,0.2
		c-0.4,0.1-0.7-0.1-0.7-0.4c-0.1-0.3,0.1-0.6,0.5-0.7c0.4-0.1,0.8-0.1,1.3-0.1c0.2-0.1,0.4-0.1,0.7-0.3c0.3-0.2,0.2-0.4,0.2-0.6
		c-0.1-1.6,0.2-3,1.1-4.4c0.1-0.1,0.1-0.2,0-0.3c-0.2-0.6-0.8-0.7-1.2-1.1c-0.1-0.1-0.3-0.2-0.4-0.3c-0.2-0.2-0.2-0.5-0.1-0.8
		c0.2-0.2,0.5-0.2,0.7-0.1c0.2,0.1,0.3,0.2,0.4,0.4c0.2,0.2,0.4,0.4,0.6,0.6c0.2,0.2,0.4,0.2,0.6,0.3c0.3,0.1,0.4-0.1,0.5-0.2
		c1.2-1.1,2.5-1.7,4.1-1.9c0.1,0,0.2,0,0.2-0.2c0,0,0-0.1,0.1-0.1C88.9,17.4,89,17.4,89,17.2z M91.8,26.6c-0.4,0-0.6,0.3-0.5,0.7
		c0.4,0.9,0.7,1.7,1.1,2.6c0.1,0.1,0.1,0.1,0.2,0.1c1-0.7,1.7-1.6,2.1-2.7c0.1-0.1,0-0.2-0.1-0.2c-0.2,0-0.4-0.1-0.6-0.1
		C93.3,26.8,92.6,26.7,91.8,26.6z M88.6,19.7c0-0.3,0-0.3-0.1-0.3c-1.2,0.2-2.2,0.7-3.1,1.5c-0.1,0.1-0.1,0.1,0,0.2
		c0.8,0.5,1.5,1.1,2.3,1.6c0.3,0.2,0.7,0,0.7-0.3c0-0.1,0-0.2,0-0.2C88.6,21.3,88.6,20.5,88.6,19.7z M84.5,22.1
		c-0.1,0.1-0.1,0.1-0.1,0.2c-0.5,1-0.8,2-0.7,3.1c0,0.2,0.1,0.2,0.2,0.2c0.8-0.2,1.7-0.5,2.5-0.7c0.2-0.1,0.4-0.2,0.4-0.4
		c0.1-0.2-0.1-0.4-0.2-0.5c-0.7-0.6-1.3-1.2-2-1.8C84.6,22.2,84.5,22.2,84.5,22.1z M89.4,30.9c0.6,0,1.1-0.1,1.7-0.2
		c0.1,0,0.2-0.1,0.1-0.2c-0.5-0.8-0.9-1.6-1.3-2.4c-0.2-0.4-0.7-0.4-0.9,0c-0.4,0.8-0.9,1.6-1.3,2.4c-0.1,0.1-0.1,0.2,0.1,0.2
		C88.3,30.8,88.8,30.9,89.4,30.9z M95.1,25.1c0-1-0.3-1.9-0.7-2.8c-0.1-0.1-0.1-0.2-0.3-0.1c-0.7,0.6-1.3,1.2-1.9,1.7
		c-0.2,0.1-0.3,0.3-0.2,0.5c0.1,0.2,0.2,0.3,0.4,0.4c0.7,0.2,1.4,0.4,2.1,0.6c0.2,0.1,0.4,0.2,0.5,0.1
		C95.2,25.5,95.1,25.3,95.1,25.1z M87.4,27.1c0-0.3-0.2-0.5-0.6-0.5c-0.9,0.1-1.8,0.3-2.7,0.4c-0.2,0-0.1,0.1-0.1,0.2
		c0.4,1.1,1.1,1.9,2.1,2.6c0.1,0.1,0.2,0.1,0.2-0.1c0.3-0.8,0.7-1.6,1-2.4C87.4,27.3,87.4,27.2,87.4,27.1z M90.1,20.1
		c0,0.4,0,0.7,0.1,1.1c0,0.4,0,0.7,0.1,1.1c0,0.4,0.4,0.6,0.8,0.4c0.8-0.5,1.5-1.1,2.3-1.6c0.1-0.1,0.1-0.1,0-0.2
		c-0.9-0.8-1.9-1.3-3.1-1.5c-0.1,0-0.1,0-0.1,0.1C90.1,19.7,90.1,19.9,90.1,20.1z M89.4,24.2c-0.2,0.1-0.4-0.1-0.5,0.1
		c-0.2,0.2-0.5,0.4-0.5,0.7c0,0.3,0,0.6,0.2,0.8c0.2,0.2,0.5,0.4,0.8,0.4c0.3,0,0.6-0.2,0.8-0.4c0.2-0.2,0.2-0.5,0.2-0.8
		c0-0.3-0.3-0.5-0.5-0.7C89.7,24.1,89.5,24.2,89.4,24.2z"/>
</g>
<path id="XMLID_157_" class="st5" d="M113.4,50.4c2.9-0.2,22.8-0.4,20.8-2.9c-2-2.4-17.5-5.4-17.5-5.4l-5.5-5.4l-9.1,0.9l-8.3-5.1
	c-2.2,1.1-9.3,4.8-13.9,8.3c-5.5,4.2-4-5.3-18.4,3.5c0,0-13.7-2-15.7,0s-2.4,8.9-12.9,9.1l-1.7,2.8c16.8,0.5,46.1,0.4,80.5-3.1
	C117,52.9,110.5,50.7,113.4,50.4z"/>
<g id="XMLID_274_">
	<path id="XMLID_155_" class="st13" d="M51.9,60.6C51.9,60.6,51.9,60.6,51.9,60.6c-1.9,0-3.8,0-5.6-0.1c-3.5,0-7.2-0.1-10.8-0.1"/>
</g>
<path id="XMLID_151_" class="st14" d="M27.8,56.1c-0.2,0-0.5,0-0.7,0C27.3,56.1,27.6,56.1,27.8,56.1z"/>
<path id="XMLID_150_" class="st14" d="M24.8,56c-0.9,0-1.8-0.1-2.5-0.1C23,55.9,23.9,55.9,24.8,56z"/>
<path id="XMLID_149_" class="st14" d="M16.7,55.6c-0.1,0-0.1,0-0.1,0C16.7,55.6,16.7,55.6,16.7,55.6z"/>
<path id="XMLID_148_" class="st14" d="M26.9,56.1c-0.7,0-1.4-0.1-2.1-0.1C25.5,56,26.2,56.1,26.9,56.1z"/>
<path id="XMLID_147_" class="st14" d="M16.2,55.5L16.2,55.5C16.2,55.5,16.2,55.5,16.2,55.5z"/>
<path id="XMLID_138_" class="st14" d="M33.7,39.6c0.9-0.4,2.5-0.5,4.2-0.5C36.1,39.2,34.6,39.3,33.7,39.6z"/>
<path id="XMLID_137_" class="st14" d="M16.5,55.6c-0.1,0-0.2,0-0.3,0C16.3,55.5,16.4,55.6,16.5,55.6z"/>
<path id="XMLID_136_" class="st14" d="M33.2,39.9c0.1-0.1,0.3-0.2,0.4-0.2C33.5,39.7,33.4,39.8,33.2,39.9z"/>
<path id="XMLID_135_" class="st14" d="M17.4,55.6c-0.1,0-0.1,0-0.2,0C17.3,55.6,17.3,55.6,17.4,55.6z"/>
<path id="XMLID_134_" class="st14" d="M30.2,56.2c-0.2,0-0.5,0-0.7,0C29.7,56.2,29.9,56.2,30.2,56.2z"/>
<path id="XMLID_133_" class="st14" d="M31.2,56.2c-0.2,0-0.5,0-0.7,0C30.7,56.2,30.9,56.2,31.2,56.2z"/>
<path id="XMLID_132_" class="st14" d="M17.1,55.6c-0.1,0-0.2,0-0.3,0C16.9,55.6,17,55.6,17.1,55.6z"/>
<path id="XMLID_114_" class="st14" d="M22.2,55.9c-1.4-0.1-2.5-0.1-3.4-0.2C19.7,55.8,20.9,55.8,22.2,55.9z"/>
<path id="XMLID_113_" class="st14" d="M29.4,56.2c-0.5,0-1,0-1.4-0.1C28.4,56.1,28.8,56.1,29.4,56.2z"/>
<path id="XMLID_112_" class="st14" d="M18.8,55.7c-0.5,0-0.9-0.1-1.3-0.1C17.9,55.6,18.3,55.7,18.8,55.7z"/>
<path id="XMLID_111_" class="st11" d="M17.5,55.6C17.5,55.6,17.4,55.6,17.5,55.6C17.4,55.6,17.4,55.6,17.5,55.6z"/>
<path id="XMLID_65_" class="st11" d="M18.8,55.7C18.8,55.7,18.8,55.7,18.8,55.7C18.8,55.7,18.8,55.7,18.8,55.7z"/>
<path id="XMLID_64_" class="st11" d="M30.5,56.2c-0.1,0-0.2,0-0.3,0C30.3,56.2,30.4,56.2,30.5,56.2z"/>
<path id="XMLID_63_" class="st11" d="M22.3,55.9C22.3,55.9,22.2,55.9,22.3,55.9C22.2,55.9,22.3,55.9,22.3,55.9z"/>
<path id="XMLID_62_" class="st11" d="M29.5,56.2c-0.1,0-0.1,0-0.1,0C29.4,56.2,29.4,56.2,29.5,56.2z"/>
<path id="XMLID_61_" class="st11" d="M31.2,56.2L31.2,56.2L31.2,56.2L31.2,56.2z"/>
<path id="XMLID_60_" class="st11" d="M27.9,56.1c0,0-0.1,0-0.1,0C27.8,56.1,27.9,56.1,27.9,56.1z"/>
<path id="XMLID_59_" class="st11" d="M27.1,56.1c-0.1,0-0.1,0-0.1,0C27,56.1,27,56.1,27.1,56.1z"/>
<path id="XMLID_58_" class="st11" d="M24.9,56L24.9,56C24.8,56,24.8,56,24.9,56z"/>
<path id="XMLID_57_" class="st11" d="M47,39.8c0.1,0,0.3,0,0.4,0.1C47.3,39.9,47.2,39.9,47,39.8z"/>
<path id="XMLID_56_" class="st11" d="M46,39.7c0.2,0,0.4,0,0.5,0.1C46.4,39.7,46.2,39.7,46,39.7z"/>
<path id="XMLID_55_" class="st11" d="M48.1,40c0.1,0,0.2,0,0.2,0C48.3,40,48.3,40,48.1,40z"/>
<path id="XMLID_139_" class="st11" d="M45.5,39.6c0.2,0,0.4,0.1,0.5,0.1C45.9,39.7,45.7,39.7,45.5,39.6z"/>
<path id="XMLID_140_" class="st11" d="M16.2,55.5L16.2,55.5L16.2,55.5z"/>
<path id="XMLID_141_" class="st11" d="M16.6,55.6C16.6,55.6,16.5,55.6,16.6,55.6C16.5,55.6,16.6,55.6,16.6,55.6z"/>
<path id="XMLID_142_" class="st11" d="M16.8,55.6C16.8,55.6,16.8,55.6,16.8,55.6C16.8,55.6,16.8,55.6,16.8,55.6z"/>
<path id="XMLID_143_" class="st11" d="M44.9,39.6c0.2,0,0.4,0.1,0.6,0.1C45.3,39.6,45.1,39.6,44.9,39.6z"/>
<path id="XMLID_144_" class="st11" d="M17.2,55.6C17.2,55.6,17.2,55.6,17.2,55.6C17.1,55.6,17.2,55.6,17.2,55.6z"/>
<path id="XMLID_145_" class="st11" d="M37.9,39.2c2.2,0,4.7,0.2,6.7,0.4C42.6,39.3,40.1,39.1,37.9,39.2z"/>
<path id="XMLID_146_" class="st11" d="M16.2,55.5C16.2,55.5,16.2,55.5,16.2,55.5C16.2,55.5,16.2,55.5,16.2,55.5z"/>
<path id="XMLID_182_" class="st15" d="M46.6,48.6l4,0.1l-0.1,4.1l2,0.1c0.9,0,1.9-0.1,2.8-0.4c0.4-0.1,0.9-0.3,1.4-0.6
	c-0.5-0.7-0.8-1.7-0.9-2.6c-0.1-1.3,0.2-2.8,1.1-3.8l0.4-0.5l0.5,0.4c1.2,1,2.2,2.5,2.4,4.1c1.5-0.4,3.3-0.2,4.6,0.5l0.5,0.3L65,51
	c-1.2,2.2-3.5,2.8-5.8,2.6c-3.6,8.5-11.2,12.3-20.3,12.1c-4.7-0.1-8.9-2-11.3-6.2l0-0.1l-0.3-0.7c-0.8-1.9-1-3.9-0.8-5.9l0.1-0.6
	l3.4,0.1l0.1-4.1l3.8,0.1l0.1-4l7.9,0.2l0.1-4l4.8,0.1L46.6,48.6"/>
<path id="XMLID_174_" class="st16" d="M30.5,48.9L34,49l-0.1,3.4l-3.4-0.1L30.5,48.9z"/>
<path id="XMLID_172_" class="st16" d="M34.6,45.1l3.4,0.1L38,48.6l-3.4-0.1L34.6,45.1z"/>
<path id="XMLID_168_" class="st17" d="M34.5,49l3.4,0.1l-0.1,3.4l-3.4-0.1L34.5,49z"/>
<path id="XMLID_166_" class="st16" d="M38.5,49.1l3.4,0.1l-0.1,3.4l-3.4-0.1L38.5,49.1z"/>
<path id="XMLID_164_" class="st17" d="M38.6,45.2l3.4,0.1l-0.1,3.4l-3.4-0.1L38.6,45.2z"/>
<path id="XMLID_162_" class="st17" d="M42.5,49.2l3.4,0.1l-0.1,3.4l-3.4-0.1L42.5,49.2z"/>
<path id="XMLID_160_" class="st16" d="M42.5,45.2l3.4,0.1l-0.1,3.4l-3.4-0.1L42.5,45.2z"/>
<path id="XMLID_158_" class="st17" d="M42.6,41.3l3.4,0.1L46,44.8l-3.4-0.1L42.6,41.3z"/>
<path id="XMLID_156_" class="st16" d="M46.4,49.3l3.4,0.1l-0.1,3.4l-3.4-0.1L46.4,49.3z"/>
<g id="XMLID_53_">
	<g id="XMLID_54_">
		<path id="XMLID_181_" class="st18" d="M59.4,50.5c0.3-2.1-1.2-3.7-2.1-4.5c-1.1,1.3-1.4,4.6,0.3,6c-1,0.8-3.1,1.6-5.1,1.5L27,52.9
			c-0.2,2.2,0.1,4.2,0.9,5.9l0.3,0.5c0.2,0.3,0.4,0.6,0.6,0.9l0,0c1,0.1,2,0.1,2.9,0.1l0,0c1.7,0,3.2-0.2,4.2-0.5
			c0.2-0.1,0.3,0,0.4,0.2c0.1,0.2,0,0.3-0.2,0.4c-0.1,0.1-0.3,0.1-0.4,0.1l0,0c-0.8,0.2-1.8,0.4-2.9,0.4c0.1,0-0.1,0-0.1,0
			c0,0-0.1,0-0.1,0c-0.5,0-1,0-1.5,0c-0.5,0-1.1,0-1.7-0.1h0c2.1,2.4,5.3,3.9,9.5,4.1c8.8,0.2,16.3-3.5,19.9-12.1
			c2.3,0.3,4.6-0.2,5.7-2.2C62.7,49.7,60.6,49.9,59.4,50.5"/>
		<path id="XMLID_180_" class="st19" d="M59.4,50.5c0.3-2.1-1.2-3.7-2.1-4.5c-1.1,1.3-1.4,4.6,0.3,6c-1,0.8-3.1,1.6-5.1,1.5
			l-23.9-0.6c-0.2,3.3,1,5.9,3.1,7.5l0,0c1.7,0,3.2-0.2,4.2-0.5c0.2-0.1,0.3,0,0.4,0.2s0,0.3-0.2,0.4c-0.1,0.1-0.3,0.1-0.4,0.1l0,0
			c-0.8,0.2-1.8,0.4-3,0.4l0,0c2.9,1.6,7.3,1.7,12.3-0.1c5.6-2,10.9-6,14.7-10.5C59.5,50.4,59.4,50.4,59.4,50.5"/>
		<path id="XMLID_179_" class="st20" d="M27,55.5c0.1,1.2,0.4,2.3,0.9,3.3l0.3,0.5c0.2,0.3,0.4,0.6,0.6,0.9c1,0.1,2,0.1,2.9,0.1
			c1.7,0,3.2-0.2,4.2-0.5c0.2-0.1,0.3,0,0.4,0.2c0.1,0.2,0,0.3-0.2,0.4c-0.1,0.1-0.3,0.1-0.4,0.1l0,0c-0.8,0.2-1.8,0.4-3,0.4
			c0,0-0.1,0-0.2,0c-0.5,0-1,0-1.5,0c-0.5,0-1.1,0-1.7-0.1c2.1,2.4,5.4,3.9,9.5,4.1c7.5,0.2,14.1-2.5,18.1-8.7L27,55.5"/>
		<path id="XMLID_176_" class="st21" d="M28.7,55.6c0.4,2.1,1.4,3.7,3,4.8c1.7,0,3.2-0.2,4.2-0.5c0.2-0.1,0.3,0,0.4,0.2
			s0,0.3-0.2,0.4c-0.1,0.1-0.3,0.1-0.4,0.1l0,0c-0.8,0.2-1.9,0.4-3,0.4c2.9,1.6,7.3,1.7,12.3-0.1c3-1.1,6-2.7,8.6-4.7L28.7,55.6"/>
		<path id="XMLID_153_" class="st22" d="M39.9,65c-2.3-1.2-3.6-2.7-4.2-4.4c-0.9,0.2-1.9,0.4-3.2,0.4c-0.5,0-1,0-1.4,0
			c-0.6,0-1.2-0.1-1.9-0.1c2.1,2.2,4.7,3.9,9.6,4.1C39.2,65,39.5,65,39.9,65"/>
	</g>
	<path id="XMLID_152_" class="st23" d="M36.5,62.2c-0.3-0.4-0.6-1-0.8-1.6c-0.9,0.2-1.9,0.4-3.2,0.4C33.3,61.5,34.5,61.9,36.5,62.2"
		/>
</g>
<path id="XMLID_154_" class="st24" d="M37.5,58.4c0.1,0,0.2,0,0.2,0.1c-0.1,0.1-0.1,0.1-0.1,0.2c0,0.2,0.1,0.3,0.3,0.3
	c0.1,0,0.2-0.1,0.2-0.1c0,0.1,0.1,0.2,0.1,0.3c0,0.4-0.3,0.7-0.7,0.7c-0.4,0-0.7-0.3-0.7-0.7C36.8,58.7,37.1,58.4,37.5,58.4"/>
</svg>
