<svg xmlns="http://www.w3.org/2000/svg" id="Layer_1" viewBox="0 0 110 63.7" width="555" height="350">
              <style>
                .elasticSearch-0{fill:#88ACE5;} .elasticSearch-1{fill:url(#SVGID_1_);} .elasticSearch-2{fill:#F4F2F2;} .elasticSearch-3{fill:#6199DA;} .elasticSearch-4{fill:#F0F0F0;} .elasticSearch-5{fill:#C4DAF5;} .elasticSearch-6{fill:#262629;} .elasticSearch-7{fill:#3A5997;} .elasticSearch-8{fill:#404041;} .elasticSearch-9{fill:#FAD598;} .elasticSearch-10{fill:#F5A725;} .elasticSearch-11{fill:none;stroke:#FF2C57;stroke-miterlimit:10;} .elasticSearch-12{fill:#FF5D5D;} .elasticSearch-13{fill:#00D40B;} .elasticSearch-14{fill:#FFC504;} .elasticSearch-15{fill:#DEEDFF;} .elasticSearch-16{fill:#FFFFFF;} .elasticSearch-17{fill:#8697CB;} .elasticSearch-18{fill:#F0C419;} .elasticSearch-19{fill:#4FBA6F;} .elasticSearch-20{fill:#E64C3C;} .elasticSearch-21{fill:#F7FCF9;} .elasticSearch-22{fill:#B4C8ED;} .elasticSearch-23{fill:#F7931E;} .elasticSearch-24{fill:#3BB878;} .elasticSearch-25{fill:#ED1C24;} .elasticSearch-26{fill:#3EBEB2;} .elasticSearch-27{fill:#F2BC1A;} .elasticSearch-28{fill:#262223;} .elasticSearch-29{fill:#252223;} .elasticSearch-30{fill:#1D6758;} .elasticSearch-31{fill:#2D478F;} .elasticSearch-32{fill:#242021;} .elasticSearch-33{fill:#231F20;} .elasticSearch-34{fill:#272324;} .elasticSearch-35{fill:#E74A8C;} .elasticSearch-36{fill:#95C540;} .elasticSearch-37{fill:#77CEDE;} .elasticSearch-38{fill:#80D1DF;} .elasticSearch-39{fill:#85D2E1;} .elasticSearch-40{fill:#73CDDD;} .elasticSearch-41{fill:#89D3E1;} .elasticSearch-42{fill:#94BE86;} .elasticSearch-43{fill:#505050;} .elasticSearch-44{fill:#535353;} .elasticSearch-45{fill:#E9B83B;} .elasticSearch-46{fill:#EBBD4A;} .elasticSearch-47{fill:#EABB43;} .elasticSearch-48{fill:#84B673;} .elasticSearch-49{fill:#ECC155;} .elasticSearch-50{fill:#8AB97A;}
              </style>
              <path d="M17.6 59.7h89.7v.6H17.6z" class="elasticSearch-0"/>
              <linearGradient id="SVGID_1_" x1="17.6" x2="107.3" y1="750.5" y2="750.5" gradientUnits="userSpaceOnUse" gradientTransform="translate(0 -696)">
                <stop offset="0" stop-color="#FFF"/>
                <stop offset="1" stop-color="#EFF5FB"/>
              </linearGradient>
              <path d="M97.3 49.3H27.5l-9.9 10.4h89.7z" class="elasticSearch-1"/>
              <path d="M28.6 48.1c.2.5 2.8 3.1 2.8 3.1s8.9 0 9.5-.3c.6-.3 2.6-1.6 2.8-1.5s2.3.4 2.3.4 2.4 1.6 2.1 1.9c-.3.4-1.3-.2-1.3-.2l-.9-.6-1-.1.6 1.4s-.2.6-.3.6h-.4l-.3.4h-.6s-.2.3-.5.4c-.3 0-1.9.2-2.3 0-.4-.2-1.1-.3-1.1-.3s-9.5 1.3-9.8 1.1-3.3-3.4-3.5-3.1c-.2.2 1.9-3.2 1.9-3.2z" class="elasticSearch-2"/>
              <path d="M30.4 49.6c.1.1-1.8 4-1.8 4s-4.9-5.3-4.8-5.5c0-.2.3-5.2.3-5.2l6.3 6.7z" class="elasticSearch-0"/>
              <path d="M20.7 40.9c.3.1 2.7 1.1 3.4 2 1.6 2.2-1 11 .1 19.5h-9.6c-1.9-11.7-.2-19.7 6.1-21.5z" class="elasticSearch-3"/>
              <path d="M25 39.1c-.7 2.3-.9 4.2-.8 5.6-.8.1-5.2-2.7-3.9-3.4.7-.4 1.2-1 1.3-4l3.4 1.8zM27.9 50c.3.5 1.6 2.6 1.6 2.6s9 .3 9.5-.1c.6-.4 2.4-1.7 2.5-1.6.2.1 2.2.2 2.2.2s2.4 1.4 2.1 1.7c-.3.4-1.2-.2-1.2-.2l-.9-.5h-.9c.5.1 1 .3 1.1.3s1.8 1.6 1.8 1.6 0 .2-.4.2c-.5 0-.6-.2-.7-.2l-1.1-.8-.7-.2 1.4.9.9 1c-.4.5-1.3-.2-1.6-.6-.1-.1-1-.4-.9-.3.1.8-.5.7-1 .8-.3 0-1.8.2-2.2.1-.4-.1-1-.3-1-.3s-8.8 1.6-9.8 1.2c-1-.4-2.4-3.3-2.5-3.1-.3.5 1.8-2.7 1.8-2.7z" class="elasticSearch-4"/>
              <path d="M19 42.2c.2-.3.9-1.6 2.7-.1 1.8 1.5 7.4 9.1 7.4 9.1l-2.6 3.2s-6.1-6.8-7.1-8.2c-1.1-1.5-.4-4-.4-4z" class="elasticSearch-5"/>
              <path d="M56 42.9l-6 12.9c-.1.2-.4.3-.5.2-.2-.1-.2-.4-.1-.7l6-12.9c.1-.2.4-.3.5-.2.1.1.2.4.1.7z" class="elasticSearch-0"/>
              <path d="M56 42.9l-6 12.9c-.1.2-.4.3-.5.2l6.4-13.7c.1 0 .2.3.1.6z" class="elasticSearch-5"/>
              <path d="M47.3 55.2h1v.2h-1zm-1.2 0h1v.2h-1zm-1.1 0h1v.2h-1zm-1.1 0h1v.2h-1z" class="elasticSearch-0"/>
              <path d="M37.6 55.3h11.7c.2 0 .4.2.4.5s-.2.5-.4.5H37.6c-.2 0-.4-.2-.4-.5.1-.3.2-.5.4-.5z" class="elasticSearch-5"/>
              <path d="M40.2 55.7h1v.3h-1zm-1.4 0h1v.3h-1zm9.4-.1H42c-.1 0-.1.1-.1.1v.3c0 .1 0 .1.1.1h6.2c.1 0 .1-.1.1-.1v-.3c0-.1-.1-.1-.1-.1zm-21.7-1.3s-1-1.2-2.3-2.6c-.3 3.3-.5 7 0 10.7H20c.2-3 .7-14.4.5-14.9-.1-.4 4.2 4.2 5.3 5.2.1.1.2.1.3.2.5.3.9.4 1.3.4l-.6.7-.3.3z" class="elasticSearch-0"/>
              <path d="M8.7 38.7c-1.8-.4-3.3.1-3.5 2.1 0 .2 4.1 10 4.4 14.1.1 1.6.7 4.9 1 7.5h4.8c-.8-6.1-1.9-22.5-6.7-23.7z" class="elasticSearch-5"/>
              <path d="M5.4 40c-.1.2-.1.5-.2.8 0 .2 3.9 9.6 5 21.6h2.6C12.2 55.9 11.4 42 5.4 40z" class="elasticSearch-0"/>
              <path d="M13.1 57.4c.8 0 20.8-.8 16.2 2.8-.4.3-3.8-.6-7.6-.7-4.5-.1-9.6.7-9.9.7-.7-.1-1.3-.8-1-1.8.3-1.1 2.3-1 2.3-1z" class="elasticSearch-0"/>
              <path d="M24.4 58.6c2.5.2 4.6.5 5.6.7 0 .3-.3.6-.7.9 0 0-.1 0-.2.1-.5-.2-.8-.3-.8 0-.9-.1-2.2-.3-3.8-.5-.9-.1-1.8-.2-2.8-.2H21c-2.2 0-4.4.2-6.2.4h-.1c-1.7.2-2.8.3-3 .3-.3 0-.5-.2-.7-.4.7-.6 2-1 3.6-1.2h.2c1.9-.2 4.1-.2 6.3-.2 1.2 0 2.3 0 3.3.1z" class="elasticSearch-3"/>
              <path id="XMLID_245_" d="M19.9 35.8l.2.7.7-.2v-.1c.3.1 1-.1 1.1-.1l.6-.4v-.1s0-.1-.1-.1c-1.2.2-1.5-.1-1.7-.1 0 .1-.8.4-.8.4z" class="elasticSearch-6"/>
              <path id="XMLID_244_" d="M24.7 22c4.6 0 9.4 3.7 8.6 8.7-.2 1.4-1.6 2-1.7 2.7.6 1.9 1.5 1.8 1.3 2.6-.1.3-.9.4-1.5.5-.8 2.7-3.7 3.9-6.7 3.9-4.6 0-8.4-4.1-8.4-9.2s3.8-9.2 8.4-9.2z" class="elasticSearch-4"/>
              <path id="XMLID_79_" d="M35.2 25.9c.9 1.4.1 3.7.1 3.3 0-.3-.7-1.1-1.3-1.6 0 .1 0 .2-.1.3-.3 1.1-1.9 1.6-1.9 1.6s0-.3-.1-1c0-.3-.2-.6-.4-.7h-.4c-.1.2-.3.4-.8.7-1.2.7-2.7.8-2.5.8s1.2-.5.8-1.4c-.5 0-1 0-1.5-.1-1.8-.2-2.7.2-3.4 1-.8.8-1.2 5.3-1.4 5.1-.3-.1-1.1-.3-1.1-.3s.9-3 .8-4.2c-.2-1.2-.6-1.6-2.2-1.1-2.3.8-1.7 3.7-.5 5.3 0 0-.4 2.6-.8 3s-1.3.7-1.2.6c.1-.1.2-.9.2-.9l-.7.3s-.2-1-.1-1.2-.9-3.3-1-5.4c-.3-4 1.6-8.6 5.2-7.7 2-1.6 12.9-1.4 14.3 3.6z" class="elasticSearch-7"/>
              <path id="XMLID_78_" d="M32.7 32.2l-.3-.1-.2.6c-1.7-.7-10.4-4-10.6-3.9s0 .4 0 .4l10.3 4.3-1 2.6.3.1 1.4-3.4.1-.6z" class="elasticSearch-8"/>
              <ellipse id="XMLID_77_" cx="20.2" cy="30.8" class="elasticSearch-4" rx="2.2" ry="3.1"/>
              <path id="XMLID_76_" d="M20.8 28.8c-.1 0-1-.2-1.5.4s-.4 2.4 0 3c.4.5 1.2.8 1.7.4.5-.3.7-.8.3-1-.4-.3-.8-.6-.6-.8.1-.2.4-.1.6-.3.2-.2.1-.8-.1-1.2-.2-.5-.4-.5-.4-.5z" class="elasticSearch-5"/>
              <path id="XMLID_75_" d="M32.7 31.9c1.1-1-2.7-1.4-3-1 1.2.2 2.1.3 3 1z" class="elasticSearch-7"/>
              <g class="login-elasticsearch-babbuls">
                    <circle cx="39.2" cy="37.5" r=".5" class="elasticSearch-9 lg-logo-1 "/>
                    <circle cx="58.5" cy="4.3" r=".7" class="elasticSearch-9 lg-logo-2"/>
                    <circle cx="4.1" cy="38.3" r=".7" class="elasticSearch-10 lg-logo-5"/>
                    <circle cx="24.6" cy="5.9" r=".5" class="elasticSearch-11 lg-logo-3"/>
                    <circle cx="97.8" cy="28.6" r=".9" class="elasticSearch-11 lg-logo-3"/>
                    <g class="ci-dot">
                        <path d="M51 30.7c-.1 0-.1 0-.2-.1s-.1-.3 0-.3l.9-.9c.1-.1.3-.1.3 0 .1.1.1.3 0 .3l-.9.9-.1.1z" class="elasticSearch-12 lg-logo-2 lg-logo-9"/>
                        <path d="M51.8 30.7c-.1 0-.1 0-.2-.1l-.9-.9c-.1-.1-.1-.3 0-.3.1-.1.3-.1.3 0l.9.9c.1.1.1.3 0 .3 0 0 0 .1-.1.1z" class="elasticSearch-12 "/>
                    </g>
                    <path d="M101.2 8.6c-.6 0-1.1-.5-1.1-1.1s.5-1.1 1.1-1.1 1.1.5 1.1 1.1-.5 1.1-1.1 1.1zm0-1.6c-.3 0-.5.2-.5.5s.2.5.5.5.5-.2.5-.5c-.1-.3-.3-.5-.5-.5z" class="elasticSearch-13 lg-logo-4"/>
                    <path d="M8.1 18.5l-.5-.5c-.1-.1 0-.2 0-.2l.5-.5c.1-.1.2-.1.3 0l.5.5c.1.1.1.2 0 .3l-.5.5s-.1.1-.3-.1zm-.2-.6l.3.3.3-.3-.3-.3-.3.3z" class="elasticSearch-14 lg-logo-1"/>
              </g>
              <g class="elasticSearch-code">
                  <g class="elasticSearch-monitoe">
                    <path d="M88.3 33.5h-31c-1 0-1.9-.9-1.9-1.9V10.5c0-1 .9-1.9 1.9-1.9h31c1.1 0 1.9.9 1.9 1.9v21.1c0 1-.8 1.9-1.9 1.9z" class="elasticSearch-15"/>
                    <path d="M57.3 9.1c-.8 0-1.4.6-1.4 1.4v21.1c0 .8.6 1.4 1.4 1.4h31c.8 0 1.4-.6 1.4-1.4V10.5c0-.8-.6-1.4-1.4-1.4h-31z" class="elasticSearch-16"/>
                  </g>
                  <g class="code-elasticSearch code-line">
                        <path d="M77 15.7h-4.2c-.2 0-.4-.2-.4-.4s.2-.4.4-.4H77c.2 0 .4.2.4.4-.1.3-.2.4-.4.4z" class="elasticSearch-17"/>
                        <path d="M81.5 15.7h-3.3c-.2 0-.4-.2-.4-.4s.2-.4.4-.4h3.3c.2 0 .4.2.4.4 0 .3-.2.4-.4.4z" class="elasticSearch-18"/>
                        <path d="M83.6 15.7H83c-.2 0-.4-.2-.4-.4s.2-.4.4-.4h.6c.2 0 .4.2.4.4-.2.3-.3.4-.4.4z" class="elasticSearch-19"/>
                        <path d="M85.1 17h-4.9c-.2 0-.4-.2-.4-.4s.2-.4.4-.4h4.9c.2 0 .4.2.4.4 0 .3-.2.4-.4.4z" class="elasticSearch-17"/>
                        <path d="M79 17h-4.6c-.2 0-.4-.2-.4-.4s.2-.4.4-.4H79c.2 0 .4.2.4.4-.2.3-.2.4-.4.4zm-5.9 0h-.4c-.2 0-.4-.2-.4-.4s.2-.4.4-.4h.4c.2 0 .4.2.4.4-.1.3-.2.4-.4.4z" class="elasticSearch-20"/>
                        <path d="M75.7 18.3h-2.9c-.2 0-.4-.2-.4-.4s.2-.4.4-.4h2.9c.2 0 .4.2.4.4s-.2.4-.4.4z" class="elasticSearch-17"/>
                        <path d="M77.7 18.3H77c-.2 0-.4-.2-.4-.4s.2-.4.4-.4h.6c.2 0 .4.2.4.4s-.2.4-.3.4z" class="elasticSearch-18"/>
                        <path d="M83.6 18.3H79c-.2 0-.4-.2-.4-.4s.2-.4.4-.4h4.6c.2 0 .4.2.4.4-.1.2-.3.4-.4.4z" class="elasticSearch-19"/>
                        <path d="M77 19.6h-4.2c-.2 0-.4-.2-.4-.4s.2-.4.4-.4H77c.2 0 .4.2.4.4-.1.2-.2.4-.4.4z" class="elasticSearch-18"/>
                        <path d="M81.5 19.6h-3.3c-.2 0-.4-.2-.4-.4s.2-.4.4-.4h3.3c.2 0 .4.2.4.4s-.2.4-.4.4z" class="elasticSearch-19"/>
                        <path d="M82.9 20.9h-2.6c-.2 0-.4-.2-.4-.4s.2-.4.4-.4h2.6c.2 0 .4.2.4.4-.1.3-.3.4-.4.4z" class="elasticSearch-18"/>
                        <path d="M79 20.9h-4.6c-.2 0-.4-.2-.4-.4s.2-.4.4-.4H79c.2 0 .4.2.4.4-.2.3-.2.4-.4.4z" class="elasticSearch-17"/>
                        <path d="M73.1 20.9h-.4c-.2 0-.4-.2-.4-.4s.2-.4.4-.4h.4c.2 0 .4.2.4.4-.1.3-.2.4-.4.4z" class="elasticSearch-19"/>
                        <path d="M75.7 22.3h-2.9c-.2 0-.4-.2-.4-.4s.2-.4.4-.4h2.9c.2 0 .4.2.4.4-.1.2-.2.4-.4.4z" class="elasticSearch-18"/>
                        <path d="M77.7 22.3H77c-.2 0-.4-.2-.4-.4s.2-.4.4-.4h.6c.2 0 .4.2.4.4s-.2.4-.3.4z" class="elasticSearch-17"/>
                        <path d="M83.8 22.3h-4.9c-.2 0-.4-.2-.4-.4s.2-.4.4-.4h4.9c.2 0 .4.2.4.4s-.2.4-.4.4z" class="elasticSearch-20"/>
                        <path d="M77 23.5h-4.2c-.2 0-.4-.2-.4-.4s.2-.4.4-.4H77c.2 0 .4.2.4.4-.1.3-.2.4-.4.4z" class="elasticSearch-17"/>
                        <path d="M81.5 23.5h-3.3c-.2 0-.4-.2-.4-.4s.2-.4.4-.4h3.3c.2 0 .4.2.4.4 0 .3-.2.4-.4.4z" class="elasticSearch-19"/>
                        <path d="M85.1 23.5h-2.3c-.2 0-.4-.2-.4-.4s.2-.4.4-.4h2.3c.2 0 .4.2.4.4 0 .3-.2.4-.4.4z" class="elasticSearch-20"/>
                        <path d="M81.5 24.8h-1.3c-.2 0-.4-.2-.4-.4s.2-.4.4-.4h1.3c.2 0 .4.2.4.4 0 .3-.2.4-.4.4z" class="elasticSearch-17"/>
                        <path d="M79 24.8h-4.6c-.2 0-.4-.2-.4-.4s.2-.4.4-.4H79c.2 0 .4.2.4.4-.2.3-.2.4-.4.4z" class="elasticSearch-20"/>
                        <path d="M73.1 24.8h-.4c-.2 0-.4-.2-.4-.4s.2-.4.4-.4h.4c.2 0 .4.2.4.4-.1.3-.2.4-.4.4z" class="elasticSearch-18"/>
                        <path d="M75.7 26.1h-2.9c-.2 0-.4-.2-.4-.4s.2-.4.4-.4h2.9c.2 0 .4.2.4.4-.1.3-.2.4-.4.4z" class="elasticSearch-19"/>
                        <path d="M77.7 26.1H77c-.2 0-.4-.2-.4-.4s.2-.4.4-.4h.6c.2 0 .4.2.4.4s-.2.4-.3.4z" class="elasticSearch-17"/>
                        <path d="M81.3 26.1H79c-.2 0-.4-.2-.4-.4s.2-.4.4-.4h2.3c.2 0 .4.2.4.4-.2.3-.3.4-.4.4z" class="elasticSearch-20"/>
                        <path d="M82.9 26.1h-.4c-.2 0-.4-.2-.4-.4s.2-.4.4-.4h.4c.2 0 .4.2.4.4s-.3.4-.4.4z" class="elasticSearch-18"/>
                        <path d="M68.8 15.7H73c.2 0 .4-.2.4-.4s-.2-.3-.4-.3h-4.2c-.2 0-.4.2-.4.4.1.2.2.3.4.3z" class="elasticSearch-17"/>
                        <path d="M64.2 15.7h3.3c.2 0 .4-.2.4-.4s-.3-.3-.5-.3h-3.3c-.2 0-.4.2-.4.4.2.2.3.3.5.3z" class="elasticSearch-18"/>
                        <path d="M62.2 15.7h.6c.2 0 .4-.2.4-.4s-.2-.3-.3-.3h-.6c-.2 0-.4.2-.4.4s.2.3.3.3z" class="elasticSearch-19"/>
                        <path d="M60.7 17h4.9c.2 0 .4-.2.4-.4s-.2-.4-.4-.4h-4.9c-.2 0-.4.2-.4.4 0 .3.2.4.4.4z" class="elasticSearch-17"/>
                        <path d="M66.8 17h4.6c.2 0 .4-.2.4-.4s-.2-.4-.4-.4h-4.6c-.2 0-.4.2-.4.4.1.3.2.4.4.4zm5.9 0h.3c.2 0 .4-.2.4-.4s-.2-.4-.4-.4h-.4c-.2 0-.4.2-.4.4.2.3.3.4.5.4z" class="elasticSearch-20"/>
                        <path d="M70.1 18.3H73c.2 0 .4-.2.4-.4s-.2-.4-.4-.4h-2.9c-.2 0-.4.2-.4.4s.2.4.4.4z" class="elasticSearch-17"/>
                        <path d="M68.1 18.3h.6c.2 0 .4-.2.4-.4s-.2-.4-.4-.4h-.6c-.2 0-.4.2-.4.4.1.2.3.4.4.4z" class="elasticSearch-18"/>
                        <path d="M62.2 18.3h4.6c.2 0 .4-.2.4-.4s-.2-.4-.4-.4h-4.6c-.2 0-.4.2-.4.4.1.2.3.4.4.4z" class="elasticSearch-19"/>
                        <path d="M68.8 19.6H73c.2 0 .4-.2.4-.4s-.2-.4-.4-.4h-4.2c-.2 0-.4.2-.4.4.1.2.2.4.4.4z" class="elasticSearch-18"/>
                        <path d="M64.2 19.6h3.3c.2 0 .4-.2.4-.4s-.2-.4-.4-.4h-3.3c-.2 0-.4.2-.4.4.1.2.2.4.4.4z" class="elasticSearch-19"/>
                        <path d="M62.9 20.9h2.6c.2 0 .4-.2.4-.4s-.2-.4-.4-.4h-2.6c-.2 0-.4.2-.4.4.1.3.2.4.4.4z" class="elasticSearch-18"/>
                        <path d="M66.8 20.9h4.6c.2 0 .4-.2.4-.4s-.2-.4-.4-.4h-4.6c-.2 0-.4.2-.4.4.1.3.2.4.4.4z" class="elasticSearch-17"/>
                        <path d="M72.7 20.9h.3c.2 0 .4-.2.4-.4s-.2-.4-.4-.4h-.4c-.2 0-.4.2-.4.4.2.3.3.4.5.4z" class="elasticSearch-19"/>
                        <path d="M70.1 22.3H73c.2 0 .4-.2.4-.4s-.2-.4-.4-.4h-2.9c-.2 0-.4.2-.4.4s.2.4.4.4z" class="elasticSearch-18"/>
                        <path d="M68.1 22.3h.6c.2 0 .4-.2.4-.4s-.2-.4-.4-.4h-.6c-.2 0-.4.2-.4.4.1.2.3.4.4.4z" class="elasticSearch-17"/>
                        <path d="M61.9 22.3h4.9c.2 0 .4-.2.4-.4s-.2-.4-.4-.4h-4.9c-.2 0-.4.2-.4.4.1.2.2.4.4.4z" class="elasticSearch-20"/>
                        <path d="M68.8 23.5H73c.2 0 .4-.2.4-.4s-.2-.4-.4-.4h-4.2c-.2 0-.4.2-.4.4.1.3.2.4.4.4z" class="elasticSearch-17"/>
                        <path d="M64.2 23.5h3.3c.2 0 .4-.2.4-.4s-.2-.4-.4-.4h-3.3c-.2 0-.4.2-.4.4.1.3.2.4.4.4z" class="elasticSearch-19"/>
                        <path d="M60.7 23.5H63c.2 0 .4-.2.4-.4s-.2-.4-.4-.4h-2.3c-.2 0-.4.2-.4.4 0 .3.2.4.4.4z" class="elasticSearch-20"/>
                        <path d="M64.2 24.8h1.3c.2 0 .4-.2.4-.4s-.2-.4-.4-.4h-1.3c-.2 0-.4.2-.4.4.1.3.2.4.4.4z" class="elasticSearch-17"/>
                        <path d="M66.8 24.8h4.6c.2 0 .4-.2.4-.4s-.2-.4-.4-.4h-4.6c-.2 0-.4.2-.4.4.1.3.2.4.4.4z" class="elasticSearch-20"/>
                        <path d="M72.7 24.8h.3c.2 0 .4-.2.4-.4s-.2-.4-.4-.4h-.4c-.2 0-.4.2-.4.4.2.3.3.4.5.4z" class="elasticSearch-18"/>
                        <path d="M70.1 26.1H73c.2 0 .4-.2.4-.4s-.2-.4-.4-.4h-2.9c-.2 0-.4.2-.4.4 0 .3.2.4.4.4z" class="elasticSearch-19"/>
                        <path d="M68.1 26.1h.6c.2 0 .4-.2.4-.4s-.2-.4-.4-.4h-.6c-.2 0-.4.2-.4.4s.3.4.4.4z" class="elasticSearch-17"/>
                        <path d="M64.5 26.1h2.3c.2 0 .4-.2.4-.4s-.2-.4-.4-.4h-2.3c-.2 0-.4.2-.4.4s.3.4.4.4z" class="elasticSearch-20"/>
                        <path d="M62.9 26.1h.4c.2 0 .4-.2.4-.4s-.2-.4-.4-.4h-.4c-.2 0-.4.2-.4.4.1.3.2.4.4.4z" class="elasticSearch-18"/>
                  </g>
              </g>  
              <g class="elasticSearch-db">
                <g class="elasticSearch-db-4 coding-svg" id="elasticSearch-db-4">
                    <path d="M66.6 51.4c.7-.3 1.4-.4 2.2-.4 1.2.1 2.1.6 3.1 1 .8.3 1.6.6 2.3 1 .9.4 2.1.9 1.5 1.7-.2.3-.5.5-.9.7-1.2.6-2.5 1.1-3.8 1.6-1.2.5-2.5.8-3.8.4-.7-.2-1.3-.4-1.9-.7-.9-.4-1.7-.7-2.6-1.1-.8-.3-1.3-.7-1.4-1.4-.1-.9 1.7-1.3 2.6-1.7.8-.3 1.6-.6 2.4-1 .1-.1.2-.1.3-.1z" class="elasticSearch-21"/>
                    <path d="M68.3 57.7c-.4 0-.8 0-1.2-.1-.7-.2-1.3-.4-1.9-.7l-2.6-1.1c-.6-.3-1.5-.7-1.6-1.6-.1-1 1.2-1.4 2.2-1.8.2-.1.4-.2.6-.2.3-.1.6-.2.9-.4l1.5-.6c.1 0 .1-.1.2-.1.8-.3 1.6-.5 2.4-.4 1 .1 1.9.4 2.7.8.2.1.4.2.5.2.8.3 1.6.6 2.3 1 .8.3 1.6.7 1.8 1.3.1.2.1.5-.2.8-.2.3-.5.5-1 .8-1.1.5-2.3 1-3.5 1.5l-.4.2c-.9.2-1.8.4-2.7.4zm-1.6-6.1c-.1 0-.1.1-.2.1l-1.5.6c-.3.1-.6.2-.9.4-.2.1-.4.2-.6.2-.8.3-1.9.7-1.8 1.2 0 .4.4.8 1.2 1.1l2.6 1.1c.6.3 1.2.5 1.8.7 1.1.3 2.3.1 3.7-.4l.4-.2c1.2-.5 2.3-.9 3.4-1.4.4-.2.6-.4.8-.6.1-.2.1-.3.1-.3-.1-.4-1-.7-1.4-.9-.8-.3-1.5-.6-2.3-.9-.2-.1-.4-.2-.5-.2-.8-.3-1.6-.7-2.5-.7-.9-.2-1.6 0-2.3.2z" class="elasticSearch-22"/>
                    <circle cx="62.8" cy="54.7" r=".3" class="elasticSearch-23"/>
                    <circle cx="63.8" cy="55.2" r=".3" class="elasticSearch-24"/>
                </g>
                  <g class="elasticSearch-db-3 coding-svg" id="elasticSearch-db-3">
                    <path d="M66.6 48.9c.7-.3 1.4-.4 2.2-.4 1.2.1 2.1.6 3.1 1 .8.3 1.6.6 2.3 1 .9.4 2.1.9 1.5 1.7-.2.3-.5.5-.9.7-1.2.6-2.5 1.1-3.8 1.6-1.2.5-2.5.8-3.8.4-.7-.2-1.3-.4-1.9-.7-.9-.4-1.7-.7-2.6-1.1-.8-.3-1.3-.7-1.4-1.4-.1-.9 1.7-1.3 2.6-1.7.8-.3 1.6-.6 2.4-1 .1-.1.2-.1.3-.1z" class="elasticSearch-21"/>
                    <path d="M68.3 55.2c-.4 0-.8 0-1.2-.1-.7-.2-1.3-.4-1.9-.7l-2.6-1.1c-.6-.3-1.5-.7-1.6-1.6-.1-1 1.2-1.4 2.2-1.8.2-.1.4-.2.6-.2.3-.1.6-.2.9-.4l1.5-.6c.1 0 .1-.1.2-.1.8-.3 1.6-.5 2.4-.4 1 .1 1.9.4 2.7.8.2.1.4.2.5.2.8.3 1.6.6 2.3 1 .8.3 1.6.7 1.8 1.3.1.2.1.5-.2.8-.2.3-.5.5-1 .8-1.1.5-2.3 1-3.5 1.5l-.4.2c-.9.2-1.8.4-2.7.4zm-1.6-6.1c-.1 0-.1.1-.2.1-.5.2-1 .4-1.6.6l-.9.3c-.2.1-.4.2-.6.2-.8.3-1.9.7-1.8 1.2 0 .4.4.8 1.2 1.1l2.6 1.1c.6.3 1.2.5 1.8.7 1.1.3 2.3.1 3.7-.4l.4-.2c1.2-.5 2.3-.9 3.4-1.4.4-.2.6-.4.8-.6.1-.2.1-.3.1-.3-.1-.4-1-.7-1.4-.9-.8-.3-1.5-.6-2.3-.9-.2-.1-.4-.2-.5-.2-.8-.3-1.6-.7-2.5-.7-.8-.1-1.5 0-2.2.3z" class="elasticSearch-22"/>
                    <circle cx="62.8" cy="51.6" r=".3" class="elasticSearch-23"/>
                    <circle cx="63.6" cy="52.2" r=".3" class="elasticSearch-24"/>
                  </g>
                  <g class="elasticSearch-db-2 coding-svg" id="elasticSearch-db-2">
                    <path d="M66.6 46.6c.7-.3 1.4-.4 2.2-.4 1.2.1 2.1.6 3.1 1 .8.3 1.6.6 2.3 1 .9.4 2.1.9 1.5 1.7-.2.3-.5.5-.9.7-1.2.6-2.5 1.1-3.8 1.6-1.2.5-2.5.8-3.8.4-.7-.2-1.3-.4-1.9-.7-.9-.4-1.7-.7-2.6-1.1-.8-.3-1.3-.7-1.4-1.4-.1-.9 1.7-1.3 2.6-1.7.8-.3 1.6-.6 2.4-1 .1-.1.2-.1.3-.1z" class="elasticSearch-21"/>
                    <path d="M68.3 53c-.4 0-.8 0-1.2-.1-.7-.2-1.3-.4-1.9-.7L62.6 51c-.6-.3-1.5-.7-1.6-1.6-.1-1 1.2-1.4 2.2-1.8.2-.1.4-.2.6-.2.3-.1.6-.2.9-.4l1.5-.6.2-.1c.8-.3 1.5-.5 2.4-.4 1 .1 1.9.4 2.7.8.2.1.4.2.5.2.8.3 1.6.6 2.3 1 .7.3 1.6.7 1.8 1.3.1.2.1.5-.2.8-.2.3-.5.5-1 .8-1.1.5-2.3 1-3.4 1.5l-.4.2c-1 .3-1.9.5-2.8.5zm.2-6.5c-.6 0-1.2.1-1.8.4l-.2.1-1.5.6c-.3.1-.6.2-.9.4-.2.1-.4.2-.6.2-.8.3-1.9.7-1.8 1.2 0 .4.4.8 1.2 1.1l2.6 1.1c.6.3 1.2.5 1.8.7 1.1.3 2.3.1 3.7-.4l.4-.2c1.1-.5 2.3-.9 3.4-1.4.4-.2.6-.4.8-.6.1-.2.1-.3.1-.3-.1-.4-.9-.7-1.4-.9-.8-.3-1.5-.6-2.3-.9-.2-.1-.4-.2-.5-.2-.8-.3-1.6-.7-2.5-.7-.3-.2-.4-.2-.5-.2z" class="elasticSearch-22"/>
                    <circle cx="62.8" cy="48.8" r=".3" class="elasticSearch-25"/>
                    <circle cx="63.6" cy="49.4" r=".3" class="elasticSearch-24"/>
                  </g>
                  <g class="elasticSearch-db-1 coding-svg" id="elasticSearch-db-1">
                    <path d="M66.6 43.9c.7-.3 1.4-.4 2.2-.4 1.2.1 2.1.6 3.1 1 .8.3 1.6.6 2.3 1 .9.4 2.1.9 1.5 1.7-.2.3-.5.5-.9.7-1.2.6-2.5 1.1-3.8 1.6-1.2.5-2.5.8-3.8.4-.7-.2-1.3-.4-1.9-.7-.9-.4-1.7-.7-2.6-1.1-.8-.3-1.3-.7-1.4-1.4-.1-.9 1.7-1.3 2.6-1.7.8-.3 1.6-.6 2.4-1 .1 0 .2-.1.3-.1z" class="elasticSearch-21"/>
                    <path d="M68.3 50.3c-.4 0-.8 0-1.2-.1-.7-.2-1.3-.4-1.9-.7l-2.6-1.1c-.6-.3-1.5-.7-1.6-1.6-.1-1 1.2-1.4 2.2-1.8.2-.1.4-.2.6-.2.3-.1.6-.2.9-.4l1.5-.6c.1 0 .1-.1.2-.1.8-.3 1.6-.5 2.4-.4 1 .1 1.9.4 2.7.8.2.1.4.2.5.2.8.3 1.6.6 2.3 1 .8.3 1.6.7 1.8 1.3.1.2.1.5-.2.8-.2.3-.5.5-1 .8-1.1.5-2.3 1-3.5 1.5l-.4.2c-.9.2-1.8.4-2.7.4zm-1.6-6.1c-.1 0-.1.1-.2.1-.5.2-1 .4-1.6.6l-.9.3c-.2.1-.4.2-.6.2-.8.3-1.9.7-1.8 1.2 0 .4.4.8 1.2 1.1l2.6 1.1c.6.3 1.2.5 1.8.7 1.1.3 2.3.1 3.7-.4l.4-.2c1.2-.5 2.3-.9 3.4-1.4.4-.2.6-.4.8-.6.1-.2.1-.3.1-.3-.1-.4-1-.7-1.4-.9-.8-.3-1.5-.6-2.3-.9-.2-.1-.4-.2-.5-.2-.8-.3-1.6-.7-2.5-.7-.8-.1-1.5 0-2.2.3z" class="elasticSearch-22"/>
                    <g id="XMLID_53_">
                        <path id="XMLID_74_" d="M66.3 47.9c-.3 0-.5-.2-.5-.5 0-.1 0-.1.1-.2s.2-.2.4-.3c.1.1.3.1.4.2 0 0 0 .1.1.2 0 .1 0 .2-.1.3v.1c-.1.1-.2.2-.4.2z" class="elasticSearch-26"/>
                        <path id="XMLID_73_" d="M66.7 46c.3 0 .6.3.5.6-.1.1-.3.2-.4.4h-.1c-.1-.1-.3-.1-.4-.2 0 0 0-.1-.1-.1v-.1c0-.1 0-.2.1-.3.1-.2.2-.3.4-.3z" class="elasticSearch-27"/>
                        <path id="XMLID_72_" d="M68.4 47.1h-.2v.1c0 .1.1.1.2.2s.2 0 .2-.1h.1v.1s0 .1-.1.1c-.2.1-.6.1-.6-.3 0-.2 0-.3.1-.4.2-.2.5-.1.6.1v.2c0 .1 0 .1-.1.1 0-.1-.1-.1-.2-.1zm0-.1h.2s.1 0 0-.1c0-.1-.1-.2-.3-.2-.1 0-.2.1-.2.2.2.1.2.1.3.1z" class="elasticSearch-28"/>
                        <path id="XMLID_71_" d="M69.7 47.4c-.1.1-.2.1-.4.1-.1 0-.2-.1-.2-.2s0-.2.1-.2.2 0 .2-.1h.1s.1 0 .1-.1v-.1h-.2l-.1.1h-.1v-.1c0-.1.1-.1.2-.1h.3c.1 0 .2.1.2.2v.6c-.1.1-.2 0-.2-.1zm0-.2s0-.1 0 0c0-.1 0-.1 0 0-.1-.1-.1-.1-.2-.1h-.2s-.1.1 0 .1c0 0 0 .1.1.1h.2s.1 0 .1-.1z" class="elasticSearch-28"/>
                        <path id="XMLID_70_" d="M70.2 46.7h.2c.1 0 .1.1.1.1v.1h-.1c0-.1-.1-.1-.2-.1h-.1s-.1 0-.1.1c0 0 0 .1.1.1h.4c.1 0 .1.1.1.2s0 .2-.1.2c-.2.1-.3.1-.5 0l-.1-.1s0-.1.1-.1h.1c.1.1.2.2.3.1.1 0 .1-.1.1-.1v-.1h-.4c-.2-.1-.1-.3 0-.4h.1z" class="elasticSearch-29"/>
                        <path id="XMLID_69_" d="M67.4 47c0 .1-.1.2-.2.3-.1 0-.2 0-.3-.1 0 0 0-.1-.1-.1.1-.1.3-.2.4-.4.2 0 .2.2.2.3z" class="elasticSearch-30"/>
                        <path id="XMLID_68_" d="M65.5 46.9c0-.1.1-.2.2-.3.1 0 .2 0 .3.1 0 0 0 .1.1.1-.1.1-.3.2-.4.4-.1 0-.2-.2-.2-.3z" class="elasticSearch-31"/>
                        <path id="XMLID_67_" d="M71.3 47.1c0-.2.1-.3.2-.4.2-.1.3 0 .4.1v.2h-.1c0-.1-.1-.1-.2-.1s-.2.1-.2.2v.3c0 .1.2.2.3.1 0 0 .1 0 .1-.1 0 0 0-.1.1 0s0 0 0 .1-.1.2-.2.2h-.3c0-.3 0-.4-.1-.6z" class="elasticSearch-28"/>
                        <path id="XMLID_66_" d="M70.7 47.1v-.3s-.1 0-.1-.1 0-.1.1-.1h.1v-.1s0-.1.1-.1.1 0 .1.1v.1h.1s.1 0 .1.1 0 .1-.1.1H71v.6s0 .1-.1.1h-.1c-.1-.2-.1-.3-.1-.4z" class="elasticSearch-32"/>
                        <path id="XMLID_65_" d="M69 47v.6h-.1v-1s0-.1.1-.1.1 0 .1.1c-.1 0-.1.2-.1.4z" class="elasticSearch-33"/>
                        <path id="XMLID_58_" d="M71.3 47.1v.3c0 .1 0 .1-.1.1s-.1 0-.1-.1v-.7s0-.1.1-.1c0 0 .1 0 .1.1v.4z" class="elasticSearch-34"/>
                        <path id="XMLID_56_" d="M65.8 46.4c0-.1 0-.2.1-.2h.2c0 .1 0 .2-.1.3 0 0-.1 0-.2-.1 0 .1 0 .1 0 0 0 .1 0 0 0 0z" class="elasticSearch-35"/>
                        <path id="XMLID_55_" d="M67.2 47.5c0 .1 0 .2-.1.2h-.2c0-.1 0-.2.1-.3 0 0 .1 0 .2.1 0-.1 0-.1 0 0 0-.1 0 0 0 0z" class="elasticSearch-36"/>
                        <path id="XMLID_54_" d="M71.1 46.5c0-.1 0-.1 0 0 .1-.1.2 0 .2 0h-.2z" class="elasticSearch-34"/>
                    </g>
                </g>
              </g>  
              <g class="kibana-db">
                  <g class="kibana-db-4 coding-svg" id="kibana-db-4">
                    <path d="M86.4 51.4c.7-.3 1.4-.4 2.2-.4 1.2.1 2.1.6 3.1 1 .8.3 1.6.6 2.3 1 .9.4 2.1.9 1.5 1.7-.2.3-.5.5-.9.7-1.2.6-2.5 1.1-3.8 1.6-1.2.5-2.5.8-3.8.4-.7-.2-1.3-.4-1.9-.7-.9-.4-1.7-.7-2.6-1.1-.8-.3-1.3-.7-1.4-1.4-.1-.9 1.7-1.3 2.6-1.7.8-.3 1.6-.6 2.4-1 .2-.1.3-.1.3-.1z" class="elasticSearch-21"/>
                    <path d="M88.2 57.7c-.4 0-.8 0-1.2-.1-.7-.2-1.3-.4-1.9-.7l-2.6-1.1c-.6-.3-1.5-.7-1.6-1.6-.1-1 1.2-1.4 2.2-1.8.2-.1.4-.2.6-.2.3-.1.6-.2.9-.4l1.5-.6c.1 0 .1-.1.2-.1.8-.3 1.6-.5 2.4-.4 1 .1 1.9.4 2.7.8.2.1.4.2.5.2.8.3 1.6.6 2.3 1 .7.3 1.6.7 1.8 1.3.1.2.1.5-.2.8-.2.3-.5.5-1 .8-1.1.5-2.3 1-3.5 1.5H91c-1 .4-1.9.6-2.8.6zm-1.6-6.1c-.1 0-.1.1-.2.1l-1.5.6c-.3.1-.6.2-.9.4-.2.1-.4.2-.6.2-.8.3-1.9.7-1.8 1.2 0 .4.4.8 1.2 1.1l2.6 1.1c.6.3 1.2.5 1.8.7 1.1.3 2.3.1 3.7-.4l.4-.2c1.2-.5 2.3-.9 3.4-1.4.4-.2.6-.4.8-.6.1-.2.1-.3.1-.3-.1-.4-1-.7-1.4-.9-.8-.3-1.5-.6-2.3-.9-.2-.1-.4-.2-.5-.2-.8-.3-1.6-.7-2.5-.7-1-.2-1.6 0-2.3.2z" class="elasticSearch-22"/>
                    <circle cx="82.7" cy="54.5" r=".3" class="elasticSearch-23"/>
                    <circle cx="83.6" cy="55" r=".3" class="elasticSearch-24"/>
                  </g>
                  <g class="kibana-db-3 coding-svg" id="kibana-db-3">
                    <path d="M86.4 48.9c.7-.3 1.4-.4 2.2-.4 1.2.1 2.1.6 3.1 1 .8.3 1.6.6 2.3 1 .9.4 2.1.9 1.5 1.7-.2.3-.5.5-.9.7-1.2.6-2.5 1.1-3.8 1.6-1.2.5-2.5.8-3.8.4-.7-.2-1.3-.4-1.9-.7-.9-.4-1.7-.7-2.6-1.1-.8-.3-1.3-.7-1.4-1.4-.1-.9 1.7-1.3 2.6-1.7.8-.3 1.6-.6 2.4-1 .2-.1.3-.1.3-.1z" class="elasticSearch-21"/>
                    <path d="M88.2 55.2c-.4 0-.8 0-1.2-.1-.7-.2-1.3-.4-1.9-.7l-2.6-1.1c-.6-.3-1.5-.7-1.6-1.6-.1-1 1.2-1.4 2.2-1.8.2-.1.4-.2.6-.2.3-.1.6-.2.9-.4l1.5-.6c.1 0 .1-.1.2-.1.8-.3 1.6-.5 2.4-.4 1 .1 1.9.4 2.7.8.2.1.4.2.5.2.8.3 1.6.6 2.3 1 .7.3 1.6.7 1.8 1.3.1.2.1.5-.2.8-.2.3-.5.5-1 .8-1.1.5-2.3 1-3.5 1.5H91c-1 .4-1.9.6-2.8.6zm-1.6-6.1c-.1 0-.1.1-.2.1-.5.2-1 .4-1.6.6l-.9.3c-.2.1-.4.2-.6.2-.8.3-1.9.7-1.8 1.2 0 .4.4.8 1.2 1.1l2.6 1.1c.6.3 1.2.5 1.8.7 1.1.3 2.3.1 3.7-.4l.4-.2c1.2-.5 2.3-.9 3.4-1.4.4-.2.6-.4.8-.6.1-.2.1-.3.1-.3-.1-.4-1-.7-1.4-.9-.8-.3-1.5-.6-2.3-.9-.2-.1-.4-.2-.5-.2-.8-.3-1.6-.7-2.5-.7-.9-.1-1.5 0-2.2.3z" class="elasticSearch-22"/>
                    <circle cx="82.7" cy="51.6" r=".3" class="elasticSearch-23"/>
                    <circle cx="83.5" cy="52.2" r=".3" class="elasticSearch-24"/>
                  </g>
                <g class="kibana-db-2 coding-svg" id="kibana-db-2">
                    <path d="M86.4 46.6c.7-.3 1.4-.4 2.2-.4 1.2.1 2.1.6 3.1 1 .8.3 1.6.6 2.3 1 .9.4 2.1.9 1.5 1.7-.2.3-.5.5-.9.7-1.2.6-2.5 1.1-3.8 1.6-1.2.5-2.5.8-3.8.4-.7-.2-1.3-.4-1.9-.7-.9-.4-1.7-.7-2.6-1.1-.8-.3-1.3-.7-1.4-1.4-.1-.9 1.7-1.3 2.6-1.7.8-.3 1.6-.6 2.4-1 .2-.1.3-.1.3-.1z" class="elasticSearch-21"/>
                    <path d="M88.2 53c-.4 0-.8 0-1.2-.1-.7-.2-1.3-.4-1.9-.7L82.5 51c-.6-.3-1.5-.7-1.6-1.6-.1-1 1.2-1.4 2.2-1.8.2-.1.4-.2.6-.2.3-.1.6-.2.9-.4l1.5-.6.2-.1c.8-.3 1.6-.5 2.4-.4 1 .1 1.9.4 2.7.8.2.1.4.2.5.2.8.3 1.6.6 2.3 1 .7.3 1.6.7 1.8 1.3.1.2.1.5-.2.8-.2.3-.5.5-1 .8-1.1.5-2.3 1-3.4 1.5l-.4.1c-1 .4-1.9.6-2.8.6zm.1-6.5c-.6 0-1.2.1-1.8.4l-.2.1-1.5.6c-.3.1-.6.2-.9.4-.2.1-.4.2-.6.2-.8.3-1.9.7-1.8 1.2 0 .4.4.8 1.2 1.1l2.6 1.1c.6.3 1.2.5 1.8.7 1.1.3 2.3.1 3.7-.4l.4-.2c1.1-.5 2.3-.9 3.4-1.4.4-.2.6-.4.8-.6.1-.2.1-.3.1-.3-.1-.4-.9-.7-1.4-.9-.8-.3-1.5-.6-2.3-.9-.2-.1-.4-.2-.5-.2-.8-.3-1.6-.7-2.5-.7-.2-.2-.4-.2-.5-.2z" class="elasticSearch-22"/>
                    <circle cx="82.7" cy="48.8" r=".3" class="elasticSearch-25"/>
                    <circle cx="83.5" cy="49.4" r=".3" class="elasticSearch-24"/>
                </g>
                <g class="kibana-db-1 coding-svg" id="kibana-db-1">
                    <path d="M86.4 43.9c.7-.3 1.4-.4 2.2-.4 1.2.1 2.1.6 3.1 1 .8.3 1.6.6 2.3 1 .9.4 2.1.9 1.5 1.7-.2.3-.5.5-.9.7-1.2.6-2.5 1.1-3.8 1.6-1.2.5-2.5.8-3.8.4-.7-.2-1.3-.4-1.9-.7-.9-.4-1.7-.7-2.6-1.1-.8-.3-1.3-.7-1.4-1.4-.1-.9 1.7-1.3 2.6-1.7.8-.3 1.6-.6 2.4-1 .2 0 .3-.1.3-.1z" class="elasticSearch-21"/>
                    <path d="M88.2 50.3c-.4 0-.8 0-1.2-.1-.7-.2-1.3-.4-1.9-.7l-2.6-1.1c-.6-.3-1.5-.7-1.6-1.6-.1-1 1.2-1.4 2.2-1.8.2-.1.4-.2.6-.2.3-.1.6-.2.9-.4l1.5-.6c.1 0 .1-.1.2-.1.8-.3 1.6-.5 2.4-.4 1 .1 1.9.4 2.7.8.2.1.4.2.5.2.8.3 1.6.6 2.3 1 .7.3 1.6.7 1.8 1.3.1.2.1.5-.2.8-.2.3-.5.5-1 .8-1.1.5-2.3 1-3.5 1.5H91c-1 .4-1.9.6-2.8.6zm-1.6-6.1c-.1 0-.1.1-.2.1-.5.2-1 .4-1.6.6l-.9.3c-.2.1-.4.2-.6.2-.8.3-1.9.7-1.8 1.2 0 .4.4.8 1.2 1.1l2.6 1.1c.6.3 1.2.5 1.8.7 1.1.3 2.3.1 3.7-.4l.4-.2c1.2-.5 2.3-.9 3.4-1.4.4-.2.6-.4.8-.6.1-.2.1-.3.1-.3-.1-.4-1-.7-1.4-.9-.8-.3-1.5-.6-2.3-.9-.2-.1-.4-.2-.5-.2-.8-.3-1.6-.7-2.5-.7-.9-.1-1.5 0-2.2.3z" class="elasticSearch-22"/>
                    <g id="XMLID_2_">
                        <path id="XMLID_52_" d="M90.5 46.5h-.2v-.1c-.1-.2-.1-.5-.2-.7h.2c0 .1 0 .1.1.2.1.2.1.4.1.6z" class="elasticSearch-37"/>
                        <path id="XMLID_51_" d="M90.5 46.5c-.1-.2-.1-.4-.1-.6 0-.1-.1-.1-.1-.2h.2v.1c0 .1.1.3.1.4 0 .1.1.2.1.4 0-.1-.1-.1-.2-.1z" class="elasticSearch-38"/>
                        <path id="XMLID_32_" d="M90.8 46.5c0-.1-.1-.2-.1-.4 0-.1-.1-.3-.1-.4v-.1h.2c.1.3.1.5.2.8v.2c-.1 0-.1 0-.2-.1z" class="elasticSearch-39"/>
                        <path id="XMLID_31_" d="M90.1 45.7c.1.2.1.5.2.7v.1c-.1 0-.2.1-.3.2 0-.3 0-.7.1-1z" class="elasticSearch-40"/>
                        <path id="XMLID_30_" d="M91 46.5c-.1-.3-.2-.6-.2-.8h.3c-.1.3-.1.5-.1.8z" class="elasticSearch-41"/>
                        <path id="XMLID_28_" d="M86.9 46.7v-.4s0-.1.1-.1.1 0 .1.1v.2s0 .1.1.1h.3c.3 0 .5.2.5.5s-.2.5-.5.5-.5-.2-.5-.5c-.1-.1-.1-.2-.1-.4zm.3.1h-.1v.3c0 .1.1.3.3.3s.3-.1.3-.3-.1-.3-.3-.3h-.2z" class="elasticSearch-43"/>
                        <path id="XMLID_27_" d="M85.6 47.6v-1.4c.2 0 .2 0 .2.2v.7c.1-.1.3-.1.4-.1.1 0 .2-.1.2-.2v-.1c0-.1 0-.1.1-.1s.1 0 .1.1-.1.3-.2.4c.1.1.1.1.1.2s.1.2.1.3h-.2v-.1c0-.1 0-.2-.1-.3-.2-.1-.4 0-.5.2v.1c-.1.1-.1.1-.2.1.1 0 0 0 0 0z" class="elasticSearch-43"/>
                        <path id="XMLID_26_" d="M91 47.3v.3h-.5c-.3 0-.4-.2-.5-.4 0-.2.1-.5.4-.5.3-.1.6.1.6.5v.1zm-.4.1h.1s.1 0 0 0v-.3c0-.1-.1-.3-.3-.3-.1 0-.3.1-.3.2-.1.1 0 .3.1.4h.4z" class="elasticSearch-43"/>
                        <path id="XMLID_25_" d="M88.9 47.3v.3h-.5c-.3 0-.4-.2-.5-.5 0-.2.1-.4.4-.5.3-.1.6.1.6.5v.2zm-.2-.1v-.1c0-.1-.1-.3-.3-.3-.1 0-.3.1-.3.2-.1.1 0 .3.1.4.1.1.2 0 .3 0h.2v-.2z" class="elasticSearch-43"/>
                        <path id="XMLID_24_" d="M90 47.3v.3s0 .1-.1.1-.1 0-.1-.1v-.4c0-.2-.1-.3-.3-.3-.2 0-.3.1-.3.3v.4s0 .1-.1.1-.1 0-.1-.1v-.4c0-.3.2-.5.4-.5.3 0 .5.1.6.4 0 0-.1.1 0 .2z" class="elasticSearch-43"/>
                        <path id="XMLID_23_" d="M86.8 47.1v.4s0 .1-.1.1-.1 0-.1-.1v-.8c0-.1 0-.1.1-.1s.1 0 .1.1v.4z" class="elasticSearch-44"/>
                        <path id="XMLID_22_" d="M89.4 46.5h-.1c-.1 0-.2.1-.2.2V46s0-.1.1-.1h.2v.1c-.1.2-.1.4 0 .5z" class="elasticSearch-45"/>
                        <path id="XMLID_21_" d="M89.8 46.6c-.1-.1-.2-.1-.3-.1 0-.1-.1-.2-.1-.3 0-.1-.1-.1-.1-.2h.2v.1c.3.1.3.3.3.5.1-.1.1 0 0 0z" class="elasticSearch-46"/>
                        <path id="XMLID_20_" d="M88.5 46.2h.4s.1 0 .1.1v.4c-.1-.1-.2-.2-.3-.2v-.1c-.2-.1-.2-.1-.2-.2z" class="elasticSearch-42"/>
                        <path id="XMLID_19_" d="M89.4 46c0 .1 0 .1.1.2 0 .1.1.2.1.3h-.2c0-.1-.1-.2-.1-.4V46h.1z" class="elasticSearch-47"/>
                        <path id="XMLID_16_" d="M88.4 46.5c-.1 0-.1 0 0 0-.2.1-.3.1-.4.2v-.4h.4c0 .1 0 .1.1.1-.2 0-.1 0-.1.1z" class="elasticSearch-48"/>
                        <path id="XMLID_15_" d="M89.8 46.6c.1 0 0-.1 0 0-.1-.2-.1-.4-.2-.5V46h.2s.1 0 .1.1v.7c0-.1 0-.2-.1-.2z" class="elasticSearch-49"/>
                        <path id="XMLID_14_" d="M88.4 46.5v-.1l-.1-.1h.2c0 .1 0 .1.1.2v.1c-.1-.1-.2-.1-.2-.1z" class="elasticSearch-50"/>
                        <path id="XMLID_13_" d="M89 46.7c.1 0 .1 0 0 0z" class="elasticSearch-49"/>
                    </g>
                </g> 
              </g>
            </svg>