<?xml version="1.0" encoding="utf-8"?>
<!-- Generator: Adobe Illustrator 21.0.0, SVG Export Plug-In . SVG Version: 6.00 Build 0)  -->
<svg version="1.1" id="Layer_1" xmlns="http://www.w3.org/2000/svg" xmlns:xlink="http://www.w3.org/1999/xlink" x="0px" y="0px"
	 viewBox="0 0 953.9 438" style="enable-background:new 0 0 953.9 438;" xml:space="preserve">
<style type="text/css">
	.st0{fill:#FFD277;}
	.st1{fill:#F55A2E;}
	.st2{fill:#016797;}
	.st3{fill:#92D1D7;}
	.st4{fill:#F4F2F2;}
	.st5{fill:#88ACE5;}
	.st6{fill:#6199DA;}
	.st7{fill:#F0F0F0;}
	.st8{fill:#C4DAF5;}
	.st9{fill:url(#SVGID_2_);}
	.st10{fill:url(#SVGID_4_);}
	.st11{fill:#262629;}
	.st12{fill:#3A5997;}
	.st13{fill:#404041;}
	.st14{fill:#AFABBB;}
	.st15{fill:#DEEDFF;}
	.st16{fill:#2E2E2E;}
	.st17{fill:none;stroke:#3BB878;stroke-width:0.5;stroke-linecap:round;stroke-linejoin:round;stroke-miterlimit:10;}
	.st18{fill:#E8F9EF;stroke:#3BAD69;stroke-width:0.5;stroke-miterlimit:10;}
	.st19{fill:#FFCF76;}
	.st20{fill:none;stroke:#DDE8ED;stroke-width:2;stroke-miterlimit:10;}
	.st21{fill:#899FB8;}
	.st22{fill:none;stroke:#899FB8;stroke-width:2;stroke-miterlimit:10;}
	.st23{fill:#5987B5;}
	.st24{fill:#FFFFFF;}
	.st25{fill:none;stroke:#5EBC66;stroke-width:2;stroke-linecap:round;stroke-miterlimit:10;}
	.st26{fill:#888A8C;}
	.st27{fill:#DBE5F0;}
	.st28{fill:none;stroke:#BAE2F8;stroke-width:3;stroke-miterlimit:10;}
	.st29{fill:#676767;}
	.st30{fill:#85CBF0;}
	.st31{fill:#DBE4EF;}
	.st32{fill:none;stroke:#DBE4EF;stroke-width:4;stroke-miterlimit:10;}
	.st33{fill:none;stroke:#AEB1B6;stroke-width:2;stroke-miterlimit:10;}
	.st34{fill:#37B34A;}

	.lg-logo-1 {
      animation: s 1s cubic-bezier(.0,.885,.32,1.2)  infinite;
      transform-origin: 50% 50%
	}

	@keyframes s {
		0% {
			transform: translate3d(0,0,0) scale(.2);
			opacity: 0;
		}
		40% {
			transform: translate3d(0,0,0) scale(2.2);
			opacity: 1;
			fill: #3bb878;
		}
		100% {
			transform: translate3d(0,0,0) scale(1);
			opacity: 1;
		}
	}
	.built-bbule-1 {
		animation: dotExpand 5s infinite ease-out;
	}
	.ci-dot {
		transform-origin: 50% 50% 0px;
		animation: ci-circule 15s infinite linear;
	}

	@keyframes ci-circule { 
		100% { 
			transform: rotate(1turn);
		} 
	}
	.built-bbule-1 {
		animation: dotExpand 5s infinite ease-out;
	}

	@keyframes dotExpand {
	0% {
		transform: scale3d(0.1, 0.1, 1);
		opacity: 1;
	}
	100% {
		transform: scale3d(2, 2, 1);
		opacity: 0;
	}
	}
</style>
<g>
	<g>
		<path class="st0 built-bbule-1" d="M530,363.7c0.9-1.9,1.6-1.7,1.6,0.4s1.5,4.5,3.3,5.4c1.9,0.9,1.7,1.6-0.4,1.6c-2.1,0-4.5,1.5-5.4,3.3
			c-0.9,1.9-1.6,1.7-1.6-0.4s-1.5-4.5-3.3-5.4c-1.9-0.9-1.7-1.6,0.4-1.6C526.7,367.1,529.1,365.6,530,363.7z"/>
	</g>
	<g>
		<path class="st1 lg-logo-1" d="M288.4,59.5c0.8-1.6,1.4-1.5,1.4,0.3s1.3,3.9,2.9,4.7c1.6,0.8,1.5,1.4-0.3,1.4s-3.9,1.3-4.7,2.9
			s-1.4,1.5-1.4-0.3s-1.3-3.9-2.9-4.7c-1.6-0.8-1.5-1.4,0.3-1.4S287.6,61.1,288.4,59.5z"/>
	</g>
	<g>
		<path class="st2 lg-logo-1" d="M39.8,164.6c0.7-1.5,1.3-1.3,1.3,0.3s1.2,3.5,2.6,4.2s1.3,1.3-0.3,1.3s-3.5,1.2-4.2,2.6
			c-0.7,1.5-1.3,1.3-1.3-0.3s-1.2-3.5-2.6-4.2c-1.5-0.7-1.3-1.3,0.3-1.3C37.2,167.2,39.1,166.1,39.8,164.6z"/>
	</g>
	<g>
		<path class="st3 built-bbule-1" d="M835.6,332.3c0.7-1.5,1.3-1.3,1.3,0.3s1.2,3.5,2.6,4.2s1.3,1.3-0.3,1.3s-3.5,1.2-4.2,2.6
			c-0.7,1.5-1.3,1.3-1.3-0.3c0-1.6-1.2-3.5-2.6-4.2s-1.3-1.3,0.3-1.3C833,335,834.9,333.8,835.6,332.3z"/>
	</g>
	<g>
		<path class="st4" d="M188.8,317c2,4,22.6,25.4,22.6,25.4s72.5,0.2,77.5-2.6c4.9-2.8,21.3-13.2,22.6-12.6c1.4,0.6,18.4,3,18.4,3
			s19.6,12.9,17.2,15.8c-2.4,3-10.3-2-10.3-2l-7.6-4.9l-7.9-0.4l5.3,11.8c0,0-1.7,5-2.4,5.2c-0.7,0.2-3.5,0.2-3.5,0.2l-2.1,3.1
			l-5.1,0.3c0,0-1.8,2.9-4.4,3.1c-2.5,0.3-15.7,1.3-18.7-0.2c-3-1.4-8.7-2.9-8.7-2.9s-77.8,10.9-80.2,9.4s-26.6-27.4-28.2-25.7
			C171.6,344.8,188.8,317,188.8,317z"/>
		<path class="st5" d="M203.7,329.1c1.1,1.1-14.7,32.8-14.7,32.8s-39.8-43.4-39.5-45.1s2.2-42.1,2.2-42.1L203.7,329.1z"/>
		<path class="st6" d="M124.1,258.1c2.2,1.1,22.3,9.1,27.7,16.4c13,17.8-8.1,89.9,0.8,159.3H74C58.7,338,72.6,273.1,124.1,258.1z"/>
		<path class="st7" d="M158.9,242.9c-5.4,18.9-7.5,34.5-6.2,45.8c-6.3,1-42.3-21.7-32-27.5c6-3.4,9.4-8.3,10.4-32.3L158.9,242.9z"/>
		<path class="st7" d="M183,332.4c2.1,3.7,13.1,21,13.1,21s73.5,2.5,78-0.5c4.5-2.9,19.5-13.6,20.8-13.1s17.6,1.9,17.6,1.9
			s19.2,11.2,17.1,14.2c-2.1,2.9-9.9-1.3-9.9-1.3l-7.5-4.3h-7.5l0,0c3.9,1,8,2.4,8.6,2.6c1.1,0.4,15.1,13,15.1,13.3s0.4,1.3-3.5,1.7
			c-3.9,0.3-5.1-1.3-5.5-1.4s-8.7-6.4-8.7-6.4l-5.9-2l11.4,7.7l7.2,7.8c-2.9,4.3-10.8-1.4-13-4.6c-1.2-0.9-8-3.4-7.8-2.1
			c0.9,6.4-3.7,5.9-8.4,6.7c-2.4,0.4-14.8,2-17.8,0.8c-2.9-1.2-8.4-2.3-8.4-2.3s-72,13.4-80,10.1s-19.4-26.9-20.8-25.2
			C166,358.7,183,332.4,183,332.4z"/>
		<path class="st8" d="M110.3,268.6c2-2.3,7.6-13.1,22.1-1.2c14.5,12,60.5,74.3,60.5,74.3l-21,26c0,0-49.5-55.5-58.4-67.2
			S110.3,268.6,110.3,268.6z"/>
		
			<linearGradient id="SVGID_2_" gradientUnits="userSpaceOnUse" x1="159.1" y1="-69.7" x2="751.4" y2="-69.7" gradientTransform="matrix(1 0 0 -1 0 326)">
			<stop  offset="0" style="stop-color:#FFFFFF"/>
			<stop  offset="1" style="stop-color:#EFF5FB"/>
		</linearGradient>
		<rect x="159.1" y="388.7" class="st9" width="592.3" height="14"/>
		
			<linearGradient id="SVGID_4_" gradientUnits="userSpaceOnUse" x1="159.1" y1="-62.8" x2="751.4" y2="-62.8" gradientTransform="matrix(1 0 0 -1 0 326)">
			<stop  offset="0" style="stop-color:#FFFFFF"/>
			<stop  offset="1" style="stop-color:#EFF5FB"/>
		</linearGradient>
		<rect x="159.1" y="384.1" class="st10" width="592.3" height="9.4"/>
		<g>
			<path class="st5" d="M412.5,274l-49.1,105.1c-0.9,1.9-2.9,2.6-4.4,1.4l0,0c-1.5-1.1-2-3.7-1.1-5.6L407,269.8
				c0.9-1.9,2.9-2.6,4.4-1.4l0,0C412.9,269.6,413.4,272.1,412.5,274z"/>
			<path class="st8" d="M412.5,274l-49.1,105.1c-0.9,1.9-2.9,2.6-4.4,1.4l0,0l-0.1-0.1l52.5-112.1l0,0
				C412.9,269.6,413.4,272.1,412.5,274z"/>
			<rect x="341.5" y="374.9" class="st5" width="8.5" height="1.8"/>
			<rect x="332.3" y="374.9" class="st5" width="8.5" height="1.8"/>
			<rect x="323.1" y="374.9" class="st5" width="8.5" height="1.8"/>
			<rect x="313.9" y="374.9" class="st5" width="8.5" height="1.8"/>
			<path class="st8" d="M262.8,375.9h96c1.8,0,3.2,1.8,3.2,4.1l0,0c0,2.2-1.4,4.1-3.2,4.1h-96c-1.8,0-3.2-1.8-3.2-4.1l0,0
				C259.6,377.7,261,375.9,262.8,375.9z"/>
			<rect x="283.8" y="379.1" class="st5" width="8.5" height="2.8"/>
			<rect x="272.4" y="379.1" class="st5" width="8.5" height="2.8"/>
			<path class="st5" d="M349,378.1h-50.3c-0.4,0-0.8,0.5-0.8,1v2.3c0,0.6,0.4,1,0.8,1H349c0.4,0,0.8-0.5,0.8-1v-2.3
				C349.8,378.5,349.4,378.1,349,378.1z"/>
		</g>
		<path class="st5" d="M171.8,367.7c0,0-8.5-9.5-19.1-21.5c-2.2,26.6-4.1,57.4-0.1,87.7h-33.8c1.8-24.6,5.9-118.1,4-122.1
			c-0.5-2.9,34.2,34.3,43.3,42.2c0.7,0.6,1.4,1.2,2.1,1.6c3.8,2.7,7.4,3.6,10.5,3.7l-4.9,6L171.8,367.7z"/>
		<path class="st8" d="M26,240.3c-14.4-3.4-26.9,1-28.3,16.8c-0.1,1.5,33.4,82.1,35.9,115.2c1,13,5.9,39.9,8.6,61.5h39.1
			C74.3,384.2,65.6,249.7,26,240.3z"/>
		<path class="st5" d="M-1,250.9c-0.7,1.8-1.1,3.9-1.3,6.2c-0.1,1.6,32.1,78.6,41,176.8h21.1C54.6,380.4,47.9,266.9-1,250.9z"/>
		<path class="st5" d="M62.4,393c6.3-0.4,170.1-6.2,132.4,22.8c-3.5,2.7-30.8-4.9-62.2-5.4c-36.6-0.6-78.1,5.7-81.3,5.4
			c-5.9-0.6-10.5-6.1-7.9-14.9C46,392.1,62.4,393,62.4,393z"/>
		<path class="st6" d="M154.8,403.1c20.3,1.8,37.6,4.1,45.6,5.6c-0.3,2.1-2.1,4.5-5.6,7.2c-0.3,0.2-0.8,0.4-1.5,0.5
			c-3.7-1.6-6.7-2.4-6.9-0.3c-7.2-0.8-18.2-2.8-31.3-4.1c-7.1-0.7-14.7-1.3-22.7-1.4c-1.8,0-3.6,0-5.4,0c-17.8,0-36.2,1.5-50.5,2.9
			c-0.3,0-0.5,0.1-0.8,0.1c-13.6,1.3-23.2,2.6-24.7,2.4c-2.3-0.2-4.4-1.2-6-2.9c5.5-5.2,16.1-8.4,29.2-10.2c0.5-0.1,1-0.1,1.5-0.2
			c15.2-1.9,33.7-2,51.9-1.2C137,401.7,146.2,402.4,154.8,403.1z"/>
		<g>
			<path id="XMLID_313_" class="st11" d="M118,216.7c0.1,0.3,1.5,5.6,1.5,5.6l5.6-1.3l-0.3-0.8c2.7,0.9,8.6-0.8,9.4-1.1
				c2.8-1.3,5.2-2.9,5.2-2.9l-0.3-0.7c0,0,0.1-0.9-0.9-0.7c-9.4,1.5-12.1-0.7-13.9-0.9C124.2,213.6,118,216.7,118,216.7z"/>
			<path id="XMLID_312_" class="st7" d="M156.9,103.3c38,0,77.2,30.5,70.1,71.4c-2,11.4-13.1,16.2-14.1,21.8
				c5.3,15.4,12.2,15.1,11,21.2c-0.5,2.7-7.4,3.5-12.4,3.8c-6.9,22.4-30.2,32.2-54.7,32.2c-38,0-68.7-33.7-68.7-75.2
				S119,103.3,156.9,103.3z"/>
			<path id="XMLID_310_" class="st12" d="M243,135c7.1,11.6,1.2,30,1.2,27.2c0-2.3-5.4-9.2-10.3-13.5c-0.1,0.9-0.3,1.8-0.6,2.8
				c-2.8,9.2-15.3,13-15.3,13s-0.1-2.2-0.7-8.5c-0.3-2.7-1.7-4.7-3.2-6.1c-1.1,0.1-2.3,0.2-3.6,0.3c-0.5,1.4-2.1,3.3-6.2,5.6
				c-9.7,5.4-22,6.8-20.5,6.8c1.4,0,9.9-3.9,6.1-11.7c-4.4,0-8.5-0.2-12-0.5c-14.6-1.4-21.7,1.9-27.9,8.5c-6.1,6.6-9.4,43-11.8,42
				c-2.4-0.9-9-2.8-9-2.8s7.6-24.6,6.1-34c-1.4-9.4-5.2-13.2-17.9-9c-19.1,6.4-14.2,30.1-4.3,43.4c0,0-3.3,21.6-6.6,24.6
				c-3.2,3-11,5.6-9.9,5.1c1.2-0.5,1.4-7.6,1.4-7.6l-5.9,2.8c0,0-1.7-7.8-0.7-9.4c0.9-1.7-7.1-26.9-8.5-43.9
				C80.1,137,96.2,99.6,125,107.4C142.1,92.5,231.7,94.4,243,135z"/>
			<path id="XMLID_307_" class="st13" d="M222.4,186.8l-2.5-1l-1.9,4.8c-14.2-5.6-84.8-33.1-86.6-32.1c-1.9,1.1,0,3.3,0,3.3l84,35.2
				l-8.6,21.2l2.5,1l11.1-27.6l0,0L222.4,186.8z"/>
			<path id="XMLID_303_" class="st7" d="M120,200.9c10,0,18.1-11.4,18.1-25.5c0-14-8.1-25.5-18.1-25.5s-18.1,11.4-18.1,25.5
				C101.9,189.5,110,200.9,120,200.9z"/>
			<path id="XMLID_302_" class="st8" d="M125.1,159.2c-1.2-0.1-8.3-1.5-12.6,3.5c-4.4,5.1-3.7,20-0.2,24.2c3.4,4.3,9.6,6.1,13.8,3.3
				c4.3-2.8,5.8-6.1,2.2-8.5c-3.5-2.4-6.4-4.6-5.2-6.5c1.2-1.9,3.2-1.2,4.7-2.8s0.6-6.4-0.5-9.9
				C126.2,158.9,125.1,159.2,125.1,159.2z"/>
			<path id="XMLID_298_" class="st12" d="M222.5,184.5c8.9-8-22-11.5-24.4-7.9C207.7,178,214.6,178.8,222.5,184.5z"/>
		</g>
	</g>
	<g>
		<path class="st14 built-bbule-1" d="M353.6,81.1c-0.3,0-0.6,0-0.9-0.1c-0.9-0.2-1.7-0.8-2.2-1.6l0,0c-0.5-0.8-0.6-1.8-0.4-2.7s0.8-1.7,1.6-2.2
			c1.7-1,3.9-0.5,4.9,1.2c0.5,0.8,0.6,1.8,0.4,2.7s-0.8,1.7-1.6,2.2C354.9,80.9,354.2,81.1,353.6,81.1z M351.3,78.9
			c0.4,0.6,0.9,1,1.6,1.2s1.4,0.1,2-0.3c0.6-0.4,1-0.9,1.2-1.6c0.2-0.7,0.1-1.4-0.3-2c-0.8-1.3-2.4-1.7-3.7-0.9
			C351,75.9,350.5,77.6,351.3,78.9L351.3,78.9z"/>
	</g>
	<g id="XMLID_283_" class="ci-dot">
		<g id="XMLID_291_">
			<g id="XMLID_295_">
				<path class="st15" d="M716.6,258.1c-0.4,0-0.9-0.2-1.2-0.5c-0.7-0.7-0.7-1.8,0-2.5l3.6-3.6c0.7-0.7,1.8-0.7,2.5,0s0.7,1.8,0,2.5
					l-3.6,3.6C717.5,258,717,258.1,716.6,258.1z"/>
			</g>
			<g id="XMLID_294_">
				<path class="st15" d="M708.1,266.6c-0.4,0-0.9-0.2-1.2-0.5c-0.7-0.7-0.7-1.8,0-2.5l3.6-3.6c0.7-0.7,1.8-0.7,2.5,0s0.7,1.8,0,2.5
					l-3.6,3.6C709,266.5,708.5,266.6,708.1,266.6z"/>
			</g>
		</g>
		<g id="XMLID_285_">
			<g id="XMLID_289_">
				<path class="st15" d="M711.7,258.1c-0.4,0-0.9-0.2-1.2-0.5l-3.6-3.6c-0.7-0.7-0.7-1.8,0-2.5s1.8-0.7,2.5,0l3.6,3.6
					c0.7,0.7,0.7,1.8,0,2.5C712.6,258,712.1,258.1,711.7,258.1z"/>
			</g>
			<g id="XMLID_287_">
				<path class="st15" d="M720.2,266.6c-0.4,0-0.9-0.2-1.2-0.5l-3.6-3.6c-0.7-0.7-0.7-1.8,0-2.5s1.8-0.7,2.5,0l3.6,3.6
					c0.7,0.7,0.7,1.8,0,2.5C721.1,266.5,720.6,266.6,720.2,266.6z"/>
			</g>
		</g>
	</g>
	<path class="st16" d="M561.3,188.6C561.3,188.6,561.3,188.5,561.3,188.6C561.2,188.6,561.2,188.6,561.3,188.6
		c-0.1,0.1-0.1,0.2-0.1,0.3C561.2,188.8,561.3,188.7,561.3,188.6"/>
	<g>
		<line class="st17" x1="317.8" y1="246.1" x2="317.8" y2="232.2"/>
		<line class="st17" x1="324.7" y1="239.2" x2="310.8" y2="239.2"/>
	</g>
	<rect x="760.2" y="18" class="st18 built-bbule-1" width="14.3" height="7.1"/>
	<ellipse transform="matrix(0.7071 -0.7071 0.7071 0.7071 -9.9868 77.1211)" class="st19 built-bbule-1 " cx="88.1" cy="50.6" rx="8.5" ry="8.5"/>
	<g>
		<g>
			<g>
				<g>
					<path id="SVGID_1_" class="st20" d="M805.3,282c13.4,0,24.4-11.2,24.4-24.8c0-13.6-10.9-24.8-24.4-24.8
						c-13.4,0-24.4,11.2-24.4,24.8C781,270.8,791.8,282,805.3,282"/>
				</g>
			</g>
		</g>
		<g>
			<g>
				<path id="SVGID_3_" class="st20" d="M889.2,285.5c-15,0-27.2-12.4-27.2-27.7s12.2-27.7,27.2-27.7s27.2,12.4,27.2,27.7
					S904.2,285.5,889.2,285.5L889.2,285.5L889.2,285.5z"/>
			</g>
		</g>
		<g id="XMLID_18_">
			<g>
				<path id="XMLID_36_" class="st21" d="M854.6,107.8c-6.2,0-11.4-5.1-11.4-11.5c0-6.2,5.1-11.4,11.4-11.4
					c6.2,0,11.4,5.1,11.4,11.4C866,102.7,860.8,107.8,854.6,107.8L854.6,107.8z M854.5,110.5l-3.6-3.7h7.4L854.5,110.5L854.5,110.5z
					"/>
			</g>
		</g>
		<g id="XMLID_27_">
			<g>
				<path id="XMLID_2_" class="st22" d="M775.6,160.6c0.1-0.4,12.1-32.3,25.9-32.3c7,0,11.3,3.4,15.5,6.9c4,3.3,7.7,6.2,13.8,6.2
					c6.1,0,9.4-6.4,12.6-12.6c3.3-6.3,6.6-12.9,13-12.9c6.1,0,8.7,3.6,11.3,7.4c3,4.2,6.1,8.7,14.3,8.7c8.1,0,11-6.6,13.8-13
					c2.7-6.1,5.2-11.8,11.8-11.8"/>
			</g>
		</g>
		<g id="XMLID_4_">
			<path id="XMLID_41_" class="st23" d="M855.7,117.3c0.7,0,1.1-0.6,1.1-1.1c0-0.7-0.6-1.1-1.1-1.1c-0.6,0-1.1,0.6-1.1,1.1
				C854.6,116.8,855.1,117.3,855.7,117.3 M855.7,117.8c-0.9,0-1.7-0.7-1.7-1.7s0.7-1.7,1.7-1.7c0.9,0,1.7,0.7,1.7,1.7
				C857.4,117.1,856.7,117.8,855.7,117.8L855.7,117.8L855.7,117.8z"/>
		</g>
		<g id="XMLID_11_">
			<path id="XMLID_26_" class="st24" d="M850.5,98.1v1.1h-4.4v-0.9l1.6-1.6c0.5-0.5,0.8-0.8,0.9-0.9c0.2-0.2,0.2-0.4,0.3-0.6
				s0.1-0.4,0.1-0.6c0-0.2-0.1-0.5-0.2-0.6s-0.4-0.2-0.6-0.2s-0.5,0.1-0.7,0.2c-0.2,0.1-0.5,0.3-0.7,0.5l-0.7-0.8
				c0.3-0.3,0.6-0.5,0.7-0.6c0.2-0.1,0.4-0.2,0.7-0.2c0.2-0.1,0.6-0.1,0.8-0.1c0.4,0,0.7,0.1,1,0.2s0.6,0.4,0.7,0.6
				c0.2,0.2,0.2,0.6,0.2,0.8c0,0.3-0.1,0.6-0.2,0.8s-0.3,0.6-0.5,0.8c-0.2,0.3-0.6,0.7-1.1,1.1l-0.8,0.7v0.1L850.5,98.1L850.5,98.1
				L850.5,98.1z M854.1,96.8v-1.1h2.5v3.3c-0.4,0.1-0.8,0.2-1.1,0.3c-0.4,0.1-0.7,0.1-1.1,0.1c-0.9,0-1.7-0.3-2.1-0.8
				c-0.6-0.6-0.7-1.4-0.7-2.4c0-1,0.3-1.8,0.8-2.3c0.6-0.6,1.4-0.8,2.4-0.8c0.7,0,1.2,0.1,1.9,0.4l-0.5,1.1
				c-0.5-0.2-0.9-0.4-1.4-0.4c-0.6,0-1,0.2-1.4,0.6c-0.4,0.4-0.6,0.9-0.6,1.6c0,0.7,0.1,1.2,0.4,1.6s0.7,0.6,1.2,0.6
				c0.3,0,0.6,0,0.8-0.1v-1.3L854.1,96.8L854.1,96.8z M861.5,95.9L861.5,95.9c0.4,0.1,0.7,0.3,0.8,0.6c0.2,0.3,0.3,0.6,0.3,0.9
				c0,0.6-0.2,1-0.7,1.3c-0.4,0.4-0.9,0.5-1.7,0.5H858v-6.2h2c0.9,0,1.6,0.1,2,0.4c0.4,0.2,0.7,0.7,0.7,1.2c0,0.4-0.1,0.7-0.3,0.9
				C862.1,95.7,861.8,95.9,861.5,95.9L861.5,95.9z M860.8,94.2c-0.2-0.1-0.5-0.2-0.8-0.2h-0.7v1.4h0.8c0.4,0,0.7-0.1,0.8-0.2
				c0.2-0.1,0.2-0.3,0.2-0.6C861.1,94.5,861,94.3,860.8,94.2L860.8,94.2z M860.1,96.4h-0.8v1.7h0.8c0.4,0,0.7-0.1,0.8-0.2
				c0.2-0.1,0.3-0.4,0.3-0.7C861.2,96.7,860.8,96.4,860.1,96.4L860.1,96.4z"/>
		</g>
		<g>
			<g>
				<g>
					<path id="SVGID_5_" class="st25" d="M821.2,276c5.2-4.6,8.5-11.3,8.5-18.8c0-13.6-10.9-24.8-24.4-24.8"/>
				</g>
			</g>
		</g>
		<g>
			<g>
				<path id="SVGID_7_" class="st25" d="M889.2,230.1c15,0,27.2,12.4,27.2,27.7s-12.1,27.6-27.2,27.6l0,0l0,0
					c-7.4,0-14.2-3.1-19.2-8"/>
			</g>
		</g>
		<path class="st26" d="M887.7,257.2c0.6,0.7,0.8,1.5,0.8,2.4c0,1-0.3,1.9-0.9,2.5c-0.7,0.7-1.4,0.9-2.4,0.9s-1.9-0.4-2.5-1.1
			s-0.9-1.8-0.9-3v-0.6c0-1.9,0.5-3.2,1.3-4.2c0.8-1,2.1-1.6,3.7-1.6h0.2v1.4h-0.2c-0.9,0-1.7,0.3-2.3,0.8c-0.6,0.6-0.9,1.2-1,2.1
			c0.6-0.6,1.2-0.8,2.1-0.8C886.4,256.2,887.1,256.5,887.7,257.2L887.7,257.2z M884,257.9c-0.3,0.2-0.6,0.6-0.7,0.8v0.6
			c0,0.7,0.2,1.4,0.5,1.9c0.4,0.5,0.7,0.7,1.2,0.7s0.9-0.2,1.2-0.6c0.3-0.4,0.5-0.8,0.5-1.5c0-0.7-0.2-1.1-0.5-1.6
			c-0.3-0.4-0.7-0.6-1.2-0.6C884.7,257.5,884.4,257.7,884,257.9L884,257.9z M895.6,260.7v2.3h-1.7v-2.3h-4.5v-1l4.5-7h1.8v6.6h1.2
			v1.4H895.6L895.6,260.7z M893.8,255l-0.1,0.2l-2.6,4.1h2.7L893.8,255L893.8,255z"/>
		<path class="st26" d="M802.9,257.2v2.3h-1.7v-2.3h-4.6l-0.1-1l4.5-7h1.8v6.6h1.2v1.4H802.9L802.9,257.2z M801.2,251.6l-0.1,0.2
			l-2.6,4.1h2.7L801.2,251.6L801.2,251.6z M812.1,259.5h-6.9v-1.2l3.4-3.7c0.6-0.6,0.8-1,1-1.4c0.2-0.4,0.3-0.7,0.3-1.1
			c0-0.6-0.1-0.8-0.4-1.2c-0.3-0.3-0.7-0.5-1.1-0.5c-0.6,0-0.9,0.2-1.3,0.6c-0.3,0.4-0.5,0.8-0.5,1.4h-1.7c0-0.7,0.2-1.2,0.4-1.7
			c0.3-0.6,0.7-0.9,1.2-1.1c0.6-0.3,1.1-0.4,1.9-0.4c0.9,0,1.8,0.2,2.3,0.7c0.6,0.6,0.8,1.2,0.8,2c0,0.6-0.2,1-0.5,1.6
			c-0.3,0.6-0.7,1.2-1.4,2l-2.5,2.7h4.7L812.1,259.5L812.1,259.5L812.1,259.5z"/>
		<g id="XMLID_65_">
			<g id="XMLID_211_">
				<rect x="426.9" y="205.1" class="st27" width="280.6" height="0.6"/>
			</g>
			<g id="XMLID_187_">
				<rect x="488.3" y="205.6" class="st27" width="0.6" height="112"/>
			</g>
			<g id="XMLID_184_">
				<rect x="455.8" y="205.6" class="st27" width="0.6" height="112"/>
			</g>
			<g id="XMLID_90_">
				<rect x="426.9" y="317.3" class="st27" width="280.6" height="0.6"/>
			</g>
			<g id="XMLID_181_">
				<rect x="426.2" y="205.6" class="st27" width="0.6" height="112"/>
			</g>
			<g id="XMLID_93_">
				<rect x="707.2" y="205.6" class="st27" width="0.6" height="112"/>
			</g>
			<g id="XMLID_205_">
				<rect x="675.8" y="205.6" class="st27" width="0.6" height="112"/>
			</g>
			<g id="XMLID_202_">
				<rect x="644" y="205.6" class="st27" width="0.6" height="112"/>
			</g>
			<g id="XMLID_199_">
				<rect x="613.3" y="205.6" class="st27" width="0.6" height="112"/>
			</g>
			<g id="XMLID_196_">
				<rect x="581.9" y="205.6" class="st27" width="0.6" height="112"/>
			</g>
			<g id="XMLID_193_">
				<rect x="550.5" y="205.6" class="st27" width="0.6" height="112"/>
			</g>
			<g id="XMLID_190_">
				<rect x="519.8" y="205.6" class="st27" width="0.6" height="112"/>
			</g>
			<g id="XMLID_223_">
				<rect x="426.9" y="279.3" class="st27" width="280.6" height="0.6"/>
			</g>
			<g id="XMLID_220_">
				<rect x="426.9" y="261.9" class="st27" width="280.6" height="0.6"/>
			</g>
			<g id="XMLID_217_">
				<rect x="426.9" y="243.5" class="st27" width="280.6" height="0.6"/>
			</g>
			<g id="XMLID_214_">
				<rect x="426.9" y="224.7" class="st27" width="280.6" height="0.6"/>
			</g>
			<g id="XMLID_226_">
				<rect x="426.9" y="297.4" class="st27" width="280.6" height="0.6"/>
			</g>
		</g>
		<g id="XMLID_63_">
			<g>
				<path id="XMLID_64_" class="st28" d="M426.6,287.5c1.9-3.5,3.6-7.4,5.6-11.2c3.4-6.1,6.8-12.7,10.5-18.8
					c5.2-8.5,10.8-17.1,16.5-25.2c2-2.9,4.3-5.7,6.4-8.3c2.4-3,5.1-6.1,7.7-8.5c2-1.9,4.2-3.5,6.5-4.7c1.6-0.8,2.8-1.1,4.7-1.9l0,0
					c13-1.7,21.9,12.5,28.4,23.3c9.5,15.6,16.8,32.8,26.4,48c5.2,8.3,10.2,17.9,21.1,20.3c3.2,0.7,7.9-1.6,10.1-2.9
					c6.4-4,10.5-9.1,14.8-15.3c10.1-14.3,17.8-31.3,27.1-46.4c6.3-10.1,10.9-18.9,19.6-24.2c10.2-6.4,19.1-0.2,25,6.1
					c8.7,9.2,15.1,21.9,21.5,33.8c4.4,8,8.9,16.1,14.1,23.7c3.2,4.7,6.9,10.3,10.2,15.5c1.2,1.9,3.1,3.4,4,5.9"/>
			</g>
		</g>
		<path id="XMLID_67_" class="st29" d="M427.6,328.5c-0.2-0.4-0.7-0.6-1.1-0.6c-0.6,0-0.8,0.2-1.1,0.6c-0.2,0.4-0.4,0.8-0.4,1.6
			c0,0.7,0.1,1.2,0.4,1.6c0.2,0.4,0.7,0.6,1.1,0.6c0.6,0,0.8-0.2,1.1-0.6c0.3-0.4,0.4-0.8,0.4-1.6
			C427.9,329.3,427.8,328.9,427.6,328.5L427.6,328.5z M426.1,328.9c0.1-0.2,0.2-0.4,0.5-0.4c0.2,0,0.4,0.1,0.5,0.4
			c0.1,0.2,0.1,0.6,0.1,1.1s-0.1,0.8-0.1,1.1c-0.1,0.2-0.2,0.4-0.5,0.4c-0.2,0-0.4-0.1-0.5-0.4c-0.1-0.2-0.1-0.6-0.1-1.1
			S426,329.2,426.1,328.9L426.1,328.9z"/>
		<path id="XMLID_72_" class="st29" d="M454.8,332.1v-2.4v-0.4v-0.5c-0.2,0.2-0.2,0.2-0.3,0.3l-0.5,0.4l-0.4-0.6l1.3-1.1h0.7v4.1
			L454.8,332.1L454.8,332.1z M459.2,331.6c-0.2,0.4-0.7,0.6-1.1,0.6c-0.5,0-0.8-0.2-1.1-0.6c-0.3-0.4-0.4-0.9-0.4-1.6
			c0-0.7,0.1-1.2,0.4-1.6c0.2-0.4,0.6-0.6,1.1-0.6c0.5,0,0.8,0.2,1.1,0.6c0.2,0.4,0.4,0.9,0.4,1.6
			C459.6,330.8,459.4,331.3,459.2,331.6L459.2,331.6z M458.6,328.9c-0.1-0.2-0.2-0.4-0.5-0.4c-0.3,0-0.4,0.1-0.5,0.4
			c-0.1,0.2-0.1,0.6-0.1,1.1s0.1,0.8,0.1,1.1c0.1,0.2,0.2,0.4,0.5,0.4c0.3,0,0.4-0.1,0.5-0.4c0.1-0.2,0.1-0.6,0.1-1.1
			S458.7,329.2,458.6,328.9L458.6,328.9z"/>
		<path id="XMLID_78_" class="st29" d="M488.7,331.4v0.7h-2.9v-0.7l1-1c0.3-0.4,0.6-0.6,0.7-0.7c0.1-0.1,0.2-0.2,0.2-0.4
			s0.1-0.2,0.1-0.4c0-0.2-0.1-0.3-0.1-0.4c-0.1-0.1-0.2-0.1-0.4-0.1c-0.2,0-0.4,0.1-0.5,0.1c-0.2,0.1-0.3,0.2-0.5,0.4l-0.5-0.6
			c0.2-0.2,0.4-0.3,0.6-0.4c0.1-0.1,0.3-0.1,0.5-0.2c0.2-0.1,0.4-0.1,0.6-0.1c0.3,0,0.5,0.1,0.7,0.1c0.2,0.1,0.4,0.2,0.5,0.4
			c0.1,0.2,0.2,0.4,0.2,0.6s-0.1,0.4-0.1,0.6s-0.2,0.4-0.3,0.6s-0.4,0.4-0.7,0.7l-0.6,0.6v0.1L488.7,331.4L488.7,331.4z
			 M491.7,331.6c-0.2,0.4-0.7,0.6-1.1,0.6c-0.5,0-0.8-0.2-1.1-0.6c-0.2-0.4-0.4-0.9-0.4-1.6c0-0.7,0.1-1.2,0.4-1.6
			c0.2-0.4,0.6-0.6,1.1-0.6c0.5,0,0.8,0.2,1.1,0.6c0.2,0.4,0.4,0.9,0.4,1.6C492,330.8,491.9,331.3,491.7,331.6L491.7,331.6z
			 M491.1,328.9c-0.1-0.2-0.2-0.4-0.5-0.4c-0.2,0-0.4,0.1-0.5,0.4c-0.1,0.2-0.1,0.6-0.1,1.1s0.1,0.8,0.1,1.1
			c0.1,0.2,0.2,0.4,0.5,0.4c0.3,0,0.4-0.1,0.5-0.4c0.1-0.2,0.1-0.6,0.1-1.1S491.2,329.2,491.1,328.9L491.1,328.9z"/>
		<path id="XMLID_84_" class="st29" d="M519.2,330L519.2,330c0.4,0.1,0.6,0.2,0.7,0.4s0.3,0.4,0.3,0.7c0,0.4-0.2,0.7-0.5,0.9
			c-0.3,0.2-0.7,0.4-1.2,0.4c-0.5,0-0.8-0.1-1.2-0.2v-0.7c0.2,0.1,0.4,0.2,0.6,0.2c0.2,0.1,0.4,0.1,0.6,0.1c0.3,0,0.6-0.1,0.7-0.2
			c0.1-0.1,0.2-0.2,0.2-0.5c0-0.2-0.1-0.4-0.2-0.4c-0.2-0.1-0.4-0.1-0.7-0.1h-0.3v-0.7h0.4c0.4,0,0.6-0.1,0.7-0.1
			c0.2-0.1,0.2-0.2,0.2-0.5s-0.2-0.5-0.6-0.5c-0.1,0-0.3,0-0.4,0.1c-0.1,0.1-0.3,0.1-0.5,0.2l-0.4-0.7c0.4-0.3,0.8-0.4,1.4-0.4
			c0.4,0,0.7,0.1,1,0.3c0.2,0.2,0.4,0.4,0.4,0.7c0,0.3-0.1,0.5-0.2,0.7C519.8,329.8,519.5,329.9,519.2,330L519.2,330z M523.1,331.6
			c-0.2,0.4-0.7,0.6-1.1,0.6c-0.5,0-0.8-0.2-1.1-0.6c-0.2-0.4-0.4-0.9-0.4-1.6c0-0.7,0.1-1.2,0.4-1.6c0.2-0.4,0.6-0.6,1.1-0.6
			c0.5,0,0.8,0.2,1.1,0.6c0.2,0.4,0.4,0.9,0.4,1.6C523.6,330.8,523.4,331.3,523.1,331.6L523.1,331.6z M522.5,328.9
			c-0.1-0.2-0.2-0.4-0.5-0.4c-0.2,0-0.4,0.1-0.5,0.4c-0.1,0.2-0.1,0.6-0.1,1.1s0.1,0.8,0.1,1.1c0.1,0.2,0.2,0.4,0.5,0.4
			c0.2,0,0.4-0.1,0.5-0.4c0.1-0.2,0.1-0.6,0.1-1.1S522.6,329.2,522.5,328.9L522.5,328.9z"/>
		<g id="XMLID_59_">
			<path id="XMLID_77_" class="st29" d="M550.5,328h-0.8l-1.9,2.7v0.7h1.8v0.8h0.8v-0.8h0.6v-0.7h-0.6L550.5,328L550.5,328z
				 M549.7,329.3c0,0.2,0,0.4,0,0.6v0.7h-1l0.7-1.1c0.1-0.2,0.2-0.3,0.2-0.5l0,0C549.7,329,549.7,329.2,549.7,329.3z"/>
			<path id="XMLID_89_" class="st29" d="M553.8,328.5c-0.2-0.4-0.7-0.6-1.1-0.6c-0.6,0-0.8,0.2-1.1,0.6c-0.3,0.4-0.4,0.8-0.4,1.6
				c0,0.7,0.1,1.2,0.4,1.6c0.2,0.4,0.7,0.6,1.1,0.6c0.6,0,0.8-0.2,1.1-0.6c0.2-0.4,0.4-0.8,0.4-1.6
				C554.2,329.3,554.1,328.9,553.8,328.5z M553.2,331.1c-0.1,0.2-0.2,0.4-0.5,0.4c-0.2,0-0.4-0.1-0.5-0.4c-0.1-0.2-0.1-0.6-0.1-1.1
				s0.1-0.8,0.1-1.1c0.1-0.2,0.2-0.4,0.5-0.4c0.2,0,0.4,0.1,0.5,0.4c0.1,0.2,0.1,0.6,0.1,1.1C553.4,330.5,553.4,331,553.2,331.1z"/>
		</g>
		<path id="XMLID_97_" class="st29" d="M580.5,329.5L580.5,329.5c0.2,0,0.4-0.1,0.5-0.1c0.4,0,0.7,0.1,0.9,0.4
			c0.2,0.2,0.4,0.6,0.4,0.9c0,0.5-0.1,0.8-0.4,1.1c-0.3,0.2-0.7,0.4-1.2,0.4c-0.5,0-0.8-0.1-1.1-0.2v-0.7c0.2,0.1,0.4,0.2,0.6,0.2
			c0.2,0.1,0.4,0.1,0.6,0.1c0.6,0,0.8-0.2,0.8-0.7c0-0.4-0.3-0.7-0.8-0.7c-0.1,0-0.2,0-0.4,0.1c-0.1,0-0.2,0.1-0.3,0.1l-0.4-0.2
			l0.2-2.1h2.2v0.7h-1.4L580.5,329.5L580.5,329.5z M585.3,331.6c-0.2,0.4-0.7,0.6-1.1,0.6s-0.8-0.2-1.1-0.6
			c-0.2-0.4-0.4-0.9-0.4-1.6c0-0.7,0.1-1.2,0.4-1.6c0.2-0.4,0.6-0.6,1.1-0.6c0.5,0,0.8,0.2,1.1,0.6c0.2,0.4,0.4,0.9,0.4,1.6
			C585.7,330.8,585.6,331.3,585.3,331.6L585.3,331.6z M584.7,328.9c-0.1-0.2-0.2-0.4-0.5-0.4s-0.4,0.1-0.5,0.4
			c-0.1,0.2-0.1,0.6-0.1,1.1s0.1,0.8,0.1,1.1c0.1,0.2,0.2,0.4,0.5,0.4s0.4-0.1,0.5-0.4c0.1-0.3,0.1-0.6,0.1-1.1
			C584.8,329.5,584.8,329.2,584.7,328.9L584.7,328.9z"/>
		<path id="XMLID_103_" class="st29" d="M612.1,328.8c-0.2,0.1-0.4,0.2-0.4,0.4c-0.1,0.2-0.2,0.5-0.2,0.7h0.1
			c0.2-0.4,0.5-0.5,0.9-0.5c0.4,0,0.7,0.1,0.8,0.4c0.2,0.2,0.3,0.6,0.3,0.9c0,0.5-0.1,0.8-0.4,1c-0.2,0.3-0.6,0.4-1,0.4
			c-0.3,0-0.6-0.1-0.8-0.2c-0.2-0.1-0.4-0.4-0.6-0.7c-0.1-0.3-0.2-0.6-0.2-0.9c0-0.8,0.2-1.4,0.6-1.9c0.4-0.4,0.8-0.7,1.6-0.7
			c0.2,0,0.4,0,0.6,0.1v0.7c-0.2-0.1-0.4-0.1-0.6-0.1C612.6,328.6,612.3,328.7,612.1,328.8L612.1,328.8z M611.8,331.3
			c0.1,0.2,0.3,0.2,0.5,0.2c0.2,0,0.4-0.1,0.4-0.2c0.1-0.1,0.2-0.3,0.2-0.6c0-0.3-0.1-0.4-0.1-0.5c-0.1-0.1-0.2-0.2-0.4-0.2
			c-0.2,0-0.4,0.1-0.5,0.2c-0.1,0.1-0.2,0.2-0.2,0.4C611.6,330.9,611.7,331.1,611.8,331.3L611.8,331.3z M616.6,331.6
			c-0.2,0.4-0.7,0.6-1.1,0.6c-0.5,0-0.8-0.2-1.1-0.6c-0.2-0.4-0.4-0.9-0.4-1.6c0-0.7,0.1-1.2,0.4-1.6c0.2-0.4,0.6-0.6,1.1-0.6
			c0.5,0,0.8,0.2,1.1,0.6c0.2,0.4,0.4,0.9,0.4,1.6C616.9,330.8,616.8,331.3,616.6,331.6L616.6,331.6z M615.9,328.9
			c-0.1-0.2-0.2-0.4-0.5-0.4c-0.2,0-0.4,0.1-0.5,0.4c-0.1,0.2-0.1,0.6-0.1,1.1s0.1,0.8,0.1,1.1c0.1,0.2,0.2,0.4,0.5,0.4
			c0.2,0,0.4-0.1,0.5-0.4c0.1-0.2,0.1-0.6,0.1-1.1C616,329.5,615.9,329.2,615.9,328.9L615.9,328.9z"/>
		<path id="XMLID_110_" class="st29" d="M642.8,332.1h-0.9l1.6-3.4h-2V328h3v0.6L642.8,332.1L642.8,332.1z M647.2,331.6
			c-0.2,0.4-0.7,0.6-1.1,0.6c-0.5,0-0.8-0.2-1.1-0.6c-0.2-0.4-0.4-0.9-0.4-1.6c0-0.7,0.1-1.2,0.4-1.6c0.2-0.4,0.6-0.6,1.1-0.6
			c0.5,0,0.8,0.2,1.1,0.6c0.2,0.4,0.4,0.9,0.4,1.6C647.6,330.8,647.5,331.3,647.2,331.6L647.2,331.6z M646.7,328.9
			c-0.1-0.2-0.2-0.4-0.5-0.4c-0.3,0-0.4,0.1-0.5,0.4c-0.1,0.2-0.1,0.6-0.1,1.1s0.1,0.8,0.1,1.1c0.1,0.2,0.2,0.4,0.5,0.4
			c0.3,0,0.4-0.1,0.5-0.4c0.1-0.2,0.1-0.6,0.1-1.1S646.7,329.2,646.7,328.9L646.7,328.9z"/>
		<path id="XMLID_116_" class="st29" d="M675.2,330c0.3,0.2,0.6,0.4,0.7,0.6c0.1,0.2,0.2,0.4,0.2,0.6c0,0.4-0.1,0.7-0.4,0.8
			c-0.3,0.2-0.7,0.3-1,0.3c-0.5,0-0.8-0.1-1.1-0.3c-0.3-0.2-0.4-0.5-0.4-0.8c0-0.2,0.1-0.5,0.2-0.7c0.1-0.2,0.4-0.4,0.7-0.5
			c-0.2-0.2-0.4-0.3-0.6-0.5c-0.1-0.2-0.2-0.4-0.2-0.6c0-0.3,0.1-0.6,0.4-0.7c0.2-0.2,0.6-0.3,0.9-0.3s0.7,0.1,0.9,0.3
			c0.2,0.2,0.4,0.4,0.4,0.7c0,0.2-0.1,0.4-0.2,0.6C675.6,329.6,675.5,329.8,675.2,330L675.2,330z M674.1,331.4
			c0.1,0.1,0.3,0.1,0.5,0.1c0.2,0,0.4-0.1,0.5-0.1c0.1-0.1,0.2-0.2,0.2-0.4c0-0.1-0.1-0.2-0.2-0.4c-0.1-0.1-0.3-0.2-0.6-0.4
			c-0.4,0.2-0.7,0.4-0.7,0.7C674,331.2,674.1,331.3,674.1,331.4L674.1,331.4z M675,328.7c-0.1-0.1-0.2-0.1-0.4-0.1
			c-0.2,0-0.3,0.1-0.4,0.1c-0.1,0.1-0.1,0.2-0.1,0.3s0.1,0.2,0.1,0.3c0.1,0.1,0.2,0.2,0.4,0.3c0.2-0.1,0.3-0.2,0.4-0.3
			c0.1-0.1,0.1-0.2,0.1-0.4C675.1,328.9,675.1,328.8,675,328.7L675,328.7z M679,331.6c-0.2,0.4-0.7,0.6-1.1,0.6
			c-0.5,0-0.8-0.2-1.1-0.6s-0.4-0.9-0.4-1.6c0-0.7,0.1-1.2,0.4-1.6c0.2-0.4,0.6-0.6,1.1-0.6c0.5,0,0.8,0.2,1.1,0.6
			c0.2,0.4,0.4,0.9,0.4,1.6C679.4,330.8,679.2,331.3,679,331.6L679,331.6z M678.3,328.9c-0.1-0.2-0.2-0.4-0.5-0.4
			c-0.2,0-0.4,0.1-0.5,0.4c-0.1,0.2-0.1,0.6-0.1,1.1s0.1,0.8,0.1,1.1c0.1,0.2,0.2,0.4,0.5,0.4c0.2,0,0.4-0.1,0.5-0.4
			c0.1-0.2,0.1-0.6,0.1-1.1S678.4,329.2,678.3,328.9L678.3,328.9z"/>
		<path id="XMLID_124_" class="st29" d="M706.7,331.6c-0.4,0.4-0.8,0.7-1.6,0.7c-0.2,0-0.5,0-0.6-0.1v-0.7c0.2,0.1,0.4,0.1,0.6,0.1
			c0.3,0,0.6-0.1,0.7-0.1c0.2-0.1,0.4-0.2,0.5-0.4c0.1-0.2,0.2-0.5,0.2-0.7h-0.1c-0.1,0.2-0.2,0.3-0.4,0.4c-0.2,0.1-0.4,0.1-0.6,0.1
			c-0.4,0-0.7-0.1-0.8-0.4c-0.2-0.2-0.3-0.6-0.3-0.9c0-0.5,0.1-0.8,0.4-1c0.2-0.3,0.6-0.4,1-0.4c0.3,0,0.6,0.1,0.8,0.2
			c0.2,0.2,0.4,0.4,0.6,0.7c0.1,0.3,0.2,0.6,0.2,0.9C707.2,330.5,707.1,331.2,706.7,331.6L706.7,331.6z M706.2,328.9
			c-0.1-0.2-0.3-0.2-0.5-0.2c-0.2,0-0.4,0.1-0.4,0.2c-0.1,0.1-0.2,0.3-0.2,0.6c0,0.3,0.1,0.4,0.1,0.5c0.1,0.1,0.2,0.2,0.4,0.2
			c0.2,0,0.4-0.1,0.5-0.2c0.1-0.1,0.2-0.2,0.2-0.4C706.4,329.2,706.4,329,706.2,328.9L706.2,328.9z M710.2,331.6
			c-0.2,0.4-0.7,0.6-1.1,0.6c-0.5,0-0.8-0.2-1.1-0.6c-0.2-0.4-0.4-0.9-0.4-1.6c0-0.7,0.1-1.2,0.4-1.6c0.2-0.4,0.6-0.6,1.1-0.6
			c0.5,0,0.8,0.2,1.1,0.6c0.2,0.4,0.4,0.9,0.4,1.6C710.6,330.8,710.5,331.3,710.2,331.6L710.2,331.6z M709.5,328.9
			c-0.1-0.2-0.2-0.4-0.5-0.4c-0.2,0-0.4,0.1-0.5,0.4c-0.1,0.2-0.1,0.6-0.1,1.1s0.1,0.8,0.1,1.1c0.1,0.2,0.2,0.4,0.5,0.4
			c0.3,0,0.4-0.1,0.5-0.4c0.1-0.3,0.1-0.6,0.1-1.1C709.7,329.5,709.6,329.2,709.5,328.9L709.5,328.9z"/>
		<g id="XMLID_172_">
			<g>
				<path id="XMLID_173_" class="st29" d="M413.1,280.2v-0.7h1.6v0.7H413.1L413.1,280.2z M419.5,280.7v0.7h-2.9v-0.7l1-1
					c0.3-0.4,0.6-0.6,0.7-0.7c0.1-0.1,0.2-0.2,0.2-0.4c0.1-0.1,0.1-0.2,0.1-0.4c0-0.2-0.1-0.3-0.1-0.4c-0.1-0.1-0.2-0.1-0.4-0.1
					c-0.2,0-0.4,0.1-0.5,0.1c-0.2,0.1-0.3,0.2-0.5,0.4l-0.5-0.6c0.2-0.2,0.4-0.3,0.6-0.4c0.1-0.1,0.3-0.1,0.5-0.2
					c0.2-0.1,0.4-0.1,0.6-0.1c0.3,0,0.6,0.1,0.7,0.1c0.2,0.1,0.4,0.2,0.5,0.4c0.1,0.2,0.2,0.4,0.2,0.6s-0.1,0.4-0.1,0.6
					c-0.1,0.2-0.2,0.4-0.3,0.6c-0.1,0.2-0.4,0.4-0.7,0.7l-0.6,0.6v0.1L419.5,280.7L419.5,280.7z M422.4,281
					c-0.2,0.4-0.7,0.6-1.1,0.6c-0.5,0-0.8-0.2-1.1-0.6c-0.2-0.4-0.4-0.9-0.4-1.6c0-0.7,0.1-1.2,0.4-1.6c0.2-0.4,0.6-0.6,1.1-0.6
					c0.5,0,0.8,0.2,1.1,0.6c0.2,0.4,0.4,0.9,0.4,1.6C422.7,280.2,422.6,280.6,422.4,281L422.4,281z M421.7,278.3
					c-0.1-0.2-0.2-0.4-0.5-0.4c-0.3,0-0.4,0.1-0.5,0.4c-0.1,0.2-0.1,0.6-0.1,1.1c0,0.6,0.1,0.8,0.1,1.1c0.1,0.2,0.2,0.4,0.5,0.4
					c0.3,0,0.4-0.1,0.5-0.4c0.1-0.2,0.1-0.6,0.1-1.1C421.9,278.8,421.9,278.5,421.7,278.3L421.7,278.3z"/>
			</g>
		</g>
		<path id="XMLID_165_" class="st29" d="M413.4,298.8v-0.7h1.6v0.7H413.4L413.4,298.8z M419.4,299.1v0.8h-0.8v-0.8h-1.8v-0.7
			l1.9-2.7h0.8v2.6h0.6v0.7L419.4,299.1L419.4,299.1z M418.5,296.8c-0.1,0.2-0.2,0.3-0.2,0.5l-0.7,1.1h0.9v-0.7c0-0.1,0-0.3,0-0.6
			C418.5,297,418.5,296.9,418.5,296.8L418.5,296.8L418.5,296.8z M422.7,299.5c-0.2,0.4-0.7,0.6-1.1,0.6c-0.5,0-0.8-0.2-1.1-0.6
			c-0.2-0.4-0.4-0.9-0.4-1.6c0-0.7,0.1-1.2,0.4-1.6c0.2-0.4,0.6-0.6,1.1-0.6c0.5,0,0.8,0.2,1.1,0.6c0.2,0.4,0.4,0.9,0.4,1.6
			C423,298.6,422.9,299.1,422.7,299.5L422.7,299.5z M422.1,296.7c-0.1-0.2-0.2-0.4-0.5-0.4c-0.3,0-0.4,0.1-0.5,0.4
			c-0.1,0.2-0.1,0.6-0.1,1.1s0.1,0.8,0.1,1.1c0.1,0.2,0.2,0.4,0.5,0.4c0.3,0,0.4-0.1,0.5-0.4c0.1-0.2,0.1-0.6,0.1-1.1
			C422.2,297.4,422.2,297,422.1,296.7L422.1,296.7z"/>
		<path id="XMLID_150_" class="st29" d="M418.9,205.4c-0.2,0.1-0.4,0.2-0.4,0.4c-0.1,0.2-0.2,0.5-0.2,0.7h0.1
			c0.2-0.4,0.5-0.5,0.9-0.5c0.4,0,0.7,0.1,0.8,0.4c0.2,0.2,0.4,0.6,0.4,0.9c0,0.5-0.1,0.8-0.4,1c-0.2,0.3-0.6,0.4-1,0.4
			c-0.3,0-0.6-0.1-0.8-0.2c-0.2-0.1-0.4-0.4-0.6-0.7s-0.2-0.6-0.2-0.9c0-0.8,0.2-1.4,0.6-1.9s0.8-0.6,1.6-0.6c0.2,0,0.4,0,0.6,0.1
			v0.7c-0.2-0.1-0.4-0.1-0.6-0.1C419.3,205.3,419.1,205.4,418.9,205.4L418.9,205.4z M418.4,207.9c0.1,0.2,0.3,0.2,0.5,0.2
			s0.4-0.1,0.5-0.2c0.1-0.1,0.2-0.3,0.2-0.6s-0.1-0.4-0.1-0.5c-0.1-0.1-0.2-0.2-0.4-0.2c-0.2,0-0.4,0.1-0.5,0.2
			c-0.1,0.1-0.2,0.2-0.2,0.4C418.3,207.6,418.3,207.7,418.4,207.9L418.4,207.9z M423.3,208.4c-0.2,0.4-0.7,0.6-1.1,0.6
			c-0.5,0-0.8-0.2-1.1-0.6c-0.2-0.4-0.4-0.9-0.4-1.6c0-0.7,0.1-1.2,0.4-1.6c0.2-0.4,0.6-0.6,1.1-0.6c0.5,0,0.8,0.2,1.1,0.6
			c0.2,0.4,0.4,0.9,0.4,1.6C423.7,207.4,423.6,208,423.3,208.4L423.3,208.4z M422.6,205.7c-0.1-0.2-0.2-0.4-0.5-0.4
			c-0.2,0-0.4,0.1-0.5,0.4c-0.1,0.2-0.1,0.6-0.1,1.1c0,0.6,0.1,0.8,0.1,1.1c0.1,0.2,0.2,0.4,0.5,0.4c0.2,0,0.4-0.1,0.5-0.4
			c0.1-0.3,0.1-0.6,0.1-1.1C422.7,206.2,422.7,205.8,422.6,205.7L422.6,205.7z"/>
		<path id="XMLID_143_" class="st29" d="M419.7,226.4v0.8h-0.8v-0.8h-1.8v-0.7l1.9-2.7h0.8v2.6h0.6v0.7L419.7,226.4L419.7,226.4z
			 M418.9,224.2c-0.1,0.2-0.2,0.3-0.2,0.5l-0.7,1.1h0.9v-0.7c0-0.1,0-0.3,0-0.6C418.9,224.4,418.9,224.3,418.9,224.2L418.9,224.2
			L418.9,224.2z M423,226.9c-0.2,0.4-0.7,0.6-1.1,0.6c-0.5,0-0.8-0.2-1.1-0.6c-0.2-0.4-0.4-0.9-0.4-1.6c0-0.7,0.1-1.2,0.4-1.6
			c0.2-0.4,0.6-0.6,1.1-0.6c0.5,0,0.8,0.2,1.1,0.6c0.2,0.4,0.4,0.9,0.4,1.6S423.3,226.5,423,226.9L423,226.9z M422.4,224.1
			c-0.1-0.2-0.2-0.4-0.5-0.4c-0.3,0-0.4,0.1-0.5,0.4c-0.1,0.2-0.1,0.6-0.1,1.1c0,0.6,0.1,0.8,0.1,1.1c0.1,0.2,0.2,0.4,0.5,0.4
			c0.3,0,0.4-0.1,0.5-0.4c0.1-0.2,0.1-0.6,0.1-1.1C422.5,224.7,422.4,224.4,422.4,224.1L422.4,224.1z"/>
		<path id="XMLID_137_" class="st29" d="M420.1,245.3v0.7h-2.9v-0.7l1-1c0.3-0.4,0.6-0.6,0.7-0.7c0.1-0.1,0.2-0.2,0.2-0.4
			c0.1-0.1,0.1-0.2,0.1-0.4s-0.1-0.3-0.1-0.4c-0.1-0.1-0.2-0.1-0.4-0.1c-0.2,0-0.4,0.1-0.5,0.1c-0.2,0.1-0.3,0.2-0.5,0.4l-0.5-0.6
			c0.2-0.2,0.4-0.3,0.6-0.4c0.1-0.1,0.3-0.1,0.5-0.2c0.2-0.1,0.4-0.1,0.6-0.1c0.3,0,0.5,0.1,0.7,0.1c0.2,0.1,0.4,0.2,0.5,0.4
			c0.1,0.2,0.2,0.4,0.2,0.6c0,0.2-0.1,0.4-0.1,0.6c-0.1,0.2-0.2,0.4-0.3,0.6c-0.1,0.2-0.4,0.4-0.7,0.7l-0.6,0.6v0.1L420.1,245.3
			L420.1,245.3z M423,245.6c-0.2,0.4-0.7,0.6-1.1,0.6c-0.5,0-0.8-0.2-1.1-0.6c-0.2-0.4-0.4-0.9-0.4-1.6c0-0.7,0.1-1.2,0.4-1.6
			c0.2-0.4,0.6-0.6,1.1-0.6c0.5,0,0.8,0.2,1.1,0.6c0.2,0.4,0.4,0.9,0.4,1.6C423.4,244.8,423.3,245.3,423,245.6L423,245.6z
			 M422.4,242.9c-0.1-0.2-0.2-0.4-0.5-0.4c-0.3,0-0.4,0.1-0.5,0.4c-0.1,0.2-0.1,0.6-0.1,1.1c0,0.6,0.1,0.8,0.1,1.1
			c0.1,0.2,0.2,0.4,0.5,0.4c0.3,0,0.4-0.1,0.5-0.4c0.1-0.2,0.1-0.6,0.1-1.1C422.5,243.6,422.4,243.1,422.4,242.9L422.4,242.9z"/>
		<g id="XMLID_131_">
			<g>
				<path id="XMLID_132_" class="st29" d="M421.6,261c-0.2-0.4-0.7-0.6-1.1-0.6c-0.6,0-0.8,0.2-1.1,0.6c-0.2,0.4-0.4,0.9-0.4,1.6
					c0,0.7,0.1,1.2,0.4,1.6c0.2,0.4,0.7,0.6,1.1,0.6c0.6,0,0.8-0.2,1.1-0.6c0.2-0.4,0.4-0.8,0.4-1.6
					C422,261.8,421.9,261.3,421.6,261L421.6,261z M420.1,261.4c0.1-0.2,0.2-0.4,0.5-0.4c0.3,0,0.4,0.1,0.5,0.4
					c0.1,0.2,0.1,0.6,0.1,1.1s-0.1,0.8-0.1,1.1c-0.1,0.2-0.2,0.4-0.5,0.4c-0.2,0-0.4-0.1-0.5-0.4c-0.1-0.2-0.1-0.6-0.1-1.1
					C419.9,262,420,261.7,420.1,261.4L420.1,261.4z"/>
			</g>
		</g>
		<g id="XMLID_156_">
			<g>
				<path id="XMLID_157_" class="st29" d="M413.2,318.1v-0.7h1.6v0.7L413.2,318.1L413.2,318.1z M418,315.9c-0.2,0.1-0.4,0.2-0.4,0.4
					c-0.1,0.2-0.2,0.5-0.2,0.7l0,0c0.2-0.4,0.5-0.5,0.9-0.5c0.4,0,0.7,0.1,0.8,0.4c0.2,0.2,0.4,0.6,0.4,0.9c0,0.5-0.1,0.8-0.4,1
					c-0.2,0.3-0.6,0.4-1,0.4c-0.3,0-0.6-0.1-0.8-0.2c-0.2-0.1-0.4-0.4-0.6-0.7c-0.1-0.3-0.2-0.6-0.2-0.9c0-0.8,0.2-1.4,0.6-1.9
					c0.4-0.4,0.8-0.7,1.6-0.7c0.2,0,0.4,0,0.6,0.1v0.7c-0.2-0.1-0.4-0.1-0.6-0.1C418.4,315.7,418.2,315.8,418,315.9L418,315.9z
					 M417.7,318.3c0.1,0.2,0.3,0.2,0.5,0.2s0.4-0.1,0.5-0.2c0.1-0.1,0.2-0.3,0.2-0.6c0-0.2-0.1-0.4-0.1-0.5
					c-0.1-0.1-0.2-0.2-0.4-0.2c-0.2,0-0.4,0.1-0.5,0.2c-0.1,0.1-0.2,0.2-0.2,0.4C417.5,318,417.6,318.2,417.7,318.3L417.7,318.3z
					 M422.4,318.7c-0.2,0.4-0.6,0.6-1.1,0.6c-0.5,0-0.8-0.2-1.1-0.6c-0.3-0.4-0.4-0.9-0.4-1.6c0-0.7,0.1-1.2,0.4-1.6
					c0.2-0.4,0.6-0.6,1.1-0.6c0.5,0,0.8,0.2,1.1,0.6c0.2,0.4,0.4,0.9,0.4,1.6C422.8,317.9,422.7,318.4,422.4,318.7L422.4,318.7z
					 M421.8,316.1c-0.1-0.2-0.2-0.4-0.5-0.4c-0.3,0-0.4,0.1-0.5,0.4c-0.1,0.2-0.1,0.6-0.1,1.1s0.1,0.8,0.1,1.1
					c0.1,0.2,0.2,0.4,0.5,0.4c0.3,0,0.4-0.1,0.5-0.4c0.1-0.2,0.1-0.6,0.1-1.1C422,316.7,421.9,316.3,421.8,316.1L421.8,316.1z"/>
			</g>
		</g>
		<g id="XMLID_71_">
			<circle id="XMLID_56_" class="st30" cx="426.5" cy="287.9" r="2.4"/>
		</g>
		<g id="XMLID_82_">
			<circle id="XMLID_50_" class="st30" cx="456.1" cy="236.2" r="2.4"/>
		</g>
		<g id="XMLID_58_">
			<circle id="XMLID_40_" class="st30" cx="489.2" cy="208.8" r="2.4"/>
		</g>
		<g id="XMLID_31_">
			<circle id="XMLID_29_" class="st30" cx="520.1" cy="245.6" r="2.4"/>
		</g>
		<g id="XMLID_24_">
			<circle id="XMLID_34_" class="st30" cx="550.8" cy="295.4" r="2.4"/>
		</g>
		<g id="XMLID_22_">
			<circle id="XMLID_39_" class="st30" cx="582.1" cy="287.3" r="2.4"/>
		</g>
		<g id="XMLID_17_">
			<circle id="XMLID_44_" class="st30" cx="613.6" cy="233.8" r="2.4"/>
		</g>
		<g id="XMLID_10_">
			<circle id="XMLID_49_" class="st30" cx="644.7" cy="209.8" r="2.4"/>
		</g>
		<g id="XMLID_8_">
			<circle id="XMLID_54_" class="st30" cx="676" cy="248" r="2.4"/>
		</g>
		<g id="XMLID_7_">
			<circle id="XMLID_254_" class="st30" cx="706.9" cy="296.3" r="2.4"/>
		</g>
		<path class="st26" d="M438.3,164.1v-2.4c0-0.2,0-0.6,0-0.9s0-0.7,0.1-0.7l0,0l-1.5,4.1h-0.7l-1.4-4.1l0,0c0.1,0.7,0.1,1.2,0.1,1.7
			v2.4h-0.8v-4.9h1.1l1.4,3.9l0,0l1.4-3.9h1.1v4.9L438.3,164.1L438.3,164.1z M443.1,163.7c-0.3,0.4-0.7,0.6-1.3,0.6
			c-0.4,0-0.7-0.1-0.9-0.2c-0.3-0.2-0.5-0.4-0.7-0.7c-0.1-0.3-0.2-0.7-0.2-1c0-0.6,0.2-1.1,0.5-1.4c0.3-0.4,0.7-0.6,1.3-0.6
			s0.9,0.2,1.2,0.6c0.3,0.4,0.5,0.8,0.5,1.4C443.5,162.8,443.4,163.3,443.1,163.7L443.1,163.7z M441.7,161c-0.4,0-0.6,0.1-0.7,0.4
			c-0.2,0.2-0.2,0.6-0.2,0.9c0,0.8,0.4,1.2,0.9,1.2c0.7,0,0.9-0.4,0.9-1.2C442.7,161.4,442.4,161,441.7,161L441.7,161z M446.9,164.1
			v-2.3c0-0.3-0.1-0.6-0.2-0.7c-0.1-0.1-0.3-0.2-0.6-0.2c-0.4,0-0.6,0.1-0.7,0.3c-0.2,0.2-0.2,0.6-0.2,0.9v1.9h-0.8v-3.6h0.7
			l0.1,0.5h0.1c0.1-0.2,0.3-0.3,0.5-0.4c0.2-0.1,0.5-0.2,0.7-0.2c0.9,0,1.3,0.5,1.3,1.4v2.4L446.9,164.1L446.9,164.1z"/>
		<path class="st26" d="M494.5,159.8v4.2h-0.8v-4.2h-1.4v-0.7h3.6v0.7H494.5L494.5,159.8z M499.3,163.9l-0.1-0.5h-0.1
			c-0.1,0.2-0.3,0.3-0.5,0.4c-0.2,0.1-0.5,0.2-0.7,0.2c-0.5,0-0.8-0.1-1-0.4c-0.2-0.2-0.4-0.6-0.4-1v-2.4h0.8v2.3
			c0,0.3,0.1,0.6,0.2,0.7c0.1,0.1,0.3,0.2,0.6,0.2c0.4,0,0.6-0.1,0.7-0.3s0.2-0.6,0.2-0.9v-1.9h0.8v3.7L499.3,163.9L499.3,163.9
			L499.3,163.9z M501.6,162.4c0,0.4,0.1,0.7,0.3,0.8c0.2,0.2,0.5,0.3,0.8,0.3c0.2,0,0.4,0,0.7-0.1c0.2-0.1,0.4-0.1,0.7-0.2v0.7
			c-0.2,0.1-0.4,0.2-0.6,0.2s-0.4,0.1-0.7,0.1c-0.6,0-1-0.2-1.4-0.6s-0.6-0.8-0.6-1.4c0-0.7,0.2-1.1,0.5-1.4
			c0.3-0.4,0.7-0.6,1.2-0.6c0.6,0,0.8,0.2,1.1,0.5c0.3,0.3,0.4,0.7,0.4,1.2v0.4L501.6,162.4L501.6,162.4z M503,161.1
			c-0.1-0.2-0.4-0.2-0.6-0.2s-0.5,0.1-0.7,0.2c-0.2,0.2-0.2,0.4-0.3,0.7h1.7C503.2,161.4,503.2,161.2,503,161.1L503,161.1z"/>
		<path class="st26" d="M552.9,164.2h-0.8l-0.8-2.9c-0.1-0.1-0.1-0.3-0.1-0.6c-0.1-0.2-0.1-0.4-0.1-0.6c0,0.1-0.1,0.4-0.1,0.6
			c-0.1,0.2-0.1,0.4-0.1,0.6l-0.8,2.9h-0.8l-0.7-2.4l-0.7-2.4h0.8l0.7,2.9c0.1,0.5,0.2,0.8,0.2,1.2c0-0.2,0.1-0.4,0.1-0.7
			c0.1-0.2,0.1-0.4,0.1-0.6l0.8-2.9h0.8l0.8,2.9c0.1,0.3,0.2,0.7,0.2,1.2c0.1-0.4,0.1-0.7,0.2-1.2l0.7-2.9h0.8L552.9,164.2
			L552.9,164.2z M555.4,162.5c0,0.4,0.1,0.7,0.3,0.8c0.2,0.2,0.5,0.3,0.8,0.3c0.2,0,0.4,0,0.7-0.1c0.2-0.1,0.4-0.1,0.7-0.2v0.7
			c-0.2,0.1-0.4,0.2-0.6,0.2c-0.2,0.1-0.4,0.1-0.7,0.1c-0.6,0-1-0.2-1.4-0.6c-0.4-0.4-0.6-0.8-0.6-1.4c0-0.7,0.2-1.1,0.5-1.4
			s0.7-0.6,1.2-0.6c0.5,0,0.8,0.2,1.1,0.5s0.4,0.7,0.4,1.2v0.4L555.4,162.5L555.4,162.5z M556.8,161.3c-0.1-0.2-0.4-0.2-0.6-0.2
			c-0.2,0-0.5,0.1-0.7,0.2c-0.2,0.2-0.2,0.4-0.3,0.7h1.7C557,161.7,557,161.4,556.8,161.3L556.8,161.3z M561.3,164.2l-0.1-0.6h-0.1
			c-0.2,0.4-0.7,0.6-1.1,0.6c-0.5,0-0.8-0.2-1.1-0.6c-0.3-0.4-0.4-0.8-0.4-1.4c0-0.6,0.1-1.1,0.4-1.4c0.3-0.4,0.7-0.6,1.1-0.6
			c0.6,0,0.8,0.2,1.1,0.6h0.1c-0.1-0.3-0.1-0.5-0.1-0.7v-1.4h0.8v5.2h-0.7V164.2z M561.1,162.4c0-0.5-0.1-0.8-0.2-0.9
			c-0.1-0.1-0.4-0.3-0.7-0.3c-0.3,0-0.6,0.1-0.7,0.4c-0.2,0.2-0.2,0.6-0.2,0.9s0.1,0.7,0.2,0.9c0.2,0.2,0.4,0.4,0.7,0.4
			c0.4,0,0.6-0.1,0.7-0.3c0.2-0.2,0.2-0.5,0.2-0.9V162.4L561.1,162.4z"/>
		<path class="st26" d="M608.6,159.7v4.2h-0.8v-4.2h-1.5V159h3.6v0.7H608.6L608.6,159.7z M613.2,163.9v-2.3c0-0.3-0.1-0.6-0.2-0.7
			c-0.1-0.1-0.3-0.2-0.6-0.2c-0.4,0-0.6,0.1-0.7,0.3c-0.2,0.2-0.2,0.6-0.2,0.9v1.9h-0.8v-5.2h0.8v1.3c0,0.2,0,0.5-0.1,0.7h0.1
			c0.1-0.2,0.2-0.4,0.5-0.4c0.2-0.1,0.4-0.2,0.7-0.2c0.9,0,1.4,0.5,1.4,1.4v2.4L613.2,163.9L613.2,163.9z M617.6,163.9l-0.1-0.5
			h-0.1c-0.1,0.2-0.3,0.3-0.5,0.4c-0.2,0.1-0.5,0.2-0.7,0.2c-0.5,0-0.8-0.1-1-0.4c-0.2-0.2-0.4-0.6-0.4-1v-2.4h0.8v2.3
			c0,0.3,0.1,0.6,0.2,0.7c0.1,0.1,0.3,0.2,0.6,0.2c0.4,0,0.6-0.1,0.7-0.3c0.2-0.2,0.2-0.6,0.2-0.9v-1.9h0.8v3.7L617.6,163.9
			L617.6,163.9L617.6,163.9z"/>
		<path class="st26" d="M666,159.9v1.6h1.9v0.7H666v2h-0.8v-4.9h2.7v0.7L666,159.9L666,159.9z M671,161.2c-0.1,0-0.2-0.1-0.4-0.1
			c-0.4,0-0.6,0.1-0.7,0.3c-0.2,0.2-0.3,0.5-0.3,0.8v2h-0.8v-3.7h0.7l0.1,0.7h0.1c0.1-0.2,0.3-0.4,0.5-0.6c0.2-0.1,0.4-0.2,0.7-0.2
			c0.2,0,0.3,0,0.4,0.1L671,161.2L671,161.2z M672.5,159.8c-0.1,0.1-0.2,0.1-0.4,0.1c-0.2,0-0.2-0.1-0.4-0.1
			c-0.1-0.1-0.1-0.2-0.1-0.4c0-0.1,0.1-0.2,0.1-0.4c0.1-0.1,0.2-0.1,0.4-0.1c0.1,0,0.2,0.1,0.4,0.1c0.1,0.1,0.1,0.2,0.1,0.4
			C672.6,159.7,672.6,159.8,672.5,159.8L672.5,159.8z M672.6,164.2h-0.8v-3.7h0.8V164.2L672.6,164.2z"/>
		<path class="st26" d="M418.2,148.8c-0.3-0.4-0.7-0.7-1.2-0.7s-0.9,0.2-1.2,0.7c-0.3,0.5-0.4,1-0.4,1.9c0,0.8,0.1,1.4,0.4,1.9
			c0.3,0.4,0.7,0.7,1.2,0.7c0.6,0,0.9-0.2,1.2-0.7c0.3-0.4,0.4-1,0.4-1.9C418.6,149.9,418.4,149.2,418.2,148.8L418.2,148.8z
			 M416.3,149.2c0.1-0.3,0.4-0.5,0.7-0.5s0.6,0.2,0.7,0.5c0.1,0.3,0.2,0.7,0.2,1.4c0,0.7-0.1,1.1-0.2,1.4c-0.1,0.3-0.4,0.5-0.7,0.5
			c-0.3,0-0.6-0.2-0.7-0.4c-0.1-0.3-0.2-0.7-0.2-1.4C416.1,150.1,416.2,149.5,416.3,149.2L416.3,149.2z"/>
		<path class="st26" d="M416.4,117.4v0.7H413v-0.6l1.2-1.2c0.4-0.4,0.7-0.7,0.7-0.8s0.2-0.3,0.3-0.5c0.1-0.1,0.1-0.3,0.1-0.5
			s-0.1-0.4-0.2-0.6c-0.1-0.1-0.4-0.2-0.6-0.2s-0.4,0.1-0.6,0.1c-0.2,0.1-0.4,0.2-0.7,0.4l-0.4-0.6c0.3-0.2,0.6-0.4,0.8-0.6
			c0.2-0.1,0.6-0.2,0.8-0.2c0.5,0,0.8,0.1,1.1,0.4c0.3,0.2,0.4,0.6,0.4,0.9c0,0.2-0.1,0.5-0.1,0.7s-0.2,0.4-0.4,0.7
			c-0.2,0.2-0.5,0.6-0.8,0.8l-0.8,0.8v0.1L416.4,117.4L416.4,117.4z M419.9,117.6c-0.3,0.4-0.7,0.7-1.2,0.7s-0.9-0.2-1.2-0.7
			c-0.3-0.5-0.4-1-0.4-1.9c0-0.8,0.1-1.5,0.4-1.9c0.3-0.4,0.7-0.7,1.2-0.7s0.9,0.2,1.2,0.7c0.3,0.4,0.4,1,0.4,1.9
			C420.4,116.5,420.2,117.1,419.9,117.6L419.9,117.6z M419.4,114.2c-0.1-0.3-0.4-0.5-0.7-0.5c-0.3,0-0.6,0.2-0.7,0.5
			c-0.1,0.3-0.2,0.7-0.2,1.4c0,0.7,0.1,1.1,0.2,1.4c0.1,0.3,0.4,0.4,0.7,0.4s0.6-0.2,0.7-0.5c0.1-0.3,0.2-0.7,0.2-1.4
			C419.6,115,419.5,114.5,419.4,114.2L419.4,114.2z"/>
		<path class="st26" d="M416.1,82.9v1h-0.7v-1.1h-2.2v-0.7l2.2-3.3h0.7v3.3h0.7v0.7L416.1,82.9L416.1,82.9z M415.3,79.9
			c-0.1,0.2-0.2,0.4-0.3,0.6l-1.2,1.8h1.5v-1.2C415.3,80.5,415.3,80.2,415.3,79.9L415.3,79.9L415.3,79.9z M420,83.4
			c-0.3,0.4-0.7,0.7-1.2,0.7c-0.6,0-0.9-0.2-1.2-0.7c-0.3-0.4-0.4-1-0.4-1.9c0-0.8,0.1-1.5,0.4-1.9c0.3-0.4,0.7-0.7,1.2-0.7
			c0.6,0,0.9,0.2,1.2,0.7c0.3,0.4,0.4,1,0.4,1.9C420.5,82.3,420.3,82.9,420,83.4L420,83.4z M419.5,80.1c-0.1-0.3-0.4-0.5-0.7-0.5
			s-0.6,0.2-0.7,0.5c-0.1,0.3-0.2,0.7-0.2,1.4c0,0.7,0.1,1.1,0.2,1.4c0.1,0.3,0.4,0.4,0.7,0.4c0.3,0,0.6-0.2,0.7-0.5
			c0.1-0.3,0.2-0.7,0.2-1.4C419.7,80.8,419.7,80.4,419.5,80.1L419.5,80.1z"/>
		<path class="st26" d="M414.2,46.1c-0.3,0.3-0.4,0.7-0.5,1.4h0.1c0.1-0.2,0.2-0.4,0.5-0.4c0.2-0.1,0.4-0.2,0.7-0.2
			c0.5,0,0.8,0.1,1,0.4c0.2,0.3,0.4,0.7,0.4,1.1c0,0.6-0.2,0.9-0.5,1.2c-0.3,0.3-0.7,0.5-1.2,0.5c-0.4,0-0.7-0.1-0.9-0.2
			c-0.3-0.1-0.5-0.4-0.6-0.7c-0.1-0.4-0.2-0.7-0.2-1.1c0-2,0.8-2.9,2.3-2.9c0.2,0,0.5,0,0.7,0.1V46c-0.2-0.1-0.4-0.1-0.6-0.1
			C414.8,45.8,414.4,45.9,414.2,46.1L414.2,46.1z M414.1,49.1c0.2,0.2,0.4,0.4,0.7,0.4c0.3,0,0.5-0.1,0.7-0.3
			c0.2-0.2,0.2-0.4,0.2-0.7c0-0.3-0.1-0.6-0.2-0.7c-0.1-0.2-0.4-0.2-0.7-0.2c-0.2,0-0.4,0.1-0.5,0.1c-0.1,0.1-0.2,0.2-0.4,0.3
			c-0.1,0.1-0.1,0.2-0.1,0.4C413.8,48.7,413.9,48.9,414.1,49.1L414.1,49.1z M419.7,49.5c-0.3,0.4-0.7,0.7-1.2,0.7
			c-0.6,0-0.9-0.2-1.2-0.7c-0.3-0.5-0.4-1-0.4-1.9c0-0.8,0.1-1.5,0.4-1.9c0.3-0.4,0.7-0.7,1.2-0.7c0.6,0,0.9,0.2,1.2,0.7
			c0.3,0.4,0.4,1,0.4,1.9C420.2,48.5,420.1,49.1,419.7,49.5L419.7,49.5z M419.2,46.1c-0.1-0.3-0.4-0.5-0.7-0.5
			c-0.3,0-0.6,0.2-0.7,0.5c-0.1,0.3-0.2,0.7-0.2,1.4c0,0.7,0.1,1.1,0.2,1.4c0.1,0.3,0.4,0.4,0.7,0.4s0.6-0.2,0.7-0.5
			c0.1-0.3,0.2-0.7,0.2-1.4C419.4,47,419.4,46.5,419.2,46.1L419.2,46.1z"/>
		<g id="XMLID_191_">
			<g id="XMLID_206_">
				<g id="XMLID_251_">
					<rect x="662.1" y="50.6" class="st31" width="0.6" height="99.8"/>
				</g>
				<g id="XMLID_250_">
					<rect x="605.3" y="82.3" class="st31" width="0.6" height="68.2"/>
				</g>
				<g id="XMLID_248_">
					<rect x="490.6" y="65.2" class="st31" width="0.6" height="85.3"/>
				</g>
				<g id="XMLID_246_">
					<rect x="433.5" y="47.9" class="st31" width="0.6" height="102.5"/>
				</g>
				<g id="XMLID_241_">
					<rect x="548.2" y="99.3" class="st31" width="0.6" height="51.2"/>
				</g>
				<g id="XMLID_236_">
					<rect x="425.8" y="116" class="st31" width="285.3" height="0.6"/>
				</g>
				<g id="XMLID_232_">
					<rect x="425.8" y="99.1" class="st31" width="285.3" height="0.6"/>
				</g>
				<g id="XMLID_228_">
					<rect x="425.8" y="82.3" class="st31" width="285.3" height="0.6"/>
				</g>
				<g id="XMLID_222_">
					<rect x="425.8" y="65.5" class="st31" width="285.3" height="0.6"/>
				</g>
				<g id="XMLID_216_">
					<rect x="425.8" y="133.7" class="st31" width="285.3" height="0.6"/>
				</g>
				<g id="XMLID_210_">
					<rect x="425.8" y="150.5" class="st31" width="285.3" height="0.6"/>
				</g>
			</g>
			<g id="XMLID_192_">
				<rect x="425.8" y="48.7" class="st31" width="285.3" height="0.6"/>
			</g>
		</g>
		<path id="XMLID_182_" class="st32" d="M711.2,68.5c-18.6,0-26.1-5.7-33.2-11.3c-6.1-4.7-12-9.3-25.3-9.3c-13,0-18.3,7.6-24,15.6
			c-6.2,9-13.4,19.2-32.3,19.2c-18.1,0-24.3,4.4-30.4,8.7c-5.9,4.1-11.3,7.9-25.4,7.9c-14,0-18.7-7.6-23.8-15.6
			C510.7,74.5,504.8,65,484,65c-21.7,0-26.6-3.8-31.8-7.9c-4.5-3.5-9-7.2-25.1-9.2"/>
		<g id="XMLID_171_">
			<g id="XMLID_178_">
				<circle id="XMLID_180_" class="st24" cx="433.8" cy="48.9" r="1.7"/>
				<circle id="XMLID_179_" class="st33" cx="433.8" cy="48.9" r="1.7"/>
			</g>
		</g>
		<g id="XMLID_149_">
			<g id="XMLID_155_">
				<circle id="XMLID_164_" class="st24" cx="490.9" cy="65.8" r="1.7"/>
				<circle id="XMLID_163_" class="st33" cx="490.9" cy="65.8" r="1.7"/>
			</g>
		</g>
		<g id="XMLID_136_">
			<g id="XMLID_141_">
				<circle id="XMLID_148_" class="st24" cx="548.5" cy="98.9" r="1.7"/>
				<circle id="XMLID_142_" class="st33" cx="548.5" cy="98.9" r="1.7"/>
			</g>
		</g>
		<g id="XMLID_123_">
			<g id="XMLID_129_">
				<circle id="XMLID_135_" class="st24" cx="605.6" cy="81.9" r="1.7"/>
				<circle id="XMLID_130_" class="st33" cx="605.6" cy="81.9" r="1.7"/>
			</g>
		</g>
		<g id="XMLID_61_">
			<g id="XMLID_62_">
				<circle id="XMLID_122_" class="st24" cx="662.4" cy="48.6" r="1.7"/>
				<circle id="XMLID_96_" class="st33" cx="662.4" cy="48.6" r="1.7"/>
			</g>
		</g>
		<g id="XMLID_1_">
			<circle id="XMLID_23_" class="st34" cx="855.8" cy="116.2" r="1.2"/>
		</g>
	</g>
</g>
</svg>
