       <svg xmlns="http://www.w3.org/2000/svg" id="Layer_1" viewBox="0 0 190.9 102.8">
          <style>
            .icinga-alert-0{fill:#D6A687;} .icinga-alert-1{fill:none;} .icinga-alert-2{fill:#B9E3FF;} .icinga-alert-3{fill:#B5E2FF;} .icinga-alert-4{fill:#54BBFF;} .icinga-alert-5{fill:#76C9FF;} .icinga-alert-6{fill:#98D6FF;} .icinga-alert-7{fill:#F2F3F6;} .icinga-alert-8{fill:#D1EDFF;} .icinga-alert-9{enable-background:new ;} .icinga-alert-10{fill:#1C55C5;} .icinga-alert-11{fill:#DFE9E8;} .icinga-alert-12{fill:#3A5997;} .icinga-alert-13{fill:#88ACE5;} .icinga-alert-14{fill:#6199DA;} .icinga-alert-15{fill:#929497;} .icinga-alert-16{fill:#FFFFFF;} .icinga-alert-17{fill:#C4DAF5;} .icinga-alert-18{fill:#F0F0F0;} .icinga-alert-19{fill:#88A4B2;} .icinga-alert-20{fill:#0B1316;} .icinga-alert-21{fill:#6E97D7;} .icinga-alert-22{fill:url(#SVGID_1_);} .icinga-alert-23{fill:#FAD598;} .icinga-alert-24{fill:#F5A725;} .icinga-alert-25{fill:none;stroke:#FF2C57;stroke-miterlimit:10;} .icinga-alert-26{fill:#FF5D5D;} .icinga-alert-27{fill:#00D40B;} .icinga-alert-28{fill:#FFC504;} .icinga-alert-29{fill:#76CAA3;} .icinga-alert-30{opacity:0.6;} .icinga-alert-31{fill:#56BE8E;} .icinga-alert-32{fill:#96D7B9;} .icinga-alert-33{fill:#FAA928;} .icinga-alert-34{fill:#4074E1;} .icinga-alert-35{fill:#DEEDFF;} .icinga-alert-36{opacity:0.1;fill:#BCBEC0;enable-background:new ;} .icinga-alert-37{fill:#99B9E2;}
          </style>
            <g class="icinga-notification">
                <path d="M174.4 58.9h.2-.5.3z" class="icinga-alert-0"/>
                <path d="M151.6 45.6l.1-.1-.7-.4z" class="icinga-alert-1"/>
                <path d="M151.1 47.1l-1.2-.8-1.2.8L134 57.6c.2.5.5.8.8 1 .4.2.9.5 1.3.5h27.4c.5 0 .9-.2 1.2-.4.4-.2.7-.5.9-.9l-14.5-10.7z" class="icinga-alert-2"/>
                <path d="M150.1 23.1l-15.5 13.3c.2.5-.2 1.2.2 1.5.4.3.9.5 1.3.5l14 8.3 13.4-8.3c.5 0 .9-.2 1.2-.4.4-.2.2-1.2.4-1.6l-15-13.3z" class="icinga-alert-3"/>
                <path d="M138.4 41.2v3.7c0 .9.8 1.6 1.7 1.6h19.7c.9 0 1.7-.8 1.7-1.6v-3.7c0 .1-23.1 0-23.1 0z" class="icinga-alert-4"/>
                <path d="M159.8 25.2h-19.7c-.9 0-1.7.8-1.7 1.6V41c.1 0 23.1.2 23.1 0V26.9c0-.9-.8-1.7-1.7-1.7z" class="icinga-alert-5"/>
                <path d="M156.7 44.3h-13.2c-.3 0-.6-.2-.6-.5s.2-.6.5-.6h13.3c.3 0 .6.2.6.5.1.3-.2.6-.6.6.1 0 0 0 0 0" class="icinga-alert-6"/>
                <path d="M150.7 44.3h-8c-.3 0-.6-.2-.6-.5s.2-.6.5-.6h8.1c.3 0 .6.2.6.5.1.3-.2.6-.6.6.1 0 .1 0 0 0" class="icinga-alert-7"/>
                <path d="M135.1 36c-.4.2-.7.5-.9.9-.2.3-.2.6-.2.9v19c0 .3.1.5.2.9l14.7-10.4 1.2-.8-15-10.5zm30.6 1.1c-.2-.4-.5-.8-.8-1L150 46.7l1.2.8L165.7 58c.2-.3.2-.6.2-.9V38c0-.3 0-.7-.2-.9z" class="icinga-alert-8"/>
                <g class="icinga-alert- lg-logo-1">
                    <circle cx="160" cy="25.6" r="6.5" class="icinga-alert-8"/>
                    <path d="M161.6 23.4h-2.1l-.2 1.1h.4c.5 0 1 .1 1.3.4.4.3.7.7.7 1.4 0 1.1-.9 1.9-2.2 1.9-.6 0-1.2-.2-1.5-.3l.2-.8c.2.1.7.3 1.2.3.6 0 1.2-.3 1.2-1 0-.6-.5-1-1.6-1-.3 0-.5 0-.8.1l.4-2.8h2.9v.7z" class="icinga-alert-9 icinga-alert-10"/>      
                </g>
            </g>
          <path d="M92.1 54.9c-1.5-2.8-7.2-3.6-9.1-4.6-.6-.3-2.6-2-5.9-2.8-3.4-.8-9.5 2.3-13.3 2.4-3.6-.1-8.3-2.6-11.7-2.6-.9 0-1.3 1.4-2.1 1.6-2.8.7-5 1.1-5.5 1.4-1.9 1.1-7.6 1.8-9.1 4.6-1.3 2.4 2.3 28.9 3.9 42.7h49c1.5-13.8 5.1-40.4 3.8-42.7z" class="icinga-alert-11"/>
          <path d="M94.8 51.8l-17.7-4.3c0 1.8-3.7 29.9-6.5 50.1h21.2c1.2-19 3-45.8 3-45.8z" class="icinga-alert-12"/>
          <g id="XMLID_328_">
            <path id="XMLID_330_" d="M90.2 61.1c-.6 0-1.1 25.3-1.1 25.3l2.8.2-1.7-25.5z" class="icinga-alert-13"/>
            <path id="XMLID_329_" d="M89.2 52.8c.2-.7 3.7-1.5 3.7-1.5l4.8.6c3 .4 2.6 5.2 2.7 9 .2 7.9.6 22.8.6 23.9.1 1.3-10.2.8-10.2.8l-1.6-32.8z" class="icinga-alert-14"/>
          </g>
          <path id="XMLID_327_" d="M86.1 53.2l-5.3 13.9-4.2-.3 3.9 3.2-9.8 26.6 4.2-48.5 2.2-.6z" class="icinga-alert-14"/>
          <path id="XMLID_326_" d="M55.3 44.8h18v6.3h-18z" class="icinga-alert-15"/>
          <path id="XMLID_325_" d="M56 39.1h16.8v13.2H56z" class="icinga-alert-16"/>
          <path d="M67.4 59.7H62l-4.4 37.9h12.9z" class="icinga-alert-14"/>
          <path d="M52 47.1l-17.7 4.3s1.8 27.2 3 46.2h21.2c-2.7-20.2-6.4-48.5-6.5-50.5z" class="icinga-alert-12"/>
          <g id="XMLID_319_">
            <path id="XMLID_322_" d="M38.4 60.9c.6 0 1.1 25.3 1.1 25.3l-2.8.2 1.7-25.5z" class="icinga-alert-13"/>
            <path id="XMLID_321_" d="M39.5 52.6c-.2-.7-3.7-1.5-3.7-1.5l-4.8.7c-3 .4-2.6 5.2-2.7 9-.2 7.9-.6 22.8-.6 23.9-.1 1.3 10.2.8 10.2.8l1.6-32.9z" class="icinga-alert-14"/>
          </g>
          <path id="XMLID_318_" d="M42.4 52.9l5.9 13.9 4.2-.4-3.9 3.3 9.8 26.6-3.6-48.9-2.8-.3z" class="icinga-alert-14"/>
          <path id="XMLID_317_" d="M61.6 52.2l5.8-.1 2.1 4.6-2.1 3-2.7.4-2.7-.4-2-3.3z" class="icinga-alert-14"/>
          <path id="XMLID_316_" d="M66.8 52.1l3.7 6.9 6.6-11.5-3.5-2.7z" class="icinga-alert-17"/>
          <g id="XMLID_311_">
            <path id="XMLID_315_" d="M84 20.7c-2.4 0-4.5 2.5-4.6 5.6-.2 3.1 1.6 5.6 4 5.6s4.5-2.5 4.6-5.6c.2-3-1.6-5.6-4-5.6z" class="icinga-alert-18"/>
            <path id="XMLID_314_" d="M44.9 20.7c2.4 0 4.5 2.5 4.6 5.6.2 3.1-1.6 5.6-4 5.6s-4.5-2.5-4.6-5.6c-.2-3 1.6-5.6 4-5.6z" class="icinga-alert-18"/>
          </g>
          <path id="XMLID_309_" d="M44.7 22.5c-.2 0-1.4-.2-2 1.1-.6 1.4-.1 4.9.6 5.9s1.8 1.4 2.4.6c.6-.8.8-1.6.1-2.1-.7-.5-1.2-1-1.1-1.5.1-.5.5-.4.7-.8s-.1-1.6-.4-2.4c-.1-.8-.3-.8-.3-.8z" class="icinga-alert-17"/>
          <path id="XMLID_308_" d="M84.5 22.3c.2 0 1.4-.2 1.9 1.2s-.3 4.9-1 5.9-1.8 1.3-2.4.4c-.6-.8-.7-1.6 0-2.1s1.2-1 1.1-1.5c-.1-.5-.5-.4-.7-.8-.2-.5.2-1.6.5-2.4.5-.7.6-.7.6-.7z" class="icinga-alert-17"/>
          <path id="XMLID_306_" d="M64.4 4.1c10.6 0 19.1 9.4 19.1 21s-8.7 23-19.3 23-19-11.5-19-23c.1-11.7 8.7-21 19.2-21z" class="icinga-alert-18"/>
          <path id="XMLID_305_" d="M82.4 28.6v.9l.6.2c1.6-2.9 5.7-11.8-.6-18.6-1.3-2.1-2 1.3-3.2.8 1.5 3.8 5.1 6 3.2 16.7z" class="icinga-alert-12"/>
          <path id="XMLID_304_" d="M46.3 28.6v.9l-.6.2c-1.6-2.9-3.4-12.6-1.6-15.4 1.3-2.1 4.1-1.8 5.4-2.4-1.5 3.8-5 6-3.2 16.7z" class="icinga-alert-12"/>
          <path id="XMLID_301_" d="M62.1 52.2L58.4 59l-6.6-11.5 3.5-2.7z" class="icinga-alert-17"/>
          <path id="XMLID_300_" d="M48.4 12.5C46 7.6 55.3 2.5 65 2.6 76 2.7 87.2 9 81.2 19.7c-.1-.5-.3-1.1-.6-1.6-1-2.4-2.2-2.2-2.2-2.2 1.1 2.1 1.9 4 1.1 6.4-1.1-2-3.1-3.7-5.5-4.9 2.6 2.3 3.8 3.9 3.8 3.9-10.5-7.2-17.2-7.7-29.4-8.8z" class="icinga-alert-12"/>
          <path id="XMLID_299_" d="M64.4 38l3.3-.9h-6.5z" class="icinga-alert-17"/>
          <path d="M52.6 24.3c.2-.7 1-1.1 1.7-.9.7.2 1.2 1 1 1.7-.2.7-1 1.1-1.7.9-.8-.2-1.2-.9-1-1.7z" class="icinga-alert-16"/>
          <path d="M52.7 24.6c.2-.6.8-.9 1.4-.7.6.2.9.8.8 1.3-.2.6-.8.9-1.4.7-.7-.1-1-.7-.8-1.3z" class="icinga-alert-19"/>
          <path d="M53.1 24.9c.1-.3.4-.5.7-.4.3.1.5.4.4.7-.1.3-.4.5-.7.4-.3 0-.5-.4-.4-.7z" class="icinga-alert-20"/>
          <path d="M71.8 25.2c.2-.7 1-1.1 1.7-.9.7.2 1.2 1 1 1.7-.2.7-1 1.1-1.7.9-.7-.2-1.2-.9-1-1.7z" class="icinga-alert-16"/>
          <path d="M71.9 25.6c.2-.6.8-.9 1.4-.7s.9.8.8 1.3c-.2.6-.8.9-1.4.7s-1-.8-.8-1.3z" class="icinga-alert-19"/>
          <path d="M72.3 25.8c.1-.3.4-.5.7-.4s.5.4.4.7c-.1.3-.4.5-.7.4-.4-.1-.5-.4-.4-.7z" class="icinga-alert-20"/>
          <path d="M64 30.4c0 .2.1.3.3.3.2 0 .3-.1.3-.3v-.6c0-.2-.1-.3-.3-.3-.2 0-.3.1-.3.3v.6z" class="icinga-alert-21"/>
          <linearGradient id="SVGID_1_" x1="1.813" x2="189.613" y1="780.813" y2="780.813" gradientUnits="userSpaceOnUse" gradientTransform="translate(0 -690.014)">
            <stop offset="0" stop-color="#FFF"/>
            <stop offset="1" stop-color="#EFF5FB"/>
          </linearGradient>
          <path d="M168.8 83.3H22.6l-20.8 15h187.8z" class="icinga-alert-22"/>
          <g class="icinga-alert-babbls">
                <circle cx="117.6" cy="75.6" r="1" class="icinga-alert-23 built-bbule-1"/>
                <circle cx="129.9" cy="64.2" r="1.5" class="icinga-alert-23 built-bbule-1"/>
                <circle cx="8.1" cy="40.1" r="1.5" class="icinga-alert-24 built-bbule-1"/>
                <circle cx="94.8" cy="29" r="1" class="icinga-alert-25 built-bbule-1"/>
                <g class="ci-dot">
                    <path d="M118 23.4c-.1 0-.3-.1-.4-.2-.2-.2-.2-.6 0-.8l1.9-1.9c.2-.2.6-.2.8 0 .2.2.2.6 0 .8l-1.9 1.9c-.1.2-.3.2-.4.2z" class="icinga-alert-26"/>
                    <path d="M119.9 23.4c-.1 0-.3-.1-.4-.2l-1.9-1.9c-.2-.2-.2-.6 0-.8s.6-.2.8 0l1.9 1.9c.2.2.2.6 0 .8-.1.2-.3.2-.4.2z" class="icinga-alert-26"/>
                </g>
                <path d="M95.1 12.1c-1.4 0-2.5-1.1-2.5-2.5s1.1-2.5 2.5-2.5 2.5 1.1 2.5 2.5-1.1 2.5-2.5 2.5zm0-3.6c-.6 0-1.1.5-1.1 1.1s.5 1.1 1.1 1.1 1.1-.5 1.1-1.1-.5-1.1-1.1-1.1z" class="icinga-alert-27 built-bbule-1"/>
                <path d="M18.6 22.8c-.1 0-.2 0-.3-.1l-1.1-1.1c-.1-.1-.1-.2-.1-.3 0-.1 0-.2.1-.3l1.1-1.1c.2-.2.4-.2.6 0L20 21c.2.2.2.4 0 .6l-1.1 1.1c-.1 0-.2.1-.3.1zm-.5-1.5l.6.6.6-.6-.6-.6-.6.6z" class="icinga-alert-28 ci-dot"/>  
          </g>
          <g class="icinga-alert-tree coding-svg" id="icinga-alert-tree">
                <path d="M156.1 69.5h1.3c2.2 0 4 1.8 4 4v13.8c0 2.2-1.8 4-4 4h-1.3c-2.2 0-4-1.8-4-4V73.5c-.1-2.2 1.7-4 4-4z" class="icinga-alert-29"/>
                <circle cx="156.8" cy="73.8" r=".5" class="icinga-alert-30 icinga-alert-31"/>
                <circle cx="159.4" cy="73.8" r=".5" class="icinga-alert-30 icinga-alert-31"/>
                <circle cx="158.1" cy="76.2" r=".5" class="icinga-alert-30 icinga-alert-31"/>
                <circle cx="156.8" cy="78.5" r=".5" class="icinga-alert-30 icinga-alert-31"/>
                <circle cx="156.8" cy="71.5" r=".5" class="icinga-alert-30 icinga-alert-31"/>
                <circle cx="159.4" cy="78.5" r=".5" class="icinga-alert-30 icinga-alert-31"/>
                <circle cx="154.3" cy="73.8" r=".5" class="icinga-alert-30 icinga-alert-31"/>
                <circle cx="155.6" cy="76.2" r=".5" class="icinga-alert-30 icinga-alert-31"/>
                <circle cx="154.3" cy="78.5" r=".5" class="icinga-alert-30 icinga-alert-31"/>
                <circle cx="155.6" cy="80.8" r=".5" class="icinga-alert-30 icinga-alert-31"/>
                <circle cx="158.1" cy="80.8" r=".5" class="icinga-alert-30 icinga-alert-31"/>
                <path d="M151.9 74.5h-.3c-2.5.1-4.4 2.2-4.4 4.7v3.4h9.4v-3.4c0-2.6-2.1-4.7-4.7-4.7z" class="icinga-alert-32"/>
                <circle cx="149.6" cy="78.9" r=".5" class="icinga-alert-30 icinga-alert-31"/>
                <circle cx="152.1" cy="78.9" r=".5" class="icinga-alert-30 icinga-alert-31"/>
                <circle cx="154.6" cy="78.9" r=".5" class="icinga-alert-30 icinga-alert-31"/>
                <circle cx="150.8" cy="81.2" r=".5" class="icinga-alert-30 icinga-alert-31"/>
                <circle cx="153.4" cy="81.2" r=".5" class="icinga-alert-30 icinga-alert-31"/>
                <circle cx="149.6" cy="83.5" r=".5" class="icinga-alert-30 icinga-alert-31"/>
                <circle cx="152.1" cy="83.5" r=".5" class="icinga-alert-30 icinga-alert-31"/>
                <circle cx="152.1" cy="76.6" r=".5" class="icinga-alert-30 icinga-alert-31"/>
                <circle cx="154.6" cy="83.5" r=".5" class="icinga-alert-30 icinga-alert-31"/>
                <circle cx="150.8" cy="85.9" r=".5" class="icinga-alert-30 icinga-alert-31"/>
                <circle cx="153.4" cy="85.9" r=".5" class="icinga-alert-30 icinga-alert-31"/>
                <path d="M151.5 82.5h4.9z" class="icinga-alert-33"/>
                <path d="M156.6 86.8h-9.9v5.3c0 .3.2.5.5.5h14.1c.3 0 .5-.2.5-.5v-5.3h-5.2z" class="icinga-alert-34"/>
                <path d="M162.1 82.5h-15.6c-.3 0-.5.2-.5.5v3.3c0 .3.2.5.5.5h15.6c.3 0 .5-.2.5-.5V83c0-.2-.2-.5-.5-.5z" class="icinga-alert-10"/>
          </g>
          <path d="M93.4 61.6l-.3 4.6-.3 4.3-.4 5.1-1.2 15.9c-.1 1.3-1.1 2.2-2.4 2.2h-44c-1.3 0-2.3-1-2.4-2.2l-.5-7.3-1.7-22.6c-.1-1.4 1-2.6 2.4-2.6H91c1.4 0 2.5 1.2 2.4 2.6z" class="icinga-alert-35"/>
          <path d="M93.4 61.6l-.3 4.6-41.5 27.5h-6.8c-1.3 0-2.3-1-2.4-2.2l-.5-7.3L81.7 59H91c1.4 0 2.5 1.2 2.4 2.6zm-.7 8.9l-.3 5.1-25.6 18.1h-9.4z" class="icinga-alert-36"/>
          <circle cx="66.8" cy="76.3" r="5.1" class="icinga-alert-37"/>
          <path d="M90.4 95.2H43.2c-.4 0-.8-.3-.8-.8 0-.4.3-.8.8-.8h47.2c.4 0 .8.3.8.8s-.4.8-.8.8z" class="icinga-alert-37"/>
          <path d="M1.8 98.3h187.8v2.1H1.8z" class="icinga-alert-35"/>
        </svg>