<svg xmlns="http://www.w3.org/2000/svg" id="Layer_1" viewBox="0 0 185 105.3" width="555" height="350">
                    <style>
                      .docker-kube-0{display:none;} .docker-kube-1{display:inline;fill:url(#SVGID_1_);} .docker-kube-2{display:inline;fill:#6E97D7;} .docker-kube-3{display:inline;fill:url(#SVGID_2_);} .docker-kube-4{display:inline;fill:#88ACE5;} .docker-kube-5{display:inline;fill:#E3E3E3;} .docker-kube-6{display:inline;fill:#FAFAFA;} .docker-kube-7{display:inline;fill:#3A5997;} .docker-kube-8{display:inline;fill:url(#SVGID_3_);} .docker-kube-9{display:inline;fill:url(#SVGID_4_);} .docker-kube-10{display:inline;fill:url(#SVGID_5_);} .docker-kube-11{display:inline;} .docker-kube-12{fill:url(#SVGID_6_);} .docker-kube-13{fill:url(#SVGID_7_);} .docker-kube-14{display:inline;fill:url(#SVGID_8_);} .docker-kube-15{display:inline;fill:url(#SVGID_9_);} .docker-kube-16{display:inline;fill:url(#SVGID_10_);} .docker-kube-17{fill:#84A9D8;} .docker-kube-18{fill:#DEEDFF;} .docker-kube-19{fill:#99B9E2;} .docker-kube-20{display:inline;fill:#E9F3FD;} .docker-kube-21{display:inline;fill:#D1E3F8;} .docker-kube-22{display:inline;fill:#E3EEFB;} .docker-kube-23{fill:#D1E3F8;} .docker-kube-24{fill:#FFFFFF;} .docker-kube-25{fill:#E3EEFB;} .docker-kube-26{fill:url(#SVGID_11_);} .docker-kube-27{fill:#F0D6B7;} .docker-kube-28{fill:#335061;} .docker-kube-29{fill:#6D6B6D;} .docker-kube-30{fill:#DCD9D8;} .docker-kube-31{fill:#F7E4CD;} .docker-kube-32{fill:#49728B;} .docker-kube-33{fill:#D33833;} .docker-kube-34{fill:none;stroke:#D33833;stroke-width:2.5;} .docker-kube-35{fill:#EF3D3A;} .docker-kube-36{fill:#231F20;} .docker-kube-37{fill:#81B0C4;} .docker-kube-38{fill:#1D1919;} .docker-kube-39{fill:#E9F3FD;} .docker-kube-40{fill:#C4DAF5;} .docker-kube-41{fill:none;stroke:#B4C8ED;stroke-linecap:round;stroke-linejoin:round;stroke-miterlimit:10;} .docker-kube-42{fill:none;stroke:#AFABBB;stroke-width:0.25;stroke-miterlimit:10;} .docker-kube-43{fill:#F7931E;} .docker-kube-44{fill:#3BB878;} .docker-kube-45{fill:none;stroke:#3BB878;stroke-width:0.5;stroke-linecap:round;stroke-linejoin:round;stroke-miterlimit:10;} .docker-kube-46{fill:none;stroke:#F55A2E;stroke-width:0.5;stroke-linecap:round;stroke-linejoin:round;stroke-miterlimit:10;} .docker-kube-47{fill:#1C4084;} .docker-kube-48{fill:#8EA8D0;} .docker-kube-49{fill:#FAF071;} .docker-kube-50{fill:#EE1E3B;} .docker-kube-51{fill:#007DDA;} .docker-kube-52{font-family:&apos;MyriadPro-Regular&apos;;} .docker-kube-53{font-size:1.6354px;} .docker-kube-54{fill:#FEE1A0;} .docker-kube-55{fill:#F3864A;} .docker-kube-56{fill:#C0E7EB;} .docker-kube-57{fill:#FFFFFF;stroke:#EFF5FB;stroke-miterlimit:10;} .docker-kube-58{fill:#88ACE5;} .docker-kube-59{font-size:2.3279px;} .docker-kube-60{fill:#BDBDBD;} .docker-kube-61{fill:#9999AA;} .docker-kube-62{font-family:&apos;MyriadPro-Semibold&apos;;} .docker-kube-63{font-size:3.0079px;} .docker-kube-64{fill:#EFF5FB;stroke:#EFF5FB;stroke-miterlimit:10;} .docker-kube-65{fill:#4E90F5;} .docker-kube-66{fill:none;stroke:#4E90F5;stroke-miterlimit:10;} .docker-kube-67{fill:#F5F7FA;} .docker-kube-68{fill:#FAFAFA;} .docker-kube-69{fill:#FED196;} .docker-kube-70{fill:#6199DA;} .docker-kube-71{fill:#F7F9F8;} .docker-kube-72{opacity:0.1;fill:#FFFFFF;enable-background:new ;} .docker-kube-73{fill:#3A5997;} .docker-kube-74{fill:none;stroke:#C4DAF5;stroke-linecap:round;stroke-linejoin:round;stroke-miterlimit:10;} .docker-kube-75{fill:#88A4B2;} .docker-kube-76{fill:#0B1316;}
                      .docker-clud-1 {
                          fill: none;
                          stroke: #B4C8ED;
                          stroke-linejoin: round;
                          stroke-miterlimit: 10;
                      }
                      .docker-clud-2 {
                          fill: none;
                          stroke: #B4C8ED;
                          stroke-linecap: round;
                          stroke-linejoin: round;
                          stroke-miterlimit: 10;
                      }
                    </style>
                    <g class="kab-table">
                      <path d="M88.5 89.6H18.8L8.8 97h89.6z" class="docker-kube-39"/>
                      <path d="M98.7 96H8.3l.9 1h89.5z" class="docker-kube-40"/>
                    </g>
                    <g class="cloud-1">
                      <path d="M164.3 9.2c-.4-.4-1.1-.8-1.9-.8h-.2c-.3-.6-1-1-1.8-1.1C160 6 158.6 5 156.9 5s-3.2 1-3.4 2.4c-.3-.1-.5-.1-.8-.1-.9 0-1.7.4-2.1 1-.3-.3-.8-.6-1.4-.6-1 0-1.7.6-1.7 1.4v.1" class="docker-clud-2 cloud-line super-slow"></path>
                      <path d="M63.4 19.9c-.5-.6-1.2-1-2.1-1h-.2c-.4-.8-1.1-1.4-2-1.4-.3-1.8-1.9-3.1-3.8-3.1s-3.4 1.4-3.8 3.1c-.3-.1-.5-.1-.8-.1-1 0-1.8.5-2.2 1.3-.3-.5-.9-.7-1.5-.7-1 0-1.9.8-1.9 1.9v.1" class="docker-clud-1 cloud-line super-slow"></path>
                    </g>
                    <g class="kub-babble">
                      <ellipse cx="100.5" cy="21.5" transform="rotate(-31 100.502 21.508)" class="docker-kube-42 ci-dot" rx="1.3" ry="1.3"/>
                      <path d="M105.5 87.5c.1-.1.1-.1.2 0s.2.2.3.2c.1 0 .1.1.1.2-.1.1-.1.2-.1.4s0 .2-.2.1c-.1-.1-.3-.1-.4 0s-.2 0-.2-.1 0-.3-.1-.4-.1-.2.1-.2c.1 0 .2-.1.3-.2z" class="docker-kube-43 lg-logo-1"/>
                      <path d="M144.4 88.7c.1-.1.1-.1.2 0s.2.2.3.2.1.1.1.2c-.1.1-.1.2-.1.4 0 .1 0 .2-.2.1-.1-.1-.3-.1-.4 0-.1.1-.2 0-.2-.1s0-.3-.1-.4-.1-.2.1-.2.2-.1.3-.2z" class="docker-kube-44 lg-logo-1"/>
                      <path d="M84.2 80.9v-1.2m.7.6h-1.3" class="docker-kube-45 ci-dot"/>
                      <path d="M74.7 35.8v-2.9m1.4 1.5h-2.9" class="docker-kube-46 ci-dot"/>
                    </g>                    
                      <g class="kub-terminel">
                          <path d="M91.1 64.8c0 .8-.6 1.4-1.4 1.4H59.8c-.8 0-1.4-.6-1.4-1.4v-20c0-.8.6-1.4 1.4-1.4h29.9c.8 0 1.4.6 1.4 1.4v20z" class="docker-kube-47"/>
                          <path d="M89.7 43.3H59.8c-.8 0-1.4.6-1.4 1.4v1.6h32.7v-1.6c0-.8-.6-1.4-1.4-1.4z" class="docker-kube-48"/>
                          <circle cx="60.3" cy="44.8" r=".4" class="docker-kube-49"/>
                          <circle cx="61.5" cy="44.8" r=".4" class="docker-kube-50"/>
                          <circle cx="62.7" cy="44.8" r=".4" class="docker-kube-24"/>
                          <text transform="translate(60.292 49.272)" class="docker-kube-51 docker-kube-52 docker-kube-53">
                              remot-server
                          </text>
                          <text transform="translate(69.092 49.272)" class="docker-kube-52 docker-kube-53">
                          </text>
                          <text transform="translate(69.792 49.272)" class="docker-kube-24 docker-kube-52 docker-kube-53">
                              ~$ appscode new-node
                          </text>
                         <g class="code-line">
                             <path d="M61.2 51.1h2.7v.5h-2.7zm11.4 2h2.7v.5h-2.7zM69 56.9h4.7v.5H69zM63.9 55h6.4v.5h-6.4zm-2.7 3.7h2.3v.5h-2.3zm-.1-3.7H63v.5h-1.9zm9.3-3.9h1.5v.5h-1.5z" class="docker-kube-54"/>
                            <path d="M67.8 51.1h1.5v.5h-1.5zm-2 2h5.8v.5h-5.8zM61 56.9h3.2v.5H61zM71.3 55h4.8v.5h-4.8zm-6.7 3.6h7.3v.5h-7.3z" class="docker-kube-55"/>
                            <path d="M64.9 56.9h3.5v.5h-3.5zm-3.5-3.8h3.5v.5h-3.5zm3.5-2h1.9v.5h-1.9zm8 7.6h1.5v.5h-1.5z" class="docker-kube-56"/>
                         </g>
                      </g>
                      <g class="kub-pharm-1 coding-svg" id="kub-pharm-1">
                          <path d="M167.7 37.3h-58.5c-1.7 0-3-1.3-3-3v-9.9c0-1.6 1.3-3 3-3h58.5c1.6 0 3 1.4 3 3v9.9c0 1.7-1.4 3-3 3z" class="docker-kube-57"/>
                          <text transform="translate(121.69 32.277)" class="docker-kube-58 docker-kube-52 docker-kube-59">
                              organization xyz
                          </text>
                          <text transform="translate(139.59 32.277)" class="docker-kube-60 docker-kube-52 docker-kube-59">
                              zone us-central-f
                          </text>
                          <text transform="translate(121.69 29.034)" class="docker-kube-61 docker-kube-62 docker-kube-63">
                              Sample Cludocker-kube-er
                          </text>
                          <path d="M112.5 33.9h3.6c.4 0 .7-.3.9-.6.7-1 1.3-2.2 1.9-3.3.1-.1.1-.2.2-.4.1-.4-.2-.8-.4-1.2-.2-.3-.4-.6-.5-.9-.3-.5-.5-.9-.8-1.4-.2-.3-.4-.8-.7-1-.2-.1-.4-.1-.6-.1h-3.7c-.4 0-.7 0-.9.3-.3.3-.5.8-.7 1.2-.2.4-.4.7-.6 1.1-.2.3-.4.7-.6 1s-.4.6-.3.9c0 .2.1.4.2.5.3.7.7 1.3 1.1 1.9.2.3.4.6.6 1 .2.3.3.6.5.8s.5.2.7.2h.1z" class="docker-kube-64"/>
                          <path d="M113.1 27.5c0 .1 0 .1-.1.1s-.1 0-.1-.1 0-.1.1-.1c0 0 .1 0 .1.1zm2.1-.1c.1 0 .1.1.1.1 0 .1 0 .1-.1.1s-.1 0-.1-.1 0-.1.1-.1zm.1 4c0 .1 0 .1-.1.1s-.1 0-.1-.1 0-.1.1-.1.1 0 .1.1zm1-2.1c.1 0 .1 0 .1.1s0 .1-.1.1-.1 0-.1-.1l.1-.1zm-3.2 2.1c0 .1 0 .1-.1.1s-.1 0-.1-.1 0-.1.1-.1c0 0 .1 0 .1.1zm-1.3-2.1c.1 0 .1 0 .1.1s0 .1-.1.1-.1 0-.1-.1l.1-.1z" class="docker-kube-65"/>
                          <path d="M114.8 29.4c0 .4-.3.7-.7.7-.4 0-.7-.3-.7-.7 0-.4.3-.7.7-.7.4 0 .7.4.7.7z" class="docker-kube-66"/>
                          <path d="M113 31.3c-.1 0-.1 0-.1.1s0 .1.1.1.1 0 .1-.1-.1-.1-.1-.1zm-1.2-2c-.1 0-.1 0-.1.1s0 .1.1.1.1 0 .1-.1c.1 0 0-.1-.1-.1zm3.4 2c-.1 0-.1 0-.1.1s0 .1.1.1.1 0 .1-.1 0-.1-.1-.1zm1.1-2c-.1 0-.1 0-.1.1s0 .1.1.1.1 0 .1-.1c0 0 0-.1-.1-.1z" class="docker-kube-65"/>
                          <path d="M116 28l.1.2c.2.3.4.7.6 1 .1.1.1.3 0 .4-.4.7-.8 1.3-1.1 2-.1.1-.2.2-.4.2h-.7s0-.1.1-.1v-.1c0-.1.1-.2.1-.2 0-.1.1-.1.1-.2.1-.1.1-.2.2-.3v-.1c.1-.1.2-.3.2-.4.2-.3.3-.6.5-.9.1-.1.1-.2 0-.3-.1-.2-.4-.6-.6-1-.1-.1-.1-.3-.2-.4.3.2.9.2 1.1.2m.3 1.6c.1 0 .2-.1.2-.2s-.1-.2-.2-.2-.2.1-.2.2v.1c.1.1.2.1.2.1m-1.1 2c.1 0 .2-.1.2-.2s-.1-.2-.2-.2-.2.1-.2.2.1.2.2.2m.8-3.7h-1.1c.2.3.6 1.1.8 1.4v.2c-.2.4-.5.8-.7 1.3 0 0 0 .1-.1.1-.1.2-.2.3-.3.5 0 .1-.1.2-.2.3 0 .1-.1.1-.2.2h.9c.2 0 .3-.1.4-.2.4-.6.7-1.3 1.1-2 .1-.1.1-.3 0-.4-.1-.4-.4-1-.6-1.4zm.3 1.7c-.1 0-.1 0-.1-.1s0-.1.1-.1.1 0 .1.1c0 0 0 .1-.1.1zm-1.1 1.9c-.1 0-.1 0-.1-.1s0-.1.1-.1.1 0 .1.1 0 .1-.1.1zm-.3-3.6z" class="docker-kube-65"/>
                          <path d="M115.3 27.1c.2.1.3.2.4.4.1.1.1.2.2.3 0 .1.1.1.1.2h-2.6c-.1 0-.2 0-.2.1-.1.2-.3.4-.5.6s-.3.4-.4.5c0-.1-.1-.2-.2-.3-.1-.2-.2-.3-.2-.4.1-.1.2-.3.3-.5.2-.3.3-.6.5-.8.1-.1.2-.2.3-.2l2.3.1m-.1.6c.1 0 .2-.1.2-.2s-.1-.2-.2-.2-.2.1-.2.2.1.2.2.2m-2.2 0c.1 0 .2-.1.2-.2s-.1-.2-.2-.2-.2.1-.2.2.1.2.2.2m2.3-.7h-2.4c-.1 0-.2.1-.3.2-.2.4-.5.9-.7 1.3l.5.8c.2-.3.7-.9.9-1.2 0-.1.1-.1.2-.1h2.7v-.1c-.1-.2-.2-.3-.3-.5-.3-.2-.4-.3-.6-.4zm-.1.6c-.1 0-.1 0-.1-.1s.1-.1.1-.1c.1 0 .1.1.1.1 0 .1 0 .1-.1.1zm-2.2 0c-.1 0-.1 0-.1-.1s0-.1.1-.1.1 0 .1.1-.1.1-.1.1zm-1.2.9z" class="docker-kube-65"/>
                          <path d="M111.8 28.6s.1 0 0 0c.1.2.3.5.4.7l.1.2.2.4c.2.3.4.7.6 1 0 .1.1.1.2.1h1.5c0 .1-.1.1-.1.2s-.1.1-.1.2-.1.2-.1.2v.1c0 .1-.1.1-.1.2H113s-.3-.1-.3-.2c-.4-.7-.8-1.3-1.1-2-.1-.1-.1-.3 0-.4 0-.2.1-.4.2-.7 0 .1 0 0 0 0m0 1c.1 0 .2-.1.2-.2s-.1-.2-.2-.2-.2.1-.2.2c.1.2.1.2.2.2m1.2 2c.1 0 .2-.1.2-.2s-.1-.2-.2-.2-.2.1-.2.2.1.2.2.2m-1.1-3.2c-.2.3-.3.5-.5.8-.1.1-.1.3 0 .4.4.7.8 1.3 1.1 2 .1.1.2.2.4.2h1.4c.1 0 .1-.1.2-.2s.1-.2.2-.3c.1-.2.2-.3.3-.5h-1.5c-.1 0-.1 0-.1-.1-.3-.5-.5-.9-.8-1.4-.2-.3-.3-.6-.5-.9-.2.1-.2.1-.2 0zm-.1 1.2c-.1 0-.1 0-.1-.1s0-.1.1-.1.1 0 .1.1c.1 0 0 .1-.1.1zm1.2 1.9c-.1 0-.1 0-.1-.1s0-.1.1-.1.1 0 .1.1-.1.1-.1.1z" class="docker-kube-65"/>
                      </g>
                      <g class="kub-pharm-2 coding-svg" id="kub-pharm-2">
                          <path d="M178.5 55.4H120c-1.7 0-3-1.3-3-3v-9.9c0-1.6 1.3-3 3-3h58.5c1.7 0 3 1.4 3 3v9.9c0 1.6-1.4 3-3 3z" class="docker-kube-57"/>
                          <text transform="translate(132.506 50.325)" class="docker-kube-58 docker-kube-52 docker-kube-59">
                              organization xyz
                          </text>
                          <text transform="translate(150.406 50.325)" class="docker-kube-60 docker-kube-52 docker-kube-59">
                              zone us-central-f
                          </text>
                          <text transform="translate(132.507 47.08)" class="docker-kube-61 docker-kube-62 docker-kube-63">
                              Sample Cludocker-kube-er
                          </text>
                          <path d="M123.3 51.9h3.6c.4 0 .7-.3.9-.6.7-1 1.3-2.2 1.9-3.3.1-.1.1-.2.2-.4.1-.4-.2-.8-.4-1.2-.2-.3-.4-.6-.5-.9-.3-.5-.5-.9-.8-1.4-.2-.3-.4-.8-.7-1-.2-.1-.4-.1-.6-.1h-3.7c-.4 0-.7 0-.9.3-.3.3-.5.8-.7 1.2s-.4.7-.6 1.1c-.2.3-.4.7-.6 1s-.4.6-.3.9c0 .2.1.4.2.5.3.7.7 1.3 1.1 1.9.2.3.4.6.6 1 .2.3.3.6.5.8s.5.2.7.2h.1z" class="docker-kube-64"/>
                          <path d="M124.4 45.6l.8.4-1.1.4-.8-.5 1.1-.3m2.1 1.8l.6.3-.5.4-.6-.4.5-.3m-1.6.1l.3.2-1 .5-.7-.6.2-.1.3.2h.1l.8-.2m.8.4l.2.1.4.2-.6.5-.3-.2v-.4l.3-.2m-.6.9l.2.2-.8.6-.6-.6.1-.1.3.3.1.1.7-.5m-.7-3.3l-1.2.4.3 1.3.4.3-.3.1.2 1 .2.2-.2.1.2.7.6.7.8-.6v-.4l.3.2.6-.5v-.3l.2.1.5-.4.1-.7-.7-.4-.6.3v.3l-.2-.2-.3.2v-.3l-.3-.2.3-.2-.1-1.3-.8-.4zm-.2 2.2l-.7-.5-.2-1.2.8.5.1 1.2zm0 .1l-.2-1.3 1.2-.4.1 1.2-1.1.5zm2.4 1l-.2-.1v-.3l-.4-.4v-.3l.6.4v.7zm-2.2.4l-.6-.6-.2-.9.7.6.1.9zm.1 0l-.1-.9 1-.5v.9l-.9.5zm2.1-.5l.1-.6.5-.4-.1.6-.5.4zm-.9.8v-.6l.6-.5v.6l-.6.5zm0 0l-.3-.2v-.2l-.2-.2.2-.1v-.1l.3.2v.6zm-1.1.8l-.1-.7.8-.6v.7l-.7.6zm0 0l-.6-.6-.1-.6.6.6.1.6z" class="docker-kube-65"/>
                          <path d="M124.6 50.4l-.1-.7.9-.6v.7l-.8.6zm0-.7l.1.6.7-.6v-.6l-.8.6zm-.4-1.9l-.2-1.3 1.2-.5.1 1.3-1.1.5zm-.1-1.3l.2 1.2 1-.5-.1-1.1-1.1.4zm.3 2.8l-.1-1 1-.6v.9l-.9.7zm0-1l.1.9.8-.5v-.8l-.9.4z" class="docker-kube-65"/>
                          <path d="M125.7 49.5l-.3-.3V49l-.3-.2.2-.2v-.1l.3.2.1.8zm-.3-.3l.2.2v-.6l-.2-.2-.2.1.2.2v.3zm.3.3v-.7l.7-.5v.7l-.7.5zm0-.7v.6l.5-.4v-.6l-.5.4z" class="docker-kube-65"/>
                          <path d="M124.7 50.4l-.7-.7-.2-.8.1-.1-.2-.2-.2-1 .2-.1-.3-.2-.3-1.3 1.2-.4.9.4.1 1.3-.3.1.3.2v.3l.3-.2.2.1v-.3l.6-.4h.1l.7.4-.1.7-.5.4-.2-.1v.3l-.6.5-.2-.2v.4l-.9.9zm-.1 0l.8-.6v-.5l.3.3.6-.5v-.4l.2.2.5-.4.1-.7-.6-.4-.5.3v.3l-.3-.2-.4.2v-.4l-.4-.2.4-.2-.1-1.2-.9-.4-1.2.4.3 1.3.4.3-.3.1.2 1 .3.3-.2.1.2.7.6.6z" class="docker-kube-65"/>
                          <path d="M124.2 47.8l-.8-.6-.3-1.3.8.5.3 1.4zm-.7-.6l.6.5-.2-1.2-.7-.4.3 1.1zm3.1 1.6l-.2-.2v-.3l-.4-.3v-.4l.7.4-.1.8zm-.2-.2l.1-.5-.6-.4v.3l.4.3.1.3zm-2.4.6l.5.5.1.5-.4-.5-.2-.5m-.1-.1l.1.6.6.6-.1-.6-.6-.6zm.5.1l-.7-.6-.2-1 .7.6.2 1zm-.6-.6l.5.5-.1-.8-.6-.5.2.8zm2.8.2l.1-.7.6-.4-.1.7-.6.4zm.1-.7v.5l.4-.3.1-.5-.5.3z" class="docker-kube-65"/>
                      </g>
                      <g class="kub-pharm-3 coding-svg" id="kub-pharm-3">
                          <path d="M167.7 73.4h-58.5c-1.7 0-3-1.4-3-3v-9.9c0-1.6 1.3-3 3-3h58.5c1.6 0 3 1.4 3 3v9.9c0 1.7-1.4 3-3 3z" class="docker-kube-57"/>
                          <text transform="translate(121.69 68.374)" class="docker-kube-58 docker-kube-52 docker-kube-59">
                              organization xyz
                          </text>
                          <text transform="translate(139.59 68.374)" class="docker-kube-60 docker-kube-52 docker-kube-59">
                              zone us-central-f
                          </text>
                          <text transform="translate(121.69 65.128)" class="docker-kube-61 docker-kube-62 docker-kube-63">
                              Sample Cludocker-kube-er
                          </text>
                          <path d="M112.5 70h3.6c.4 0 .7-.3.9-.6.7-1 1.3-2.2 1.9-3.3.1-.1.1-.2.2-.4.1-.4-.2-.8-.4-1.2-.2-.3-.4-.6-.5-.9-.3-.5-.5-.9-.8-1.4-.2-.3-.4-.8-.7-1-.2-.1-.4-.1-.6-.1h-3.7c-.4 0-.7 0-.9.3-.3.3-.5.8-.7 1.2s-.4.7-.6 1.1c-.2.3-.4.7-.6 1s-.4.6-.3.9c0 .2.1.4.2.5.3.7.7 1.3 1.1 1.9.2.3.4.6.6 1 .2.3.3.6.5.8.2.2.5.2.7.2h.1z" class="docker-kube-64"/>
                          <path d="M112.7 63.5c.2 0 .4.1.5.2.1.1.1.2.1.3v.7c0 .1 0 .2.1.3 0 .1.1.1.1.1l-.1.1s-.1 0-.1.1h-.1l-.1-.1s0-.1-.1-.1c-.1.1-.2.1-.3.2h-.2c-.2 0-.4-.1-.5-.3-.1-.2-.1-.3 0-.5l.3-.3c.1 0 .2-.1.3-.1h.2V64c0-.1 0-.3-.3-.3h-.1s-.3.1-.3.2c0 0-.1.1-.2.1h-.1v-.2c.3-.1.6-.3.9-.3m-.1 1.7c.2 0 .3-.2.3-.2 0-.1.1-.2.1-.3v-.1h-.1c-.2 0-.4 0-.5.2s-.1.4.2.4c-.1 0 0 0 0 0m.1-1.7c-.3 0-.6.1-.7.3 0 .1-.2.2 0 .3h.2s.2 0 .3-.1c.1-.1.1-.2.3-.2.2 0 .2.1.2.3 0 .2-.1.1-.2.1-.2 0-.3 0-.5.1-.3.1-.5.5-.4.8.1.2.3.3.5.3h.2c.1 0 .2-.1.3-.2.1 0 .1.2.2.2h.1c.1-.1.4-.2.2-.4-.1-.1-.1-.2-.1-.3V64c0-.1 0-.3-.1-.3-.1-.2-.3-.2-.5-.2zm-.1 1.7c-.3-.1-.3-.2-.2-.4.1-.2.3-.2.4-.2.1 0 0 .1.1.2 0 .1 0 .2-.1.3 0 0-.1.1-.2.1zm4.3-1.1v1.5c0 .1 0 .1-.1.1h-.2c-.2.1-.5.2-.7.2h-.1v-1.5c0-.1 0-.1.1-.1.4 0 .7-.1 1-.2m0 0s-.1 0 0 0c-.4.1-.7.2-1 .3-.1 0-.1.1-.1.2V66c0 .1 0 .2.1.2h.1l.9-.3c.1 0 .1-.1.1-.2v-1.4c0-.2-.1-.2-.1-.2zm-4 2.5c.4.1.7.2 1 .3.1 0 .1 0 .1.1v1.5h-.1c-.3-.1-.5-.2-.8-.3h-.2c-.1 0-.1 0-.1-.1 0-.5.1-.9.1-1.5-.1 0 0 0 0 0m0-.1c-.1 0-.1 0 0 0-.1.6-.1 1-.1 1.5 0 .1 0 .1.1.2l.9.3h.1c.1 0 .1-.1.1-.1V67c0-.1 0-.2-.1-.2-.3-.1-.7-.2-1-.3zm1.5-2.4c.4.1.7.2 1 .3.1 0 .1 0 .1.1V66l-.9-.3c-.1 0-.1 0-.1-.1v-.9c-.2-.2-.2-.3-.1-.6-.1.1-.1 0 0 0-.1 0-.1 0 0 0m0 0c-.1 0-.1.1 0 0-.1.3-.1.5-.1.8v.7c0 .1 0 .1.1.2l.9.3h.1s.1 0 .1-.1v-1.4c0-.1 0-.1-.1-.2-.4-.1-.7-.2-1-.3zm1 2.5v1.5c0 .1 0 .1-.1.1-.3.1-.6.2-.8.3h-.1V67c0-.1 0-.1.1-.1.2-.1.5-.2.9-.3m0-.1s-.1 0 0 0c-.4.1-.7.2-1 .3-.1 0-.1.1-.1.2v1.4c0 .1 0 .1.1.1h.1l.9-.3c.1 0 .1-.1.1-.2 0-.5 0-.9-.1-1.5.1.1.1 0 0 0zm.2-2.9c.3.1.6.1.9.3h-.1c-.3.1-.5.2-.7.2h-.1c-.2-.1-.5-.2-.7-.2h-.1c.2-.2.5-.2.8-.3m0 0c-.3 0-.7.1-1 .3.3.1.7.2 1 .3h.2c.3-.1.7-.2 1-.3-.5-.2-.9-.3-1.2-.3zm-1.5 2.5c.3 0 .6.1.9.2-.3.2-.6.2-.8.2-.3 0-.6-.1-1-.2.3-.2.6-.2.9-.2m0-.1c-.3 0-.7.1-1 .3.5.2.8.3 1.1.3.3 0 .6-.1 1-.3-.4-.2-.8-.3-1.1-.3zm-.4-.5c-.2.2-.6.4-1 .4-.3 0-.5 0-.7-.1.2 0 .4.1.6.1.3-.1.7-.2 1.1-.4m.2-.1c-.5.3-.9.4-1.4.4-.3 0-.7-.1-1-.2.3.3.8.4 1.2.4.5 0 1-.2 1.2-.6z" class="docker-kube-65"/>
                          <path d="M114 65.2c.1 0 .1.1 0 0l.1.2c-.1 0-.1-.1-.1-.2-.1 0-.1 0 0 0m0 0c-.1 0-.2.1-.3.1h.2c.2 0 .2.1.1.3.1-.1.2-.3 0-.4.1 0 0 0 0 0zm-1.1-.5c0 .1 0 .2-.1.3-.1.1-.2.2-.3.2s-.2-.2-.1-.4.3-.2.5-.1c0-.1 0 0 0 0z" class="docker-kube-65"/>
                      </g>
                      <g id="people_2_">
                          <path d="M27.2 58.4s1.3-1.6.8-3.5c-.5-1.8-.4-1.3-.4-1.3l4-1.2s.1.5.4 1.3c.2.8 1.7 2.7 2.5 2.9-.2 2.1-.6 5.1-.6 5.1l.1 6.4-1.7-5.9c0 .1-3.8-1.1-5.1-3.8z" class="docker-kube-67"/>
                          <path d="M32 53.7c-.2-.8-.4-1.3-.4-1.3l-4 1.2c0 .1.1.5.4 1.3.2.8.1 1.6-.1 2.2 1.3.5 4.2 1.2 6.6-.5-.9-.2-2.3-2.1-2.5-2.9z" class="docker-kube-68"/>
                          <path d="M50 82.1s-5.8-3.9-8.6-8.3c-3.2-5-.8-12.3-4.2-11.7s-2.3 9.7.3 14c2.5 4.3 10.1 9 10.1 9l2.4-3z" class="docker-kube-58"/>
                          <path d="M48.3 84.1s1 1.4 2.5 1.7c.4.2.4-.1.1-.3l-.6-.4s.8.3 1.1.4.5-.1.2-.3c-.3-.2-1-.5-1-.5s1.1.5 1.4.6c.3.1.5-.2.1-.4-.3-.2-1.3-.6-1.3-.6s.9.4 1.3.5c.4 0 .5-.3.1-.4-.3-.2-1-.4-1-.4s.4-.1.8 0c.5.1.8-.2.1-.5-.4-.2-1.8-1-2.8-.6-.7.7-1 1.2-1 1.2z" class="docker-kube-69"/>
                          <path d="M37 57.7L33.4 61l-.2.9.7 5.1-1.2-4.8-2.5-1.2v-.1l-5.7-.2s-5.7 2.7-6.3 10.2c-.6 7.5 4.2 20.8 4.2 20.8l15.4-4.5s-.9-13.9 1-17.7c1.5-5.8-1.8-11.8-1.8-11.8z" class="docker-kube-40"/>
                          <path d="M37.9 87.2s-.7-10.3.3-15.6c-4.3 5.7-12.3 1.8-12.3 1.8s.3 2 1.1 5c2.1 7.3-1 12.3-1 12.3l11.9-3.5z" class="docker-kube-70"/>
                          <path d="M30.9 65.5l1.7-3.2s-5-2.4-5.6-4.3c-1.4 1-2.6 2.7-2.6 2.7l6.5 4.8zm2.2-3.6s2 1.8 2.1 2c0 0 1.7-4.2 1.8-6.2-.9-1-2.5-1.1-2.5-1.1l-1.4 5.3z" class="docker-kube-40"/>
                          <path d="M43 96.8s-16.9-2.9-17.2-3c-.3-.1-.5-.3-.5-.5-.1-.3-.2-.7-.2-.7l17.4 2.2.5 2z" class="docker-kube-70"/>
                          <path d="M63.3 89.6c.8.2.8.5.1.7l-20 5.8c-.7.2-1.4-.3-1.4-.3L25.6 93c-.8-.2-.8-.5-.1-.7l20.4-5.9c.7-.2 1.9-.2 2.7-.1l14.7 3.3z" class="docker-kube-18"/>
                          <path d="M44.9 94.3l-.6.2h-.4l-.9-.1c-.1 0-.2-.1-.1-.1l.6-.2h.4l1 .2s.1 0 0 0zm-1.7-.2l-.5.2h-.4l-1.2-.3c-.1 0-.2 0-.1-.1l.5-.2h.4l1.2.2c.2.1.2.1.1.2zm-2-.3l-.5.1h-.4l-1.2-.2c-.2 0-.2-.1-.1-.1l.5-.1h.4l1.3.3c0-.1.1-.1 0 0zm-2-.4l-.5.1h-.4l-1.3-.1c-.2 0-.2-.1-.1-.1l.5-.1h.4l1.2.2h.2zm-2.1-.3l-.5.2h-.4l-1.2-.2c-.2 0-.2-.1-.1-.1l.5-.1h.4l1.3.2s.1 0 0 0zm-2-.3l-.6.2h-.4l-1.2-.2c-.2 0-.2-.1-.1-.1l.5-.1h.4l1.2.2h.2zM46 94l-.6.2H45l-.9-.2H44l.6-.2h.4l1 .2zm-.8-.5l-1.5.4h-.5l-1.1-.2c-.2 0-.2-.1-.2-.1l1.5-.4h.5l1.1.2c.3 0 .3.1.2.1zm-2.7-.1l-.8.2h-.5l-1.1-.2c-.2 0-.2-.1-.2-.1l.8-.2h.5l1.1.2c.2 0 .3.1.2.1zm-1.2-.5l-1.6.4h-.5l-1.1-.2c-.2 0-.2-.1-.2-.1l1.6-.4h.5l1.1.2c.2 0 .2 0 .2.1zm-3.2-.1l-.5.2h-.4l-1.2-.2c-.2 0-.2-.1-.1-.1l.5-.1h.4l1.3.2c.1 0 .1 0 0 0zm-2-.3l-.5.1h-.4l-1.2-.1c-.2 0-.2-.1-.1-.1l.5-.1h.4l1.3.2s.1 0 0 0zm10.8 1.2l-.5.1H46l-.9-.1c-.1 0-.2-.1-.1-.1l.5-.1h.4l1 .2s.1 0 0 0zm1-.2l-.5.1H47l-.9-.1c-.1 0-.2-.1-.1-.1l.5-.1h.4l1 .2c0-.1 0 0 0 0zm-1.6-.3l-.5.1h-.4l-1.2-.2c-.2 0-.2-.1-.1-.1l.5-.1h.4l1.3.3s.1 0 0 0zm1-.3l-.5.1h-.4l-1.2-.2c-.2 0-.2-.1-.1-.1l.5-.1h.4l1.3.3c.1 0 .1 0 0 0zm-.5-.7l-.6.2h-.5l-1.1-.2c-.2 0-.2-.1-.2-.1l.6-.2h.5l1.1.2c.2 0 .3.1.2.1z" class="docker-kube-71"/>
                          <path d="M45.7 92.5l-.6.2h-.5l-1.1-.2c-.2 0-.2-.1-.2-.1l.6-.2h.5l1.1.2c.2 0 .3.1.2.1zm-1.1.3l-.6.2h-.5l-1.1-.2c-.2 0-.2-.1-.2-.1l.6-.2h.5l1.1.2c.2 0 .3.1.2.1z" class="docker-kube-71"/>
                          <path d="M43.6 93.1l-.6.1h-.5l-1.1-.2c-.2 0-.2-.1-.2-.1l.6-.2h.5l1.1.2c.2.1.2.2.2.2zm3-1.7l-.6.1h-.5l-1.1-.2c-.2 0-.2-.1-.2-.1l.6-.2h.5l1.1.2c.2.1.3.1.2.2zm-1.1.3l-.5.1h-.5l-1.1-.2c-.2 0-.2-.1-.2-.1l.6-.2h.5l1.1.2c.1.1.2.1.1.2zm-1.1.3l-.6.2h-.5l-1.1-.2c-.2 0-.2-.1-.2-.1l.6-.2h.5l1.1.2c.3 0 .3 0 .2.1z" class="docker-kube-71"/>
                          <path d="M43.4 92.3l-.6.2h-.5l-1.1-.2c-.2 0-.2-.1-.2-.1l.6-.2h.5l1.1.2c.2 0 .2 0 .2.1z" class="docker-kube-71"/>
                          <path d="M42.3 92.6l-.6.2h-.5l-1.1-.2c-.2 0-.2-.1-.2-.1l.6-.2h.5l1.1.2c.2 0 .3 0 .2.1zm4.9-2.3l-.6.2h-.5l-1.1-.2c-.2 0-.2-.1-.2-.1l.6-.2h.5l1.1.2c.2 0 .3.1.2.1zm-1.1.3l-.6.2H45l-1-.2c-.2 0-.2-.1-.2-.1l.6-.2h.5l1.1.2c.1 0 .2.1.1.1zm-1 .3l-.6.2H44l-1.1-.2c-.2 0-.2-.1-.2-.1l.6-.2h.5l1.1.2c.2 0 .2.1.2.1zm-1.1.3l-.6.2h-.5l-1.1-.2c-.2 0-.2-.1-.2-.1l.6-.2h.5l1.1.2c.2 0 .3.1.2.1zm-1.1.3l-.6.2h-.5l-1.1-.2c-.2 0-.2-.1-.2-.1l.6-.2h.5l1.1.2c.2 0 .3.1.2.1zm-1.1.3l-.5.2h-.5l-1.1-.2c-.2 0-.2-.1-.2-.1l.6-.2h.5l1.1.2c.1 0 .2.1.1.1zm-1.1.3l-.6.2h-.5l-1.1-.2c-.2 0-.2-.1-.2-.1l.6-.2h.5l1.1.2c.3 0 .3.1.2.1zm-1 .3l-1 .3h-.5l-1.1-.2c-.2 0-.2-.1-.2-.1l1-.3h.5l1.1.2c.2 0 .3.1.2.1zm6.6-2.7l-.6.2h-.5l-1.1-.2c-.2 0-.2-.1-.2-.1l.6-.2h.5l1.1.2c.2 0 .2.1.2.1zm-1.1.3l-.6.2h-.5L43 90c-.2 0-.2-.1-.1-.1l.6-.2h.5l1.1.2c.1 0 .2.1.1.1zm-1.1.3l-.6.2H43l-1.1-.2c-.2 0-.2-.1-.2-.1l.6-.2h.5l1.1.2c.2 0 .3.1.2.1zm-1.1.3l-.6.2h-.5l-1.1-.2c-.2 0-.2-.1-.2-.1l.6-.2h.5l1.1.2c.2 0 .3.1.2.1z" class="docker-kube-71"/>
                          <path d="M41.9 90.9l-.5.1h-.5l-1.1-.2c-.2 0-.2-.1-.2-.1l.6-.2h.5l1.1.2c.2.1.2.2.1.2zm-1 .3l-.6.2h-.5l-1.1-.2c-.2 0-.2-.1-.2-.1l.6-.2h.5l1.1.2c.2 0 .3.1.2.1zm-1.1.3l-.6.2h-.5l-1.1-.2c-.2 0-.2-.1-.2-.1l.6-.2h.5l1.1.2c.2 0 .3.1.2.1zm-1.1.3l-1 .3h-.5l-1.1-.2c-.2 0-.2-.1-.2-.1l1-.3h.5l1.1.2c.2 0 .3.1.2.1zm-1.6.4l-.5.1h-.4l-1.2-.1c-.2 0-.2-.1-.1-.1l.5-.1h.4l1.3.2s.1 0 0 0zm5.2-2.8L36.7 91h-.5l-2.6-.3c-.2 0-.2-.1-.1-.1l5.6-1.6h.5l2.7.4c0-.1.1 0 0 0z" class="docker-kube-71"/>
                          <path d="M43 96.8l20.8-6 .3-1.1-21.3 6.5z" class="docker-kube-58"/>
                          <path d="M65 88c-.2 1.1-1.1 2.2-2 2.5l-19.7 5.7c-.9.3-1.5-.4-1.3-1.5l3.1-17.5c.2-1.1 1.1-2.2 2-2.5L66.8 69c.9-.3 1.5.4 1.3 1.5L65 88z" class="docker-kube-18"/>
                          <path d="M42.8 95.3l3.1-17.5c.2-1.1 1.1-2.2 2-2.5l19.7-5.7c.2-.1.4-.1.5 0-.2-.5-.6-.8-1.2-.6l-19.7 5.7c-.9.3-1.8 1.4-2 2.5L42 94.6c-.2.9.2 1.5.8 1.6-.1-.3-.1-.6 0-.9z" class="docker-kube-58"/>
                          <path d="M66.8 68.9l-19.7 5.7c-.3.1-.6.3-.9.6l17.4 14.9c.7-.5 1.3-1.3 1.4-2.2l3.1-17.5c.2-1-.4-1.7-1.3-1.5z" class="docker-kube-72"/>
                          <path d="M38.1 87.8s-6.4-3.8-9.6-8.4c-3.7-5.2-1.6-13.1-5.2-12.2-3.6.8-1.9 10.5 1.1 14.9s11.3 9 11.3 9l2.4-3.3z" class="docker-kube-58"/>
                          <path d="M35.8 90.8s1.7 2.1 4.1 2.5c.7.2.6-.2.2-.5-.5-.2-1-.6-1-.6s1.2.4 1.7.6.8-.3.2-.5c-.5-.3-1.6-.7-1.6-.7s1.8.7 2.2.7c.4.1.7-.4.1-.6-.6-.2-2-.8-2-.8s1.5.6 2 .6c.6 0 .7-.5.2-.7s-1.5-.5-1.5-.5.6-.3 1.3-.1c.7.2 1.2-.4.2-.9-.6-.3-2.9-1.3-4.4-.7-1.2 1.4-1.7 2.2-1.7 2.2zm-6.5-34.1s5.5-.6 6.5-5.5c1.1-4.8 1-15.1 1-15.1s-6.3 1.7-11.4.1c-4.5 4.5-6.9 5.6-6.9 5.6s1.9 15.5 10.8 14.9z" class="docker-kube-67"/>
                          <path d="M36.9 38.1c-8.6 5.2-13.4 1.7-13.4 1.7s-.2 4.4-1.6 7.1c-1.9-2.9-1.5-5.8-1.5-5.8s-.9 7.1.4 8.9c0 0-3.9-4.7-4.8-9.8-1-5.1 4.1-11.2 10-10.3" class="docker-kube-73"/>
                          <path d="M34.2 50.5s-1.9 3.9-5.3 1.5" class="docker-kube-74"/>
                          <path d="M26 29.8c-5.9-.9-11 5.2-10 10.3s4.8 9.8 4.8 9.8c-.1-.2-.4-1-.5-1.3-7.5-15.3 3.9-13.9 4.8-13.6 8.5 2.8 13.7 4.2 14.1 3.8 0 0-3.6-9.4-13.2-9z" class="docker-kube-73"/>
                          <ellipse cx="33.7" cy="43.7" transform="rotate(-16 33.706 43.71)" class="docker-kube-24" rx="1.2" ry="1.2"/>
                          <ellipse cx="33.6" cy="43.9" transform="rotate(-16 33.586 43.9)" class="docker-kube-75" rx=".9" ry=".9"/>
                          <ellipse cx="33.6" cy="44.1" transform="rotate(-16 33.608 44.108)" class="docker-kube-76" rx=".5" ry=".5"/>
                          <ellipse cx="27.1" cy="45.6" transform="rotate(-16 27.092 45.587)" class="docker-kube-24" rx="1.2" ry="1.2"/>
                          <ellipse cx="27.3" cy="45.8" transform="rotate(-16 27.31 45.804)" class="docker-kube-75" rx=".9" ry=".9"/>
                          <ellipse cx="27.4" cy="45.9" transform="rotate(-16 27.4 45.887)" class="docker-kube-76" rx=".5" ry=".5"/>
                    </g>
                  </svg>