<?xml version="1.0" encoding="utf-8"?>
<!-- Generator: Adobe Illustrator 21.0.0, SVG Export Plug-In . SVG Version: 6.00 Build 0)  -->
<svg version="1.1" id="Layer_1" xmlns="http://www.w3.org/2000/svg" xmlns:xlink="http://www.w3.org/1999/xlink" x="0px" y="0px"
	 viewBox="0 0 204.8 149.9" style="enable-background:new 0 0 204.8 149.9;" xml:space="preserve">
<style type="text/css">
	.st0{display:none;}
	.st1{display:inline;fill:#4E90F5;}
	.st2{display:inline;}
	.st3{fill:#FFFFFF;}
	.st4{fill:none;stroke:#FFFFFF;stroke-miterlimit:10;}
	.st5{fill:none;stroke:#F0F0F0;stroke-linejoin:round;stroke-miterlimit:10;}
	.st6{fill:none;stroke:#4E90F5;stroke-width:0.25;stroke-miterlimit:10;}
	.st7{fill:none;stroke:#4E90F5;stroke-width:0.25;stroke-linejoin:round;stroke-miterlimit:10;}
	.st8{fill:none;stroke:#4E90F5;stroke-width:0.25;stroke-linecap:round;stroke-linejoin:round;stroke-miterlimit:10;}
	.st9{display:none;fill:#4E90F5;}
	.st10{fill:#4E90F5;}
</style>
<g class="st0">
	<path class="st1" d="M27,123.5c8.7,0,17.4,0,26,0c2.8,0,5.1-1.9,6.6-4.1c5.3-7.7,9.4-16.3,14.1-24.3c0.5-0.8,1-1.7,1.2-2.6
		c0.9-3.3-1.5-6.1-3-8.8c-1.3-2.3-2.6-4.5-3.9-6.8c-2-3.4-3.9-6.8-5.9-10.2c-1.4-2.5-2.7-6.1-5.5-7.5c-1.4-0.7-3.1-0.8-4.7-0.8
		c-9-0.1-18,0-26.9,0c-2.6,0-4.8,0.3-6.7,2.4c-2.3,2.4-3.7,5.8-5.3,8.7c-1.6,2.7-3.2,5.5-4.7,8.2c-1.4,2.4-2.8,4.8-4.1,7.2
		c-1.2,2-2.7,4.1-2.4,6.6c0.2,1.4,0.8,2.7,1.4,3.9c2.5,4.8,5.2,9.4,7.9,14c1.4,2.3,2.8,4.7,4.2,7c1.1,1.9,2.2,4.6,3.9,6
		c1.4,1.2,3.5,1.2,5.3,1.2C25.4,123.6,26.2,123.5,27,123.5z"/>
	<g class="st2">
		<path class="st3" d="M31.2,76.8c-0.1,0.6-0.3,0.9-0.9,0.9s-0.9-0.3-0.9-0.8c0-0.6,0.3-0.9,0.8-0.9C30.8,75.9,31.1,76.3,31.2,76.8z
			"/>
		<path class="st3" d="M46.7,75.9c0.6,0.1,0.9,0.4,0.8,1c0,0.6-0.3,0.9-0.9,0.8c-0.6-0.1-0.9-0.3-0.8-0.9S46.2,76,46.7,75.9z"/>
		<path class="st3" d="M47.6,105.2c-0.1,0.6-0.3,0.9-0.9,0.9c-0.6,0-0.9-0.3-0.8-0.9c0-0.6,0.3-0.9,0.9-0.8
			C47.2,104.4,47.5,104.7,47.6,105.2z"/>
		<path class="st3" d="M54.9,90.1c0.6,0.1,0.9,0.3,0.8,0.9c0,0.6-0.3,0.8-0.9,0.8c-0.6,0-0.9-0.3-0.8-0.9
			C54,90.4,54.4,90.1,54.9,90.1z"/>
		<path class="st3" d="M31.2,105.2c-0.1,0.6-0.3,0.9-0.9,0.9s-0.9-0.3-0.9-0.8c0-0.6,0.3-0.9,0.8-0.9
			C30.8,104.3,31.1,104.6,31.2,105.2z"/>
		<path class="st3" d="M22.1,90.1c0.6,0.1,0.9,0.3,0.9,0.9s-0.3,0.9-0.9,0.9s-0.9-0.3-0.9-0.9C21.3,90.5,21.6,90.2,22.1,90.1z"/>
		<path class="st4" d="M43.8,91c0.1,2.8-2.2,5.3-5.3,5.3c-3-0.1-5.2-2.1-5.3-5.3c-0.1-3.1,2.4-5.3,5.4-5.4
			C41.2,85.7,44,88.2,43.8,91z"/>
		<path class="st3" d="M30.3,104.4c-0.6,0-0.9,0.3-0.8,0.9c0,0.6,0.3,0.9,0.9,0.8c0.6,0,0.8-0.3,0.9-0.9
			C31.1,104.6,30.8,104.3,30.3,104.4z"/>
		<path class="st3" d="M22.1,90.1c-0.6,0.1-0.9,0.3-0.9,0.9s0.3,0.9,0.9,0.9S23,91.6,23,91C23,90.5,22.6,90.1,22.1,90.1z"/>
		<path class="st3" d="M46.7,104.4c-0.6,0-0.9,0.3-0.9,0.8c0,0.6,0.3,0.9,0.8,0.9c0.6,0,0.8-0.3,0.9-0.9
			C47.5,104.7,47.2,104.4,46.7,104.4z"/>
		<path class="st3" d="M54.9,90.1c-0.6,0-0.9,0.3-0.9,0.8c0,0.6,0.3,0.9,0.8,0.9c0.6,0,0.9-0.3,0.9-0.8
			C55.8,90.5,55.4,90.2,54.9,90.1z"/>
		<g>
			<path class="st3" d="M52.4,80.4l1,1.7c1.5,2.5,3.1,5.3,4.3,7.5c0.5,0.9,0.5,1.9-0.1,2.9c-2.8,4.9-5.5,9.6-8.2,14.3
				c-0.6,1-1.5,1.6-2.8,1.6c-1.5,0-3,0-4.6,0h-0.9c0.1-0.2,0.3-0.4,0.5-0.7l0.3-0.6c0.3-0.6,0.6-1.1,0.9-1.7
				c0.2-0.5,0.6-0.9,0.8-1.4c0.4-0.7,0.8-1.5,1.2-2.2c0.1-0.1,0.1-0.1,0.1-0.2c0.1-0.1,0.2-0.3,0.3-0.5c0.6-1,1.1-1.9,1.7-2.9
				c1.2-2.1,2.4-4.2,3.7-6.4c0.4-0.6,0.4-1.2,0-1.9c-0.9-1.5-2.6-4.6-4.1-7.1c-0.6-1-1-1.9-1.5-2.6C46.9,80.4,51.3,80.4,52.4,80.4
				 M54.9,92.3c0.7,0,1.2-0.5,1.2-1.2s-0.4-1.2-1.2-1.3h-0.1h-0.1c-0.8,0.1-1.2,0.5-1.3,1.2c0,0.3,0.1,0.7,0.3,0.9
				C54.2,92.2,54.5,92.3,54.9,92.3L54.9,92.3 M46.7,106.5L46.7,106.5c0.7,0,1.2-0.5,1.2-1.2v-0.1v-0.1c-0.1-0.8-0.6-1.2-1.3-1.2
				s-1.2,0.5-1.2,1.2C45.4,105.9,45.9,106.4,46.7,106.5L46.7,106.5 M52.6,80c0,0-7.1,0.1-8,0.1c-0.1,0-0.1,0-0.1,0
				c1.2,2.2,4.5,8,5.8,10.3c0.3,0.6,0.3,1,0,1.5c-1.8,3-3.6,6.2-5.3,9.2c-0.1,0.3-0.3,0.5-0.5,0.7c-0.5,1.2-1.3,2.4-2,3.6
				c-0.3,0.8-0.8,1.5-1.2,2.1c-0.3,0.5-0.7,1-1.2,1.3c2.1,0,4.3,0,6.5,0l0,0c1.4,0,2.4-0.6,3.1-1.7c2.8-4.7,5.5-9.5,8.2-14.3
				c0.6-1,0.7-2.2,0.1-3.3C56.5,86.7,54.2,82.7,52.6,80L52.6,80z M54.9,91.9L54.9,91.9c-0.6,0-0.9-0.3-0.9-0.9s0.3-0.8,0.9-0.8
				c0.6,0.1,0.9,0.3,0.8,0.9C55.8,91.6,55.4,91.9,54.9,91.9L54.9,91.9z M46.7,106.1L46.7,106.1c-0.6,0-0.9-0.3-0.9-0.9
				s0.3-0.8,0.9-0.8l0,0c0.6,0,0.8,0.3,0.9,0.9C47.5,105.7,47.2,106.1,46.7,106.1L46.7,106.1z M44.5,80L44.5,80L44.5,80L44.5,80z"/>
		</g>
		<g>
			<path class="st3" d="M47.3,73.7c1.5,0.5,2.2,1.7,2.8,2.8c0.4,0.8,0.9,1.6,1.3,2.4c0.2,0.4,0.5,0.8,0.7,1.2c-0.1,0-0.1,0-0.3,0
				c-0.4,0-0.8,0-1.3,0c-1.4,0-2.8,0-4.2,0h-1.6c-1,0-1.9,0-3,0c-2.8,0-5.6,0-8.5-0.1h-0.1c-0.8,0-1.3,0.3-1.7,1
				c-0.6,1.1-2,2.8-3.3,4.5c-1.1,1.5-2.2,2.8-2.9,3.8c-0.3-0.6-0.8-1.5-1.4-2.4c-0.9-1.5-1.3-2.3-1.6-2.7c0.6-1,1.2-2.1,1.9-3.3
				c1.2-2.1,2.4-4.2,3.4-6c0.4-0.8,1.2-1.1,2.1-1.5h17.7 M46.7,78.1c0.7,0,1.2-0.5,1.2-1.2c0.1-0.7-0.4-1.2-1.2-1.4l0,0h-0.1
				c-1,0.1-1.2,0.8-1.2,1.2C45.3,77.5,45.8,78,46.7,78.1C46.6,78.1,46.7,78.1,46.7,78.1 M30.3,78.1L30.3,78.1L30.3,78.1
				c0.8,0,1.2-0.5,1.3-1.2v-0.1v-0.1c-0.1-0.8-0.6-1.2-1.2-1.2h-0.1c-0.8,0-1.2,0.6-1.2,1.3C29,77.6,29.6,78.1,30.3,78.1 M47.4,73.2
				c-5.9,0-11.8,0-17.7,0c-0.9,0.3-1.8,0.8-2.4,1.7c-1.6,2.7-3.9,6.7-5.4,9.5l0,0l3.4,5.8c1.3-2.2,5.3-6.7,6.5-8.9
				c0.3-0.6,0.7-0.8,1.4-0.8c0,0,0,0,0.1,0c3.8,0.1,7.6,0,11.4,0.1c2,0,4,0,6,0c0.4,0,0.8,0,1.3,0c0.3,0,0.6,0.1,0.9,0.2
				c0.1-0.3-0.1-0.5-0.3-0.7c-0.7-1.2-1.4-2.4-2-3.6C49.8,74.9,48.9,73.7,47.4,73.2L47.4,73.2z M46.7,77.7L46.7,77.7
				c-0.6-0.1-1-0.3-0.9-0.9c0-0.6,0.4-0.8,0.9-0.9c0.6,0.1,0.9,0.4,0.8,1C47.5,77.4,47.2,77.7,46.7,77.7L46.7,77.7z M30.3,77.7
				c-0.6,0-0.8-0.3-0.9-0.9c0-0.6,0.3-0.9,0.8-0.9c0,0,0,0,0.1,0c0.6,0,0.8,0.3,0.9,0.9C31.2,77.3,30.9,77.7,30.3,77.7L30.3,77.7
				L30.3,77.7z M21.9,84.4L21.9,84.4L21.9,84.4z"/>
		</g>
		<g>
			<path class="st3" d="M22.2,84.7c0,0.1,0.1,0.1,0.1,0.2c0.9,1.5,1.8,3.1,2.7,4.6l0.9,1.5c0,0.1,0,0.1,0.1,0.2l1.7,2.8
				c1.4,2.4,2.8,4.9,4.2,7.3c0.3,0.6,0.8,0.7,1.2,0.7l0,0h0.2c1.5,0,4,0.1,6.4,0.1c1.5,0,3,0.1,4.2,0.1c-0.3,0.5-0.6,1-0.8,1.5
				c-0.3,0.5-0.6,0.9-0.8,1.4c-0.3,0.6-0.6,1.1-0.9,1.6l-0.3,0.6c-0.3,0.5-0.6,0.8-1,1.1h-1.9c-1.7,0-3.5,0-5.2,0c-1,0-2.1,0-2.9,0
				c-1,0-1.9-0.5-2.4-1.5c-2.8-4.9-5.6-9.7-8.3-14.4c-0.6-1-0.6-1.9-0.1-2.8c0.8-1.4,1.6-2.8,2.4-4.2C21.8,85.2,22,84.9,22.2,84.7
				 M22.2,92.3L22.2,92.3c0.8,0,1.2-0.5,1.2-1.2s-0.5-1.2-1.2-1.3h-0.1H22c-0.8,0.1-1.2,0.6-1.2,1.2C20.8,91.8,21.3,92.3,22.2,92.3
				L22.2,92.3 M30.3,106.5L30.3,106.5c0.8,0,1.2-0.5,1.3-1.2v-0.1v-0.1c-0.1-0.8-0.6-1.2-1.2-1.2h-0.1c-0.8,0.1-1.2,0.6-1.2,1.3
				C29.1,106,29.6,106.5,30.3,106.5 M22.4,83.5c-1.2,2-2.4,4-3.5,6c-0.6,1-0.6,2.1,0.1,3.2c2.8,4.8,5.5,9.6,8.3,14.4
				c0.6,1,1.6,1.7,2.8,1.7c0.8,0,1.9,0,2.9,0c2.4,0,5,0,7.1,0c0.6-0.3,0.9-0.8,1.2-1.3c0.4-0.7,0.8-1.5,1.2-2.1
				c0.6-1.2,1.4-2.2,1.9-3.4c-3,0-8.7-0.2-11.3-0.2c-0.1,0-0.1,0-0.2,0l0,0c-0.4,0-0.7-0.1-0.9-0.5c-1.9-3.4-3.9-6.8-5.8-10.1
				c0-0.1,0-0.1-0.1-0.1c-1.2-2.1-2.4-4.2-3.6-6.2C22.4,84.4,22.4,84,22.4,83.5L22.4,83.5z M22.2,91.9L22.2,91.9
				c-0.6,0-0.9-0.3-0.9-0.9s0.3-0.8,0.9-0.9c0.6,0.1,0.9,0.3,0.9,0.9C23,91.5,22.7,91.9,22.2,91.9L22.2,91.9z M30.3,106.1
				c-0.6,0-0.8-0.3-0.8-0.8c0-0.6,0.3-0.9,0.8-0.9h0.1c0.5,0,0.8,0.3,0.9,0.8C31.2,105.7,30.9,106.1,30.3,106.1L30.3,106.1
				L30.3,106.1z"/>
		</g>
	</g>
	<path class="st1" d="M90.4,85.8c8.7,0,17.4,0,26,0c2.8,0,5.1-1.9,6.6-4.1c5.3-7.7,9.4-16.3,14.1-24.3c0.5-0.8,1-1.7,1.2-2.6
		c0.9-3.3-1.5-6.1-3-8.8c-1.3-2.3-2.6-4.5-3.9-6.8c-2-3.4-3.9-6.8-5.9-10.2c-1.4-2.5-2.7-6.1-5.5-7.5c-1.4-0.7-3.1-0.8-4.7-0.8
		c-9-0.1-18,0-26.9,0c-2.6,0-4.8,0.3-6.7,2.4c-2.3,2.4-3.7,5.8-5.3,8.7c-1.6,2.7-3.2,5.5-4.7,8.2c-1.4,2.4-2.8,4.8-4.1,7.2
		c-1.2,2-2.7,4.1-2.4,6.6c0.2,1.4,0.8,2.7,1.4,3.9c2.5,4.8,5.2,9.4,7.9,14c1.4,2.3,2.8,4.7,4.2,7c1.1,1.9,2.2,4.6,3.9,6
		c1.4,1.2,3.5,1.2,5.3,1.2C88.8,85.8,89.6,85.8,90.4,85.8z"/>
	<path class="st1" d="M90.4,157.8c8.7,0,17.4,0,26,0c2.8,0,5.1-1.9,6.6-4.1c5.3-7.7,9.4-16.3,14.1-24.3c0.5-0.8,1-1.7,1.2-2.6
		c0.9-3.3-1.5-6.1-3-8.8c-1.3-2.3-2.6-4.5-3.9-6.8c-2-3.4-3.9-6.8-5.9-10.2c-1.4-2.5-2.7-6.1-5.5-7.5c-1.4-0.7-3.1-0.8-4.7-0.8
		c-9-0.1-18,0-26.9,0c-2.6,0-4.8,0.3-6.7,2.4c-2.3,2.4-3.7,5.8-5.3,8.7c-1.6,2.7-3.2,5.5-4.7,8.2c-1.4,2.4-2.8,4.8-4.1,7.2
		c-1.2,2-2.7,4.1-2.4,6.6c0.2,1.4,0.8,2.7,1.4,3.9c2.5,4.8,5.2,9.4,7.9,14c1.4,2.3,2.8,4.7,4.2,7c1.1,1.9,2.2,4.6,3.9,6
		c1.4,1.2,3.5,1.2,5.3,1.2C88.8,157.8,89.6,157.8,90.4,157.8z"/>
	<path class="st1" d="M27.4,49.8c8.7,0,17.4,0,26,0c2.8,0,5.1-1.9,6.6-4.1c5.3-7.7,9.4-16.3,14.1-24.3c0.5-0.8,1-1.7,1.2-2.6
		c0.9-3.3-1.5-6.1-3-8.8c-1.3-2.3-2.6-4.5-3.9-6.8c-2-3.4-3.9-6.8-5.9-10.2c-1.4-2.5-2.7-6.1-5.5-7.5c-1.4-0.7-3.1-0.8-4.7-0.8
		c-9-0.1-18,0-26.9,0c-2.6,0-4.8,0.3-6.7,2.4c-2.3,2.4-3.7,5.8-5.3,8.7C11.8-1.5,10.2,1.3,8.7,4c-1.4,2.4-2.8,4.8-4.1,7.2
		c-1.2,2-2.7,4.1-2.4,6.6c0.2,1.4,0.8,2.7,1.4,3.9c2.5,4.8,5.2,9.4,7.9,14c1.4,2.3,2.8,4.7,4.2,7c1.1,1.9,2.2,4.6,3.9,6
		c1.4,1.2,3.5,1.2,5.3,1.2C25.8,49.8,26.6,49.8,27.4,49.8z"/>
	<path class="st1" d="M153.5,121.4c8.7,0,17.4,0,26,0c2.8,0,5.1-1.9,6.6-4.1c5.3-7.7,9.4-16.3,14.1-24.3c0.5-0.8,1-1.7,1.2-2.6
		c0.9-3.3-1.5-6.1-3-8.8c-1.3-2.3-2.6-4.5-3.9-6.8c-2-3.4-3.9-6.8-5.9-10.2c-1.4-2.5-2.7-6.1-5.5-7.5c-1.4-0.7-3.1-0.8-4.7-0.8
		c-9-0.1-18,0-26.9,0c-2.6,0-4.8,0.3-6.7,2.4c-2.3,2.4-3.7,5.8-5.3,8.7c-1.6,2.7-3.2,5.5-4.7,8.2c-1.4,2.4-2.8,4.8-4.1,7.2
		c-1.2,2-2.7,4.1-2.4,6.6c0.2,1.4,0.8,2.7,1.4,3.9c2.5,4.8,5.2,9.4,7.9,14c1.4,2.3,2.8,4.7,4.2,7c1.1,1.9,2.2,4.6,3.9,6
		c1.4,1.2,3.5,1.2,5.3,1.2C151.9,121.4,152.7,121.4,153.5,121.4z"/>
	<path class="st1" d="M153.4,49.8c8.7,0,17.4,0,26,0c2.8,0,5.1-1.9,6.6-4.1c5.3-7.7,9.4-16.3,14.1-24.3c0.5-0.8,1-1.7,1.2-2.6
		c0.9-3.3-1.5-6.1-3-8.8c-1.3-2.3-2.6-4.5-3.9-6.8c-2-3.4-3.9-6.8-5.9-10.2c-1.4-2.5-2.7-6.1-5.5-7.5c-1.4-0.7-3.1-0.8-4.7-0.8
		c-9-0.1-18,0-26.9,0c-2.6,0-4.8,0.3-6.7,2.4c-2.3,2.4-3.7,5.8-5.3,8.7c-1.6,2.7-3.2,5.5-4.7,8.2c-1.4,2.4-2.8,4.8-4.1,7.2
		c-1.2,2-2.7,4.1-2.4,6.6c0.2,1.4,0.8,2.7,1.4,3.9c2.5,4.8,5.2,9.4,7.9,14c1.4,2.3,2.8,4.7,4.2,7c1.1,1.9,2.2,4.6,3.9,6
		c1.4,1.2,3.5,1.2,5.3,1.2C151.8,49.8,152.6,49.8,153.4,49.8z"/>
	<g id="XMLID_229_" class="st2">
		<g id="XMLID_690_">
			<g id="XMLID_691_">
				<g>
					<g id="XMLID_211_">
						<g id="XMLID_215_">
							<path id="XMLID_216_" class="st3" d="M102.6,128v-3.7c4,0,7.1-4,5.6-8.2c-0.6-1.5-1.8-2.8-3.4-3.4c-4.2-1.5-8.2,1.6-8.2,5.6
								l0,0h-3.8c0-6.4,6.2-11.3,12.9-9.3c2.9,0.9,5.3,3.3,6.2,6.2C114,121.8,109,128,102.6,128z"/>
						</g>
						<polygon id="XMLID_214_" class="st3" points="102.7,124.3 98.9,124.3 98.9,120.5 98.9,120.5 102.7,120.5 102.7,120.5 						
							"/>
						<polygon id="XMLID_213_" class="st3" points="98.9,127.1 96,127.1 96,127.1 96,124.3 98.9,124.3 						"/>
						<path id="XMLID_212_" class="st3" d="M96,124.3h-2.4l0,0v-2.4l0,0H96l0,0V124.3z"/>
					</g>
				</g>
			</g>
		</g>
		<g id="XMLID_234_">
			<path id="XMLID_677_" class="st3" d="M86.5,131.8c-0.5-0.3-1.1-0.5-1.8-0.5h-1.5v4.9h1.5c0.7,0,1.3-0.2,1.8-0.6
				c0.3-0.2,0.5-0.5,0.6-0.8s0.2-0.7,0.2-1.2s-0.1-0.8-0.2-1.2S86.8,132,86.5,131.8z M84,132.2h0.5c0.6,0,1,0.1,1.3,0.3
				c0.4,0.2,0.6,0.7,0.6,1.3s-0.2,1.1-0.6,1.3l0,0c-0.3,0.2-0.8,0.3-1.3,0.3H84V132.2L84,132.2z"/>
			<path id="XMLID_676_" class="st3" d="M88.5,131.3c-0.2,0-0.3,0-0.4,0.2c-0.1,0.1-0.2,0.2-0.2,0.4s0,0.3,0.2,0.4
				c0.1,0.1,0.2,0.2,0.4,0.2c0.1,0,0.3,0,0.4-0.2c0.1-0.1,0.2-0.2,0.2-0.4s0-0.3-0.2-0.4C88.7,131.3,88.6,131.3,88.5,131.3z"/>
			<rect id="XMLID_675_" x="88" y="132.8" class="st3" width="0.9" height="3.5"/>
			<path id="XMLID_670_" class="st3" d="M92.1,133.1c-0.3-0.2-0.6-0.4-0.9-0.4c-0.5,0-0.9,0.2-1.2,0.5c-0.3,0.3-0.5,0.7-0.5,1.2
				s0.2,0.9,0.5,1.2s0.7,0.5,1.2,0.5c0.3,0,0.6-0.1,0.9-0.3v0.1c0,0.3-0.1,0.5-0.2,0.7c-0.2,0.2-0.4,0.2-0.6,0.2
				c-0.4,0-0.6-0.2-0.9-0.6l-0.6,0.6l0,0c0.1,0.2,0.3,0.3,0.6,0.5c0.3,0.2,0.6,0.3,1,0.3c0.5,0,0.9-0.2,1.2-0.5
				c0.3-0.3,0.5-0.7,0.5-1.2v-3.2h-0.9L92.1,133.1L92.1,133.1z M91.8,135.1c-0.2,0.2-0.3,0.3-0.6,0.3s-0.4-0.1-0.6-0.3
				s-0.2-0.4-0.2-0.7s0.1-0.5,0.2-0.7s0.3-0.3,0.6-0.3s0.4,0.1,0.6,0.3s0.2,0.4,0.2,0.7C92,134.7,92,135,91.8,135.1z"/>
			<rect id="XMLID_668_" x="93.6" y="132.8" class="st3" width="0.9" height="3.5"/>
			<path id="XMLID_660_" class="st3" d="M94.1,131.3c-0.2,0-0.3,0-0.4,0.2c-0.1,0.1-0.2,0.2-0.2,0.4s0,0.3,0.2,0.4
				c0.1,0.1,0.2,0.2,0.4,0.2c0.1,0,0.3,0,0.4-0.2c0.1-0.1,0.2-0.2,0.2-0.4s0-0.3-0.2-0.4C94.4,131.3,94.2,131.3,94.1,131.3z"/>
			<path id="XMLID_652_" class="st3" d="M96.5,131.8h-0.9v0.9h-0.5v0.8h0.5v1.5c0,0.5,0.1,0.8,0.3,0.9c0.2,0.2,0.5,0.3,0.9,0.3
				c0.1,0,0.3,0,0.4,0l0,0v-0.8h-0.3c-0.2,0-0.3,0-0.4-0.1s-0.1-0.2-0.1-0.5v-1.3h0.8v-0.8h-0.8L96.5,131.8L96.5,131.8z"/>
			<rect id="XMLID_52_" x="101.3" y="131.3" class="st3" width="0.9" height="4.9"/>
			<path id="XMLID_448_" class="st3" d="M111.1,135c-0.2,0.2-0.3,0.3-0.4,0.4l0,0c-0.1,0.1-0.3,0.1-0.5,0.1c-0.3,0-0.5-0.1-0.6-0.3
				c-0.2-0.2-0.3-0.4-0.3-0.7s0.1-0.6,0.3-0.7c0.2-0.2,0.4-0.3,0.6-0.3s0.6,0.2,0.8,0.5l0.6-0.6l0,0c-0.4-0.5-0.9-0.7-1.4-0.7
				s-0.9,0.2-1.2,0.5c-0.3,0.3-0.5,0.8-0.5,1.3s0.2,0.9,0.5,1.3c0.3,0.3,0.8,0.5,1.2,0.5c0.6,0,1.2-0.3,1.5-0.8L111.1,135z"/>
			<path id="XMLID_445_" class="st3" d="M114.7,133.3c-0.1-0.2-0.3-0.3-0.5-0.4c-0.2-0.1-0.5-0.2-0.7-0.2c-0.5,0-0.9,0.2-1.2,0.5
				c-0.3,0.3-0.4,0.8-0.4,1.3s0.2,0.9,0.5,1.3c0.3,0.3,0.7,0.5,1.2,0.5c0.6,0,1.1-0.3,1.5-0.7l0,0l-0.6-0.6l0,0
				c0,0.1-0.1,0.1-0.2,0.2c-0.1,0.1-0.2,0.1-0.3,0.2c-0.1,0.1-0.3,0.1-0.4,0.1c-0.3,0-0.4-0.1-0.6-0.2c-0.1-0.1-0.2-0.3-0.3-0.5h2.3
				v-0.3c0-0.2,0-0.4-0.1-0.6C114.9,133.6,114.8,133.5,114.7,133.3z M112.7,134.1c0-0.2,0.1-0.3,0.2-0.4c0.1-0.1,0.3-0.2,0.5-0.2
				s0.4,0,0.5,0.2c0.1,0.1,0.2,0.3,0.2,0.4H112.7z"/>
			<path id="XMLID_442_" class="st3" d="M118,133L118,133c-0.3-0.2-0.6-0.3-1.1-0.3c-0.3,0-0.6,0.1-0.8,0.2
				c-0.2,0.1-0.5,0.3-0.6,0.6l0,0l0.6,0.5c0.2-0.4,0.5-0.5,0.8-0.5c0.2,0,0.3,0,0.5,0.1c0.1,0.1,0.2,0.2,0.2,0.4v0.2
				c-0.2-0.1-0.4-0.1-0.6-0.1c-0.4,0-0.8,0.1-1.1,0.3c-0.3,0.2-0.4,0.5-0.4,0.9s0.1,0.6,0.3,0.8s0.5,0.3,0.9,0.3s0.6-0.1,0.9-0.4
				v0.3h0.9v-2.2C118.4,133.6,118.3,133.3,118,133z M116.5,134.9c0.1-0.1,0.3-0.1,0.4-0.1c0.2,0,0.4,0,0.7,0.1v0.3
				c-0.2,0.2-0.4,0.3-0.8,0.3c-0.2,0-0.3,0-0.3-0.1c-0.1-0.1-0.1-0.1-0.1-0.3C116.3,135.1,116.4,135,116.5,134.9z"/>
			<path id="XMLID_393_" class="st3" d="M121.8,133.1c-0.3-0.3-0.6-0.4-1-0.4c-0.3,0-0.6,0.1-0.9,0.3v-0.2H119v3.5h0.9v-2
				c0-0.3,0.1-0.5,0.2-0.6s0.3-0.2,0.5-0.2s0.3,0.1,0.5,0.2s0.2,0.3,0.2,0.6v2h0.9v-2C122.2,133.8,122,133.4,121.8,133.1z"/>
			<path id="XMLID_320_" class="st3" d="M100.3,133L100.3,133c-0.3-0.2-0.6-0.3-1.1-0.3c-0.3,0-0.6,0.1-0.8,0.2
				c-0.2,0.1-0.5,0.3-0.6,0.6l0,0l0.6,0.5c0.2-0.4,0.5-0.5,0.8-0.5c0.2,0,0.3,0,0.5,0.1c0.1,0.1,0.2,0.2,0.2,0.4v0.2
				c-0.2-0.1-0.4-0.1-0.6-0.1c-0.4,0-0.8,0.1-1.1,0.3c-0.3,0.2-0.4,0.5-0.4,0.9s0.1,0.6,0.3,0.8s0.5,0.3,0.9,0.3
				c0.3,0,0.6-0.1,0.9-0.4v0.3h0.9v-2.2C100.7,133.6,100.5,133.3,100.3,133z M98.7,134.9c0.1-0.1,0.3-0.1,0.4-0.1
				c0.2,0,0.4,0,0.7,0.1v0.3c-0.2,0.2-0.4,0.3-0.8,0.3c-0.2,0-0.3,0-0.3-0.1c-0.1-0.1-0.1-0.1-0.1-0.3
				C98.6,135.1,98.6,135,98.7,134.9z"/>
			<path id="XMLID_235_" class="st3" d="M105.4,136.3c-1.4,0-2.5-1.2-2.5-2.5c0-1.4,1.2-2.5,2.5-2.5c1.4,0,2.5,1.2,2.5,2.5
				C107.9,135.2,106.8,136.3,105.4,136.3z M105.4,132.1c-0.9,0-1.7,0.7-1.7,1.7c0,0.9,0.7,1.7,1.7,1.7c0.9,0,1.7-0.7,1.7-1.7
				C107,132.9,106.3,132.1,105.4,132.1z"/>
		</g>
	</g>
	<g class="st2">
		<g>
			<path class="st3" d="M154.9,74.2c1.6,0,3.1,0.5,3.8,1.4c0.6,0.6,0.8,1.3,0.9,2.3c0,1.5,0,3.1,0,5.3v0.2c0,0.7,0,1.5,0.5,2.1
				c0.4,0.4,0.6,0.8,0.6,1.1c-0.1,0.4-0.5,0.6-1,1c-0.2,0.1-0.5,0.3-0.7,0.5c-0.3,0.2-0.4,0.3-0.5,0.3s-0.4-0.3-0.6-0.6
				c-0.1-0.2-0.4-0.5-0.6-0.6c-0.1-0.1-0.1-0.1-0.3-0.2l-0.1-0.1l-0.3-0.2l-0.3,0.2l-0.2,0.1c-0.6,0.6-1.3,1.1-2,1.3
				c-0.6,0.2-1.1,0.3-1.7,0.3c-1.6,0-2.9-0.9-3.4-2.1c-0.4-1.1-0.4-2.4,0.1-3.5c0.5-1,1.3-1.8,2.3-2.1c0.8-0.3,1.7-0.4,2.6-0.6
				c0.2-0.1,0.5-0.1,0.7-0.1c0.1,0,0.2,0,0.4,0c0.4,0,0.8,0,1.1-0.4c0.2-0.2,0.3-0.6,0.3-1.1c-0.1-1-0.4-2.2-1.9-2.3
				c-0.1,0-0.3,0-0.4,0c-1.1,0-1.8,0.5-2.3,1.5c-0.1,0.3-0.9,0.6-1.6,0.6c-0.4,0-0.8-0.1-1-0.2c-0.4-0.3-0.4-0.5,0.1-1.1
				c0.1-0.1,0.1-0.2,0.2-0.4C150.6,75.1,152.7,74.2,154.9,74.2 M154.1,86.6c1.1,0,1.8-1.1,2.1-1.6c0.4-0.6,0.6-1.4,0.4-2.3v-0.1
				v-0.1c0-0.1,0-0.1,0-0.2c0.1-0.3,0.1-0.6-0.1-0.9c-0.1-0.2-0.4-0.3-0.9-0.3c-1.3,0-2.7,0.2-3.4,1.7s-0.4,2.8,0.9,3.4
				C153.5,86.5,153.8,86.6,154.1,86.6 M154.9,73.8c-2.2,0-4.4,0.9-5.3,2.6c-0.4,0.6-1.1,1.3-0.2,2c0.3,0.2,0.7,0.3,1.2,0.3
				c0.9,0,1.7-0.3,1.9-0.8c0.4-0.9,1.1-1.2,1.9-1.2c0.1,0,0.2,0,0.4,0c1.2,0.1,1.5,0.9,1.6,2c0.1,1.2-0.8,0.9-1.4,1.1
				c-1.1,0.2-2.3,0.4-3.4,0.7c-2.5,0.9-3.6,3.6-2.7,6.1c0.6,1.5,2.1,2.4,3.8,2.4c0.6,0,1.2-0.1,1.8-0.3c0.9-0.3,1.6-0.9,2.3-1.6
				c0.1,0.1,0.3,0.2,0.4,0.4c0.5,0.4,0.8,1.3,1.3,1.3c0.2,0,0.4-0.1,0.7-0.4c0.9-0.8,2.8-1.3,1.1-3.1c-0.5-0.6-0.4-1.3-0.4-2.1
				c0-1.8,0-3.6,0-5.3c0-1-0.3-1.8-0.9-2.6C158.1,74.3,156.5,73.8,154.9,73.8L154.9,73.8z M154.1,86.2c-0.2,0-0.5-0.1-0.8-0.2
				c-1.2-0.6-1.2-1.8-0.7-2.8c0.6-1.3,1.8-1.5,3.1-1.5l0,0c1,0,0.4,0.9,0.5,1.1c0.1,0.8-0.1,1.4-0.4,2
				C155.5,85.6,154.9,86.2,154.1,86.2L154.1,86.2z"/>
		</g>
		<g>
			<g>
				<path class="st3" d="M185.6,78.4C185.6,78.4,185.7,78.4,185.6,78.4C185.7,78.4,185.7,78.4,185.6,78.4c0.1,0,0.1,0.1,0.1,0.6
					c-0.1,3.6-0.1,7,0,10.2c0,0.5-0.1,0.7-0.7,0.9c-0.4,0.1-0.9,0.3-1.2,0.4c-1.8,0.6-3.6,1.1-5.3,1.8c-0.3,0.1-0.5,0.1-0.6,0.1
					s-0.1,0-0.1,0c-0.1-0.1-0.1-0.2-0.1-0.8c0-1.1,0-2.3,0-3.5c0-0.5,0-1,0-1.5c0-0.1,0-0.1-0.1-0.2c0-0.4,0-0.9,0-1.3
					c0-1.1,0-2.3,0-3.6c0-0.6,0.1-0.9,0.7-1.1c2.7-0.8,4.8-1.5,6.7-2.1C185.3,78.5,185.4,78.4,185.6,78.4 M185.6,78.1
					c-0.1,0-0.4,0.1-0.6,0.1c-2.2,0.8-4.5,1.5-6.7,2.1c-0.8,0.2-1,0.7-1,1.4c0.1,1.6,0,3.3,0,5c0,0,0,0,0.1,0c0,1.6,0,3.3,0,5
					c0,0.7,0.1,1.2,0.6,1.2c0.2,0,0.4-0.1,0.7-0.1c2.1-0.8,4.4-1.5,6.6-2.1c0.6-0.2,1-0.5,1-1.3c-0.1-3.4,0-6.8,0-10.2
					C186.1,78.4,186,78.1,185.6,78.1L185.6,78.1z"/>
			</g>
		</g>
		<g>
			<g>
				<path class="st3" d="M156.2,96.4c0.1,0,0.2,0,0.4,0.1c2.6,0.9,4.7,1.6,7,2.2c0.5,0.1,0.6,0.4,0.6,1c0,1.2,0,2.5,0,3.7
					c0,0.5,0,1,0,1.4c0,0.5,0,1,0,1.5c0,1.1,0,2.3,0,3.5c0,0.2,0,0.6-0.1,0.7c0,0,0,0-0.1,0s-0.2,0-0.5-0.1
					c-1.8-0.7-3.8-1.3-5.6-1.8l-1.2-0.4c-0.6-0.1-0.7-0.4-0.6-0.9c0-3.1,0.1-6.3,0-10.2c0-0.4,0.1-0.5,0.1-0.5
					C156.1,96.4,156.1,96.4,156.2,96.4 M156.2,95.9c-0.4,0-0.6,0.3-0.6,0.9c0,3.4,0,6.8,0,10.2c0,0.8,0.3,1.1,0.9,1.3
					c2.3,0.7,4.5,1.4,6.7,2.2c0.3,0.1,0.5,0.1,0.6,0.1c0.5,0,0.5-0.4,0.5-1.1c0-1.6,0-3.3,0-5s0-3.4,0-5.1c0-0.6-0.1-1.1-0.9-1.3
					c-2.3-0.7-4.6-1.4-6.9-2.2C156.5,95.9,156.3,95.9,156.2,95.9L156.2,95.9z"/>
			</g>
		</g>
		<g>
			<g>
				<path class="st3" d="M167,78.4c0.1,0,0.2,0,0.5,0.1c2.3,0.8,4.7,1.5,6.6,2.1c0.5,0.1,0.6,0.4,0.6,0.9c0,3.1,0,6.3,0,10.4
					c0,0.4-0.1,0.4-0.1,0.4l0,0c0,0,0,0-0.1,0s-0.1,0-0.4-0.1c-2.2-0.8-4.5-1.5-6.9-2.3c-0.4-0.1-0.6-0.4-0.5-0.9c0-1.3,0-2.6,0-3.8
					c0-0.5,0-1,0-1.5c0-0.1,0-0.1,0-0.1c0-0.4,0-0.9,0-1.3c0-1.1,0-2.3,0-3.4C166.9,79,166.9,78.6,167,78.4L167,78.4 M167,78.1
					c-0.5,0-0.5,0.4-0.5,1.1c0.1,1.6,0,3.2,0,4.8l0,0c0,1.8,0,3.6,0,5.3c0,0.6,0.1,1,0.8,1.2c2.3,0.7,4.6,1.5,6.9,2.3
					c0.2,0.1,0.4,0.1,0.5,0.1c0.4,0,0.5-0.3,0.5-0.9c0-3.5,0-7,0-10.4c0-0.7-0.2-1.1-0.9-1.3c-2.2-0.6-4.5-1.3-6.6-2.1
					C167.4,78.1,167.2,78.1,167,78.1L167,78.1z"/>
			</g>
		</g>
		<g>
			<g>
				<path class="st3" d="M174.6,96.4C174.7,96.4,174.7,96.4,174.6,96.4C174.7,96.4,174.7,96.4,174.6,96.4c0.1,0,0.1,0.1,0.1,0.6
					c0,2.8-0.1,6.5,0,10.1c0,0.6-0.1,0.8-0.8,1l-0.4,0.1c-2,0.6-4.1,1.3-6.1,2c-0.3,0.1-0.5,0.1-0.6,0.1h-0.1l0,0
					c0,0-0.1-0.1-0.1-0.6c0.1-1.2,0-2.4,0-3.6c0-0.5,0-1,0-1.5s0-0.9,0-1.4c0-1.1,0-2.3,0-3.6c0-0.6,0.1-0.9,0.7-1.1
					c2.1-0.6,4.3-1.3,6.6-2.1C174.4,96.4,174.6,96.4,174.6,96.4 M174.6,95.9c-0.1,0-0.4,0.1-0.6,0.1c-2.2,0.8-4.4,1.5-6.6,2.1
					c-0.9,0.2-1,0.7-1,1.4c0,1.6,0,3.3,0,5s0.1,3.4,0,5.1c0,0.7,0.1,1,0.5,1c0.2,0,0.4-0.1,0.7-0.1c2.1-0.8,4.3-1.4,6.5-2.1
					c0.7-0.2,1.1-0.6,1.1-1.3c-0.1-3.3,0-6.7,0-10.1C175.2,96.3,175.1,95.9,174.6,95.9L174.6,95.9z"/>
			</g>
		</g>
		<g>
			<g>
				<path class="st3" d="M176.2,74.5v0.4c2.1,0,4.3,0.5,6.8,1.6l-0.9,0.3c-1.9,0.6-3.7,1.2-5.5,1.8c-0.1,0-0.2,0.1-0.4,0.1
					c-0.1,0-0.4,0-0.5-0.1c-1.8-0.6-3.5-1.1-5.3-1.7l-0.9-0.3c2.4-1.1,4.5-1.6,6.6-1.6L176.2,74.5 M176.2,74.5
					c-2.5,0-4.9,0.7-7.7,2.1c2.5,0.8,4.8,1.6,7.2,2.3c0.2,0.1,0.4,0.1,0.6,0.1c0.1,0,0.4,0,0.5-0.1c2.4-0.8,4.8-1.6,7.3-2.3
					C181.2,75.3,178.7,74.5,176.2,74.5L176.2,74.5z"/>
			</g>
		</g>
		<g>
			<g>
				<path class="st3" d="M165.2,92.8L165.2,92.8c2.1,0,4.4,0.5,6.9,1.6c-2.3,1.2-4.2,1.7-6.1,1.7c-1.9,0-4.1-0.5-7.2-1.7
					C160.9,93.3,163.1,92.8,165.2,92.8 M165.2,92.4c-2.5,0-4.9,0.6-7.5,2c3.4,1.3,5.9,2.1,8.2,2.1s4.4-0.7,7-2.1
					C170.2,93,167.7,92.4,165.2,92.4L165.2,92.4z"/>
			</g>
		</g>
		<g>
			<path class="st3" d="M162.3,88.8c-1.7,1.7-4.3,2.7-7.4,2.7c-1.8,0-3.7-0.4-5.3-1.1c1.4,0.4,2.8,0.5,4.2,0.5
				C156.7,91,159.4,90.2,162.3,88.8 M163.8,87.5c-3.3,2.1-6.7,3.1-10,3.1c-2.5,0-5-0.6-7.6-1.6c2.5,2,5.7,2.9,8.7,2.9
				C158.6,91.9,162.1,90.5,163.8,87.5L163.8,87.5z"/>
		</g>
		<g>
			<path class="st3" d="M164.2,86.5L164.2,86.5c0.3,0,0.4,0.1,0.6,0.1c0.1,0.1,0.1,0.4,0.1,0.6c0,0.3-0.1,0.6-0.2,0.9
				c0-0.5-0.1-0.8-0.3-1.1c-0.3-0.3-0.7-0.4-1.1-0.4C163.6,86.6,163.9,86.5,164.2,86.5 M164.2,86.1c-0.8,0-1.8,0.4-2.3,1.1
				c0.6-0.1,1-0.1,1.3-0.1c1.2,0,1.1,0.4,1,2.4c0.9-0.8,1.4-2.6,0.9-3.1C164.8,86.3,164.6,86.1,164.2,86.1L164.2,86.1z"/>
		</g>
		<path class="st3" d="M156.2,82.9c0.1,0.8-0.1,1.4-0.4,2c-0.6,0.9-1.3,1.8-2.6,1.1s-1.2-1.8-0.7-2.8c0.6-1.3,1.8-1.5,3.1-1.5
			C156.7,81.7,156.1,82.5,156.2,82.9z"/>
	</g>
	<g class="st2">
		<g>
			<g>
				<path class="st3" d="M161,3.4l5.9,2.8l-8.4,3.2l-0.1,0.1l0,0l-5.5-3.4L152.8,6L161,3.4 M176.9,16.3l4.6,2.5l-0.2,0.1l-3.6,2.6
					l0,0l-4.5-2.8l-0.1-0.1L176.9,16.3 M165.1,17l0.2,0.1l2.3,1.5l-0.1,0.1l-7,4l0,0l-4.9-4l-0.3-0.3l1.7-0.8l0.2-0.1l2.2,1.7
					l0.4,0.3v0.1l0.1-0.1l0.2,0.2l-0.1-0.3l0.2-0.1L165.1,17 M170.7,20.1l1.6,1.1l0.3,0.2l0,0l0.2,0.1l2.7,1.8l-0.2,0.1l-4.6,3.3
					l-2-1.6l-0.3-0.3l-0.1-3.2l0.2-0.1L170.7,20.1 M166.4,27.1l0.1,0.1l1.5,1.3l-0.1,0.1l-5.9,4.3l-4.2-4.2l-0.3-0.3l1.1-0.7
					l0.1-0.1l2.4,2.3l0.4,0.4v0.2l0.1-0.1l0.3,0.2l-0.1-0.3l0.2-0.1L166.4,27.1 M161.1,3C161,3,161,3,161.1,3l-8.7,2.7l0,0l0,0
					c0,0,0,0-0.1,0l0,0l0,0l0,0l0,0l0,0c0,0,0,0,0,0.1l0,0l0,0l0,0l0,0l0,0l1.9,9.3c0,0.1,0.1,0.1,0.1,0.1l2.6,2l-1.9,0.9l0,0l0,0
					l0,0l0,0l0,0c0,0,0,0,0,0.1l0,0v0.1l0,0l0,0v0.1l0,0l1.5,7c0,0.1,0,0.1,0.1,0.1l1.8,1.7l-1.2,0.7c0,0,0,0-0.1,0.1l0,0
					c0,0,0,0,0,0.1l0,0v0.1v0.1l0,0l1.1,5.4c0,0.1,0,0.1,0.1,0.1l4.6,4.8l0,0l0,0c0,0,0,0,0.1,0l0,0l0,0h0.1h0.1l0,0l0,0l0,0l0,0
					L169,34c0.1-0.1,0.1-0.1,0.1-0.2l-0.1-3.2l1.9,1.7l0,0c0,0,0,0,0.1,0l0,0l0,0h0.1h0.1l0,0l0,0l0,0l0,0l4.7-3.7
					c0.1-0.1,0.1-0.1,0.1-0.1l0.1-2.3l1.5,1l0,0l0,0l0,0l0,0h0.1h0.1l0,0l0,0l0,0l0,0l3.8-3c0.1-0.1,0.1-0.1,0.1-0.1l0.7-5l0,0l0,0
					l0,0l0,0c0,0,0,0,0-0.1l0,0l0,0l0,0l0,0l0,0l0,0l0,0l-4.9-2.7h-0.1h-0.1l-4.1,2.5l0,0l0,0l0,0l0,0l0,0l0,0l0,0l0,0l-0.1,2.2
					l-1.7-1.1c-0.1,0-0.1-0.1-0.1-0.1c-0.1,0-0.1,0-0.1,0l-2.4,1.5l-0.1-2.4l0,0l0,0l0,0l0,0l0,0l0,0l0,0l0,0l-2.5-1.7l2.3-1.2
					c0.1-0.1,0.1-0.1,0.1-0.2l-0.4-9.2l0,0l0,0V6.3l0,0c0,0,0,0,0-0.1l0,0l0,0l0,0l0,0l-6.3-3C161.1,3,161.1,3,161.1,3L161.1,3z
					 M159.6,19l-5.1-4l-1.8-8.7l5.5,3.4L159.6,19L159.6,19z M160.1,19.1l-1.4-9.4l8.5-3.2l0.4,8.8L160.1,19.1L160.1,19.1z
					 M177.1,26.5l-1.3-0.9l0.1-2.4l0,0l0,0l0,0l0,0c0,0,0,0,0-0.1l0,0c0,0,0,0-0.1-0.1l0,0l0,0l-2.8-1.9l0.1-2l4.5,2.8L177.1,26.5
					L177.1,26.5z M161.2,29.6l-4.5-4.2l-1.3-6.3l4.9,4.1L161.2,29.6L161.2,29.6z M161.7,29.8l-1-6.7l7-4l0.3,6.5L161.7,29.8
					L161.7,29.8z M177.5,26.3l0.4-4.6l3.6-2.6l-0.6,4.4L177.5,26.3L177.5,26.3z M170.9,31.6l-0.1-4.8l4.6-3.3l-0.3,4.7L170.9,31.6
					L170.9,31.6z M170.5,31.6l-1.9-1.6l-0.1-1.6l0,0c0,0,0,0,0-0.1l0,0l0,0l0,0l0,0l0,0l0,0l-1.7-1.4l1.5-1.1
					c0.1-0.1,0.1-0.1,0.1-0.2v-0.4l2,1.6L170.5,31.6L170.5,31.6z M162.9,38l-0.7-5l5.9-4.3l0.2,4.9L162.9,38L162.9,38z M162.4,37.8
					l-4-4.3l-1-4.7l4.3,4.2L162.4,37.8L162.4,37.8z"/>
			</g>
		</g>
		<g>
			<path class="st3" d="M162.7,38.4l-0.8-5.4l6.4-4.6l0.2,5.4L162.7,38.4z M162.4,33.2l0.7,4.5l5.1-4.1l-0.2-4.4L162.4,33.2z"/>
		</g>
		<g>
			<path class="st3" d="M159.9,19.5l-1.5-9.8l8.9-3.4l0.4,9.2L159.9,19.5z M158.9,9.9l1.3,8.9l7.1-3.6l-0.4-8.4L158.9,9.9z"/>
		</g>
		<g>
			<path class="st3" d="M161.5,30.1l-1-7.2l7.4-4.2l0.3,6.9l-0.1,0.1L161.5,30.1z M161,23.2l0.9,6.3l6-4l-0.2-6L161,23.2z"/>
		</g>
		<g>
			<path class="st3" d="M170.7,32l-2.3-1.9l-0.1-1.7l-1.9-1.5l1.7-1.2v-0.8l2.5,1.8L170.7,32z M168.8,29.9l1.5,1.2l-0.1-4.2
				l-1.6-1.2c0,0.1,0,0.2-0.1,0.3l-1.3,0.9l1.6,1.3v0.2L168.8,29.9z"/>
		</g>
		<g>
			<path class="st3" d="M170.7,32.1l-0.1-5.3l5-3.6l-0.3,5.2L170.7,32.1z M171.1,27l0.1,4.2l3.8-3l0.2-4.2L171.1,27z"/>
		</g>
		<g>
			<path class="st3" d="M163.1,38.7h-0.4l-4.6-4.9c0,0-0.1-0.1-0.1-0.3l-1.1-5.7l0.1-0.1l1-0.6l-1.6-1.5c0,0-0.1-0.1-0.1-0.3
				l-1.5-7.2V18l1.7-0.8l-2.3-1.8c-0.1,0-0.2-0.1-0.2-0.3l-1.9-9.4V5.5h0.2l8.8-2.7l0,0l6.5,3.1v0.3l0.4,9.2c0,0.2-0.1,0.3-0.2,0.4
				h-0.1l-2,1l2.3,1.5l0.1,2.2l2.1-1.3h0.2c0.1,0,0.2,0,0.3,0.1l1.3,0.9l0.1-1.9l4.2-2.6h0.4l5,2.8v0.1c0.2,0.1,0.3,0.2,0.3,0.3l0,0
				l0,0l0,0h-0.2h0.2l-0.7,5c0,0.1-0.1,0.2-0.1,0.3l-3.9,3.1H177l-1.2-0.8l-0.1,1.9c0,0.2-0.1,0.3-0.2,0.3l-4.7,3.7h-0.3l-1.6-1.4
				l0.1,2.7c0,0.1,0,0.2-0.1,0.4L163.1,38.7z M162.9,38.3L162.9,38.3l5.8-4.6l-0.2-3.7l2.2,1.9l0,0l4.6-3.6l0.2-2.7l1.7,1.2l3.8-3
				l0.6-5c0,0-0.1-0.1-0.2-0.1l-0.1-0.1l0,0l-4.7-2.6h-0.2l-3.9,2.4l-0.1,2.4l-2-1.4h-0.1l-2.6,1.6l-0.1-2.7l-2.7-1.8l2.6-1.3
				c0,0,0,0,0.1-0.1L167.2,6L161,3l-8.5,2.7l1.9,9.2l2.9,2.2l-2.1,1v0.2l1.4,7l2,1.9l-1.4,0.8v0.1l1.1,5.4L162.9,38.3z"/>
		</g>
		<g>
			<path class="st3" d="M159.9,19.5l-5.6-4.3v-0.1l-1.9-9.2l6,3.7L159.9,19.5z M154.7,14.9l4.6,3.6l-1.2-8.6L153,6.8L154.7,14.9z"/>
		</g>
		<g>
			<path class="st3" d="M177.2,26.8l-1.7-1.2l0.1-2.5l0,0l-2.9-2v-2.6l4.9,3.1L177.2,26.8z M175.9,25.4l0.9,0.7l0.4-4.1l-4.1-2.6V21
				l2.9,2v0.2L175.9,25.4z"/>
		</g>
		<g>
			<g>
				<path class="st3" d="M158,30l3.4,3.3l0.5,3.4l-3.2-3.4L158,30 M157.4,28.9l1,4.7l4,4.3l-0.7-4.7L157.4,28.9L157.4,28.9z"/>
			</g>
		</g>
		<g>
			<path class="st3" d="M161.4,30.1l-5-4.7l-1.5-7l5.4,4.5L161.4,30.1z M156.8,25.2l4,3.8l-0.8-5.8l-4.4-3.7L156.8,25.2z"/>
		</g>
		<g>
			<path class="st3" d="M177.3,26.8l0.4-5.1l4-2.9l-0.7,5L177.3,26.8z M178.1,22l-0.3,3.9l2.9-2.3l0.5-3.9L178.1,22z"/>
		</g>
	</g>
	<g class="st2">
		<path class="st3" d="M43.8,16c-0.6,0.1-0.9,0.3-0.6,1.1c0.5,1.1,0.9,2.2,1.3,3.3c0.1,0.3,0.2,0.6,0.6,0.2c1.2-0.9,2.1-2.1,2.8-3.5
			c0.2-0.4,0-0.6-0.4-0.6C46.3,16.4,45.1,16.3,43.8,16z M38.8,6.5c-0.5-0.2,0.7-1.3-0.5-1.1c-1.5,0.2-2.8,0.9-3.9,1.8
			c-0.4,0.3-0.2,0.5,0.1,0.7c0.9,0.6,1.8,1.3,2.8,2c0.8,0.6,1.3,0.3,1.3-0.6C38.7,8.4,38.7,7.5,38.8,6.5z M31.4,13.8
			c-0.2,0.7,0.2,0.9,1,0.6c0.9-0.4,2-0.6,2.9-0.9c0.8-0.2,0.9-0.7,0.3-1.3c-0.8-0.8-1.7-1.5-2.5-2.3c-0.5-0.4-0.7-0.4-0.9,0.2
			C31.8,11.2,31.5,12.3,31.4,13.8z M48.7,13.8c-0.1-1.4-0.3-2.6-0.9-3.8c-0.2-0.5-0.5-0.6-0.9-0.2c-0.8,0.8-1.7,1.5-2.5,2.3
			c-0.6,0.6-0.6,1.1,0.3,1.3c1,0.3,2.1,0.6,3.1,0.9C48.5,14.6,48.8,14.4,48.7,13.8z M41.3,7.2c0,0.6,0.1,1.3,0.2,2.1
			c0.1,0.9,0.5,1,1.2,0.6c0.9-0.6,1.8-1.3,2.8-2c0.6-0.4,0.4-0.6,0-0.9c-0.7-0.6-1.5-1-2.4-1.3C41.2,5.1,41.2,5.1,41.3,7.2z
			 M36.3,16.1c-1.3,0.2-2.5,0.5-3.8,0.6c-0.4,0.1-0.4,0.2-0.2,0.6c0.6,1.3,1.5,2.4,2.7,3.4c0.3,0.2,0.5,0.2,0.6-0.2
			c0.5-1.2,0.9-2.3,1.4-3.5C37.1,16.5,36.8,16.1,36.3,16.1z M40.1,22.4c0.6,0,1.3-0.1,2-0.2c0.5-0.1,0.6-0.2,0.3-0.7
			c-0.6-1-1.1-2.1-1.7-3.1c-0.4-0.7-0.9-0.7-1.3,0.1c-0.3,0.5-0.6,1-0.9,1.6C37.2,22.3,37.2,22.4,40.1,22.4z M41.4,13.7
			c-0.2-0.5-0.3-1-1.2-1.2c-0.9-0.1-1.3,0.4-1.6,1.1c-0.2,0.7,0.5,1.5,1.3,1.6C40.5,15.3,41.3,14.6,41.4,13.7z"/>
		<path class="st3" d="M36.3,16.1c0.6,0.1,0.9,0.4,0.6,1c-0.5,1.2-0.9,2.3-1.4,3.5c-0.2,0.4-0.3,0.4-0.6,0.2
			c-1.2-0.9-2.1-2.1-2.7-3.4c-0.2-0.3-0.2-0.6,0.2-0.6C33.7,16.5,34.9,16.3,36.3,16.1z"/>
		<g>
			<path class="st3" d="M40-5.8c0.6,0,1,0.2,1.7,0.4c3.8,1.9,7.9,3.8,12.8,6.2c1,0.5,1.5,1.1,1.8,2.2c0.9,4.2,2,8.7,3.2,14.1
				c0.2,0.9,0.1,1.7-0.6,2.4c-2.8,3.5-5.8,7.3-9.2,11.5c-0.6,0.7-1.2,1-1.8,1c-0.1,0-0.1,0-0.2,0c0,0-6.4,0-11,0h-3.2
				c-0.6,0-1,0-1.3,0l0,0h-0.1c-0.6,0-1.2-0.3-1.7-0.9l-1.7-2.3c-2.5-3.2-5.1-6.3-7.6-9.4c-0.6-0.7-0.7-1.5-0.6-2.4
				c1.3-5.4,2.3-10,3.2-14.3c0.2-1,0.7-1.7,1.7-2.1c4.7-2.2,8.8-4.2,12.8-6.2C39-5.7,39.4-5.8,40-5.8 M31.9,5.5
				c-0.2,0-0.3-0.1-0.5-0.2c-0.2-0.2-0.4-0.4-0.6-0.6s-0.4-0.4-0.6-0.6c-0.4-0.4-0.8-0.6-1.2-0.6c-0.2,0-0.6,0.1-0.9,0.5
				s-0.4,0.8-0.3,1c0.1,0.4,0.3,0.8,0.8,1.1c0.2,0.2,0.5,0.3,0.7,0.5s0.5,0.3,0.7,0.5c0.6,0.4,0.6,0.6,0.3,1.1
				c-1.1,1.9-1.6,3.9-1.4,6.2c0.1,0.6-0.2,0.9-0.8,0.9c-0.2,0.1-0.6,0.1-0.8,0.1s-0.5,0.1-0.8,0.1c-0.6,0.1-1,0.3-1.3,0.6
				c-0.2,0.3-0.2,0.6-0.2,1c0.2,0.7,0.6,1,1.3,1c0.3,0,0.6-0.1,0.9-0.2c0.2-0.1,0.5-0.2,0.8-0.2c0.2-0.1,0.5-0.2,0.6-0.2
				c0.2-0.1,0.4-0.1,0.6-0.1s0.5,0.1,0.6,0.6c0.6,1.5,1.6,2.8,2.6,3.9c0.2,0.2,0.6,0.5,0.9,0.6c0.5,0.3,0.8,0.5,0.9,0.9
				c0.1,0.6-0.2,0.9-0.6,1.4c-0.2,0.2-0.3,0.5-0.5,0.7c-0.5,0.9-0.3,1.6,0.5,2c0.2,0.2,0.5,0.2,0.7,0.2c0.6,0,0.9-0.3,1.3-0.9
				c0.2-0.3,0.2-0.6,0.3-0.9s0.2-0.6,0.3-0.9c0.2-0.6,0.5-0.6,0.6-0.6s0.2,0,0.3,0.1c1.1,0.3,2.2,0.6,3.3,0.6c1,0,2.1-0.2,3.2-0.5
				c0.2-0.1,0.2-0.1,0.3-0.1c0.2,0,0.4,0.1,0.6,0.5c0.2,0.4,0.3,0.9,0.5,1.3l0.1,0.2c0.2,0.4,0.4,1.2,1.3,1.3c0.1,0,0.2,0,0.2,0
				c0.4,0,0.8-0.2,1-0.6c0.5-0.8,0.1-1.4-0.2-1.9c-0.1-0.1-0.2-0.2-0.2-0.3c-0.2-0.2-0.3-0.6-0.5-0.8c-0.3-0.6-0.3-0.9,0.2-1.3
				c1.3-0.9,2.3-2.1,3.1-3.3c0.2-0.3,0.3-0.6,0.5-1c0.2-0.6,0.3-0.9,0.7-1.1c0.2-0.1,0.2-0.1,0.4-0.1c0.3,0,0.7,0.2,1.1,0.3
				c0.2,0.2,0.6,0.2,0.9,0.3c0.2,0.1,0.4,0.1,0.6,0.1c0.6,0,1.1-0.3,1.3-0.9c0.1-0.3,0.1-0.6-0.1-0.9c-0.2-0.4-0.8-0.6-1.2-0.7
				c-0.4-0.1-0.9-0.2-1.3-0.2c-0.2,0-0.3,0-0.5-0.1c-0.8-0.1-0.9-0.3-0.9-1c0.2-2.1-0.3-4.1-1.4-6.1c-0.3-0.6-0.2-0.8,0.2-1.1
				c0.2-0.2,0.5-0.3,0.7-0.5s0.6-0.3,0.8-0.5c0.5-0.3,0.7-0.7,0.8-1.1c0-0.2,0-0.6-0.3-1c-0.3-0.5-0.7-0.6-1-0.6
				c-0.4,0-0.8,0.2-1.1,0.6c-0.2,0.2-0.3,0.3-0.5,0.5S49.2,5,49,5.2s-0.5,0.3-0.6,0.3S48,5.4,47.8,5.2c-1.5-1.4-3.4-2.4-5.6-2.7
				c-0.6-0.1-0.8-0.3-0.7-0.9c0-0.2,0-0.6,0.1-0.8c0-0.5,0.1-0.9,0.1-1.3s-0.2-0.7-0.4-0.9s-0.6-0.4-0.9-0.4l0,0l0,0
				c-0.4,0-0.7,0.2-0.9,0.4s-0.3,0.6-0.3,0.9s0.1,0.9,0.1,1.3c0,0.2,0,0.4,0.1,0.6c0.1,0.9-0.1,1.1-0.9,1.2
				c-2.1,0.2-3.9,1.2-5.5,2.8C32.3,5.5,32.1,5.5,31.9,5.5 M40-6.3c-0.6,0-1.2,0.2-1.8,0.5c-4.3,2.1-8.5,4.1-12.8,6.2
				c-1,0.5-1.7,1.3-1.9,2.4c-1,4.7-2.1,9.5-3.2,14.3c-0.2,1-0.1,2,0.6,2.8c3.2,3.9,6.2,7.7,9.4,11.7c0.6,0.6,1.2,1.1,2,1.1h0.1
				c0,0,2,0,4.5,0c4.6,0,11,0,11,0c0.1,0,0.1,0,0.2,0c0.9,0,1.6-0.5,2.2-1.3c3.1-3.9,6.2-7.7,9.2-11.5c0.7-0.9,0.9-1.7,0.6-2.8
				C59,12.4,57.9,7.7,56.9,3c-0.2-1.2-0.9-2.1-2.1-2.5c-4.3-2.1-8.5-4-12.8-6.2C41.2-6.1,40.6-6.3,40-6.3L40-6.3z M31.9,6
				c0.2,0,0.6-0.2,0.8-0.4C34.2,4.2,35.9,3.2,38,3c1.2-0.2,1.4-0.7,1.3-1.7c-0.1-0.6-0.2-1.2-0.2-1.8s0.3-0.9,0.9-0.9l0,0
				c0.6,0,0.9,0.3,0.9,0.9c0,0.7-0.1,1.4-0.2,2.1c-0.1,0.8,0.2,1.3,1.1,1.3c2.1,0.3,3.9,1.2,5.4,2.6C47.5,5.8,47.8,6,48.1,6
				s0.6-0.2,0.9-0.5c0.4-0.4,0.8-0.8,1.2-1.2c0.2-0.2,0.6-0.4,0.8-0.4s0.5,0.1,0.6,0.4c0.5,0.6,0.2,1.1-0.4,1.4
				c-0.5,0.3-1,0.6-1.5,0.9c-0.6,0.5-0.9,0.9-0.4,1.7c1,1.8,1.5,3.8,1.3,5.8c-0.1,1,0.4,1.4,1.3,1.5c0.6,0.1,1.1,0.1,1.7,0.2
				c0.6,0.2,1.1,0.5,0.9,1.1c-0.1,0.5-0.5,0.6-0.9,0.6c-0.2,0-0.3,0-0.5-0.1c-0.7-0.2-1.3-0.7-2.1-0.7c-0.2,0-0.4,0-0.6,0.2
				c-0.9,0.4-0.9,1.5-1.4,2.3c-0.9,1.2-1.7,2.4-3,3.2c-0.9,0.6-0.8,1.2-0.4,1.9c0.2,0.4,0.5,0.8,0.7,1.2c0.3,0.4,0.6,0.9,0.2,1.3
				c-0.2,0.2-0.4,0.4-0.7,0.4c-0.1,0-0.1,0-0.2,0c-0.6-0.1-0.8-0.6-0.9-1c-0.2-0.5-0.3-1-0.6-1.5c-0.2-0.5-0.6-0.7-0.9-0.7
				c-0.2,0-0.3,0-0.5,0.1c-1,0.3-2.1,0.5-3.1,0.5s-2.1-0.2-3.2-0.5c0.4,0.2,0.2,0.2,0,0.2c-0.6,0-0.8,0.4-1,0.9
				c-0.2,0.6-0.4,1.2-0.7,1.8c-0.2,0.4-0.5,0.6-0.9,0.6c-0.2,0-0.3-0.1-0.5-0.2c-0.6-0.3-0.6-0.9-0.2-1.4c0.4-0.8,1.3-1.4,1.1-2.4
				s-1.3-1.2-1.8-1.8c-1-1.1-2-2.3-2.4-3.7c-0.2-0.7-0.6-0.9-1.1-0.9c-0.2,0-0.4,0.1-0.6,0.1c-0.5,0.2-0.9,0.4-1.4,0.5
				c-0.2,0.1-0.5,0.2-0.7,0.2c-0.4,0-0.7-0.2-0.8-0.7c-0.2-0.8,0.4-1,1.1-1.2c0.6-0.1,1.1-0.1,1.6-0.2c0.8-0.2,1.3-0.5,1.2-1.4
				c-0.2-2.1,0.2-4.1,1.3-5.9c0.5-0.8,0.2-1.3-0.4-1.7c-0.5-0.3-0.9-0.6-1.4-0.9c-0.6-0.4-0.9-0.9-0.4-1.5c0.2-0.2,0.4-0.3,0.6-0.3
				c0.3,0,0.6,0.2,0.9,0.5c0.5,0.4,0.9,0.9,1.3,1.3C31.4,5.9,31.6,6,31.9,6L31.9,6z"/>
		</g>
	</g>
	<g class="st2">
		<path class="st3" d="M77.4,60c-0.1,0.2-0.2,0.3-0.4,0.3s-0.4-0.2-0.6-0.3l-0.1-0.1c0-0.1,0.1-0.2,0.1-0.3s0.1-0.2,0.1-0.3
			c0.1-0.2,0.2-0.4,0.3-0.6c0.1-0.2,0.2-0.5,0.3-0.7c0.1-0.3,0.3-0.6,0.4-0.8c0.2-0.3,0.3-0.6,0.5-1v-0.1c0.3-0.6,0.6-1.3,0.9-1.9
			c0.2-0.5,0.4-1,0.6-1.5c0.1-0.3,0.3-0.6,0.2-1c0-0.2-0.2-0.4-0.3-0.6c-0.1-0.4,0.8-0.4,1-0.4c0.3,0,0.7-0.1,1-0.1s0.5,0,0.8,0
			c0.2,0,0.5,0,0.7,0.1c0.2,0.2,0.2,0.5,0.3,0.7c0.1,0.4,0.1,0.8,0.1,1.2c0,0.2,0,0.4,0,0.6c0,0.7,0,1.4,0,2c0,0.5,0,1,0,1.4
			c0,1.1,0.1,1.9,0.3,2.4c0.1,0.2,0.2,0.3,0.2,0.3c0.2,0,0.3,0,0.4-0.1c0.1,0,0.2-0.1,0.2-0.2c0.1,0,0.2-0.1,0.2,0s0.1,0.2,0.1,0.2
			c0,0.1,0.1,0.1,0.1,0.2s-0.1,0.1-0.2,0.2s-0.2,0.1-0.2,0.2c-0.2,0.1-0.3,0.2-0.5,0.3c-0.1,0-0.2,0.1-0.3,0.2
			c-0.4,0.2-0.8,0.3-1.2,0.3c-0.2,0-0.4-0.1-0.6-0.1c-0.2-0.1-0.3-0.2-0.4-0.3c-0.3-0.4-0.4-1-0.4-1.5c0-0.2,0-0.4,0-0.5
			s0-0.2,0-0.4c0-0.1,0.1-0.2,0-0.4c0-0.1-0.2-0.1-0.2-0.1c-0.6,0-1.2,0-1.8,0c-0.2,0-0.5,0-0.7,0.2c-0.1,0.2-0.2,0.4-0.2,0.6
			c-0.1,0.2-0.2,0.5-0.3,0.7c0,0.1-0.1,0.3-0.2,0.4c0,0.2-0.1,0.3-0.2,0.5C77.5,59.6,77.5,59.8,77.4,60z M81.2,56.2v-1.6
			c0-1.4-0.1-2.3-0.2-2.8c-0.1,0-0.1,0-0.2,0c-0.2,0.7-0.5,1.3-0.7,1.8s-0.5,1-0.7,1.6c-0.3,0.6-0.4,0.9-0.5,1H81.2z"/>
		<path class="st3" d="M85.1,54.3c0,0,0.1,0,0.2,0s0.2,0,0.4,0c0.3,0,0.6,0,0.9-0.1c0.2,0,0.4,0,0.6,0c0.1,0,0.2,0,0.2,0
			s0,0.1,0,0.2s0,0.1,0,0.2s0,0.1,0,0.2v0.1V55c0.7-0.6,1.3-0.9,1.7-0.9c0.4,0,0.8,0.2,1.2,0.6c0.3,0.4,0.4,1,0.4,1.7
			c0,1.3-0.2,2.3-0.7,3c-0.5,0.6-1.2,1-1.9,1c-0.2,0-0.5,0-0.8-0.1c-0.1,0-0.2-0.1-0.2-0.2s0-0.2,0.1-0.2c0,0,0.1,0,0.2-0.1
			c0.1,0,0.1-0.1,0.2-0.1c0.1-0.1,0.2-0.2,0.4-0.3c0.3-0.3,0.5-0.6,0.6-0.9c0.3-0.7,0.5-1.7,0.2-2.5c-0.1-0.2-0.2-0.5-0.4-0.6
			c-0.2-0.1-0.4,0-0.6,0.1c-0.4,0.4-0.5,1-0.6,1.5c-0.1,0.8-0.2,1.6-0.4,2.3c-0.1,0.5-0.2,1-0.3,1.6c-0.1,0.5-0.1,0.9-0.2,1.4
			c0,0.1,0,0.3,0,0.4s0,0.2-0.1,0.2C86.1,63,86,63,85.8,63s-0.4,0.1-0.6,0.1c-0.1,0-0.2,0-0.3,0s-0.2,0-0.4,0c-0.1,0-0.2,0-0.2,0
			l0,0c-0.1-0.1-0.1-0.2-0.1-0.3s0-0.2,0-0.4s0-0.5,0.1-0.7c0-0.2,0.1-0.4,0.1-0.6s0.1-0.5,0.2-0.8s0.1-0.6,0.2-0.9v-0.1
			c0.4-1.6,0.6-2.9,0.6-3.8c0-0.2,0-0.4-0.1-0.6c0-0.1-0.1-0.2-0.2-0.4C85.1,54.5,85,54.4,85.1,54.3c-0.1,0-0.2-0.1-0.2-0.2
			C85,54.4,85.1,54.4,85.1,54.3z"/>
		<path class="st3" d="M102.3,58.4c0,0.6-0.2,1-0.8,1.4c-0.2,0.1-0.4,0.2-0.6,0.3c-0.1,0-0.2,0.1-0.4,0.1c-0.2,0.1-0.5,0.1-0.8,0.2
			c-0.6,0-1.2,0-1.6-0.4c-0.4-0.3-0.5-0.7-0.3-1.2c0.2-0.4,0.7-0.7,1.1-0.6c0.5,0.1,0.7,0.6,0.9,1c0,0.1,0.1,0.2,0.1,0.3
			s0.1,0.2,0.3,0.2c0.2,0,0.3-0.2,0.3-0.3c0,0,0-0.1,0-0.2c0-0.4-0.4-1-1.1-1.8c-0.8-0.8-1.1-1.4-1.1-1.9s0.2-0.8,0.6-1.1
			c0.4-0.2,0.9-0.4,1.5-0.4s1,0.1,1.3,0.3s0.4,0.5,0.4,0.8s-0.3,0.8-0.8,1.5c0.1,0.1,0.2,0.2,0.2,0.2c0.1,0.1,0.2,0.3,0.4,0.6
			C102.2,57.9,102.3,58.1,102.3,58.4z M101.6,55.2c0-0.3-0.2-0.5-0.7-0.5c-0.2,0-0.4,0-0.5,0.1s-0.2,0.2-0.2,0.3
			c0,0.2,0.2,0.5,0.6,0.8l0.2,0.2C101.4,55.9,101.6,55.6,101.6,55.2z"/>
		<path class="st3" d="M106.2,60.4c-0.8,0-1.6-0.4-2.1-1s-0.8-1.6-0.8-2.7s0.2-2.1,0.6-3.1c0.4-0.9,1-1.7,1.7-2.3s1.5-0.9,2.3-0.9
			s1.5,0.2,2,0.6s0.8,0.8,0.8,1.3c0,0.2,0,0.5-0.1,0.7c0,0.2-0.1,0.3-0.2,0.5c-0.2,0.2-0.3,0.1-0.6,0.1c-0.2,0-0.4-0.1-0.6-0.2
			s-0.5-0.2-0.7-0.4c-0.2-0.1-0.1-0.3-0.1-0.5c0-0.1,0-0.3,0.1-0.4c0-0.1,0-0.3,0.1-0.4c0-0.2,0-0.3-0.3-0.4c-0.2,0-0.4-0.1-0.6-0.1
			c-0.6,0-1.1,0.5-1.5,1.4c-0.4,1-0.6,2.1-0.6,3.5c0,0.9,0.2,1.6,0.5,2s0.7,0.6,1.1,0.6c0.3,0,0.6,0,0.8-0.2
			c0.3-0.1,0.6-0.3,0.8-0.5c0.1-0.1,0.2-0.2,0.3-0.2c0,0,0.1-0.1,0.2-0.1s0.1,0,0.2,0.1s0.2,0.2,0.3,0.2c0.1,0.1,0.2,0.2,0.1,0.2
			c0,0.1-0.1,0.1-0.2,0.2s-0.2,0.2-0.3,0.3c-0.3,0.2-0.5,0.5-0.8,0.6c-0.2,0.2-0.6,0.3-1,0.5C107,60.3,106.6,60.4,106.2,60.4z"/>
		<path class="st3" d="M112.3,60.4c-0.6,0-1.1-0.2-1.5-0.7c-0.4-0.4-0.6-1.1-0.6-1.9c0-1,0.3-1.9,0.8-2.6c0.6-0.7,1.3-1.1,2.3-1.1
			h0.5c0.2-0.1,0.3-0.1,0.5-0.1c0.7,0,1.1,0.7,1.1,2.1c0.4,0,0.8-0.1,1.2-0.2h0.2l0.1,0.6c-0.3,0.1-0.7,0.2-1.2,0.4h-0.3
			c-0.2,1-0.5,1.8-1.1,2.5C113.8,60,113.2,60.4,112.3,60.4z M113.1,59.2c0.4,0,0.7-0.2,1-0.8c0.3-0.5,0.5-1,0.6-1.6
			c-1,0-1.5-0.4-1.5-1.1c0-0.3,0.1-0.6,0.2-0.8l0.1-0.1h-0.1h-0.1c-0.2,0.2-0.4,0.5-0.6,1s-0.3,1.2-0.3,1.9
			C112.3,58.7,112.6,59.2,113.1,59.2z"/>
		<path class="st3" d="M122.5,59.3C122.5,59.3,122.5,59.4,122.5,59.3c-0.1,0.2-0.3,0.2-0.4,0.3c-0.2,0.1-0.3,0.2-0.5,0.3
			s-0.5,0.3-0.8,0.3c-0.1,0-0.3,0-0.4,0c-0.6,0-0.9-0.3-1-0.9c-0.3,0.3-0.6,0.5-0.9,0.6c-0.4,0.2-0.6,0.2-0.9,0.2
			c-0.4,0-0.8-0.2-1.1-0.6c-0.3-0.4-0.5-1-0.5-1.8c0-1.2,0.2-2.1,0.8-2.9c0.5-0.7,1.1-1,1.7-1s1.2,0.2,1.6,0.4
			c0.1-0.6,0.2-1.1,0.3-1.6c0.1-0.4,0.1-0.9,0.1-1.3c0-0.3,0-0.6,0-0.9c0-0.2,0-0.3,0.2-0.3c0.1,0,0.2,0,0.2-0.1
			c0.2-0.1,0.5-0.1,0.7-0.2c0.1,0,0.3,0,0.4,0c0.2,0,0.5-0.1,0.5,0.2c0.1,0.4,0,0.8,0,1.3c0,0.3-0.1,0.6-0.1,0.8
			c0,0.3-0.1,0.7-0.2,1c-0.1,0.4-0.2,0.8-0.2,1.2c0,0,0,0.1,0,0.2c-0.4,2.1-0.6,3.5-0.6,4.2c0,0.2,0,0.3,0.2,0.3
			c0.1,0,0.2,0,0.2-0.1c0.1,0,0.1-0.1,0.2-0.1s0.1-0.1,0.2-0.1s0.1,0,0.1,0.1s0.1,0.1,0.1,0.2C122.5,59.2,122.5,59.3,122.5,59.3z
			 M119.2,54.9c-0.3,0-0.6,0.3-0.8,1c-0.2,0.6-0.4,1.3-0.4,1.9s0,1,0.1,1.2s0.2,0.3,0.4,0.3c0.3,0,0.6-0.1,0.9-0.4
			c0-0.4,0.2-1.6,0.6-3.7C119.8,55,119.5,54.9,119.2,54.9z"/>
		<path class="st3" d="M122.9,57.8c0-1.2,0.4-2.1,1-2.7c0.7-0.7,1.5-1,2.3-1c0.6,0,1,0.1,1.4,0.4c0.4,0.3,0.5,0.6,0.5,1.1
			c0,0.4-0.1,0.8-0.3,1.1s-0.5,0.6-0.8,0.7c-0.6,0.3-1.2,0.5-1.8,0.6h-0.3c0.1,0.9,0.4,1.3,1.1,1.3c0.2,0,0.4,0,0.7-0.2
			c0.1,0,0.2-0.1,0.3-0.2s0.2-0.2,0.3-0.2s0.2-0.1,0.2,0c0,0,0.1,0.1,0.2,0.2c0,0,0.1,0.1,0.1,0.2s-0.1,0.2-0.2,0.2
			c-0.1,0.1-0.2,0.2-0.3,0.2c-0.2,0.2-0.4,0.3-0.6,0.4c-0.5,0.3-1.1,0.4-1.7,0.4s-1.2-0.2-1.5-0.7C123.1,59.2,122.9,58.6,122.9,57.8
			z M126,56.7c0.3-0.3,0.4-0.7,0.4-1.2s-0.2-0.8-0.4-0.8c-0.4,0-0.6,0.3-0.8,0.9s-0.3,1.2-0.3,1.7C125.3,57.3,125.7,57.1,126,56.7z"
			/>
		<path class="st3" d="M91.7,54.3c0,0,0.1,0,0.2,0s0.2,0,0.4,0c0.3,0,0.6,0,0.9-0.1c0.2,0,0.4,0,0.6,0c0.1,0,0.2,0,0.2,0
			s0,0.1,0,0.2s0,0.1,0,0.2s0,0.1,0,0.2v0.1V55c0.7-0.6,1.3-0.9,1.7-0.9s0.8,0.2,1.2,0.6c0.3,0.4,0.4,1,0.4,1.7c0,1.3-0.2,2.3-0.7,3
			c-0.5,0.6-1.2,1-1.9,1c-0.2,0-0.5,0-0.8-0.1c-0.1,0-0.2-0.1-0.2-0.2s0-0.2,0.1-0.2c0,0,0.1,0,0.2-0.1c0.1,0,0.1-0.1,0.2-0.1
			c0.1-0.1,0.2-0.2,0.4-0.3c0.3-0.3,0.5-0.6,0.6-0.9c0.3-0.7,0.5-1.7,0.2-2.5c-0.1-0.2-0.2-0.5-0.4-0.6c-0.2-0.1-0.4,0-0.6,0.1
			c-0.4,0.4-0.5,1-0.6,1.5c-0.1,0.8-0.2,1.6-0.4,2.3c-0.1,0.5-0.2,1-0.3,1.6c-0.1,0.5-0.1,0.9-0.2,1.4c0,0.1,0,0.3,0,0.4
			s0,0.2-0.1,0.2C92.7,63,92.6,63,92.4,63s-0.4,0.1-0.6,0.1c-0.1,0-0.2,0-0.3,0s-0.2,0-0.4,0c-0.1,0-0.2,0-0.2,0l0,0
			c-0.1-0.1-0.1-0.2-0.1-0.3s0-0.2,0-0.4s0-0.5,0.1-0.7c0-0.2,0.1-0.4,0.1-0.6s0.1-0.5,0.2-0.8s0.1-0.6,0.2-0.9v-0.1
			c0.4-1.6,0.6-2.9,0.6-3.8c0-0.2,0-0.4-0.1-0.6c0-0.1-0.1-0.2-0.2-0.4C91.7,54.5,91.6,54.4,91.7,54.3c-0.1,0-0.2-0.1-0.2-0.2
			C91.6,54.4,91.7,54.4,91.7,54.3z"/>
	</g>
</g>
<path class="st5" d="M77.7,59.9c2,0.6,3.5,1.3,5.1,1.3c4.6,0.4,8.8-1.9,10.9-6c2.3-4.4,1.7-10.4-1.4-14c-3.2-3.8-7.4-4.9-12-3.6
	c-2.6,0.8-3.1,0.3-2.9-2.1c0.2-1.5,0-3.1,0-4.6c0-4.5,2.8-7.5,7.4-7.6c3.2-0.1,6.4,0,9.7,0c1.5,0,3-0.2,3.8-1.7
	c0.7-1.5-0.1-2.6-1-3.8c-1.8-2.7-2.5-5.5-0.6-8.5c1.8-2.8,4.7-3.6,8-3.2c5,0.7,7.6,5.9,5.3,10.3c-0.4,0.8-1,1.5-1.4,2.2
	c-1.4,2.4-0.6,4.5,2.2,4.6c3.5,0.3,7,0.2,10.4,0.2c5.3,0,7.7,2.5,7.8,7.8c0,3,0,6.1,0,9.1c0,1.5,0.2,3,1.6,3.9
	c1.5,0.9,2.8-0.1,4.1-1c3.3-2.3,6.2-2.4,8.9-0.4c2.6,1.9,3.6,5.7,2.3,9.2c-1.5,4.3-6,6-10,3.8c-0.7-0.4-1.3-0.9-1.9-1.3
	c-2.5-1.5-4.7-0.5-4.9,2.4c-0.2,3.5,0,7-0.1,10.4c0,5-2.5,7.5-7.5,7.7c-3,0.1-6.1,0-9.1,0c-1.5,0-3.2-0.1-4.2,1.6
	c-1,1.7,0.2,2.9,1.1,4.3c2.1,3.2,2.2,6.4,0.2,8.9c-1.9,2.5-6.1,3.5-9.3,2.1c-4.3-1.7-5.8-6.3-3.5-10.3c0.4-0.7,1-1.3,1.3-1.9
	c1.3-2.3,0.4-4.3-2.2-4.4c-3.2-0.3-6.5-0.2-9.7-0.2c-6.6,0-8.6-2-8.6-8.5C77.7,64.4,77.7,62.3,77.7,59.9z"/>
<path class="st5" d="M132.6,59.8c2,0.6,3.5,1.3,5.1,1.3c4.6,0.4,8.8-1.9,10.9-6c2.3-4.4,1.7-10.4-1.4-14c-3.2-3.8-7.4-4.9-12-3.6
	c-2.6,0.8-3.1,0.3-2.9-2.1c0.2-1.5,0-3.1,0-4.6c0-4.5,2.8-7.5,7.4-7.6c3.2-0.1,6.4,0,9.7,0c1.5,0,3-0.2,3.8-1.7
	c0.7-1.5-0.1-2.6-1-3.8c-2-2.6-2.6-5.5-0.7-8.4c1.8-2.8,4.7-3.6,8-3.2c5,0.7,7.6,5.9,5.3,10.3c-0.4,0.8-1,1.5-1.4,2.2
	c-1.4,2.4-0.6,4.5,2.2,4.6c3.5,0.3,7,0.2,10.4,0.2c5.3,0,7.7,2.5,7.8,7.8c0,3,0,6.1,0,9.1c0,1.5,0.2,3,1.6,3.9
	c1.5,0.9,2.8-0.1,4.1-1c3.3-2.3,6.2-2.4,8.9-0.4c2.6,1.9,3.6,5.7,2.3,9.2c-1.5,4.3-6,6-10,3.8c-0.7-0.4-1.3-0.9-1.9-1.3
	c-2.5-1.5-4.7-0.5-4.9,2.4c-0.2,3.5,0,7-0.1,10.4c0,5-2.5,7.5-7.5,7.7c-3,0.1-6.1,0-9.1,0c-1.5,0-3.2-0.1-4.2,1.6
	c-1,1.7,0.2,2.9,1.1,4.3c2.1,3.2,2.2,6.4,0.2,8.9c-1.9,2.5-6.1,3.5-9.3,2.1c-4.3-1.7-5.8-6.3-3.5-10.3c0.4-0.7,1-1.3,1.3-1.9
	c1.3-2.3,0.4-4.3-2.2-4.4c-3.2-0.3-6.4-0.2-9.6-0.2c-6.6,0-8.6-2-8.6-8.5C132.6,64.4,132.6,62.3,132.6,59.8z"/>
<path class="st5" d="M60.4,75.2c0.6-2,1.3-3.5,1.3-5.1c0.4-4.6-1.9-8.8-6-10.9c-4.4-2.3-10.4-1.7-14,1.4c-3.8,3.2-4.9,7.4-3.6,12
	c0.8,2.6,0.3,3.1-2.1,2.9c-1.5-0.2-3.1,0-4.6,0c-4.5,0-7.5-2.8-7.6-7.4c-0.1-3.2,0-6.4,0-9.7c0-1.5-0.2-3-1.7-3.8
	c-1.5-0.7-2.6,0.1-3.8,1c-2.6,2-5.5,2.6-8.4,0.7c-2.9-2-3.7-4.9-3.3-8.1c0.7-5,5.9-7.6,10.3-5.3c0.8,0.4,1.5,1,2.2,1.4
	c2.4,1.4,4.5,0.6,4.6-2.2c0.3-3.5,0.2-7,0.2-10.4c0-5.3,2.5-7.7,7.8-7.8c3,0,6.1,0,9.1,0c1.5,0,3-0.2,3.9-1.6c0.9-1.5-0.1-2.8-1-4.1
	c-2.3-3.3-2.4-6.2-0.4-8.9c1.9-2.6,5.7-3.6,9.2-2.3c4.3,1.5,6,6,3.8,10c-0.4,0.7-0.9,1.3-1.3,1.9c-1.5,2.5-0.5,4.7,2.4,4.9
	c3.5,0.2,7,0,10.4,0.1c5,0,7.5,2.5,7.7,7.5c0.1,3,0,6.1,0,9.1c0,1.5-0.1,3.2,1.6,4.2c1.7,1,2.9-0.2,4.3-1.1c3.2-2.1,6.4-2.2,8.9-0.2
	c2.5,1.9,3.5,6.1,2.1,9.3c-1.7,4.3-6.3,5.8-10.3,3.5c-0.7-0.4-1.3-1-1.9-1.3c-2.3-1.3-4.3-0.4-4.4,2.2c-0.3,3.2-0.2,6.4-0.2,9.6
	c0,6.6-2,8.6-8.5,8.6C65,75.2,62.8,75.2,60.4,75.2z"/>
<path class="st5" d="M75.5,93.3c-2-0.6-3.5-1.3-5.1-1.3c-4.6-0.4-8.8,1.9-10.9,6c-2.3,4.4-1.7,10.4,1.4,14c3.2,3.8,7.4,4.9,12,3.6
	c2.6-0.8,3.1-0.3,2.9,2.1c-0.2,1.5,0,3.1,0,4.6c0,4.5-2.8,7.5-7.4,7.6c-3.2,0.1-6.4,0-9.7,0c-1.5,0-3,0.2-3.8,1.7
	c-0.7,1.5,0.1,2.6,1,3.8c2,2.6,2.6,5.5,0.7,8.4c-1.8,2.8-4.7,3.6-8,3.2c-5-0.7-7.6-5.9-5.3-10.3c0.4-0.8,1-1.5,1.4-2.2
	c1.4-2.4,0.6-4.5-2.2-4.6c-3.5-0.3-7-0.2-10.4-0.2c-5.3,0-7.7-2.5-7.8-7.8c0-3,0-6.1,0-9.1c0-1.5-0.2-3-1.6-3.9
	c-1.5-0.9-2.8,0.1-4.1,1c-3.3,2.3-6.2,2.4-8.9,0.4c-2.6-1.9-3.6-5.7-2.3-9.2c1.5-4.3,6-6,10-3.8c0.7,0.4,1.3,0.9,1.9,1.3
	c2.5,1.5,4.7,0.5,4.9-2.4c0.2-3.5,0-7,0.1-10.4c0-5,2.5-7.5,7.5-7.7c3-0.1,6.1,0,9.1,0c1.5,0,3.2,0.1,4.2-1.6c1-1.7-0.2-2.9-1.1-4.3
	c-2.1-3.2-2.2-6.4-0.2-8.9c1.9-2.5,6.1-3.5,9.3-2.1c4.3,1.7,5.8,6.3,3.5,10.3c-0.4,0.7-1,1.3-1.3,1.9c-1.3,2.3-0.4,4.3,2.2,4.4
	c3.2,0.3,6.4,0.2,9.6,0.2c6.6,0,8.6,2,8.6,8.5C75.5,88.7,75.5,90.9,75.5,93.3z"/>
<path class="st5" d="M93.9,78.3c-0.6,2-1.3,3.5-1.3,5.1c-0.4,4.6,1.9,8.8,6,10.9c4.4,2.3,10.4,1.7,14-1.4c3.8-3.2,4.9-7.4,3.6-12
	c-0.8-2.6-0.3-3.1,2.1-2.9c1.5,0.2,3.1,0,4.6,0c4.5,0,7.5,2.8,7.6,7.4c0.1,3.2,0,6.4,0,9.7c0,1.5,0.2,3,1.7,3.8
	c1.5,0.7,2.6-0.1,3.8-1c2.6-2,5.5-2.6,8.4-0.7c2.8,1.8,3.6,4.7,3.2,8c-0.7,5-5.9,7.6-10.3,5.3c-0.8-0.4-1.5-1-2.2-1.4
	c-2.4-1.4-4.5-0.6-4.6,2.2c-0.3,3.5-0.2,7-0.2,10.4c0,5.3-2.5,7.7-7.8,7.8c-3,0-6.1,0-9.1,0c-1.5,0-3,0.2-3.9,1.6
	c-0.9,1.5,0.1,2.8,1,4.1c2.3,3.3,2.4,6.2,0.4,8.9c-1.9,2.6-5.7,3.6-9.2,2.3c-4.3-1.5-6-6-3.8-10c0.4-0.7,0.9-1.3,1.3-1.9
	c1.5-2.5,0.5-4.7-2.4-4.9c-3.5-0.2-7,0-10.4-0.1c-5,0-7.5-2.5-7.7-7.5c-0.1-3,0-6.1,0-9.1c0-1.5,0.1-3.2-1.6-4.2
	c-1.7-1-2.9,0.2-4.3,1.1c-3.2,2.1-6.4,2.2-8.9,0.2c-2.5-1.9-3.5-6.1-2.1-9.3c1.7-4.3,6.3-5.8,10.3-3.5c0.7,0.4,1.3,1,1.9,1.3
	c2.3,1.3,4.3,0.4,4.4-2.2c0.3-3.2,0.2-6.4,0.2-9.6c0-6.6,2-8.6,8.5-8.6C89.3,78.3,91.5,78.3,93.9,78.3z"/>
<g id="XMLID_236_">
	<g id="XMLID_237_">
		<g>
			<g id="XMLID_238_">
				<g id="XMLID_242_">
					<path id="XMLID_243_" class="st6" d="M109.9,44.6v-2.2c2.3,0,4.2-2.3,3.3-4.7c-0.3-0.9-1.1-1.6-1.9-1.9c-2.4-0.9-4.7,1-4.7,3.3
						l0,0h-2.2c0-3.8,3.6-6.7,7.5-5.4c1.7,0.5,3.1,1.9,3.6,3.6C116.6,40.9,113.7,44.6,109.9,44.6z"/>
				</g>
				<polygon id="XMLID_241_" class="st6" points="109.9,42.4 107.7,42.4 107.7,40.1 107.7,40.1 109.9,40.1 109.9,40.1 				"/>
				<polygon id="XMLID_240_" class="st6" points="107.7,44.1 106,44.1 106,44.1 106,42.4 107.7,42.4 				"/>
				<path id="XMLID_239_" class="st6" d="M106,42.4h-1.5l0,0v-1.5l0,0h1.5l0,0V42.4z"/>
			</g>
		</g>
	</g>
</g>
<g id="XMLID_218_">
	<path id="XMLID_233_" class="st6" d="M100.4,46.8c-0.3-0.2-0.7-0.3-1.1-0.3h-0.9v2.9h0.9c0.4,0,0.8-0.1,1.1-0.3
		c0.2-0.1,0.3-0.3,0.4-0.5c0.1-0.2,0.1-0.4,0.1-0.7c0-0.3-0.1-0.5-0.1-0.7C100.7,47.1,100.6,46.9,100.4,46.8z M99,47h0.3
		c0.3,0,0.6,0.1,0.8,0.2c0.2,0.1,0.3,0.4,0.3,0.8c0,0.4-0.1,0.7-0.3,0.8l0,0c-0.2,0.1-0.5,0.2-0.8,0.2H99V47L99,47z"/>
	<path id="XMLID_232_" class="st6" d="M101.6,46.5c-0.1,0-0.2,0-0.2,0.1c-0.1,0.1-0.1,0.1-0.1,0.2c0,0.1,0,0.2,0.1,0.2
		c0.1,0.1,0.1,0.1,0.2,0.1c0.1,0,0.2,0,0.2-0.1c0.1-0.1,0.1-0.1,0.1-0.2s0-0.2-0.1-0.2C101.8,46.5,101.7,46.5,101.6,46.5z"/>
	<rect id="XMLID_231_" x="101.3" y="47.4" class="st6" width="0.5" height="2"/>
	<path id="XMLID_230_" class="st6" d="M103.7,47.6c-0.2-0.1-0.3-0.2-0.5-0.2c-0.3,0-0.5,0.1-0.7,0.3c-0.2,0.2-0.3,0.4-0.3,0.8
		c0,0.3,0.1,0.5,0.3,0.8c0.2,0.2,0.4,0.3,0.7,0.3c0.2,0,0.4-0.1,0.5-0.2v0.1c0,0.2-0.1,0.3-0.1,0.4c-0.1,0.1-0.2,0.1-0.4,0.1
		s-0.4-0.1-0.6-0.3l-0.4,0.3l0,0c0.1,0.1,0.2,0.2,0.4,0.3c0.2,0.1,0.4,0.2,0.6,0.2c0.3,0,0.6-0.1,0.8-0.3c0.2-0.2,0.3-0.4,0.3-0.8
		v-1.8L103.7,47.6L103.7,47.6L103.7,47.6z M103.5,48.7c-0.1,0.1-0.2,0.2-0.4,0.2c-0.2,0-0.3-0.1-0.4-0.2c-0.1-0.1-0.1-0.2-0.1-0.4
		s0.1-0.3,0.1-0.4c0-0.1,0.2-0.2,0.4-0.2s0.3,0.1,0.4,0.2c0.1,0.1,0.1,0.3,0.1,0.4C103.6,48.5,103.6,48.6,103.5,48.7z"/>
	<rect id="XMLID_228_" x="104.7" y="47.4" class="st6" width="0.5" height="2"/>
	<path id="XMLID_227_" class="st6" d="M104.8,46.5c-0.1,0-0.2,0-0.2,0.1c-0.1,0.1-0.1,0.1-0.1,0.2c0,0.1,0,0.2,0.1,0.2
		c0.1,0.1,0.1,0.1,0.2,0.1s0.2,0,0.2-0.1c0.1-0.1,0.1-0.1,0.1-0.2s0-0.2-0.1-0.2C105,46.5,104.9,46.5,104.8,46.5z"/>
	<path id="XMLID_226_" class="st6" d="M106.3,46.8h-0.5v0.6h-0.3v0.5h0.3v0.9c0,0.3,0.1,0.5,0.2,0.6c0.1,0.1,0.3,0.2,0.6,0.2
		c0.1,0,0.2,0,0.3,0l0,0v-0.6h-0.2c-0.1,0-0.2,0-0.3-0.1c-0.1-0.1-0.1-0.1-0.1-0.3v-0.8h0.5v-0.5h-0.5V46.8z"/>
	<rect id="XMLID_225_" x="109.1" y="46.5" class="st6" width="0.5" height="2.9"/>
	<path id="XMLID_224_" class="st6" d="M114.8,48.6c-0.1,0.1-0.2,0.2-0.3,0.3l0,0c-0.1,0.1-0.2,0.1-0.3,0.1c-0.2,0-0.3-0.1-0.4-0.2
		c-0.1-0.1-0.2-0.3-0.2-0.4c0-0.2,0.1-0.3,0.2-0.4c0.1-0.1,0.2-0.2,0.4-0.2s0.3,0.1,0.5,0.3l0.3-0.3l0,0c-0.2-0.3-0.5-0.4-0.9-0.4
		c-0.3,0-0.5,0.1-0.8,0.3c-0.2,0.2-0.3,0.5-0.3,0.8c0,0.3,0.1,0.6,0.3,0.8c0.2,0.2,0.5,0.3,0.8,0.3c0.4,0,0.7-0.2,0.9-0.5
		L114.8,48.6z"/>
	<path id="XMLID_223_" class="st6" d="M116.9,47.7c-0.1-0.1-0.2-0.2-0.3-0.3c-0.1-0.1-0.3-0.1-0.4-0.1c-0.3,0-0.5,0.1-0.7,0.3
		c-0.2,0.2-0.3,0.5-0.3,0.8c0,0.3,0.1,0.6,0.3,0.8c0.2,0.2,0.4,0.3,0.8,0.3c0.4,0,0.6-0.2,0.9-0.4l0,0l-0.3-0.3l0,0
		c0,0.1-0.1,0.1-0.1,0.1c-0.1,0.1-0.1,0.1-0.2,0.1c-0.1,0.1-0.2,0.1-0.3,0.1c-0.2,0-0.3-0.1-0.4-0.1c-0.1-0.1-0.1-0.2-0.2-0.3h1.4
		v-0.2c0-0.1,0-0.3-0.1-0.4C117,47.9,117,47.8,116.9,47.7z M115.8,48.2c0-0.1,0.1-0.2,0.1-0.3c0.1-0.1,0.2-0.1,0.3-0.1
		c0.1,0,0.2,0,0.3,0.1c0.1,0.1,0.1,0.2,0.1,0.3H115.8z"/>
	<path id="XMLID_222_" class="st6" d="M118.9,47.5L118.9,47.5c-0.2-0.1-0.4-0.2-0.6-0.2c-0.2,0-0.3,0.1-0.5,0.1
		c-0.1,0.1-0.3,0.2-0.4,0.3l0,0l0.3,0.3c0.1-0.2,0.3-0.3,0.5-0.3c0.1,0,0.2,0,0.3,0.1c0.1,0.1,0.1,0.1,0.1,0.2v0.1
		c-0.1-0.1-0.3-0.1-0.4-0.1c-0.3,0-0.5,0.1-0.6,0.2c-0.2,0.1-0.2,0.3-0.2,0.5s0.1,0.4,0.2,0.5c0.1,0.1,0.3,0.2,0.5,0.2
		c0.2,0,0.4-0.1,0.6-0.2v0.2h0.5v-1.3C119.2,47.9,119.1,47.7,118.9,47.5z M118,48.6c0.1-0.1,0.2-0.1,0.3-0.1s0.3,0,0.4,0.1v0.2
		c-0.1,0.1-0.3,0.2-0.5,0.2c-0.1,0-0.2,0-0.2-0.1C117.9,48.8,117.9,48.8,118,48.6C117.9,48.7,117.9,48.6,118,48.6z"/>
	<path id="XMLID_221_" class="st6" d="M121.1,47.6c-0.2-0.2-0.4-0.3-0.6-0.3c-0.2,0-0.4,0.1-0.5,0.2v-0.1h-0.5v2h0.5v-1.2
		c0-0.2,0.1-0.3,0.1-0.4c0.1-0.1,0.2-0.1,0.3-0.1c0.1,0,0.2,0.1,0.3,0.1c0.1,0.1,0.1,0.2,0.1,0.3v1.2h0.5v-1.2
		C121.3,48,121.2,47.7,121.1,47.6z"/>
	<path id="XMLID_220_" class="st6" d="M108.5,47.5L108.5,47.5c-0.2-0.1-0.4-0.2-0.6-0.2c-0.2,0-0.3,0.1-0.5,0.1
		c-0.1,0.1-0.3,0.2-0.4,0.3l0,0l0.3,0.3c0.1-0.2,0.3-0.3,0.5-0.3c0.1,0,0.2,0,0.3,0.1c0.1,0.1,0.1,0.1,0.1,0.2v0.1
		c-0.1-0.1-0.3-0.1-0.4-0.1c-0.3,0-0.5,0.1-0.6,0.2c-0.2,0.1-0.2,0.3-0.2,0.5s0.1,0.4,0.2,0.5c0.1,0.1,0.3,0.2,0.5,0.2
		s0.4-0.1,0.6-0.2v0.2h0.5v-1.3C108.7,47.9,108.6,47.7,108.5,47.5z M107.6,48.6c0.1-0.1,0.2-0.1,0.3-0.1c0.1,0,0.3,0,0.4,0.1v0.2
		c-0.1,0.1-0.3,0.2-0.5,0.2c-0.1,0-0.2,0-0.2-0.1C107.5,48.8,107.5,48.8,107.6,48.6L107.6,48.6z"/>
	<path id="XMLID_219_" class="st6" d="M111.5,49.4c-0.9,0-1.5-0.7-1.5-1.5c0-0.9,0.7-1.5,1.5-1.5c0.9,0,1.5,0.7,1.5,1.5
		S112.3,49.4,111.5,49.4z M111.5,47c-0.5,0-1,0.4-1,1c0,0.5,0.4,1,1,1c0.5,0,1-0.4,1-1S112,47,111.5,47z"/>
</g>
<g>
	<g>
		<path class="st6" d="M98.8,109.5c0.7,0,1.2-0.7,1.3-1c0.2-0.4,0.4-0.9,0.3-1.4l0,0l0,0v-0.1c0-0.2,0-0.4-0.1-0.6
			c-0.1-0.1-0.3-0.2-0.5-0.2c-0.8,0-1.6,0.1-2.1,1.1c-0.5,1-0.3,1.7,0.5,2.1C98.4,109.4,98.6,109.5,98.8,109.5 M99.2,101.6
			c-1.4,0-2.7,0.6-3.3,1.5c-0.2,0.4-0.7,0.9-0.1,1.3c0.2,0.1,0.5,0.2,0.8,0.2c0.5,0,1.1-0.2,1.2-0.5c0.3-0.5,0.7-0.8,1.2-0.8
			c0.1,0,0.1,0,0.2,0c0.8,0.1,1,0.6,1,1.3c0,0.8-0.5,0.6-0.9,0.7c-0.7,0.1-1.5,0.2-2.1,0.5c-1.5,0.5-2.2,2.2-1.6,3.8
			c0.4,1,1.3,1.5,2.3,1.5c0.4,0,0.8,0,1.1-0.2c0.6-0.2,1-0.6,1.5-1c0.1,0.1,0.2,0.1,0.2,0.2c0.3,0.2,0.5,0.9,0.9,0.9
			c0.1,0,0.3,0,0.5-0.2c0.5-0.5,1.7-0.8,0.7-1.8c-0.3-0.4-0.3-0.9-0.3-1.3c0-1.1,0-2.2,0-3.3c0-0.6-0.2-1.2-0.6-1.5
			C101.2,101.9,100.2,101.6,99.2,101.6L99.2,101.6z"/>
	</g>
	<g>
		<g>
			<path class="st6" d="M118.1,104.5C118.1,104.5,118.2,104.5,118.1,104.5C118.2,104.5,118.2,104.5,118.1,104.5c0,0,0.1,0.1,0.1,0.4
				c0,2.2,0,4.3,0,6.3c0,0.3-0.1,0.5-0.5,0.6c-0.3,0.1-0.5,0.2-0.8,0.2c-1.1,0.4-2.2,0.7-3.3,1.1c-0.2,0.1-0.3,0.1-0.4,0.1s0,0,0,0
				s0-0.1,0-0.5c0-0.7,0-1.5,0-2.1c0-0.3,0-0.6,0-1v-0.1c0-0.3,0-0.5,0-0.8c0-0.7,0-1.5,0-2.2c0-0.4,0.1-0.6,0.5-0.7
				c1.6-0.5,3-1,4.2-1.4C118,104.5,118.1,104.5,118.1,104.5"/>
		</g>
	</g>
	<g>
		<g>
			<path class="st6" d="M100,115.5c0,0,0.1,0,0.2,0c1.5,0.5,2.9,1,4.3,1.4c0.3,0.1,0.4,0.2,0.4,0.6c0,0.8,0,1.5,0,2.3
				c0,0.3,0,0.6,0,0.9s0,0.6,0,1c0,0.7,0,1.5,0,2.1c0,0.1,0,0.4,0,0.5l0,0c0,0-0.1,0-0.3-0.1c-1.2-0.5-2.3-0.8-3.5-1.2l-0.8-0.2
				c-0.4-0.1-0.5-0.2-0.4-0.6c0-1.8,0-3.9,0-6.3C99.9,115.6,99.9,115.5,100,115.5C99.9,115.5,99.9,115.5,100,115.5"/>
		</g>
	</g>
	<g>
		<g>
			<path class="st6" d="M106.7,104.5c0,0,0.1,0,0.3,0.1c1.4,0.5,2.9,1,4.1,1.4c0.3,0.1,0.4,0.2,0.4,0.6c0,1.8,0,3.9,0,6.5
				c0,0.2,0,0.3,0,0.3l0,0l0,0c0,0-0.1,0-0.2,0c-1.4-0.5-2.8-1-4.3-1.4c-0.3-0.1-0.4-0.2-0.3-0.5c0-0.8,0-1.5,0-2.3c0-0.3,0-0.6,0-1
				c0,0,0,0,0-0.1c0-0.3,0-0.5,0-0.8c0-0.7,0-1.4,0-2.1C106.6,104.8,106.6,104.6,106.7,104.5L106.7,104.5z"/>
		</g>
	</g>
	<g>
		<g>
			<path class="st6" d="M111.5,115.9c0,1.7,0,4,0,6.2c0,0.4-0.1,0.5-0.5,0.6h-0.2c-1.3,0.4-2.5,0.8-3.8,1.3c-0.2,0-0.3,0.1-0.4,0.1
				l0,0l0,0c0,0,0-0.1,0-0.4c0-0.8,0-1.5,0-2.2c0-0.3,0-0.6,0-1c0-0.3,0-0.6,0-0.9c0-0.7,0-1.5,0-2.2c0-0.4,0.1-0.5,0.5-0.7
				c1.4-0.4,2.6-0.8,4.1-1.4C111.2,115.3,111.5,115.2,111.5,115.9z"/>
		</g>
	</g>
	<g>
		<g>
			<path class="st7" d="M112.8,104.8c1.5-0.5,3-1,4.5-1.5c-1.9-0.9-3.4-1.3-4.9-1.3l0,0c-1.5,0-3,0.5-4.7,1.3c1.5,0.5,3,1,4.5,1.5
				C112.1,104.8,112.4,104.9,112.8,104.8z"/>
		</g>
	</g>
	<g>
		<g>
			<path class="st7" d="M105.5,113c-1.5,0-3,0.4-4.6,1.3c2.1,0.9,3.7,1.3,5,1.3c1.5,0,2.7-0.5,4.4-1.4
				C108.6,113.4,107.1,113,105.5,113L105.5,113z"/>
		</g>
	</g>
	<g>
		<path class="st8" d="M104.7,110.1c-2,1.3-4.2,1.8-6.2,1.8c-1.5,0-3.1-0.4-4.6-1c1.5,1.3,3.5,1.8,5.4,1.8
			C101.5,112.7,103.6,111.8,104.7,110.1L104.7,110.1z"/>
	</g>
	<g>
		<path class="st8" d="M104.9,109.2c-0.5,0-1.1,0.3-1.5,0.7c0.4,0,0.6,0,0.8,0c0.8,0,0.7,0.3,0.6,1.5c0.6-0.5,0.9-1.5,0.6-1.9
			C105.3,109.2,105.1,109.2,104.9,109.2L104.9,109.2z"/>
	</g>
</g>
<path class="st8" d="M34.5,92.8l5-2.2 M39.5,90.5l3.9,2.1 M49.6,98.8l2.9,1.5l-0.1,0.1l-2.2,1.6l0,0l-2.8-1.8l-0.1,0L49.6,98.8
	 M41.9,99.1l2.1,1.2l0,0 M44.1,102.2l0.1-0.1l1.5-1 M45.6,101.2l1,0.7l0.2,0.1l0,0l0.1,0.1l1.7,1.2l-0.1,0.1l-2.9,2.1l-1.3-1
	l-0.2-0.2 M39,100.6l-0.9-5.9l5.3-2l0.3,5.5L39,100.6L39,100.6z M50,105.1L50,105.1l-1.2-0.5 M47.3,102.3l0-2.1 M52.5,100.3
	l-0.4,3.1l-2.1,1.7l0,0l0.2-3.1 M40.6,112.8l-2.7-3.2l-0.6-3l2.8,2.7"/>
<g>
	<path class="st7" d="M40.6,112.8l-0.5-3.5l4.1-2.9l0.1,3.4L40.6,112.8z"/>
</g>
<g>
	<path class="st7" d="M39.8,107.5l-0.6-4.5l4.7-2.6l0.2,4.4l-0.1,0.1L39.8,107.5z"/>
</g>
<g>
	<path class="st7" d="M44.2,106.4l-1.2-1 M45.6,105.4v3.3l-1.4-1.2"/>
</g>
<g>
	<path class="st7" d="M48.6,103.2v3.1l-3,2.4v-3.3"/>
</g>
<g>
	<path class="st7" d="M38.1,94.7l-3.6-1.9l1.1,5.1l3.4,2.7"/>
</g>
<g>
	<path class="st7" d="M39.8,107.5l-3.3-3l-1-4.5l3.7,2.9"/>
</g>
<g>
	<path class="st6" d="M168.4,48.8c-0.3,0-0.5,0.2-0.3,0.6c0.3,0.6,0.5,1.2,0.7,1.7c0,0.2,0.1,0.3,0.3,0.1c0.6-0.5,1.1-1.1,1.5-1.8
		c0.1-0.2,0-0.3-0.2-0.3C169.8,49,169.1,49,168.4,48.8z M165.9,43.9c0.1-0.3,0.4-0.7-0.3-0.6c-0.8,0.1-1.5,0.5-2,1
		c-0.2,0.2-0.1,0.3,0,0.4c0.5,0.3,1,0.7,1.5,1.1c0.4,0.3,0.7,0.2,0.7-0.3C165.8,45,165.8,44.5,165.9,43.9z M162,47.7
		c-0.1,0.4,0.1,0.5,0.5,0.3c0.5-0.2,1.1-0.3,1.5-0.5c0.4-0.1,0.5-0.4,0.2-0.7c-0.4-0.4-0.9-0.8-1.3-1.2c-0.3-0.2-0.4-0.2-0.5,0.1
		C162.2,46.3,162.1,47,162,47.7z M170.9,47.7c0-0.8-0.2-1.4-0.5-1.9c-0.1-0.3-0.3-0.3-0.5-0.1c-0.4,0.4-0.9,0.8-1.3,1.2
		c-0.3,0.3-0.3,0.6,0.2,0.7c0.5,0.2,1.1,0.3,1.5,0.5C170.8,48.2,171,48,170.9,47.7z M167.2,44.3c0,0.3,0,0.7,0.1,1.1
		c0,0.5,0.3,0.5,0.6,0.3c0.5-0.3,1-0.7,1.5-1.1c0.3-0.2,0.2-0.3,0-0.5c-0.4-0.3-0.8-0.5-1.3-0.7C167.1,43.2,167.1,43.2,167.2,44.3z
		 M164.5,48.9c-0.7,0.1-1.3,0.3-1.9,0.3c-0.2,0-0.2,0.1-0.1,0.3c0.3,0.7,0.8,1.3,1.4,1.7c0.2,0.1,0.3,0.1,0.3-0.1
		c0.3-0.6,0.5-1.2,0.8-1.8C165,49.1,164.8,48.9,164.5,48.9z M166.5,52.1c0.3,0,0.7,0,1.1-0.1c0.3,0,0.3-0.1,0.2-0.4
		c-0.3-0.5-0.6-1.1-0.9-1.5c-0.2-0.4-0.5-0.4-0.7,0c-0.2,0.3-0.3,0.5-0.5,0.8C165,52.1,165,52.1,166.5,52.1z M167.3,47.7
		c-0.1-0.3-0.2-0.5-0.6-0.6c-0.5,0-0.7,0.2-0.8,0.6c-0.1,0.4,0.3,0.8,0.7,0.8C166.8,48.5,167.2,48.2,167.3,47.7z"/>
	<g>
		<path class="st6" d="M162,43.3c-0.1-0.1-0.2-0.2-0.3-0.3c-0.1-0.1-0.2-0.2-0.3-0.3c-0.2-0.2-0.4-0.3-0.6-0.3c-0.1,0-0.3,0-0.5,0.3
			c-0.2,0.2-0.2,0.4-0.2,0.5c0,0.2,0.2,0.4,0.4,0.6c0.1,0.1,0.3,0.2,0.4,0.3c0.1,0.1,0.3,0.2,0.4,0.3c0.3,0.2,0.3,0.3,0.2,0.6
			c-0.6,1-0.8,2-0.8,3.2c0,0.3-0.1,0.5-0.4,0.5c-0.1,0-0.3,0-0.4,0c-0.1,0-0.3,0-0.4,0c-0.3,0-0.5,0.2-0.7,0.3
			c-0.1,0.2-0.1,0.3-0.1,0.5c0.1,0.4,0.3,0.5,0.7,0.5c0.2,0,0.3,0,0.5-0.1c0.1,0,0.3-0.1,0.4-0.1c0.1,0,0.3-0.1,0.3-0.1
			c0.1,0,0.2,0,0.3,0s0.3,0,0.3,0.3c0.3,0.8,0.8,1.5,1.4,2c0.1,0.1,0.3,0.3,0.5,0.3c0.3,0.2,0.4,0.3,0.5,0.5c0,0.3-0.1,0.5-0.3,0.8
			c-0.1,0.1-0.2,0.3-0.3,0.4c-0.3,0.5-0.2,0.8,0.3,1.1c0.1,0.1,0.3,0.1,0.4,0.1c0.3,0,0.5-0.2,0.7-0.5c0.1-0.2,0.1-0.3,0.2-0.5
			c0-0.2,0.1-0.3,0.2-0.5c0.1-0.3,0.3-0.3,0.3-0.3s0.1,0,0.2,0c0.6,0.2,1.2,0.3,1.7,0.3c0.5,0,1.1-0.1,1.6-0.3c0.1,0,0.1,0,0.2,0
			c0.1,0,0.2,0,0.3,0.3c0.1,0.2,0.2,0.5,0.3,0.7v0.1c0.1,0.2,0.2,0.6,0.7,0.7h0.1c0.2,0,0.4-0.1,0.5-0.3c0.3-0.4,0-0.8-0.1-1
			c0,0-0.1-0.1-0.1-0.2c-0.1-0.1-0.2-0.3-0.3-0.4c-0.2-0.3-0.2-0.5,0.1-0.7c0.7-0.5,1.2-1.1,1.5-1.7c0.1-0.2,0.2-0.3,0.3-0.5
			c0.1-0.3,0.2-0.5,0.4-0.6c0.1,0,0.1,0,0.2,0c0.2,0,0.4,0.1,0.6,0.2c0.1,0.1,0.3,0.1,0.5,0.2c0.1,0,0.2,0,0.3,0
			c0.3,0,0.6-0.2,0.7-0.5c0-0.2,0-0.3,0-0.5c-0.1-0.2-0.4-0.3-0.6-0.4c-0.2,0-0.5-0.1-0.7-0.1c-0.1,0-0.2,0-0.3,0
			c-0.4,0-0.5-0.2-0.5-0.5c0.1-1.1-0.2-2.1-0.8-3.1c-0.2-0.3-0.1-0.4,0.1-0.6c0.1-0.1,0.3-0.2,0.4-0.3c0.1-0.1,0.3-0.2,0.4-0.3
			c0.3-0.2,0.4-0.4,0.4-0.6c0-0.1,0-0.3-0.2-0.5c-0.2-0.3-0.4-0.3-0.5-0.3c-0.2,0-0.4,0.1-0.6,0.3c-0.1,0.1-0.2,0.2-0.3,0.3
			c-0.1,0.1-0.3,0.3-0.4,0.4c-0.1,0.1-0.3,0.2-0.3,0.2s-0.2,0-0.3-0.2c-0.8-0.8-1.7-1.3-2.9-1.4c-0.3,0-0.4-0.2-0.4-0.5
			c0-0.1,0-0.3,0-0.4c0-0.3,0-0.5,0-0.7s-0.1-0.4-0.2-0.5c-0.1-0.1-0.3-0.2-0.5-0.2l0,0l0,0c-0.2,0-0.4,0.1-0.5,0.2
			c-0.1,0.1-0.2,0.3-0.2,0.5s0,0.5,0,0.7c0,0.1,0,0.2,0,0.3c0,0.5,0,0.6-0.5,0.6c-1.1,0.1-2,0.6-2.8,1.5
			C162.5,43.7,162,43.3,162,43.3z M166.5,37.3c-0.3,0-0.6,0.1-1,0.3c-2.2,1.1-4.4,2.1-6.6,3.2c-0.5,0.3-0.9,0.7-1,1.3
			c-0.5,2.4-1.1,4.8-1.6,7.4c-0.1,0.5,0,1.1,0.3,1.5c1.6,2,3.2,4,4.8,6c0.3,0.3,0.6,0.6,1.1,0.6l0,0c0,0,1.1,0,2.3,0
			c2.3,0,5.6,0,5.6,0s0,0,0.1,0c0.5,0,0.8-0.3,1.2-0.7c1.5-2,3.2-4,4.7-5.9c0.4-0.5,0.5-0.9,0.3-1.5c-0.6-2.4-1.2-4.8-1.6-7.3
			c-0.1-0.6-0.5-1.1-1.1-1.3c-2.2-1.1-4.4-2-6.6-3.2C167.1,37.4,166.8,37.3,166.5,37.3L166.5,37.3z"/>
	</g>
</g>
<path class="st9" d="M48.7,34.6c0,0.3-0.2,0.5-0.5,0.5c-0.3,0-0.5-0.2-0.5-0.5c0-0.3,0.2-0.5,0.5-0.5C48.5,34,48.6,34.2,48.7,34.6z"
	/>
<path class="st9" d="M57.5,34c0.3,0.1,0.5,0.2,0.5,0.6c0,0.3-0.2,0.5-0.5,0.5c-0.3,0-0.5-0.2-0.5-0.5C57.1,34.2,57.2,34.1,57.5,34z"
	/>
<g class="st0">
	<path class="st1" d="M58,33.1c0.8,0.3,1.2,0.9,1.6,1.5c0.2,0.5,0.5,0.8,0.7,1.3c0.1,0.2,0.3,0.5,0.4,0.6c0,0-0.1,0-0.2,0
		c-0.2,0-0.5,0-0.7,0c-0.7,0-1.6,0-2.3,0h-0.9c-0.6,0-1,0-1.7,0c-1.5,0-3.1,0-4.7,0l0,0c-0.5,0-0.7,0.2-0.9,0.5
		c-0.4,0.6-1.1,1.5-1.9,2.4c-0.7,0.8-1.2,1.4-1.6,2c-0.2-0.3-0.5-0.8-0.7-1.3c-0.5-0.8-0.7-1.2-0.8-1.4c0.3-0.5,0.7-1.2,1-1.8
		c0.7-1.1,1.3-2.3,1.9-3.2c0.2-0.4,0.7-0.6,1.1-0.8L58,33.1 M57.7,35.4c0.4,0,0.7-0.3,0.7-0.6c0-0.4-0.2-0.6-0.7-0.7l0,0l0,0
		c-0.6,0.1-0.7,0.5-0.7,0.6C56.9,35.2,57.2,35.4,57.7,35.4L57.7,35.4 M48.6,35.4L48.6,35.4L48.6,35.4c0.4,0,0.7-0.3,0.7-0.6l0,0l0,0
		c-0.1-0.4-0.4-0.6-0.7-0.6l0,0c-0.4,0-0.7,0.3-0.7,0.7C47.9,35.2,48.2,35.4,48.6,35.4 M58,32.8c-3.3,0-6.5,0-9.7,0
		c-0.5,0.2-1,0.4-1.3,0.9c-0.8,1.4-2.2,3.6-3,5.1l0,0l1.9,3.1c0.7-1.2,2.9-3.6,3.6-4.8c0.2-0.4,0.4-0.5,0.7-0.5l0,0
		c2.1,0,4.2,0,6.3,0c1.1,0,2.2,0,3.3,0c0.2,0,0.5,0,0.7,0c0.2,0,0.4,0.1,0.5,0.1c0-0.2-0.1-0.3-0.2-0.4c-0.4-0.6-0.7-1.3-1.1-1.9
		C59.5,33.7,58.9,33.1,58,32.8L58,32.8z M57.7,35.3L57.7,35.3c-0.4,0-0.6-0.2-0.5-0.5c0-0.3,0.2-0.5,0.5-0.5
		c0.3,0.1,0.5,0.2,0.5,0.5C58.1,35.1,58,35.3,57.7,35.3L57.7,35.3z M48.6,35.3c-0.3,0-0.5-0.2-0.5-0.5s0.2-0.5,0.5-0.5l0,0
		c0.3,0,0.5,0.2,0.5,0.5C49.1,35.1,49,35.3,48.6,35.3C48.7,35.3,48.7,35.3,48.6,35.3L48.6,35.3z M44,38.8L44,38.8L44,38.8z"/>
</g>
<g>
	<path class="st6" d="M55.9,42.7c0,1.6-1.3,3-3,3c-1.7,0-3-1.2-3-3c0-1.7,1.4-3,3.1-3.1C54.4,39.7,56,41.1,55.9,42.7z"/>
	<g>
		<path class="st8" d="M60.8,37l0.6,0.9c0.8,1.4,1.7,2.9,2.3,4.1c0.3,0.5,0.3,1,0,1.6c-1.5,2.7-3.1,5.3-4.5,7.8
			c-0.4,0.6-0.8,0.8-1.5,0.8c-0.8,0-1.7,0-2.5,0h-0.5c0.1-0.1,0.2-0.2,0.3-0.4l0.2-0.3c0.2-0.3,0.4-0.6,0.5-0.9s0.3-0.5,0.4-0.7
			c0.2-0.4,0.5-0.8,0.6-1.2c0,0,0-0.1,0.1-0.1c0.1-0.1,0.1-0.2,0.2-0.3c0.3-0.6,0.6-1,0.9-1.6c0.6-1.1,1.3-2.3,2-3.5
			c0.2-0.4,0.2-0.6,0-1c-0.5-0.8-1.5-2.5-2.2-3.9c-0.3-0.6-0.6-1-0.8-1.4C57.7,37,60.2,37,60.8,37z"/>
		<path class="st6" d="M62,43.2L62,43.2c-0.4,0-0.5-0.2-0.5-0.5s0.2-0.5,0.5-0.5s0.5,0.2,0.5,0.5C62.6,43.1,62.4,43.2,62,43.2
			L62,43.2z"/>
		<path class="st6" d="M57.6,51L57.6,51c-0.3,0-0.5-0.2-0.5-0.5s0.2-0.5,0.5-0.5l0,0c0.3,0,0.5,0.2,0.5,0.5S58,51,57.6,51L57.6,51z"
			/>
	</g>
	<polygon class="st10" points="56.5,36.7 56.5,36.7 56.5,36.7 	"/>
	<g>
		<path class="st8" d="M44.2,38.2l0.6-0.9c0.8-1.4,1.7-2.8,2.5-4c0.3-0.5,0.8-0.7,1.4-0.7c3.1,0,6.1,0.2,9,0.3
			c0.7,0.1,1.1,0.3,1.4,0.9c0.4,0.7,0.8,1.5,1.2,2.2l0.2,0.4c-0.1,0-0.3-0.1-0.5-0.1l-0.3,0c-0.3,0-0.7,0-1,0c-0.3,0.1-0.5,0-0.8,0
			c-0.4,0-1,0-1.4,0c0,0-0.1,0-0.1,0c-0.1,0-0.2,0-0.3,0c-0.6,0-1.2-0.1-1.8-0.1c-1.3,0-2.7,0-4.1-0.1c-0.4,0-0.7,0.1-0.9,0.5
			c-0.5,0.8-1.5,2.5-2.4,3.8c-0.4,0.5-0.6,1-0.8,1.4C45.6,40.9,44.4,38.7,44.2,38.2z"/>
		<path class="st6" d="M49,34.1L49,34.1c0.2,0.3,0.1,0.5-0.2,0.6c-0.2,0.1-0.5,0.1-0.6-0.2s-0.1-0.5,0.2-0.6
			C48.7,33.7,48.8,33.8,49,34.1L49,34.1z"/>
		<path class="st6" d="M58,34.3L58,34.3c0.1,0.2,0.1,0.5-0.2,0.6c-0.2,0.1-0.5,0.1-0.6-0.2l0,0c-0.1-0.2-0.1-0.5,0.2-0.6
			C57.6,34,57.8,34,58,34.3L58,34.3z"/>
	</g>
	<g>
		<path class="st8" d="M53.8,52l-1.1,0c-1.6,0-3.3,0-4.7,0c-0.5,0-1-0.3-1.4-0.8c-1.6-2.6-3.1-5.3-4.5-7.8c-0.3-0.6-0.3-1.1,0-1.7
			c0.4-0.7,0.8-1.4,1.2-2.2l0.2-0.4c0,0.1,0.1,0.3,0.2,0.4l0.2,0.3c0.2,0.3,0.4,0.6,0.6,0.9c0.2,0.2,0.3,0.5,0.5,0.7
			c0.2,0.3,0.5,0.8,0.7,1.2c0,0,0.1,0,0,0.1c0,0.1,0.1,0.2,0.2,0.3c0.3,0.5,0.6,1.1,0.9,1.6c0.6,1.1,1.4,2.3,2.1,3.5
			c0.2,0.3,0.5,0.5,0.9,0.5c1,0,2.9-0.1,4.5,0c0.6,0,1.2,0,1.6,0C55.3,49.3,54.1,51.5,53.8,52z"/>
		<path class="st6" d="M47.8,50L47.8,50c0.2-0.3,0.4-0.3,0.6-0.2c0.2,0.1,0.3,0.4,0.2,0.6s-0.4,0.3-0.6,0.2
			C47.6,50.6,47.6,50.4,47.8,50L47.8,50z"/>
		<path class="st6" d="M43.2,42.3L43.2,42.3c0.1-0.2,0.4-0.3,0.6-0.2c0.2,0.1,0.3,0.4,0.2,0.6l0,0c-0.1,0.2-0.4,0.3-0.6,0.2
			C43.2,42.8,43,42.6,43.2,42.3L43.2,42.3z"/>
	</g>
</g>
<line class="st8" x1="37.3" y1="106.6" x2="38.1" y2="106"/>
<line class="st8" x1="35.6" y1="100" x2="36.9" y2="99"/>
</svg>
