<?xml version="1.0" encoding="utf-8"?>
<!-- Generator: Adobe Illustrator 21.0.0, SVG Export Plug-In . SVG Version: 6.00 Build 0)  -->
<svg version="1.1" id="Layer_1" xmlns="http://www.w3.org/2000/svg" xmlns:xlink="http://www.w3.org/1999/xlink" x="0px" y="0px"
	 viewBox="0 0 83 80.4" style="enable-background:new 0 0 83 80.4;" xml:space="preserve">
<style type="text/css">
	.st0{fill:#FFFFFF;}
	.st1{fill:#00A651;}
</style>
<g>
	<g>
		<g>
			<g>
				<g id="XMLID_161_">
					<g id="XMLID_167_">
						<path id="XMLID_171_" class="st0" d="M78.2,52.7c0.1-4.2-3.7-5.1-5.9-4.7c-4.3,0.8-3.9,4.7-3.9,4.7l0,0c0,3.9-0.9,6.8-2.9,8.6
							c-2,2-4.7,2.9-8.2,2.9c-7.5,0-11.1-3.8-11.1-11.5l0,0c0,6.4-1.7,11.1-5,14.4c0.3,0.3,0.5,0.5,0.8,0.8
							c3.8,3.3,8.9,4.8,15.3,4.8s11.5-1.6,15.3-4.8C76.3,64.6,78.2,59.5,78.2,52.7L78.2,52.7z"/>
						<path id="XMLID_168_" class="st0" d="M57.2,76.1c-7.2,0-13.1-2-17.5-5.6c-0.4-0.3-0.7-0.7-1-0.9l-2.5-2.6l2.5-2.5
							c2.6-2.5,3.9-6.5,3.9-11.9h6.9c0,5.9,2.1,8.1,7.7,8.1c2.6,0,4.6-0.7,5.8-1.8c1.2-1.2,1.8-3.3,1.8-6.1
							c-0.3-2.9,1.4-7.3,6.8-8.2c0.5-0.1,1-0.1,1.6-0.1c2.5,0,4.7,0.9,6.3,2.5c0.9,0.9,2,2.6,2.1,5.1V52c0,0.1,0,0.3,0,0.4v0.1
							c0,7.8-2.4,13.9-6.9,17.8C70.3,74.1,64.4,76.1,57.2,76.1z M46,66.5c2.9,1.8,6.7,2.7,11.2,2.7c5.5,0,9.9-1.3,13.1-4.1
							c2.9-2.5,4.4-6.4,4.4-11.9l0,0v-0.7c0-0.3,0-0.7-0.1-0.8c-0.3-0.3-1-0.5-1.7-0.4c-0.5,0.1-1,0.1-1,0.9l0,0v0.4
							c0,4.8-1.3,8.6-3.9,11.1c-2.6,2.6-6.1,3.9-10.6,3.9c-4.2,0-7.6-1.2-10.1-3.3C46.8,65.1,46.4,65.9,46,66.5z"/>
					</g>
					<g id="XMLID_162_">
						<path id="XMLID_166_" class="st0" d="M68.3,26.5c0-3.9-0.9-6.8-2.9-8.6c-2-2-4.7-2.9-8.2-2.9c-7.3,0-11.1,3.8-11.1,11.4
							c0-6.4-1.6-11.1-4.8-14.4c0.3-0.3,0.5-0.4,0.7-0.7c3.8-3.3,8.9-4.8,15.3-4.8s11.5,1.6,15.3,4.8c3.8,3.3,5.8,8.2,5.8,15.2
							c0,0,0.4,4.1-3.9,4.7C72,31.7,68.2,30.7,68.3,26.5z"/>
						<path id="XMLID_163_" class="st0" d="M73.3,34.9c-2.5,0-4.7-0.9-6.3-2.5c-1-1-2.2-2.9-2.1-5.9c0-2.7-0.7-4.8-1.8-6.1
							c-1.3-1.3-3.1-1.8-5.8-1.8c-5.5,0-7.7,2.2-7.7,8h-6.9c0-5.4-1.3-9.4-3.9-11.9L36.3,12l2.5-2.5c0.3-0.3,0.5-0.5,0.9-0.8
							C44.2,4.9,50,3.1,57.2,3.1s13.1,2,17.5,5.6c4.6,3.9,6.9,9.8,6.9,17.7c0.3,2.9-1.4,7.3-6.8,8.2C74.4,34.8,73.8,34.9,73.3,34.9z
							 M57.2,11.6c4.4,0,8.1,1.3,10.6,3.9c2.6,2.6,3.9,6.3,3.9,11.1c0,0.4,0,0.8,0.1,0.9c0.3,0.3,1,0.5,1.7,0.4c0.4,0,1.2-0.1,1-1
							v-0.4c0-5.9-1.4-9.9-4.4-12.6c-3.1-2.6-7.6-4.1-13.1-4.1c-4.4,0-8.2,0.9-11.1,2.6c0.4,0.7,0.8,1.3,1.2,2.1
							C49.6,12.7,53,11.6,57.2,11.6z"/>
					</g>
				</g>
			</g>
			<g>
				<g>
					<path id="XMLID_74_" class="st1" d="M33.4,61.2c-2,2-4.7,2.9-8.2,2.9c-7.5,0-11.1-3.8-11.1-11.5v-26c0-7.7,3.7-11.5,11.1-11.5
						c3.5,0,6.3,0.9,8.2,2.9s2.9,4.8,2.9,8.6l0,0c0-6.4,1.7-11.1,5-14.4c-0.3-0.3-0.5-0.5-0.8-0.8c-3.8-3.3-8.9-4.8-15.3-4.8
						S13.7,8.1,9.9,11.3s-5.6,8.2-5.6,15.2v26c0,6.9,1.8,11.9,5.6,15.2s8.9,4.8,15.3,4.8s11.5-1.6,15.3-4.8c0.3-0.3,0.5-0.4,0.7-0.7
						c-3.3-3.3-4.8-8-4.8-14.4C36.3,56.5,35.3,59.3,33.4,61.2z"/>
					<path class="st1" d="M25.1,75.9c-7.2,0-13.1-2-17.5-5.6C3,66.4,0.7,60.5,0.7,52.5v-26c0-7.8,2.4-13.9,6.8-17.8
						C12,4.9,17.9,3.1,25.1,3.1s13.1,2,17.5,5.6c0.4,0.3,0.7,0.7,1,0.9l2.2,2.6l-2.2,2.4c-2.6,2.5-3.9,6.5-3.9,11.9h-6.9
						c0-2.9-0.7-5-1.9-6.3c-1.3-1.3-3.1-1.8-5.8-1.8c-5.5,0-7.7,2.2-7.7,8.1v26c0,5.9,2.1,8.1,7.7,8.1c2.6,0,4.6-0.7,5.8-1.8
						c1.2-1.2,1.9-3.3,1.9-6.1h6.9c0,5.4,1.3,9.4,3.8,11.9L46,67l-2.5,2.5c-0.3,0.3-0.5,0.5-0.9,0.8C38.3,74,32.4,75.9,25.1,75.9z
						 M25.1,9.9c-5.5,0-9.9,1.3-13.1,4.1c-3,2.6-4.4,6.7-4.4,12.6v26c0,5.9,1.4,9.9,4.4,12.6c3.1,2.6,7.5,4.1,13.1,4.1
						c4.4,0,8.2-0.9,11.1-2.6c-0.4-0.7-0.8-1.4-1.2-2.1c-2.5,2.1-5.9,3.3-9.9,3.3c-9.3,0-14.5-5.5-14.5-15V26.5
						c0-9.5,5.4-15,14.5-15c4.2,0,7.5,1,10.1,3.3c0.4-0.8,0.8-1.4,1.2-2.1C33.4,10.8,29.6,9.9,25.1,9.9z"/>
				</g>
				<g>
					<path id="XMLID_71_" class="st1" d="M36.3,26.5v26v0.1c0,6.4,1.6,11.1,4.8,14.4c3.3-3.3,5-8,5-14.4V26.5v-0.1
						c0-6.4-1.6-11.1-4.8-14.4C37.9,15.3,36.3,20.1,36.3,26.5z"/>
					<path class="st1" d="M41.1,71.4l-2.4-2c-3.9-3.9-5.9-9.5-5.9-16.9V26.4c0-7.3,2.1-12.9,6-16.9l1.8-2.1l2.9,2
						c3.9,3.9,6,9.6,6,16.9v26.2c0,7.3-2.1,12.9-6,16.9L41.1,71.4z M41.2,18c-0.9,2.2-1.4,5.1-1.4,8.4v26c0,3.4,0.5,6.1,1.4,8.4
						c1-2.2,1.4-5.1,1.4-8.4v-26C42.8,23.1,42.3,20.2,41.2,18z"/>
				</g>
				<g>
					<path id="XMLID_68_" class="st1" d="M36.3,53.4c0,0-0.4,8,4.8,13.6c2.1,2.4,5.2,4.2,9.7,5c3.4,0.7,5.9-5.9,2.4-8.2
						c-0.4-0.1-7.1-2.4-7.1-11.1L36.3,53.4z"/>
					<path class="st1" d="M51.2,75.4L51.2,75.4c-0.4,0-0.8,0-1-0.1c-4.8-0.9-8.6-2.9-11.5-6c-6.1-6.5-5.8-15.7-5.8-16.1l0.1-3
						l16.5-1.3l0.1,3.8c-0.1,6,4.1,7.6,4.6,7.7l0.5,0.1l0.4,0.3c2.7,2,3.9,5.5,2.7,9C56.9,73.2,54.1,75.4,51.2,75.4z M40,56.6
						c0.4,2.4,1.3,5.6,3.7,8.1c1.8,2,4.2,3.1,7.3,3.8c0.1-0.3,0.4-0.8,0.4-1.3c0-0.1,0-0.4-0.1-0.4c-2.9-1.2-7.1-4.3-8.4-10.3
						L40,56.6z"/>
				</g>
			</g>
		</g>
	</g>
</g>
</svg>
