<?xml version="1.0" encoding="utf-8"?>
<!-- Generator: Adobe Illustrator 21.0.0, SVG Export Plug-In . SVG Version: 6.00 Build 0)  -->
<svg version="1.1" id="Layer_1" xmlns="http://www.w3.org/2000/svg" xmlns:xlink="http://www.w3.org/1999/xlink" x="0px" y="0px"
	 viewBox="0 0 3275.7 1183.2" style="enable-background:new 0 0 3275.7 1183.2;" xml:space="preserve">
<style type="text/css">
	.st0{opacity:0.2;}
	.st1{opacity:0.2;fill:url(#SVGID_1_);enable-background:new    ;}
	.st2{opacity:0.3;fill:url(#SVGID_2_);enable-background:new    ;}
	.st3{opacity:0.2;fill:url(#SVGID_3_);enable-background:new    ;}
	.st4{opacity:0.2;fill:url(#SVGID_4_);enable-background:new    ;}
	.st5{opacity:0.2;fill:url(#SVGID_5_);enable-background:new    ;}
</style>
<g class="st0">
	
		<linearGradient id="SVGID_1_" gradientUnits="userSpaceOnUse" x1="1884.4501" y1="1233.9" x2="1884.4501" y2="2270" gradientTransform="matrix(1 0 0 -1 0 2270)">
		<stop  offset="0" style="stop-color:#FFFFFF;stop-opacity:0"/>
		<stop  offset="1" style="stop-color:#FFFFFF"/>
	</linearGradient>
	<path class="st1" d="M2040.7,1036.1c54.9-109.9,110.1-232.8,170.6-378C2313.6,412.4,2465.1,183.3,2655.6,0H1460.1
		c-114.4,266.3-207.2,428.3-346.8,612C1426.6,873.9,1631.1,979.9,2040.7,1036.1z"/>
	
		<linearGradient id="SVGID_2_" gradientUnits="userSpaceOnUse" x1="2658.2" y1="1215.7397" x2="2658.2" y2="2270" gradientTransform="matrix(1 0 0 -1 0 2270)">
		<stop  offset="0" style="stop-color:#FFFFFF;stop-opacity:0"/>
		<stop  offset="1" style="stop-color:#FFFFFF"/>
	</linearGradient>
	<path class="st2" d="M3275.7,649.4V0h-620.1c-190.4,183.2-342,412.3-444.3,658.1c-60.5,145.2-115.6,268.1-170.6,378
		c4.9,0.7,9.8,1.3,14.8,2C2597.1,1109.9,3035.5,935.7,3275.7,649.4z"/>
	
		<linearGradient id="SVGID_3_" gradientUnits="userSpaceOnUse" x1="2619.3499" y1="1086.7999" x2="2619.3499" y2="1620.6" gradientTransform="matrix(1 0 0 -1 0 2270)">
		<stop  offset="0" style="stop-color:#FFFFFF;stop-opacity:0"/>
		<stop  offset="1" style="stop-color:#FFFFFF"/>
	</linearGradient>
	<path class="st3" d="M3275.7,1183.2V649.4c-240.2,286.3-678.6,460.5-1220.2,388.7c-5-0.7-9.9-1.3-14.8-2
		c-25.8,51.6-51.5,100.3-77.7,147.1L3275.7,1183.2L3275.7,1183.2z"/>
	
		<linearGradient id="SVGID_4_" gradientUnits="userSpaceOnUse" x1="556.65" y1="99.1" x2="556.65" y2="-930.3033" gradientTransform="matrix(1 0 0 1 0 1084)">
		<stop  offset="0" style="stop-color:#FFFFFF;stop-opacity:0"/>
		<stop  offset="1" style="stop-color:#FFFFFF"/>
	</linearGradient>
	<path class="st4" d="M895.6,423C610.9,169.3,261.3,102,0,191.1v925.1v66.9h476.3c110.5-56,214.2-128.2,300.5-199.9l0,0
		c70.7-58.7,129.5-117.1,170.6-165.8c63-74.7,117.2-141.3,165.9-205.3C1046.6,556.3,975.3,494,895.6,423z"/>
	
		<linearGradient id="SVGID_5_" gradientUnits="userSpaceOnUse" x1="1258.5" y1="99.2" x2="1258.5" y2="-471.9" gradientTransform="matrix(1 0 0 1 0 1084)">
		<stop  offset="0" style="stop-color:#FFFFFF;stop-opacity:0"/>
		<stop  offset="1" style="stop-color:#FFFFFF"/>
	</linearGradient>
	<path class="st5" d="M1113.3,612.1c-48.7,64-102.9,130.7-165.9,205.3c-41.1,48.7-100,107.1-170.6,165.8l0,0
		c-86.2,71.7-190.1,143.9-300.5,200H1242h352.8H1963c26.2-46.8,51.9-95.6,77.7-147.1C1631.1,979.9,1426.6,873.9,1113.3,612.1z"/>
</g>
</svg>
