<?xml version="1.0" encoding="UTF-8"?>
<svg width="44px" height="44px" viewBox="0 0 44 44" version="1.1" xmlns="http://www.w3.org/2000/svg" xmlns:xlink="http://www.w3.org/1999/xlink">
    <!-- Generator: sketchtool 42 (36781) - http://www.bohemiancoding.com/sketch -->
    <title>145F3455-B4F3-486D-810E-0467D91F840A</title>
    <desc>Created with sketchtool.</desc>
    <defs></defs>
    <g id="🖥-Desktop-" stroke="none" stroke-width="1" fill="none" fill-rule="evenodd">
        <g id="3_3_1_D_Drap_Cookie_notice" transform="translate(-912.000000, -942.000000)" stroke="#FFFFFF" stroke-width="3">
            <g id="Group" transform="translate(899.000000, 934.000000)">
                <g id="Cookie_icon" transform="translate(15.000000, 10.000000)">
                    <path d="M39.3757252,15.0226389 C39.7832957,16.6139198 40,18.2816529 40,20 C40,31.045695 31.045695,40 20,40 C8.954305,40 0,31.045695 0,20 C0,8.954305 8.954305,0 20,0 C20.0230849,0 20.0461608,3.91114263e-05 20.0692274,0.00011727163 C20.0235575,0.350755525 20,0.708340976 20,1.07142857 C20,5.55364573 23.5899778,9.19737864 28.0514385,9.28413226 C28.8661811,12.9629159 32.1474964,15.7142857 36.0714286,15.7142857 C37.2468684,15.7142857 38.3646435,15.4673938 39.3757252,15.0226389 Z" id="Combined-Shape" stroke-linecap="round" stroke-linejoin="round"></path>
                    <ellipse id="Oval-4" cx="13.5714286" cy="15.7142857" rx="3.57142857" ry="3.57142857"></ellipse>
                    <circle id="Oval-4-Copy-2" cx="13.2142857" cy="28.9285714" r="2.5"></circle>
                    <circle id="Oval-4-Copy" cx="26.4285714" cy="25" r="5"></circle>
                </g>
            </g>
        </g>
    </g>
</svg>