<?xml version="1.0" encoding="utf-8"?>
<!-- Generator: Adobe Illustrator 21.0.0, SVG Export Plug-In . SVG Version: 6.00 Build 0)  -->
<svg version="1.1" id="Layer_1" xmlns="http://www.w3.org/2000/svg" xmlns:xlink="http://www.w3.org/1999/xlink" x="0px" y="0px"
	 viewBox="0 0 26 26" style="enable-background:new 0 0 26 26;" xml:space="preserve">
<style type="text/css">
	.st0{fill:#4E4E96;}
	.st1{fill:#AAAAE5;}
</style>
<g>
	<path class="st0" d="M13,2.4C7.2,2.4,2.5,7.1,2.5,12.9S7.2,23.5,13,23.5S23.5,18.8,23.5,13S18.8,2.4,13,2.4z"/>
</g>
<g>
	<path class="st1" d="M13,0.5C6.2,0.5,0.7,6.1,0.7,12.9S6.2,25.3,13,25.3s12.4-5.6,12.4-12.4S19.9,0.5,13,0.5z M19.9,8.8l-7.6,8.6
		c-0.2,0.2-0.4,0.3-0.7,0.3c-0.2,0-0.4-0.1-0.6-0.2l-4.8-3.8c-0.4-0.3-0.5-0.9-0.1-1.3C6.4,12,7,11.9,7.4,12.3l4.1,3.2l7-7.9
		c0.3-0.4,1-0.4,1.3-0.1C20.2,7.8,20.3,8.4,19.9,8.8z"/>
</g>
</svg>
