<?xml version="1.0" encoding="utf-8"?>
<!-- Generator: Adobe Illustrator 19.0.0, SVG Export Plug-In . SVG Version: 6.00 Build 0)  -->
<svg version="1.1" id="Layer_1" xmlns="http://www.w3.org/2000/svg" xmlns:xlink="http://www.w3.org/1999/xlink" x="0px" y="0px"
	 viewBox="0 0 20 20" style="enable-background:new 0 0 20 20;" xml:space="preserve">
<style type="text/css">
	.st0{fill:#FFFFFF;}
</style>
<g id="XMLID_2_">
	<g id="XMLID_74_">
		<path id="XMLID_75_" class="st0" d="M20,2.1c-0.2-1.2-1.4-2.2-2.6-2.2c-4.3,0-8.6,0-12.9,0C3-0.1,1.8,1.1,1.8,2.5
			c0,0.2,0,0.4,0,0.6H0V4h1.8v3.6H0v0.8h1.8v3.6H0v0.8h1.8v3.5H0v0.9h1.8c0,0.1,0,0.1,0,0.1C1.8,18.7,3,20,4.5,19.9
			c1.8,0,3.6,0,5.3,0h0.2v-0.8H9.9c-1.8,0-3.6,0-5.4,0c-1.1,0-1.9-0.9-1.8-1.9c0.1,0,0.2,0,0.3,0v-0.8c-0.1,0-0.2,0-0.3,0v-3.5
			c0.1,0,0.2,0,0.3,0v-0.8c-0.1,0-0.2,0-0.3,0V8.4c0.1,0,0.2,0,0.3,0V7.5c-0.1,0-0.2,0-0.3,0V4c0.1,0,0.2,0,0.3,0V3.1
			c-0.1,0-0.2,0-0.3,0c0-0.2,0-0.5,0-0.7c0.1-0.8,0.5-1.3,1.2-1.5c0.2-0.1,0.5-0.1,0.7-0.1c2,0,4,0,6.1,0c2.2,0,4.5,0,6.7,0
			c0.8,0,1.5,0.4,1.7,1.2c0.1,0.3,0.1,0.5,0.1,0.8c0,2.4,0,4.7,0,7.1c0,0.1,0,0.1,0,0.2H20V2.2C20,2.2,20,2.2,20,2.1z M14.1,9.7
			c-3,0.4-5,3.4-4.3,6.3c0.6,2.2,2.7,3.9,4.9,3.9c2.2,0,4.3-1.4,5-3.5c0.1-0.4,0.2-0.8,0.3-1.2v-0.8c0-0.1,0-0.1,0-0.2
			C19.6,11.4,16.9,9.3,14.1,9.7z M14.8,19.1c-2.4,0-4.3-1.9-4.3-4.3c0-2.4,1.9-4.3,4.3-4.3c2.4,0,4.3,1.8,4.3,4.3
			C19.2,17.2,17.3,19.1,14.8,19.1z M6.1,4.2h9.6V3.4H6.1V4.2z M6.1,7.3h9.6V6.5H6.1V7.3z M10.1,9.5h-4v0.8h4V9.5z M6.1,13.4h2.1
			v-0.8H6.1V13.4z M6.1,16.5h2.2v-0.8H6.1V16.5z M15.3,11.3h-0.8v3.9h2.5v-0.8h-1.7V11.3z"/>
	</g>
</g>
</svg>
