<?xml version="1.0" encoding="utf-8"?>
<!-- Generator: Adobe Illustrator 21.1.0, SVG Export Plug-In . SVG Version: 6.00 Build 0)  -->
<svg version="1.1" id="Layer_1" xmlns="http://www.w3.org/2000/svg" xmlns:xlink="http://www.w3.org/1999/xlink" x="0px" y="0px"
	 viewBox="0 0 12.3 12.2" style="enable-background:new 0 0 12.3 12.2;" xml:space="preserve">
<style type="text/css">
	.st0{fill:#326DE6;}
	.st1{fill:none;}
	.st2{fill:#0C4CBF;}
	.st3{fill:#3D7FF4;}
</style>
<g>
	<g id="border_2_" transform="translate(0.000000, 2.554588)">
		<g>
			<path id="Fill-1_1_" class="st0" d="M6.2-2.3L6.2-2.3c-0.2,0-0.3,0-0.5,0.1L1.8-0.4C1.5-0.2,1.3,0,1.2,0.4L0.3,4.5
				c-0.1,0.3,0,0.7,0.2,0.9l2.7,3.3C3.4,9,3.7,9.2,4,9.2h4.3c0.3,0,0.6-0.1,0.8-0.4l2.7-3.3C12,5.2,12.1,4.9,12,4.5l-1-4.1
				c-0.1-0.3-0.3-0.6-0.6-0.7L6.6-2.2C6.5-2.3,6.3-2.3,6.2-2.3 M6.2-2c0.1,0,0.2,0,0.3,0.1L10.3,0c0.2,0.1,0.4,0.3,0.4,0.5l0.9,4.1
				c0.1,0.2,0,0.5-0.1,0.6L8.9,8.5C8.7,8.7,8.5,8.8,8.3,8.8H4c-0.2,0-0.4-0.1-0.6-0.3L0.7,5.2C0.6,5,0.6,4.8,0.6,4.6l0.9-4.1
				C1.6,0.2,1.7,0,2,0l3.9-1.8C5.9-1.9,6-2,6.2-2"/>
		</g>
	</g>
	<path class="st1" d="M5.7,3.3C5.7,3.3,5.6,3.3,5.7,3.3C5.6,3.3,5.7,3.3,5.7,3.3L5.7,3.3z"/>
	<path class="st1" d="M5.4,3.4C4.8,3.5,4.4,3.8,4,4.2l0,0C4.4,3.8,4.9,3.5,5.4,3.4C5.4,3.4,5.4,3.4,5.4,3.4z"/>
	<path class="st0" d="M3.3,7.2L3.3,7.2c0.2,0.6,0.6,1.1,1.1,1.5l0,0C3.9,8.3,3.5,7.8,3.3,7.2z"/>
	<path class="st0" d="M3.5,4.7L3.5,4.7C3.2,5.3,3.1,5.9,3.1,6.5l0,0c0-0.1,0-0.2,0-0.3C3.1,5.7,3.3,5.2,3.5,4.7z"/>
	<path class="st1" d="M5.1,9c0,0,0.1,0,0.1,0C5.2,9,5.1,9,5.1,9L5.1,9z"/>
	<path class="st0" d="M10.7,7C10.7,7,10.7,7,10.7,7C10.7,7,10.7,7,10.7,7C10.7,7,10.7,7,10.7,7C10.7,7,10.7,7,10.7,7
		c-0.1,0-0.2,0-0.3,0c0,0-0.1,0-0.1,0h0c-0.2,0-0.4,0-0.5-0.1c-0.1,0-0.1-0.1-0.1-0.1c0,0,0,0,0,0l-0.1,0c0.1-0.4,0-0.9-0.1-1.3
		C9.4,5,9.3,4.6,9,4.2l0.1-0.1v0c0-0.1,0-0.1,0.1-0.1c0.1-0.1,0.2-0.2,0.4-0.3c0,0,0.1,0,0.1-0.1c0.1,0,0.1-0.1,0.2-0.1
		c0,0,0,0,0.1,0c0,0,0,0,0,0C10,3.4,10,3.2,10,3.1C9.9,3,9.8,3,9.7,3C9.7,3,9.6,3,9.5,3l0,0c0,0,0,0-0.1,0C9.4,3.2,9.4,3.2,9.4,3.2
		c0,0,0,0.1-0.1,0.1C9.2,3.4,9,3.5,8.9,3.6c0,0-0.1,0-0.1,0c0,0,0,0-0.1,0h0L8.7,3.7C8.5,3.6,8.4,3.5,8.3,3.4C7.7,2.9,7,2.7,6.3,2.6
		l0-0.1l0,0c0,0-0.1-0.1-0.1-0.1c0-0.1,0-0.3,0-0.5v0c0,0,0-0.1,0-0.1c0-0.1,0-0.1,0-0.2V1.5c0-0.2-0.1-0.3-0.3-0.3
		c-0.1,0-0.1,0-0.2,0.1C5.8,1.3,5.7,1.4,5.7,1.5v0.1c0,0.1,0,0.1,0,0.2c0,0,0,0.1,0,0.1v0c0,0.2,0.1,0.4,0,0.5
		c0,0.1-0.1,0.1-0.1,0.1l0,0l0,0.1c-0.2,0-0.3,0-0.5,0.1c-0.7,0.2-1.4,0.5-1.8,1L3.3,3.6c0,0,0,0-0.1,0c0,0-0.1,0-0.1,0
		C3,3.5,2.9,3.4,2.8,3.3c0,0,0-0.1-0.1-0.1c0-0.1-0.1-0.1-0.1-0.1c0,0,0,0-0.1,0c0,0,0,0,0,0C2.5,3,2.4,3,2.3,3C2.2,3,2.1,3,2.1,3.1
		C2,3.2,2,3.4,2.2,3.5c0,0,0,0,0,0c0,0,0,0,0.1,0c0.1,0,0.1,0.1,0.2,0.1c0,0,0.1,0,0.1,0.1C2.6,3.8,2.8,3.9,2.9,4
		C2.9,4,2.9,4,2.9,4.1v0L3,4.2c0,0,0,0.1-0.1,0.1C2.5,5,2.3,5.9,2.5,6.7l-0.1,0c0,0,0,0,0,0c0,0-0.1,0.1-0.1,0.1
		C2.1,6.9,1.9,6.9,1.7,7c0,0-0.1,0-0.1,0C1.6,7,1.5,7,1.4,7c0,0,0,0-0.1,0c0,0,0,0,0,0C1.2,7,1.1,7.2,1.1,7.3c0,0.1,0.1,0.2,0.3,0.2
		c0,0,0.1,0,0.1,0c0,0,0,0,0,0c0,0,0,0,0.1,0c0.1,0,0.1,0,0.2-0.1c0,0,0.1,0,0.1,0h0C2,7.3,2.2,7.3,2.3,7.3h0c0.1,0,0.1,0,0.1,0.1
		c0,0,0,0,0,0l0.1,0C2.8,8,3.2,8.6,3.8,9.1C3.9,9.2,4,9.2,4.2,9.3L4.1,9.4c0,0,0,0,0,0c0,0,0,0.1,0,0.1C4.1,9.7,4,9.9,3.9,10v0
		c0,0,0,0.1-0.1,0.1c0,0.1-0.1,0.1-0.1,0.1c0,0,0,0,0,0.1c0,0,0,0,0,0c-0.1,0.2,0,0.3,0.1,0.4c0,0,0.1,0,0.1,0
		c0.1,0,0.2-0.1,0.3-0.2c0,0,0,0,0,0c0,0,0,0,0-0.1c0-0.1,0-0.1,0.1-0.2l0-0.1c0.1-0.2,0.1-0.3,0.2-0.5c0-0.1,0.1-0.1,0.1-0.1
		c0,0,0,0,0,0l0.1-0.1C5.1,9.8,5.6,9.9,6,9.9c0.3,0,0.5,0,0.8-0.1c0.2,0,0.3-0.1,0.5-0.1l0.1,0.1c0,0,0,0,0,0c0.1,0,0.1,0,0.1,0.1
		c0.1,0.1,0.1,0.3,0.2,0.5v0l0,0.1c0,0.1,0,0.1,0.1,0.2c0,0,0,0,0,0.1c0,0,0,0,0,0c0.1,0.1,0.2,0.2,0.3,0.2c0,0,0.1,0,0.1,0
		c0.1,0,0.1-0.1,0.1-0.2c0-0.1,0-0.2,0-0.2c0,0,0,0,0,0c0,0,0,0,0-0.1c0-0.1-0.1-0.1-0.1-0.1c0,0,0-0.1-0.1-0.1v0
		C8,9.9,7.9,9.8,7.9,9.6c0-0.1,0-0.1,0-0.1c0,0,0,0,0,0L7.9,9.3c0.5-0.3,0.9-0.7,1.2-1.2c0.2-0.3,0.3-0.5,0.4-0.8l0.1,0c0,0,0,0,0,0
		c0,0,0.1-0.1,0.1-0.1h0c0.1,0,0.3,0.1,0.5,0.1h0c0,0,0.1,0,0.1,0c0.1,0,0.1,0.1,0.2,0.1c0,0,0,0,0.1,0c0,0,0,0,0,0c0,0,0.1,0,0.1,0
		c0.1,0,0.3-0.1,0.3-0.2C11,7.2,10.9,7.1,10.7,7z M6,9.2c-0.3,0-0.6,0-0.9-0.1c0,0-0.1,0-0.1,0l0,0C4.9,8.9,4.6,8.8,4.4,8.7l0,0
		C3.9,8.4,3.5,7.8,3.3,7.2l0,0C3.2,7,3.2,6.8,3.1,6.5l0,0c0-0.6,0.1-1.3,0.4-1.8l0,0C3.7,4.5,3.8,4.3,4,4.2l0,0
		c0.4-0.4,0.8-0.6,1.4-0.8c0,0,0.1,0,0.1,0c0.1,0,0.1,0,0.2,0c0,0,0,0,0,0l0,0c0.1,0,0.3,0,0.4,0C7.7,3.3,9,4.6,9,6.2S7.7,9.2,6,9.2
		z"/>
	<g>
		<polygon class="st2" points="4.5,8 6.8,6.6 6.2,6.3 4.6,7.2 4.5,7.3 		"/>
		<polygon class="st0" points="4.5,5.5 4.5,8 3.9,7.7 3.8,5.1 		"/>
		<polygon class="st2" points="6.1,8.2 4.5,7.3 3.9,7.7 6.2,8.9 6.1,8.9 		"/>
		<polygon class="st2" points="8.5,5 6.1,3.7 5.4,4.1 7.7,5.4 7.8,5.4 		"/>
		<path class="st0" d="M6.1,3.8C6.1,3.8,6.1,3.8,6.1,3.8C6.1,3.8,6.1,3.8,6.1,3.8L6.1,3.8L5.4,4.2l0,2.6l0.8-0.4L6.1,3.8
			C6.1,3.8,6.1,3.8,6.1,3.8z"/>
		<polygon class="st2" points="6.1,6.4 8.5,5 7.7,4.6 6.1,5.6 6.1,5.6 		"/>
		<path class="st2" d="M4.5,5.4l2.2-1.3L6.1,3.7l-1.6,1l-0.1,0l0,0.6C4.5,5.4,4.5,5.4,4.5,5.4z"/>
		<polygon class="st0" points="8.5,7.6 8.5,5 7.7,5.4 7.7,8 		"/>
		<polygon class="st2" points="6.1,8.9 8.5,7.6 7.8,7.2 6.2,8.2 6.1,8.2 		"/>
		<path class="st2" d="M7.8,7.8l0.4-0.4l-2-1.2L5.6,6.6l2.1,1.3C7.7,7.9,7.8,7.9,7.8,7.8z"/>
		<polygon class="st3" points="6.7,8.6 6.7,6 6.2,6.3 6.2,8.9 		"/>
		<polygon class="st2" points="6.1,5.6 4.4,4.7 3.8,5.1 6.1,6.4 6.2,6.4 		"/>
		<polygon class="st0" points="6.2,6.3 6.2,8.9 5.6,8.6 5.7,6.1 		"/>
	</g>
</g>
</svg>
