<?xml version="1.0" encoding="utf-8"?>
<!-- Generator: Adobe Illustrator 21.1.0, SVG Export Plug-In . SVG Version: 6.00 Build 0)  -->
<svg version="1.1" id="Layer_1" xmlns="http://www.w3.org/2000/svg" xmlns:xlink="http://www.w3.org/1999/xlink" x="0px" y="0px"
	 viewBox="0 0 80.5 15" style="enable-background:new 0 0 80.5 15;" xml:space="preserve">
<style type="text/css">
	.st0{fill:#FFFFFF;}
	.st1{fill:none;}
	.st2{opacity:0.8;fill:#FFFFFF;}
</style>
<g>
	<g id="border_2_" transform="translate(0.000000, 2.554588)">
		<g>
			<path id="Fill-1_1_" class="st0" d="M7-1.8L7-1.8c-0.2,0-0.3,0-0.5,0.1L2.7,0.1C2.4,0.3,2.2,0.5,2.1,0.8L1.1,5
				c-0.1,0.3,0,0.7,0.2,0.9L4,9.2c0.2,0.3,0.5,0.4,0.8,0.4h4.3c0.3,0,0.6-0.1,0.8-0.4l2.7-3.3C12.9,5.7,13,5.3,12.9,5l-1-4.1
				c-0.1-0.3-0.3-0.6-0.6-0.7L7.5-1.7C7.3-1.8,7.2-1.8,7-1.8 M7-1.5c0.1,0,0.2,0,0.3,0.1l3.9,1.8c0.2,0.1,0.4,0.3,0.4,0.5l0.9,4.1
				c0.1,0.2,0,0.5-0.1,0.6L9.7,9C9.6,9.2,9.4,9.3,9.1,9.3H4.9C4.6,9.3,4.4,9.2,4.3,9L1.6,5.7C1.5,5.5,1.4,5.3,1.5,5.1l0.9-4.1
				c0.1-0.2,0.2-0.4,0.4-0.5l3.9-1.8C6.8-1.5,6.9-1.5,7-1.5"/>
		</g>
	</g>
	<path class="st1" d="M6.5,3.8C6.5,3.8,6.5,3.8,6.5,3.8C6.5,3.8,6.5,3.8,6.5,3.8L6.5,3.8z"/>
	<path class="st1" d="M6.2,3.9C5.7,4,5.2,4.3,4.8,4.6l0,0C5.2,4.3,5.7,4,6.2,3.9C6.3,3.9,6.2,3.9,6.2,3.9z"/>
	<path class="st0" d="M4.2,7.7L4.2,7.7c0.2,0.6,0.6,1.1,1.1,1.5l0,0C4.8,8.8,4.4,8.3,4.2,7.7z"/>
	<path class="st0" d="M4.4,5.2L4.4,5.2C4.1,5.7,3.9,6.4,4,7l0,0c0-0.1,0-0.2,0-0.3C4,6.2,4.1,5.7,4.4,5.2z"/>
	<path class="st1" d="M5.9,9.5c0,0,0.1,0,0.1,0C6,9.5,6,9.5,5.9,9.5L5.9,9.5z"/>
	<path class="st0" d="M11.6,7.5C11.6,7.5,11.6,7.5,11.6,7.5C11.6,7.5,11.6,7.5,11.6,7.5C11.6,7.5,11.6,7.5,11.6,7.5
		C11.5,7.5,11.5,7.5,11.6,7.5c-0.1,0-0.2,0-0.3,0c0,0-0.1,0-0.1,0h0c-0.2,0-0.4,0-0.5-0.1c-0.1,0-0.1-0.1-0.1-0.1c0,0,0,0,0,0
		l-0.1,0c0.1-0.4,0-0.9-0.1-1.3c-0.1-0.4-0.3-0.8-0.5-1.2L10,4.6v0c0-0.1,0-0.1,0.1-0.1c0.1-0.1,0.2-0.2,0.4-0.3c0,0,0.1,0,0.1-0.1
		c0.1,0,0.1-0.1,0.2-0.1c0,0,0,0,0.1,0c0,0,0,0,0,0c0.1-0.1,0.2-0.3,0.1-0.4c-0.1-0.1-0.1-0.1-0.2-0.1c-0.1,0-0.1,0-0.2,0.1l0,0
		c0,0,0,0-0.1,0c-0.1,0.1-0.1,0.1-0.1,0.1c0,0,0,0.1-0.1,0.1C10,3.9,9.9,4,9.8,4.1c0,0-0.1,0-0.1,0c0,0,0,0-0.1,0h0L9.5,4.2
		C9.4,4.1,9.3,4,9.1,3.8C8.6,3.4,7.9,3.1,7.2,3.1l0-0.1l0,0c0,0-0.1-0.1-0.1-0.1c0-0.1,0-0.3,0-0.5v0c0,0,0-0.1,0-0.1
		c0-0.1,0-0.1,0-0.2V2c0-0.2-0.1-0.3-0.3-0.3c-0.1,0-0.1,0-0.2,0.1C6.6,1.8,6.6,1.9,6.6,1.9V2c0,0.1,0,0.1,0,0.2c0,0,0,0.1,0,0.1v0
		c0,0.2,0.1,0.4,0,0.5c0,0.1-0.1,0.1-0.1,0.1l0,0l0,0.1c-0.2,0-0.3,0-0.5,0.1c-0.7,0.2-1.4,0.5-1.8,1L4.1,4.1c0,0,0,0-0.1,0
		c0,0-0.1,0-0.1,0C3.9,4,3.8,3.9,3.6,3.8c0,0,0-0.1-0.1-0.1c0-0.1-0.1-0.1-0.1-0.1c0,0,0,0-0.1,0c0,0,0,0,0,0
		C3.3,3.5,3.2,3.4,3.2,3.4C3.1,3.4,3,3.5,3,3.5C2.9,3.7,2.9,3.8,3,4c0,0,0,0,0,0c0,0,0,0,0.1,0c0.1,0,0.1,0.1,0.2,0.1
		c0,0,0.1,0,0.1,0.1c0.2,0.1,0.3,0.2,0.4,0.3c0.1,0.1,0.1,0.1,0.1,0.1v0l0.1,0.1c0,0,0,0.1-0.1,0.1C3.4,5.5,3.2,6.3,3.3,7.2l-0.1,0
		c0,0,0,0,0,0c0,0-0.1,0.1-0.1,0.1C2.9,7.4,2.8,7.4,2.6,7.4c0,0-0.1,0-0.1,0c-0.1,0-0.1,0-0.2,0c0,0,0,0-0.1,0c0,0,0,0,0,0
		C2.1,7.5,1.9,7.7,2,7.8C2,8,2.1,8,2.3,8c0,0,0.1,0,0.1,0c0,0,0,0,0,0c0,0,0,0,0.1,0c0.1,0,0.1,0,0.2-0.1c0,0,0.1,0,0.1,0h0
		C2.9,7.8,3,7.8,3.2,7.7h0c0.1,0,0.1,0,0.1,0.1c0,0,0,0,0,0l0.1,0c0.2,0.7,0.6,1.3,1.2,1.7c0.1,0.1,0.3,0.2,0.4,0.3L5,9.9
		c0,0,0,0,0,0c0,0,0,0.1,0,0.1c-0.1,0.1-0.1,0.3-0.2,0.4v0c0,0,0,0.1-0.1,0.1c0,0.1-0.1,0.1-0.1,0.1c0,0,0,0,0,0.1c0,0,0,0,0,0
		c-0.1,0.2,0,0.3,0.1,0.4c0,0,0.1,0,0.1,0c0.1,0,0.2-0.1,0.3-0.2c0,0,0,0,0,0c0,0,0,0,0-0.1c0-0.1,0-0.1,0.1-0.2l0-0.1
		c0.1-0.2,0.1-0.3,0.2-0.5c0-0.1,0.1-0.1,0.1-0.1c0,0,0,0,0,0l0.1-0.1c0.4,0.2,0.9,0.2,1.3,0.2c0.3,0,0.5,0,0.8-0.1
		c0.2,0,0.3-0.1,0.5-0.1l0.1,0.1c0,0,0,0,0,0c0.1,0,0.1,0,0.1,0.1c0.1,0.1,0.1,0.3,0.2,0.5v0l0,0.1c0,0.1,0,0.1,0.1,0.2
		c0,0,0,0,0,0.1c0,0,0,0,0,0c0.1,0.1,0.2,0.2,0.3,0.2c0,0,0.1,0,0.1,0c0.1,0,0.1-0.1,0.1-0.2c0-0.1,0-0.2,0-0.2c0,0,0,0,0,0
		c0,0,0,0,0-0.1c0-0.1-0.1-0.1-0.1-0.1c0,0,0-0.1-0.1-0.1v0c-0.1-0.2-0.2-0.3-0.2-0.4c0-0.1,0-0.1,0-0.1c0,0,0,0,0,0L8.7,9.8
		c0.5-0.3,0.9-0.7,1.2-1.2c0.2-0.3,0.3-0.5,0.4-0.8l0.1,0c0,0,0,0,0,0c0,0,0.1-0.1,0.1-0.1h0c0.1,0,0.3,0.1,0.5,0.1h0
		c0,0,0.1,0,0.1,0C11.2,8,11.3,8,11.3,8c0,0,0,0,0.1,0c0,0,0,0,0,0c0,0,0.1,0,0.1,0c0.1,0,0.3-0.1,0.3-0.2
		C11.9,7.7,11.8,7.5,11.6,7.5z M6.9,9.6c-0.3,0-0.6,0-0.9-0.1c0,0-0.1,0-0.1,0l0,0C5.7,9.4,5.5,9.3,5.3,9.2l0,0
		C4.8,8.8,4.4,8.3,4.1,7.7l0,0C4.1,7.5,4,7.2,4,7l0,0c0-0.6,0.1-1.3,0.4-1.8l0,0C4.5,5,4.7,4.8,4.9,4.6l0,0C5.2,4.3,5.7,4,6.2,3.9
		c0,0,0.1,0,0.1,0c0.1,0,0.1,0,0.2,0c0,0,0,0,0,0l0,0c0.1,0,0.3,0,0.4,0c1.6,0,2.9,1.3,2.9,2.9S8.5,9.6,6.9,9.6z"/>
	<g>
		<polygon class="st0" points="5.4,8.4 7.7,7.1 7.1,6.7 5.4,7.7 5.3,7.8 		"/>
		<polygon class="st2" points="5.4,6 5.4,8.5 4.7,8.1 4.6,5.6 		"/>
		<polygon class="st0" points="7,8.7 5.4,7.7 4.7,8.1 7,9.4 7,9.4 		"/>
		<polygon class="st0" points="9.3,5.4 6.9,4.2 6.3,4.6 8.6,5.8 8.6,5.8 		"/>
		<path class="st2" d="M7,4.3C7,4.2,6.9,4.2,7,4.3C6.9,4.2,6.9,4.2,7,4.3L7,4.3L6.3,4.6l0,2.6L7,6.8L7,4.3C6.9,4.3,7,4.3,7,4.3z"/>
		<polygon class="st0" points="7,6.8 9.3,5.4 8.6,5.1 7,6.1 7,6.1 		"/>
		<path class="st0" d="M5.4,5.9l2.2-1.3L6.9,4.2l-1.6,1l-0.1,0l0,0.6C5.3,5.8,5.4,5.8,5.4,5.9z"/>
		<polygon class="st2" points="9.3,8.1 9.3,5.4 8.6,5.9 8.6,8.5 		"/>
		<polygon class="st0" points="7,9.4 9.3,8.1 8.7,7.7 7,8.7 7,8.7 		"/>
		<path class="st0" d="M8.7,8.3L9.1,8l-2-1.2L6.5,7.1l2.1,1.3C8.6,8.4,8.7,8.3,8.7,8.3z"/>
		<polygon class="st2" points="7.5,9.1 7.5,6.5 7,6.8 7,9.4 		"/>
		<polygon class="st0" points="7,6.1 5.3,5.2 4.6,5.6 7,6.9 7,6.8 		"/>
		<polygon class="st2" points="7,6.8 7,9.4 6.5,9.1 6.5,6.6 		"/>
	</g>
	<g>
		<g>
			<path class="st0" d="M22.2,11.7c-0.2-0.3-0.4-0.6-0.7-1c-0.3-0.4-0.5-0.7-0.8-1.1c-0.3-0.4-0.6-0.7-1-1s-0.7-0.6-1-0.9v4h-2.1
				V2.2h2.1v3.6c0.5-0.6,1.1-1.2,1.7-1.8s1.1-1.2,1.6-1.8h2.5c-0.6,0.8-1.3,1.5-2,2.2c-0.7,0.7-1.3,1.4-2.1,2.1
				c0.8,0.6,1.5,1.4,2.2,2.3s1.4,1.8,2,2.9L22.2,11.7L22.2,11.7z"/>
			<path class="st0" d="M31.6,11.5c-0.3,0.1-0.8,0.2-1.3,0.3c-0.5,0.1-1.1,0.1-1.7,0.1c-0.6,0-1.1-0.1-1.5-0.3
				c-0.4-0.2-0.7-0.4-1-0.7c-0.2-0.3-0.4-0.7-0.5-1.1S25.3,9,25.3,8.5v-4h2v3.8c0,0.7,0.1,1.1,0.3,1.4c0.2,0.3,0.5,0.4,1,0.4
				c0.1,0,0.3,0,0.5,0c0.2,0,0.3,0,0.4,0V4.5h2V11.5z"/>
			<path class="st0" d="M40.2,8.1c0,0.6-0.1,1.1-0.3,1.6c-0.2,0.5-0.4,0.9-0.7,1.2c-0.3,0.3-0.7,0.6-1.2,0.8c-0.5,0.2-1,0.3-1.6,0.3
				c-0.3,0-0.5,0-0.8,0c-0.3,0-0.5,0-0.8-0.1c-0.3,0-0.5-0.1-0.8-0.1c-0.2,0-0.5-0.1-0.6-0.2V1.4l2-0.3v3.6c0.2-0.1,0.5-0.2,0.7-0.2
				c0.3-0.1,0.5-0.1,0.8-0.1c0.5,0,1,0.1,1.4,0.3c0.4,0.2,0.7,0.4,1,0.8c0.3,0.3,0.5,0.7,0.6,1.2C40.1,7,40.2,7.5,40.2,8.1z
				 M38.1,8.1c0-1.3-0.5-2-1.5-2c-0.2,0-0.4,0-0.6,0.1c-0.2,0.1-0.4,0.1-0.5,0.2v3.7c0.1,0,0.2,0,0.4,0c0.2,0,0.3,0,0.5,0
				c0.6,0,1-0.2,1.3-0.6C38,9.2,38.1,8.7,38.1,8.1z"/>
			<path class="st0" d="M41.4,8.2c0-0.6,0.1-1.2,0.3-1.7c0.2-0.5,0.5-0.9,0.8-1.2c0.3-0.3,0.7-0.6,1.1-0.7c0.4-0.2,0.8-0.3,1.3-0.3
				c1,0,1.8,0.3,2.4,0.9c0.6,0.6,0.9,1.5,0.9,2.8c0,0.1,0,0.3,0,0.4s0,0.3,0,0.4h-4.6c0,0.4,0.2,0.8,0.6,1c0.3,0.3,0.8,0.4,1.4,0.4
				c0.4,0,0.8,0,1.1-0.1c0.4-0.1,0.7-0.2,0.9-0.3l0.3,1.7c-0.1,0.1-0.3,0.1-0.4,0.2c-0.2,0.1-0.4,0.1-0.6,0.1
				c-0.2,0-0.5,0.1-0.7,0.1c-0.3,0-0.5,0-0.8,0c-0.7,0-1.2-0.1-1.7-0.3c-0.5-0.2-0.9-0.5-1.2-0.8c-0.3-0.3-0.5-0.7-0.7-1.2
				C41.5,9.2,41.4,8.7,41.4,8.2z M46.2,7.4c0-0.2,0-0.3-0.1-0.5c0-0.2-0.1-0.3-0.2-0.4c-0.1-0.1-0.2-0.2-0.4-0.3
				C45.4,6,45.2,6,44.9,6c-0.2,0-0.4,0-0.6,0.1c-0.2,0.1-0.3,0.2-0.4,0.3c-0.1,0.1-0.2,0.3-0.3,0.5c-0.1,0.2-0.1,0.3-0.1,0.5
				L46.2,7.4L46.2,7.4z"/>
			<path class="st0" d="M56.5,8.1c0,0.6-0.1,1.1-0.2,1.5c-0.1,0.5-0.3,0.8-0.6,1.2c-0.3,0.3-0.6,0.6-1,0.8c-0.4,0.2-0.8,0.3-1.4,0.3
				c-0.3,0-0.5,0-0.8-0.1c-0.3-0.1-0.5-0.1-0.7-0.2v2.7h-2V4.7c0.2-0.1,0.4-0.1,0.6-0.2s0.5-0.1,0.8-0.1c0.3,0,0.5-0.1,0.8-0.1
				c0.3,0,0.5,0,0.8,0c0.6,0,1.1,0.1,1.6,0.3c0.5,0.2,0.9,0.4,1.2,0.8c0.3,0.3,0.6,0.7,0.7,1.2C56.4,7,56.5,7.5,56.5,8.1z M54.4,8.2
				c0-0.6-0.1-1.1-0.4-1.5c-0.3-0.4-0.7-0.6-1.3-0.6c-0.2,0-0.4,0-0.5,0c-0.2,0-0.3,0-0.4,0v3.7C52,9.9,52.2,10,52.4,10
				c0.2,0.1,0.4,0.1,0.6,0.1C54,10.1,54.4,9.5,54.4,8.2z"/>
			<path class="st0" d="M60.7,4.3c0.6,0,1.1,0.1,1.5,0.2c0.4,0.1,0.7,0.3,1,0.6c0.3,0.3,0.4,0.6,0.5,0.9c0.1,0.4,0.2,0.8,0.2,1.2
				v4.3c-0.3,0.1-0.7,0.1-1.2,0.2c-0.5,0.1-1.2,0.1-1.9,0.1c-0.5,0-0.9,0-1.3-0.1c-0.4-0.1-0.7-0.2-1-0.4c-0.3-0.2-0.5-0.4-0.6-0.7
				c-0.1-0.3-0.2-0.7-0.2-1.1c0-0.4,0.1-0.8,0.3-1.1s0.4-0.5,0.7-0.7c0.3-0.2,0.6-0.3,1-0.4s0.8-0.1,1.1-0.1c0.3,0,0.5,0,0.7,0
				c0.2,0,0.4,0,0.5,0.1V7.1c0-0.3-0.1-0.6-0.3-0.8C61.4,6.1,61,6,60.5,6c-0.3,0-0.7,0-1,0.1c-0.3,0-0.6,0.1-0.9,0.2l-0.3-1.6
				c0.1,0,0.3-0.1,0.5-0.1c0.2,0,0.4-0.1,0.6-0.1c0.2,0,0.4-0.1,0.7-0.1C60.2,4.3,60.5,4.3,60.7,4.3z M60.9,10.3c0.2,0,0.4,0,0.6,0
				c0.2,0,0.3,0,0.4,0V8.7c-0.1,0-0.2,0-0.4-0.1c-0.2,0-0.3,0-0.5,0c-0.2,0-0.4,0-0.5,0c-0.2,0-0.3,0.1-0.5,0.1
				c-0.1,0.1-0.2,0.2-0.3,0.3c-0.1,0.1-0.1,0.3-0.1,0.4c0,0.3,0.1,0.5,0.3,0.7C60.2,10.2,60.5,10.3,60.9,10.3z"/>
			<path class="st0" d="M65.3,8.1c0-0.5,0.1-1,0.3-1.5c0.2-0.5,0.4-0.9,0.7-1.2c0.3-0.3,0.7-0.6,1.2-0.8c0.5-0.2,1-0.3,1.6-0.3
				c0.4,0,0.7,0,1.1,0.1c0.3,0.1,0.6,0.2,0.9,0.3l-0.4,1.6c-0.2-0.1-0.4-0.1-0.6-0.2c-0.2-0.1-0.5-0.1-0.8-0.1c-0.6,0-1,0.2-1.4,0.6
				c-0.3,0.4-0.5,0.9-0.5,1.5c0,0.7,0.1,1.2,0.4,1.5c0.3,0.4,0.8,0.5,1.5,0.5c0.3,0,0.5,0,0.8-0.1c0.3,0,0.5-0.1,0.8-0.2l0.3,1.7
				c-0.2,0.1-0.5,0.2-0.9,0.3c-0.4,0.1-0.8,0.1-1.2,0.1c-0.7,0-1.2-0.1-1.7-0.3c-0.5-0.2-0.9-0.5-1.2-0.8c-0.3-0.3-0.5-0.7-0.7-1.2
				C65.4,9.1,65.3,8.6,65.3,8.1z"/>
			<path class="st0" d="M74.6,7.1c0.2-0.2,0.4-0.5,0.6-0.7c0.2-0.2,0.4-0.5,0.6-0.7c0.2-0.2,0.4-0.5,0.6-0.7
				c0.2-0.2,0.3-0.4,0.5-0.5h2.4c-0.5,0.6-1,1.1-1.4,1.6c-0.5,0.5-1,1-1.5,1.6c0.3,0.3,0.6,0.5,0.8,0.9c0.3,0.3,0.6,0.7,0.8,1.1
				s0.5,0.7,0.8,1.1c0.2,0.4,0.4,0.7,0.6,1H77c-0.1-0.2-0.3-0.5-0.5-0.8c-0.2-0.3-0.4-0.6-0.6-0.9c-0.2-0.3-0.4-0.6-0.7-0.8
				s-0.5-0.5-0.7-0.7v3.2h-2V1.4l2-0.3L74.6,7.1L74.6,7.1z"/>
		</g>
	</g>
</g>
</svg>
