<?xml version="1.0" encoding="utf-8"?>
<!-- Generator: Adobe Illustrator 21.1.0, SVG Export Plug-In . SVG Version: 6.00 Build 0)  -->
<svg version="1.1" id="Layer_1" xmlns="http://www.w3.org/2000/svg" xmlns:xlink="http://www.w3.org/1999/xlink" x="0px" y="0px"
	 viewBox="0 0 80.5 15.2" style="enable-background:new 0 0 80.5 15.2;" xml:space="preserve">
<style type="text/css">
	.st0{display:none;fill:#FFFFFF;}
	.st1{display:none;}
	.st2{display:inline;fill:#193D4B;}
	.st3{display:inline;}
	.st4{fill:#FFFFFF;}
	.st5{fill:#00A651;}
	.st6{fill:#326DE6;}
	.st7{fill:none;}
	.st8{fill:#0C4CBF;}
	.st9{fill:#3D7FF4;}
</style>
<path id="XMLID_127_" class="st0" d="M108.3,36c-0.3,1-1.1,1.6-2.2,1.6c-1.3,0-2.3-0.8-3.4-1.4c-0.2-0.1-0.5-0.4-0.5-0.7
	c0-0.5,0.3-1,0.5-1.5s0.4-1.1,0.6-1.6c0.4-1.1,0.9-2.2,1.4-3.2c0.6-1.3,1.1-2.5,1.7-3.8c0.7-1.5,1.4-2.9,2-4.4
	c0.8-1.6,1.6-3.2,2.4-4.9c0.1-0.2,0.2-0.4,0.3-0.6c1.6-3.3,3.2-6.7,4.8-10c1.2-2.5,2.2-5.1,3.2-7.7c0.6-1.7,1.4-3.4,1.1-5.2
	c-0.2-1.3-1.3-2-1.7-3.2c-0.7-2,4-2.1,5.1-2.3c1.7-0.2,3.4-0.4,5.1-0.5c1.3-0.1,2.7-0.1,4-0.1c1.1,0,2.5-0.1,3.4,0.5
	c1.1,0.7,1.1,2.5,1.3,3.7c0.3,2,0.5,3.9,0.6,5.9c0.1,1.1,0.1,2.2,0.1,3.4c0.1,3.5,0.2,7,0.2,10.5c0,2.4,0,4.9,0,7.3
	c0,5.8,0.5,9.8,1.5,12.2c0.4,0.9,0.8,1.3,1.1,1.3c0.8,0,1.5-0.3,2.2-0.6c0.5-0.2,0.9-0.6,1.3-0.9c0.4-0.2,0.8-0.5,1.2,0
	c0.3,0.3,0.4,0.8,0.6,1.1c0.2,0.3,0.5,0.6,0.4,1c-0.1,0.4-0.5,0.6-0.8,0.8c-0.4,0.3-0.8,0.6-1.2,0.9c-0.8,0.6-1.6,1.1-2.5,1.6
	c-0.5,0.3-1,0.5-1.5,0.7c-2.2,1-4.2,1.5-6.1,1.5c-0.9,0-2-0.3-2.9-0.7c-0.9-0.3-1.6-0.9-2.2-1.6c-1.7-2.1-2.1-5-2.3-7.6
	c0-0.9,0-1.8,0-2.7c0-0.6,0.1-1.3,0.2-1.9s0.4-1.3,0.1-1.9c-0.2-0.5-0.8-0.6-1.3-0.7c-3.1-0.2-6.2-0.1-9.3,0.2
	c-1.2,0.1-2.7,0-3.5,1.1c-0.6,0.8-0.9,2.1-1.3,3.1c-0.5,1.2-1,2.4-1.4,3.7c-0.3,0.7-0.5,1.4-0.8,2.1c-0.3,0.8-0.6,1.7-0.9,2.5
	C108.8,34.2,108.6,35.1,108.3,36z M127.7,16.2l0.1-8.2c0-7.2-0.3-12.1-0.9-14.6c-0.4,0-0.7,0-0.9,0.1c-1.3,3.6-2.6,6.7-3.7,9.3
	c-1.2,2.5-2.4,5.2-3.8,8.1c-1.3,2.9-2.2,4.7-2.5,5.4L127.7,16.2L127.7,16.2z"/>
<path id="XMLID_125_" class="st0" d="M148.1,6.7c0.3-0.1,0.6-0.1,0.9-0.2c0.6-0.1,1.2-0.2,1.7-0.3c1.6-0.2,3.1-0.3,4.7-0.3
	c1,0,2.1,0,3.1-0.1c0.3,0,0.7-0.1,1,0.2c0.2,0.3,0.2,0.6,0.3,0.9s0.2,0.6,0.3,1c0.1,0.3,0.1,0.7,0.2,1.1c0,0.2,0,0.4,0.1,0.6
	c0,0.1,0.1,0.5,0,0.5c3.6-3,6.7-4.5,9.1-4.5c2.4,0,4.4,1,5.9,3.1c1.5,2,2.2,5,2.2,8.9c0,6.9-1.3,12-3.8,15.3c-2.4,3.2-6,5.2-10,5
	c-1.3-0.1-2.7-0.2-3.9-0.6c-0.5-0.2-1.1-0.4-1.1-1.1c0-0.4,0.1-0.9,0.4-1.2c0.2-0.2,0.6-0.3,0.9-0.4c0.3-0.2,0.7-0.4,1-0.6
	c0.7-0.4,1.3-0.9,1.9-1.5c1.4-1.3,2.4-3,3.2-4.8c1.6-3.8,2.5-8.6,1.2-12.6c-0.4-1.2-1.1-2.5-2.3-2.9c-1-0.4-2,0-2.8,0.7
	c-2.1,1.8-2.6,5-2.9,7.6c-0.6,4.1-1.2,8.1-2.1,12.2c-0.6,2.6-1.1,5.3-1.4,8c-0.3,2.4-0.7,4.8-0.8,7.1c0,0.7,0,1.4,0,2
	c0,0.5,0,1-0.4,1.3c-0.5,0.4-1.2,0.4-1.8,0.5c-0.9,0.3-1.9,0.5-2.9,0.6c-0.5,0.1-1.1,0.2-1.6,0.2c-0.6,0.1-1.3,0.1-1.9,0.2
	c-0.4,0.1-0.9,0.1-1.2-0.1l-0.1-0.1c-0.4-0.3-0.4-0.9-0.4-1.4c0-0.6,0-1.2,0-1.8c0-1.2,0.2-2.4,0.4-3.6c0.2-1,0.3-2.1,0.5-3.1
	c0.2-1.3,0.5-2.6,0.8-3.9c0.3-1.6,0.7-3.2,1-4.8c0-0.2,0.1-0.4,0.1-0.6c1.8-8.5,2.8-15,2.8-19.6c0-0.9-0.2-1.9-0.6-2.9
	c-0.3-0.7-0.6-1.3-1-1.9c-0.2-0.3-0.4-0.6-0.6-0.9c-0.2-0.2-0.4-0.5-0.3-0.9C147.7,6.9,147.9,6.8,148.1,6.7z"/>
<path id="XMLID_122_" class="st0" d="M236.7,27.6c0,3-1.3,5.4-3.9,7.3c-1,0.7-1.9,1.1-3,1.5c-0.6,0.2-1.2,0.4-1.8,0.6
	c-1.3,0.4-2.7,0.6-4.1,0.7c-2.8,0.2-6-0.2-8.4-1.8c-2-1.4-2.8-3.7-1.5-5.9c1.1-2,3.5-3.5,5.8-3.1c2.5,0.4,3.7,2.9,4.5,4.9
	c0.2,0.5,0.3,0.9,0.5,1.4c0.2,0.7,0.7,1.2,1.4,1s1.4-0.8,1.6-1.6c0.1-0.3,0.1-0.6,0.1-0.9c0-2.2-1.9-5.3-5.8-9.3
	c-3.8-4-5.8-7.2-5.8-9.6s1.1-4.2,3.2-5.5c2.1-1.3,4.7-2,7.7-2s5.3,0.5,6.8,1.6s2.3,2.5,2.3,4.3s-1.4,4.3-4.3,7.6
	c0.3,0.3,0.8,0.8,1.3,1.3s1.2,1.6,2.1,3.1C236.3,24.9,236.7,26.3,236.7,27.6z M232.9,11.4c0-1.7-1.1-2.5-3.4-2.5
	c-1.1,0-2,0.2-2.7,0.7s-1.1,1-1.1,1.5c0,1,1,2.5,3.1,4.4l1.1,0.9C231.9,14.8,232.9,13.1,232.9,11.4z"/>
<path id="XMLID_120_" class="st0" d="M256.8,37.8c-4.4,0-8.1-1.8-10.9-5.4c-2.9-3.6-4.3-8.2-4.3-14s1-11,3-15.8S249.4-6,253.1-9
	s7.6-4.5,11.8-4.5s7.6,0.9,10.2,2.8s3.9,4.2,3.9,6.8c0,1.2-0.2,2.5-0.6,3.7c-0.3,0.8-0.6,1.7-1.2,2.4c-0.8,1-1.7,0.6-2.8,0.4
	c-1-0.2-1.9-0.5-2.9-0.8c-1.2-0.4-2.5-1-3.5-1.8c-1-0.7-0.6-1.5-0.4-2.5c0.1-0.7,0.3-1.4,0.4-2.1s0.3-1.4,0.4-2
	c0.2-1.2-0.2-1.6-1.3-2c-0.9-0.3-1.9-0.4-2.9-0.4c-2.9,0-5.4,2.5-7.7,7.4c-2.2,4.9-3.3,11-3.3,18.3c0,4.8,0.8,8.2,2.4,10.4
	s3.5,3.2,5.8,3.2c1.4,0,3-0.3,4.3-0.8c1.5-0.6,3-1.4,4.2-2.5c0.5-0.4,0.9-0.8,1.4-1.2c0.2-0.2,0.4-0.5,0.8-0.6s0.6,0.2,0.9,0.4
	c0.5,0.5,0.9,0.9,1.4,1.3c0.4,0.3,0.8,0.8,0.4,1.3c-0.3,0.4-0.7,0.7-1,1.1c-0.5,0.5-1,1-1.5,1.5c-1.4,1.3-2.7,2.4-4,3.3
	c-1.3,0.9-3,1.7-5,2.4C260.9,37.4,258.8,37.8,256.8,37.8z"/>
<path id="XMLID_117_" class="st0" d="M288.4,37.8c-3.3,0-5.8-1.1-7.7-3.4c-1.8-2.3-2.8-5.5-2.8-9.6c0-5.3,1.4-9.8,4.2-13.6
	c2.8-3.8,6.7-5.7,11.7-5.7l2.6,0.1c0.8-0.4,1.7-0.6,2.7-0.6c3.7,0,5.6,3.5,5.6,10.6c1.9-0.1,3.9-0.4,5.9-0.8l1.1-0.3l0.4,2.8
	c-1.6,0.7-3.7,1.3-6.3,1.8l-1.4,0.3c-0.9,5-2.7,9.3-5.5,13C296.3,35.9,292.7,37.8,288.4,37.8z M292.3,31.7c2,0,3.8-1.3,5.4-3.8
	c1.6-2.6,2.7-5.3,3.3-8.1c-5.1,0-7.6-1.9-7.6-5.7c0-1.5,0.3-2.9,0.9-4.3l0.4-0.7C294.5,9,294.3,9,294,9c-0.3,0-0.5,0-0.6,0.1
	c-1.2,0.8-2.3,2.5-3.3,5.3s-1.6,6-1.6,9.6C288.4,29.1,289.7,31.7,292.3,31.7z"/>
<path id="XMLID_114_" class="st0" d="M341.1,32.6c0,0.1-0.1,0.2-0.2,0.3c-0.5,0.5-1.2,1-1.8,1.4c-0.8,0.6-1.6,1.1-2.5,1.6
	c-1.3,0.7-2.6,1.4-4,1.7c-0.7,0.1-1.4,0.2-2.1,0.2c-3.1,0-4.8-1.5-5.3-4.5c-1.4,1.4-3,2.5-4.8,3.3s-3.3,1.2-4.6,1.2
	c-2.3,0-4.2-1-5.8-3c-1.6-2-2.4-5.1-2.4-9.2c0-6.3,1.3-11.2,4-14.7c2.7-3.6,5.6-5.4,9-5.4c3.3,0,6.1,0.8,8.4,2.3
	c0.5-2.8,1-5.6,1.4-8.4c0.3-2.3,0.5-4.5,0.7-6.8c0.1-1.6,0.1-3.1-0.1-4.6c-0.1-0.8,0.1-1.5,1-1.7c0.4-0.1,0.9-0.2,1.3-0.4
	c1.2-0.3,2.4-0.6,3.7-0.8c0.7-0.1,1.4-0.2,2-0.2c1.1-0.1,2.5-0.5,2.7,1c0.3,2.2,0.1,4.4-0.1,6.6c-0.2,1.4-0.4,2.8-0.6,4.2
	c-0.2,1.7-0.6,3.4-0.9,5.1c-0.4,2-0.7,4.1-1.1,6.1c-0.1,0.3-0.1,0.5-0.2,0.8c-2.1,10.6-3.1,17.8-3.1,21.6c0,1.1,0.3,1.7,0.8,1.7
	c0.4,0,0.8-0.3,1.1-0.5c0.3-0.2,0.7-0.4,1-0.6c0.3-0.2,0.6-0.5,0.9-0.6s0.5,0.1,0.7,0.3c0.2,0.3,0.4,0.7,0.6,1
	C340.9,31.9,341.2,32.2,341.1,32.6z M324.1,9.6c-1.7,0-3.1,1.6-4.3,4.9c-1.2,3.3-1.8,6.5-1.8,9.7s0.2,5.2,0.7,6.1
	c0.4,0.9,1.1,1.3,2,1.3c1.6,0,3.1-0.6,4.6-1.9c0.1-1.9,1.2-8.2,3.2-18.9C326.9,10.1,325.4,9.6,324.1,9.6z"/>
<path id="XMLID_111_" class="st0" d="M342.9,24.6c0-5.9,1.8-10.6,5.4-14s7.6-5.1,12.2-5.1c2.8,0,5.1,0.7,6.9,2.1s2.7,3.2,2.7,5.5
	s-0.6,4.2-1.7,5.8c-1.2,1.6-2.6,2.8-4.2,3.6c-3.4,1.7-6.4,2.7-9.2,3.1l-1.7,0.2c0.3,4.5,2.2,6.7,5.5,6.7c1.1,0,2.3-0.3,3.6-0.9
	c0.6-0.2,1.1-0.5,1.6-0.8c0.6-0.3,1-0.7,1.5-1.1c0.4-0.3,0.8-0.6,1.3-0.2c0.3,0.3,0.5,0.6,0.8,1c0.2,0.3,0.6,0.5,0.4,1
	c-0.1,0.3-0.4,0.5-0.6,0.7c-0.5,0.4-1,0.8-1.5,1.2c-1.1,0.9-2.2,1.6-3.2,2.1c-2.7,1.5-5.8,2.3-9,2.3c-3.3,0-5.8-1.2-7.7-3.5
	C343.9,32,342.9,28.8,342.9,24.6z M358.8,19.2c1.4-1.6,2.1-3.7,2.1-6.2c0-2.6-0.8-3.8-2.3-3.8c-1.8,0-3.2,1.5-4.2,4.6
	s-1.5,5.9-1.5,8.6C355.5,21.9,357.4,20.8,358.8,19.2z"/>
<g class="st1">
	<path id="XMLID_81_" class="st2" d="M80.8,48.7c0,3.2-2.6,5.8-5.8,5.8H11.4c-3.2,0-5.8-2.6-5.8-5.8v-63.6c0-3.2,2.6-5.8,5.8-5.8H75
		c3.2,0,5.8,2.6,5.8,5.8V48.7z"/>
	<g class="st3">
		<g>
			<g>
				<g id="XMLID_161_">
					<g id="XMLID_167_">
						<path id="XMLID_171_" class="st4" d="M71.4,26.9c0.1-3.2-2.8-3.9-4.5-3.6c-3.3,0.6-3,3.6-3,3.6l0,0c0,3-0.7,5.2-2.2,6.6
							c-1.5,1.5-3.6,2.2-6.3,2.2c-5.7,0-8.5-2.9-8.5-8.8l0,0c0,4.9-1.3,8.5-3.8,11c0.2,0.2,0.4,0.4,0.6,0.6
							c2.9,2.5,6.8,3.7,11.7,3.7s8.8-1.2,11.7-3.7C70,36,71.4,32.1,71.4,26.9L71.4,26.9z"/>
						<path id="XMLID_168_" class="st4" d="M55.4,44.8c-5.5,0-10-1.5-13.4-4.3c-0.3-0.2-0.5-0.5-0.8-0.7l-1.9-2l1.9-1.9
							c2-1.9,3-5,3-9.1h5.3c0,4.5,1.6,6.2,5.9,6.2c2,0,3.5-0.5,4.4-1.4c0.9-0.9,1.4-2.5,1.4-4.7c-0.2-2.2,1.1-5.6,5.2-6.3
							c0.4-0.1,0.8-0.1,1.2-0.1c1.9,0,3.6,0.7,4.8,1.9c0.7,0.7,1.5,2,1.6,3.9v0.1c0,0.1,0,0.2,0,0.3v0.1c0,6-1.8,10.6-5.3,13.6
							C65.4,43.3,60.9,44.8,55.4,44.8z M46.8,37.5c2.2,1.4,5.1,2.1,8.6,2.1c4.2,0,7.6-1,10-3.1c2.2-1.9,3.4-4.9,3.4-9.1l0,0v-0.5
							c0-0.2,0-0.5-0.1-0.6c-0.2-0.2-0.8-0.4-1.3-0.3c-0.4,0.1-0.8,0.1-0.8,0.7l0,0V27c0,3.7-1,6.6-3,8.5c-2,2-4.7,3-8.1,3
							c-3.2,0-5.8-0.9-7.7-2.5C47.4,36.4,47.1,37,46.8,37.5z"/>
					</g>
					<g id="XMLID_162_">
						<path id="XMLID_166_" class="st4" d="M63.9,6.9c0-3-0.7-5.2-2.2-6.6c-1.5-1.5-3.6-2.2-6.3-2.2c-5.6,0-8.5,2.9-8.5,8.7
							c0-4.9-1.2-8.5-3.7-11c0.2-0.2,0.4-0.3,0.5-0.5c2.9-2.5,6.8-3.7,11.7-3.7s8.8,1.2,11.7,3.7s4.4,6.3,4.4,11.6
							c0,0,0.3,3.1-3,3.6C66.7,10.9,63.8,10.1,63.9,6.9z"/>
						<path id="XMLID_163_" class="st4" d="M67.7,13.3c-1.9,0-3.6-0.7-4.8-1.9c-0.8-0.8-1.7-2.2-1.6-4.5c0-2.1-0.5-3.7-1.4-4.7
							c-1-1-2.4-1.4-4.4-1.4c-4.2,0-5.9,1.7-5.9,6.1h-5.3c0-4.1-1-7.2-3-9.1l-1.9-2l1.9-1.9c0.2-0.2,0.4-0.4,0.7-0.6
							c3.4-2.9,7.9-4.3,13.4-4.3s10,1.5,13.4,4.3c3.5,3,5.3,7.5,5.3,13.5c0.2,2.2-1.1,5.6-5.2,6.3C68.5,13.2,68.1,13.3,67.7,13.3z
							 M55.4-4.5c3.4,0,6.2,1,8.1,3c2,2,3,4.8,3,8.5c0,0.3,0,0.6,0.1,0.7c0.2,0.2,0.8,0.4,1.3,0.3c0.3,0,0.9-0.1,0.8-0.8V6.9
							c0-4.5-1.1-7.6-3.4-9.6c-2.4-2-5.8-3.1-10-3.1c-3.4,0-6.3,0.7-8.5,2c0.3,0.5,0.6,1,0.9,1.6C49.6-3.7,52.2-4.5,55.4-4.5z"/>
					</g>
				</g>
			</g>
			<g>
				<g>
					<path id="XMLID_74_" class="st5" d="M37.2,33.4c-1.5,1.5-3.6,2.2-6.3,2.2c-5.7,0-8.5-2.9-8.5-8.8V6.9c0-5.9,2.8-8.8,8.5-8.8
						c2.7,0,4.8,0.7,6.3,2.2s2.2,3.7,2.2,6.6l0,0c0-4.9,1.3-8.5,3.8-11c-0.2-0.2-0.4-0.4-0.6-0.6c-2.9-2.5-6.8-3.7-11.7-3.7
						s-8.8,1.2-11.7,3.7s-4.3,6.3-4.3,11.6v19.9c0,5.3,1.4,9.1,4.3,11.6s6.8,3.7,11.7,3.7s8.8-1.2,11.7-3.7c0.2-0.2,0.4-0.3,0.5-0.5
						c-2.5-2.5-3.7-6.1-3.7-11C39.4,29.8,38.6,32,37.2,33.4z"/>
					<path class="st5" d="M30.8,44.7c-5.5,0-10-1.5-13.4-4.3c-3.5-3-5.2-7.5-5.2-13.6V6.9c0-6,1.8-10.6,5.2-13.6
						c3.4-2.9,7.9-4.3,13.4-4.3s10,1.5,13.4,4.3C44.5-6.5,44.7-6.2,45-6l1.9,1.9L45-2.2c-2,1.9-3,5-3,9.1h-5.3
						c0-2.2-0.5-3.8-1.4-4.8c-1-1-2.4-1.4-4.4-1.4c-4.2,0-5.9,1.7-5.9,6.2v19.9c0,4.5,1.6,6.2,5.9,6.2c2,0,3.5-0.5,4.4-1.4
						c0.9-0.9,1.4-2.5,1.4-4.7H42c0,4.1,1,7.2,2.9,9.1l1.9,1.9l-1.9,1.9c-0.2,0.2-0.4,0.4-0.7,0.6C40.9,43.2,36.4,44.7,30.8,44.7z
						 M30.8-5.8c-4.2,0-7.6,1-10,3.1c-2.3,2-3.4,5.1-3.4,9.6v19.9c0,4.5,1.1,7.6,3.4,9.6c2.4,2,5.7,3.1,10,3.1c3.4,0,6.3-0.7,8.5-2
						c-0.3-0.5-0.6-1.1-0.9-1.6c-1.9,1.6-4.5,2.5-7.6,2.5c-7.1,0-11.1-4.2-11.1-11.5v-20c0-7.3,4.1-11.5,11.1-11.5
						c3.2,0,5.7,0.8,7.7,2.5c0.3-0.6,0.6-1.1,0.9-1.6C37.2-5.1,34.3-5.8,30.8-5.8z"/>
				</g>
				<g>
					<path id="XMLID_71_" class="st5" d="M39.4,6.9v19.9v0.1c0,4.9,1.2,8.5,3.7,11c2.5-2.5,3.8-6.1,3.8-11v-20V6.8
						c0-4.9-1.2-8.5-3.7-11C40.6-1.7,39.4,2,39.4,6.9z"/>
					<path class="st5" d="M43,41.6l-1.8-1.8c-3-3-4.5-7.3-4.5-12.9v-20c0-5.6,1.6-9.9,4.6-12.9l1.9-1.8L45-6c3,3,4.5,7.3,4.5,12.9
						v20c0,5.6-1.6,9.9-4.6,12.9L43,41.6z M43.1,0.5C42.4,2.2,42,4.4,42,6.9v19.9c0,2.6,0.4,4.7,1.1,6.4c0.8-1.7,1.1-3.9,1.1-6.4
						V6.9C44.3,4.4,43.9,2.2,43.1,0.5z"/>
				</g>
				<g>
					<path id="XMLID_68_" class="st5" d="M39.4,27.5c0,0-0.3,6.1,3.7,10.4c1.6,1.8,4,3.2,7.4,3.8c2.6,0.5,4.5-4.5,1.8-6.3
						c-0.3-0.1-5.4-1.8-5.4-8.5L39.4,27.5z"/>
					<path class="st5" d="M50.8,44.3L50.8,44.3c-0.3,0-0.6,0-0.8-0.1c-3.7-0.7-6.6-2.2-8.8-4.6c-4.7-5-4.4-12-4.4-12.3l0.1-2.3
						l12.7-1v2.9c-0.1,4.6,3.1,5.8,3.5,5.9l0.4,0.1l0.3,0.2c2.1,1.5,3,4.2,2.1,6.9C55.1,42.6,53,44.3,50.8,44.3z M42.2,29.9
						c0.3,1.8,1,4.3,2.8,6.2c1.4,1.5,3.2,2.4,5.6,2.9c0.1-0.2,0.3-0.6,0.3-1c0-0.1,0-0.3-0.1-0.3c-2.2-0.9-5.4-3.3-6.4-7.9
						L42.2,29.9z"/>
				</g>
			</g>
		</g>
	</g>
</g>
<path id="XMLID_109_" class="st0" d="M182,6.7c0.3-0.1,0.6-0.1,0.9-0.2c0.6-0.1,1.2-0.2,1.7-0.3c1.6-0.2,3.1-0.3,4.7-0.3
	c1,0,2.1,0,3.1-0.1c0.3,0,0.7-0.1,1,0.2c0.2,0.3,0.2,0.6,0.3,0.9s0.2,0.6,0.3,1c0.1,0.3,0.1,0.7,0.2,1.1c0,0.2,0,0.4,0.1,0.6
	c0,0.1,0.1,0.5,0,0.5c3.6-3,6.7-4.5,9.1-4.5c2.4,0,4.4,1,5.9,3.1c1.5,2,2.2,5,2.2,8.9c0,6.9-1.3,12-3.8,15.3c-2.4,3.2-6,5.2-10,5
	c-1.3-0.1-2.7-0.2-3.9-0.6c-0.5-0.2-1.1-0.4-1.1-1.1c0-0.4,0.1-0.9,0.4-1.2c0.2-0.2,0.6-0.3,0.9-0.4c0.3-0.2,0.7-0.4,1-0.6
	c0.7-0.4,1.3-0.9,1.9-1.5c1.4-1.3,2.4-3,3.2-4.8c1.6-3.8,2.5-8.6,1.2-12.6c-0.4-1.2-1.1-2.5-2.3-2.9c-1-0.4-2,0-2.8,0.7
	c-2.1,1.8-2.6,5-2.9,7.6c-0.6,4.1-1.2,8.1-2.1,12.2c-0.6,2.6-1.1,5.3-1.4,8c-0.3,2.4-0.7,4.8-0.8,7.1c0,0.7,0,1.4,0,2
	c0,0.5,0,1-0.4,1.3c-0.5,0.4-1.2,0.4-1.8,0.5c-0.9,0.3-1.9,0.5-2.9,0.6c-0.5,0.1-1.1,0.2-1.6,0.2c-0.6,0.1-1.3,0.1-1.9,0.2
	c-0.4,0.1-0.9,0.1-1.2-0.1l-0.1-0.1c-0.4-0.3-0.4-0.9-0.4-1.4c0-0.6,0-1.2,0-1.8c0-1.2,0.2-2.4,0.4-3.6c0.2-1,0.3-2.1,0.5-3.1
	c0.2-1.3,0.5-2.6,0.8-3.9c0.3-1.6,0.7-3.2,1-4.8c0-0.2,0.1-0.4,0.1-0.6c1.8-8.5,2.8-15,2.8-19.6c0-0.9-0.2-1.9-0.6-2.9
	c-0.3-0.7-0.6-1.3-1-1.9c-0.2-0.3-0.4-0.6-0.6-0.9c-0.2-0.2-0.4-0.5-0.3-0.9C181.6,6.9,181.8,6.8,182,6.7z"/>
<g>
	<g id="border_2_" transform="translate(0.000000, 2.554588)">
		<g>
			<path id="Fill-1_1_" class="st6" d="M7.1-1.9L7.1-1.9c-0.2,0-0.3,0-0.5,0.1L2.7,0C2.4,0.1,2.2,0.4,2.2,0.7L1.2,4.9
				c-0.1,0.3,0,0.7,0.2,0.9l2.7,3.3c0.2,0.3,0.5,0.4,0.8,0.4h4.3c0.3,0,0.6-0.1,0.8-0.4l2.7-3.3c0.2-0.3,0.3-0.6,0.2-0.9l-1-4.1
				c-0.1-0.3-0.3-0.6-0.6-0.7L7.5-1.8C7.4-1.9,7.2-1.9,7.1-1.9 M7.1-1.6c0.1,0,0.2,0,0.3,0.1l3.9,1.8c0.2,0.1,0.4,0.3,0.4,0.5
				L12.6,5c0.1,0.2,0,0.5-0.1,0.6L9.8,8.9C9.6,9.1,9.4,9.2,9.2,9.2H4.9c-0.2,0-0.4-0.1-0.6-0.3L1.7,5.6C1.5,5.4,1.5,5.2,1.5,5
				l0.9-4.1c0.1-0.2,0.2-0.4,0.4-0.5l3.9-1.8C6.9-1.6,7-1.6,7.1-1.6"/>
		</g>
	</g>
	<path class="st7" d="M6.6,3.7C6.6,3.7,6.6,3.7,6.6,3.7C6.6,3.7,6.6,3.7,6.6,3.7L6.6,3.7z"/>
	<path class="st7" d="M6.3,3.8c-0.5,0.1-1,0.4-1.4,0.8l0,0C5.3,4.1,5.8,3.9,6.3,3.8C6.3,3.8,6.3,3.8,6.3,3.8z"/>
	<path class="st6" d="M4.2,7.6L4.2,7.6C4.4,8.2,4.8,8.7,5.4,9l0,0C4.8,8.7,4.4,8.2,4.2,7.6z"/>
	<path class="st6" d="M4.5,5.1L4.5,5.1C4.1,5.6,4,6.3,4,6.9l0,0c0-0.1,0-0.2,0-0.3C4,6.1,4.2,5.5,4.5,5.1z"/>
	<path class="st7" d="M6,9.4c0,0,0.1,0,0.1,0C6.1,9.4,6,9.4,6,9.4L6,9.4z"/>
	<path class="st6" d="M11.6,7.4C11.6,7.4,11.6,7.4,11.6,7.4C11.6,7.4,11.6,7.4,11.6,7.4C11.6,7.4,11.6,7.4,11.6,7.4
		C11.6,7.4,11.6,7.4,11.6,7.4c-0.1,0-0.2,0-0.3,0c0,0-0.1,0-0.1,0h0c-0.2,0-0.4,0-0.5-0.1c-0.1,0-0.1-0.1-0.1-0.1c0,0,0,0,0,0
		l-0.1,0c0.1-0.4,0-0.9-0.1-1.3c-0.1-0.4-0.3-0.8-0.5-1.2L10,4.5v0c0-0.1,0-0.1,0.1-0.1c0.1-0.1,0.2-0.2,0.4-0.3c0,0,0.1,0,0.1-0.1
		c0.1,0,0.1-0.1,0.2-0.1c0,0,0,0,0.1,0c0,0,0,0,0,0c0.1-0.1,0.2-0.3,0.1-0.4c-0.1-0.1-0.1-0.1-0.2-0.1c-0.1,0-0.1,0-0.2,0.1l0,0
		c0,0,0,0-0.1,0c-0.1,0.1-0.1,0.1-0.1,0.1c0,0,0,0.1-0.1,0.1C10.1,3.8,10,3.9,9.8,4c0,0-0.1,0-0.1,0c0,0,0,0-0.1,0h0L9.6,4.1
		C9.5,4,9.3,3.8,9.2,3.7C8.6,3.3,8,3,7.3,3l0-0.1l0,0c0,0-0.1-0.1-0.1-0.1c0-0.1,0-0.3,0-0.5v0c0,0,0-0.1,0-0.1c0-0.1,0-0.1,0-0.2
		V1.8c0-0.2-0.1-0.3-0.3-0.3c-0.1,0-0.1,0-0.2,0.1C6.7,1.7,6.7,1.8,6.7,1.8v0.1c0,0.1,0,0.1,0,0.2c0,0,0,0.1,0,0.1v0
		c0,0.2,0.1,0.4,0,0.5c0,0.1-0.1,0.1-0.1,0.1l0,0l0,0.1C6.4,3,6.3,3,6.1,3c-0.7,0.2-1.4,0.5-1.8,1L4.2,4c0,0,0,0-0.1,0
		c0,0-0.1,0-0.1,0C3.9,3.9,3.8,3.8,3.7,3.6c0,0,0-0.1-0.1-0.1c0-0.1-0.1-0.1-0.1-0.1c0,0,0,0-0.1,0c0,0,0,0,0,0
		C3.4,3.4,3.3,3.3,3.2,3.3c-0.1,0-0.2,0-0.2,0.1C2.9,3.5,3,3.7,3.1,3.8c0,0,0,0,0,0c0,0,0,0,0.1,0C3.2,3.9,3.3,4,3.3,4
		c0,0,0.1,0,0.1,0.1c0.2,0.1,0.3,0.2,0.4,0.3c0.1,0.1,0.1,0.1,0.1,0.1v0l0.1,0.1c0,0,0,0.1-0.1,0.1C3.4,5.4,3.3,6.2,3.4,7.1l-0.1,0
		c0,0,0,0,0,0c0,0-0.1,0.1-0.1,0.1C3,7.3,2.8,7.3,2.6,7.3c0,0-0.1,0-0.1,0c-0.1,0-0.1,0-0.2,0c0,0,0,0-0.1,0c0,0,0,0,0,0
		C2.1,7.4,2,7.6,2,7.7c0,0.1,0.1,0.2,0.3,0.2c0,0,0.1,0,0.1,0c0,0,0,0,0,0c0,0,0,0,0.1,0c0.1,0,0.1,0,0.2-0.1c0,0,0.1,0,0.1,0h0
		c0.2-0.1,0.3-0.1,0.5-0.1h0c0.1,0,0.1,0,0.1,0.1c0,0,0,0,0,0l0.1,0C3.7,8.4,4.1,9,4.7,9.4C4.8,9.5,5,9.6,5.1,9.7L5.1,9.8
		c0,0,0,0,0,0c0,0,0,0.1,0,0.1c-0.1,0.1-0.1,0.3-0.2,0.4v0c0,0,0,0.1-0.1,0.1c0,0.1-0.1,0.1-0.1,0.1c0,0,0,0,0,0.1c0,0,0,0,0,0
		c-0.1,0.2,0,0.3,0.1,0.4c0,0,0.1,0,0.1,0c0.1,0,0.2-0.1,0.3-0.2c0,0,0,0,0,0c0,0,0,0,0-0.1c0-0.1,0-0.1,0.1-0.2l0-0.1
		c0.1-0.2,0.1-0.3,0.2-0.5c0-0.1,0.1-0.1,0.1-0.1c0,0,0,0,0,0L5.7,10c0.4,0.2,0.9,0.2,1.3,0.2c0.3,0,0.5,0,0.8-0.1
		c0.2,0,0.3-0.1,0.5-0.1l0.1,0.1c0,0,0,0,0,0c0.1,0,0.1,0,0.1,0.1c0.1,0.1,0.1,0.3,0.2,0.5v0l0,0.1c0,0.1,0,0.1,0.1,0.2
		c0,0,0,0,0,0.1c0,0,0,0,0,0c0.1,0.1,0.2,0.2,0.3,0.2c0,0,0.1,0,0.1,0c0.1,0,0.1-0.1,0.1-0.2c0-0.1,0-0.2,0-0.2c0,0,0,0,0,0
		c0,0,0,0,0-0.1c0-0.1-0.1-0.1-0.1-0.1c0,0,0-0.1-0.1-0.1v0C9,10.3,8.9,10.1,8.8,10c0-0.1,0-0.1,0-0.1c0,0,0,0,0,0L8.8,9.7
		C9.3,9.4,9.7,9,10,8.5c0.2-0.3,0.3-0.5,0.4-0.8l0.1,0c0,0,0,0,0,0c0,0,0.1-0.1,0.1-0.1h0c0.1,0,0.3,0.1,0.5,0.1h0c0,0,0.1,0,0.1,0
		c0.1,0,0.1,0.1,0.2,0.1c0,0,0,0,0.1,0c0,0,0,0,0,0c0,0,0.1,0,0.1,0c0.1,0,0.3-0.1,0.3-0.2C11.9,7.6,11.8,7.4,11.6,7.4z M7,9.5
		c-0.3,0-0.6,0-0.9-0.1c0,0-0.1,0-0.1,0l0,0C5.8,9.3,5.6,9.2,5.4,9l0,0C4.8,8.7,4.4,8.2,4.2,7.6l0,0C4.1,7.4,4.1,7.1,4.1,6.9l0,0
		c0-0.6,0.1-1.3,0.4-1.8l0,0c0.1-0.2,0.3-0.4,0.4-0.6l0,0c0.4-0.4,0.8-0.6,1.4-0.8c0,0,0.1,0,0.1,0c0.1,0,0.1,0,0.2,0c0,0,0,0,0,0
		l0,0c0.1,0,0.3,0,0.4,0c1.6,0,2.9,1.3,2.9,2.9S8.6,9.5,7,9.5z"/>
	<g>
		<polygon class="st8" points="5.4,8.3 7.8,7 7.1,6.6 5.5,7.6 5.4,7.7 		"/>
		<polygon class="st6" points="5.4,5.9 5.4,8.4 4.8,8 4.7,5.5 		"/>
		<polygon class="st8" points="7,8.5 5.4,7.6 4.8,8 7.1,9.3 7,9.3 		"/>
		<polygon class="st8" points="9.4,5.3 7,4.1 6.3,4.5 8.7,5.7 8.7,5.7 		"/>
		<path class="st6" d="M7,4.1C7,4.1,7,4.1,7,4.1C7,4.1,7,4.1,7,4.1L7,4.1L6.3,4.5l0,2.6l0.8-0.4L7,4.1C7,4.1,7,4.1,7,4.1z"/>
		<polygon class="st8" points="7,6.7 9.4,5.3 8.7,5 7.1,6 7,6 		"/>
		<path class="st8" d="M5.5,5.8l2.2-1.3L7,4.1l-1.6,1l-0.1,0l0,0.6C5.4,5.7,5.4,5.7,5.5,5.8z"/>
		<polygon class="st6" points="9.4,8 9.4,5.3 8.6,5.8 8.6,8.4 		"/>
		<polygon class="st8" points="7.1,9.3 9.4,8 8.7,7.6 7.1,8.6 7,8.5 		"/>
		<path class="st8" d="M8.7,8.2l0.4-0.4l-2-1.2L6.5,7l2.1,1.3C8.6,8.3,8.7,8.2,8.7,8.2z"/>
		<polygon class="st9" points="7.6,9 7.6,6.4 7.1,6.7 7.1,9.3 		"/>
		<polygon class="st8" points="7,5.9 5.3,5.1 4.7,5.5 7,6.8 7.1,6.7 		"/>
		<polygon class="st6" points="7.1,6.7 7.1,9.3 6.5,9 6.6,6.5 		"/>
	</g>
</g>
<g>
	<g>
		<path class="st6" d="M22.3,11.6c-0.2-0.3-0.4-0.6-0.7-1s-0.5-0.7-0.8-1.1c-0.3-0.4-0.6-0.7-1-1s-0.7-0.6-1-0.9v4h-2.1V2.1h2.1v3.6
			c0.5-0.6,1.1-1.2,1.7-1.8s1.1-1.2,1.6-1.8h2.5c-0.6,0.8-1.3,1.5-2,2.2C22,5,21.3,5.7,20.6,6.4c0.8,0.6,1.5,1.4,2.2,2.3
			s1.4,1.8,2,2.9L22.3,11.6L22.3,11.6z"/>
		<path class="st6" d="M31.6,11.4c-0.3,0.1-0.8,0.2-1.3,0.3c-0.5,0.1-1.1,0.1-1.7,0.1c-0.6,0-1.1-0.1-1.5-0.3
			c-0.4-0.2-0.7-0.4-1-0.7c-0.2-0.3-0.4-0.7-0.5-1.1c-0.1-0.4-0.2-0.9-0.2-1.4v-4h2v3.8c0,0.7,0.1,1.1,0.3,1.4
			c0.2,0.3,0.5,0.4,1,0.4c0.1,0,0.3,0,0.5,0s0.3,0,0.4,0V4.4h2V11.4z"/>
		<path class="st6" d="M40.3,8c0,0.6-0.1,1.1-0.3,1.6c-0.2,0.5-0.4,0.9-0.7,1.2c-0.3,0.3-0.7,0.6-1.2,0.8c-0.5,0.2-1,0.3-1.6,0.3
			c-0.3,0-0.5,0-0.8,0c-0.3,0-0.5,0-0.8-0.1c-0.3,0-0.5-0.1-0.8-0.1c-0.2,0-0.5-0.1-0.6-0.2V1.3l2-0.3v3.6c0.2-0.1,0.5-0.2,0.7-0.2
			c0.3-0.1,0.5-0.1,0.8-0.1c0.5,0,1,0.1,1.4,0.3c0.4,0.2,0.7,0.4,1,0.8c0.3,0.3,0.5,0.7,0.6,1.2C40.2,6.9,40.3,7.4,40.3,8z
			 M38.2,7.9c0-1.3-0.5-2-1.5-2c-0.2,0-0.4,0-0.6,0.1c-0.2,0.1-0.4,0.1-0.5,0.2V10c0.1,0,0.2,0,0.4,0c0.2,0,0.3,0,0.5,0
			c0.6,0,1-0.2,1.3-0.6C38,9.1,38.2,8.6,38.2,7.9z"/>
		<path class="st6" d="M41.5,8c0-0.6,0.1-1.2,0.3-1.7s0.5-0.9,0.8-1.2c0.3-0.3,0.7-0.6,1.1-0.7c0.4-0.2,0.8-0.3,1.3-0.3
			c1,0,1.8,0.3,2.4,0.9c0.6,0.6,0.9,1.5,0.9,2.8c0,0.1,0,0.3,0,0.4s0,0.3,0,0.4h-4.6c0,0.4,0.2,0.8,0.6,1C44.5,9.9,45,10,45.6,10
			c0.4,0,0.8,0,1.1-0.1c0.4-0.1,0.7-0.2,0.9-0.3l0.3,1.7c-0.1,0.1-0.3,0.1-0.4,0.2c-0.2,0.1-0.4,0.1-0.6,0.1c-0.2,0-0.5,0.1-0.7,0.1
			s-0.5,0-0.8,0c-0.7,0-1.2-0.1-1.7-0.3c-0.5-0.2-0.9-0.5-1.2-0.8s-0.5-0.7-0.7-1.2C41.6,9.1,41.5,8.6,41.5,8z M46.3,7.3
			c0-0.2,0-0.3-0.1-0.5c0-0.2-0.1-0.3-0.2-0.4c-0.1-0.1-0.2-0.2-0.4-0.3c-0.2-0.1-0.4-0.1-0.6-0.1s-0.4,0-0.6,0.1S44.1,6.2,44,6.3
			c-0.1,0.1-0.2,0.3-0.3,0.5c-0.1,0.2-0.1,0.3-0.1,0.5L46.3,7.3L46.3,7.3z"/>
		<path class="st6" d="M56.6,8c0,0.6-0.1,1.1-0.2,1.5c-0.1,0.5-0.3,0.8-0.6,1.2c-0.3,0.3-0.6,0.6-1,0.8c-0.4,0.2-0.8,0.3-1.4,0.3
			c-0.3,0-0.5,0-0.8-0.1c-0.3-0.1-0.5-0.1-0.7-0.2v2.7h-2V4.6c0.2-0.1,0.4-0.1,0.6-0.2c0.2,0,0.5-0.1,0.8-0.1c0.3,0,0.5-0.1,0.8-0.1
			c0.3,0,0.5,0,0.8,0c0.6,0,1.1,0.1,1.6,0.3c0.5,0.2,0.9,0.4,1.2,0.8c0.3,0.3,0.6,0.7,0.7,1.2C56.5,6.9,56.6,7.4,56.6,8z M54.5,8
			c0-0.6-0.1-1.1-0.4-1.5C53.8,6.2,53.4,6,52.8,6c-0.2,0-0.4,0-0.5,0c-0.2,0-0.3,0-0.4,0v3.7c0.1,0.1,0.3,0.2,0.5,0.2
			C52.6,10,52.8,10,53,10C54,10,54.5,9.4,54.5,8z"/>
		<path class="st6" d="M60.7,4.2c0.6,0,1.1,0.1,1.5,0.2c0.4,0.1,0.7,0.3,1,0.6c0.3,0.3,0.4,0.6,0.5,0.9c0.1,0.4,0.2,0.8,0.2,1.2v4.3
			c-0.3,0.1-0.7,0.1-1.2,0.2c-0.5,0.1-1.2,0.1-1.9,0.1c-0.5,0-0.9,0-1.3-0.1s-0.7-0.2-1-0.4c-0.3-0.2-0.5-0.4-0.6-0.7
			c-0.1-0.3-0.2-0.7-0.2-1.1c0-0.4,0.1-0.8,0.3-1.1c0.2-0.3,0.4-0.5,0.7-0.7c0.3-0.2,0.6-0.3,1-0.4c0.4-0.1,0.8-0.1,1.1-0.1
			c0.3,0,0.5,0,0.7,0c0.2,0,0.4,0,0.5,0.1V7c0-0.3-0.1-0.6-0.3-0.8C61.4,6,61,5.9,60.5,5.9c-0.3,0-0.7,0-1,0.1
			c-0.3,0-0.6,0.1-0.9,0.2l-0.3-1.6c0.1,0,0.3-0.1,0.5-0.1c0.2,0,0.4-0.1,0.6-0.1c0.2,0,0.4-0.1,0.7-0.1C60.3,4.2,60.5,4.2,60.7,4.2
			z M60.9,10.2c0.2,0,0.4,0,0.6,0c0.2,0,0.3,0,0.4,0V8.6c-0.1,0-0.2,0-0.4-0.1c-0.2,0-0.3,0-0.5,0c-0.2,0-0.4,0-0.5,0
			c-0.2,0-0.3,0.1-0.5,0.1c-0.1,0.1-0.2,0.2-0.3,0.3c-0.1,0.1-0.1,0.3-0.1,0.4c0,0.3,0.1,0.5,0.3,0.7C60.2,10.1,60.5,10.2,60.9,10.2
			z"/>
		<path class="st6" d="M65.4,8c0-0.5,0.1-1,0.3-1.5c0.2-0.5,0.4-0.9,0.7-1.2c0.3-0.3,0.7-0.6,1.2-0.8c0.5-0.2,1-0.3,1.6-0.3
			c0.4,0,0.7,0,1.1,0.1c0.3,0.1,0.6,0.2,0.9,0.3l-0.4,1.6c-0.2-0.1-0.4-0.1-0.6-0.2C69.8,6,69.6,6,69.3,6c-0.6,0-1,0.2-1.4,0.6
			c-0.3,0.4-0.5,0.9-0.5,1.5c0,0.7,0.1,1.2,0.4,1.5c0.3,0.4,0.8,0.5,1.5,0.5c0.3,0,0.5,0,0.8-0.1c0.3,0,0.5-0.1,0.8-0.2l0.3,1.7
			c-0.2,0.1-0.5,0.2-0.9,0.3s-0.8,0.1-1.2,0.1c-0.7,0-1.2-0.1-1.7-0.3c-0.5-0.2-0.9-0.5-1.2-0.8c-0.3-0.3-0.5-0.7-0.7-1.2
			C65.5,9,65.4,8.5,65.4,8z"/>
		<path class="st6" d="M74.7,7c0.2-0.2,0.4-0.5,0.6-0.7c0.2-0.2,0.4-0.5,0.6-0.7c0.2-0.2,0.4-0.5,0.6-0.7s0.3-0.4,0.5-0.5h2.4
			c-0.5,0.6-1,1.1-1.4,1.6s-1,1-1.5,1.6c0.3,0.3,0.6,0.5,0.8,0.9c0.3,0.3,0.6,0.7,0.8,1.1c0.3,0.4,0.5,0.7,0.8,1.1
			c0.2,0.4,0.4,0.7,0.6,1h-2.3c-0.1-0.2-0.3-0.5-0.5-0.8c-0.2-0.3-0.4-0.6-0.6-0.9c-0.2-0.3-0.4-0.6-0.7-0.8
			c-0.2-0.3-0.5-0.5-0.7-0.7v3.2h-2V1.3l2-0.3L74.7,7L74.7,7z"/>
	</g>
</g>
</svg>
