<?xml version="1.0" encoding="utf-8"?>
<!-- Generator: Adobe Illustrator 21.0.0, SVG Export Plug-In . SVG Version: 6.00 Build 0)  -->
<svg version="1.1" id="Layer_1" xmlns="http://www.w3.org/2000/svg" xmlns:xlink="http://www.w3.org/1999/xlink" x="0px" y="0px"
	 viewBox="0 0 68.1 68.2" style="enable-background:new 0 0 68.1 68.2;" xml:space="preserve">
<style type="text/css">
	.st0{fill:#7272E9;}
	.st1{fill:#4949A3;}
	.st2{fill:#FFFFFF;}
</style>
<g>
	<polygon class="st0" points="62,17.8 62,54.1 33.5,66.2 33.5,50.2 49.5,43.5 49.5,22.9 49.5,22.9 	"/>
	<polygon class="st0" points="33.5,5.3 62,17.8 49.5,22.9 49.5,22.9 33.5,15.8 17.5,22.9 5.4,17.8 	"/>
	<polygon class="st0" points="33.5,50.2 33.5,66.2 5.4,54.1 5.4,17.8 17.5,22.9 17.5,22.9 17.5,43.5 	"/>
	<path class="st1" d="M63.9,17.8L63.9,17.8v-0.4l0,0V17l0,0c0,0,0,0-0.4-0.4l0,0l0,0l0,0l0,0L34.3,3.7c-0.4-0.4-1.2-0.4-1.6,0
		L4.3,15.8l0,0l0,0l0,0l0,0c0,0,0,0-0.4,0.4l0,0v0.4l0,0V17l0,0l0,0v36.3c0,0.8,0.4,1.6,1.2,2l28.1,12.1l0,0c0,0,0,0,0.4,0
		c0,0,0,0,0.4,0c0,0,0,0,0.4,0s0,0,0.4,0c0,0,0,0,0.4,0c0,0,0,0,0.4,0l0,0l28.1-12.1c0.8-0.4,1.2-1.2,1.2-2L63.9,17.8L63.9,17.8
		L63.9,17.8z M33.5,7.6l23,10.1l-7,3.1l-15.2-6.6c-0.4-0.4-1.2-0.4-1.6,0l-15.2,6.2h-0.4l-6.6-2.7L33.5,7.6z M31.6,63L7.4,52.5v-32
		l8.2,3.5v19.1c0,0.8,0.4,1.6,1.2,2l14.8,6.2V63z M33.5,48.2l-14-5.9V24.4l14-6.2l14,6.2v17.9L33.5,48.2z M59.6,52.5L35.5,63V51.7
		l14.8-6.2c0.8-0.4,1.2-1.2,1.2-2V24l8.2-3.5V52.5z"/>
	<g>
		<polygon class="st2" points="49.5,43.5 49.5,22.9 33.5,15.8 33.5,36.5 		"/>
		<polygon class="st2" points="49.5,43.5 33.5,36.5 17.5,43.5 33.5,50.2 		"/>
		<polygon class="st2" points="33.5,36.5 33.5,15.8 17.5,22.9 17.5,43.5 17.5,43.5 		"/>
	</g>
	<path class="st1" d="M50.3,20.9l-16-6.6l0,0c0,0,0,0-0.4,0c0,0,0,0-0.4,0c0,0,0,0-0.4,0s0,0-0.4,0c0,0,0,0-0.4,0c0,0,0,0-0.4,0l0,0
		l-15.2,6.6c-0.8,0.4-1.6,1.2-1.6,2v20.7c0,0.8,0.4,1.6,1.6,2l0,0l16,7c0.4,0.4,1.2,0.4,1.6,0l16-7l0,0c0.8-0.4,1.6-1.2,1.6-2V22.9
		C51.8,22.1,51.1,21.3,50.3,20.9z M19.5,24.4l12.1-5.1v16.4l-12.1,5.1C19.5,40.8,19.5,24.4,19.5,24.4z M33.5,48.2l-10.9-4.7
		l10.9-4.7l0,0l10.9,4.7L33.5,48.2z M47.6,40.4l-12.1-5.1V19L47.6,24V40.4z"/>
</g>
</svg>
