<?xml version="1.0" encoding="utf-8"?>
<!-- Generator: Adobe Illustrator 21.0.0, SVG Export Plug-In . SVG Version: 6.00 Build 0)  -->
<svg version="1.1" id="Layer_1" xmlns="http://www.w3.org/2000/svg" xmlns:xlink="http://www.w3.org/1999/xlink" x="0px" y="0px"
	 viewBox="0 0 700 700" style="enable-background:new 0 0 700 700;" xml:space="preserve">
<style type="text/css">
	.st0{fill:#FFFFFF;}
</style>
<path class="st0" d="M661.6,168.2L661.6,168.2c0-2-0.4-3.8-0.9-5.6c-0.2-0.5-0.5-1.1-0.7-1.8c-0.4-1.1-0.9-2.4-1.6-3.4
	c-0.4-0.5-0.7-1.3-1.3-1.8c-0.7-0.9-1.4-1.8-2.4-2.5c-0.5-0.5-1.1-1.1-1.8-1.4c-0.4-0.2-0.7-0.5-1.1-0.9c-0.7-0.4-1.4-0.7-2-1.1
	c-0.4-0.2-0.7-0.5-1.3-0.7L357.3,24c-5.2-2.2-11.2-2.2-16.5,0L49.6,148.8c-0.4,0.2-0.7,0.5-1.3,0.7c-0.7,0.4-1.4,0.5-2,1.1
	c-0.4,0.2-0.7,0.5-1.1,0.9c-0.5,0.5-1.1,0.9-1.8,1.4c-0.9,0.7-1.6,1.6-2.4,2.5c-0.4,0.5-0.9,1.1-1.3,1.8c-0.7,1.1-1.1,2.2-1.6,3.4
	c-0.2,0.5-0.5,1.1-0.7,1.6c-0.5,1.8-0.7,3.6-0.9,5.6l0,0l0,0v374.5c0,8.3,4.9,15.7,12.7,19.2l291.3,124.8c0.2,0.2,0.5,0.2,0.7,0.2
	c0.9,0.4,1.8,0.5,2.5,0.7c0.7,0.2,1.6,0.4,2.4,0.5c0.9,0.2,1.6,0,2.5,0c0.9,0,1.6,0,2.5,0c0.7-0.2,1.6-0.4,2.4-0.5
	c0.9-0.2,1.8-0.4,2.5-0.7c0.2,0,0.5-0.2,0.7-0.2L648,561.6c7.8-3.3,12.7-10.7,12.7-19.2V168.2H661.6L661.6,168.2z M349.5,66.1
	L588,168.3l-73.3,31.5l-157-67.3c-5.2-2.2-11.2-2.2-16.3,0l-157,67.1l-3.1-1.3l-70.2-30.2L349.5,66.1z M328.7,636L79,529.1V199.8
	l83.2,35.6v198.6c0,8.3,4.9,15.9,12.7,19.2l153.8,65.7V636z M349.5,482.6l-145.6-62.2V236.5l145.6-62.4l145.6,62.4v183.8
	L349.5,482.6z M620,528.9L370.3,635.8v-117l153.8-65.7c7.6-3.3,12.7-10.7,12.7-19.2V235.6l83.2-35.8V528.9z"/>
<path class="st0" d="M524.1,203.6l-166.4-71.1c-0.2-0.2-0.5-0.2-0.7-0.2c-0.7-0.4-1.6-0.5-2.4-0.7c-0.9-0.2-1.6-0.4-2.5-0.5
	c-0.9-0.2-1.6,0-2.5,0c-0.9,0-1.6,0-2.5,0c-0.9,0.2-1.6,0.4-2.5,0.5c-0.7,0.2-1.6,0.4-2.4,0.7c-0.2,0-0.5,0.2-0.7,0.2l-166.4,71.1
	c-7.6,3.3-12.7,10.9-12.7,19.2v211.3c0,9,5.8,16.8,14.3,19.7l0.4,0.2l164.4,70.4c5.2,2.2,11.2,2.2,16.3,0L522.1,454l0.4-0.2
	c8.5-2.9,14.3-10.7,14.3-19.7V222.8C536.8,214.3,531.9,206.9,524.1,203.6z M203.9,236.4L328.7,183v167l-124.8,53.4V236.4z
	 M349.5,482.6l-112.3-48.1l110.9-47.4l1.4-0.5l112.3,48.1L349.5,482.6z M495.1,403.5l-124.8-53.4v-167l124.8,53.4V403.5z"/>
</svg>
