<?xml version="1.0" standalone="no"?>
<!DOCTYPE svg PUBLIC "-//W3C//DTD SVG 20010904//EN"
 "http://www.w3.org/TR/2001/REC-SVG-20010904/DTD/svg10.dtd">
<svg version="1.0" xmlns="http://www.w3.org/2000/svg"
 width="700.000000pt" height="700.000000pt" viewBox="0 0 700.000000 700.000000"
 preserveAspectRatio="xMidYMid meet">
<metadata>
Created by potrace 1.11, written by Peter Selinger 2001-2013
</metadata>
<g transform="translate(0.000000,700.000000) scale(0.100000,-0.100000)"
fill="#000000" stroke="none">
<path d="M3409 6848 c-72 -9 -97 -19 -459 -188 -168 -78 -333 -155 -367 -171
-35 -16 -91 -42 -125 -58 -35 -16 -116 -54 -182 -85 -65 -31 -120 -56 -121
-56 -2 0 -70 -31 -150 -70 -80 -38 -148 -70 -150 -70 -3 0 -66 -29 -141 -65
-75 -36 -138 -65 -139 -65 -2 0 -45 -20 -97 -44 -51 -24 -175 -82 -275 -129
-248 -116 -357 -201 -442 -345 -39 -67 -72 -169 -110 -342 -18 -80 -43 -197
-57 -260 -14 -63 -28 -126 -30 -140 -3 -14 -14 -63 -24 -110 -10 -47 -21 -96
-24 -110 -8 -40 -59 -277 -141 -650 -42 -190 -78 -355 -81 -368 -4 -19 -47
-216 -59 -272 -2 -8 -13 -60 -24 -115 -12 -55 -29 -134 -39 -176 -24 -100 -27
-188 -8 -277 17 -82 63 -182 104 -227 15 -17 43 -50 62 -75 19 -25 43 -54 52
-65 9 -11 106 -130 215 -265 262 -323 604 -744 773 -951 74 -91 214 -264 310
-385 274 -343 363 -419 523 -449 44 -8 429 -10 1332 -9 1422 1 1353 -2 1473
72 78 48 100 68 142 122 19 25 37 47 41 50 4 4 214 262 393 484 43 54 301 372
341 421 18 22 68 83 111 136 44 53 189 233 324 399 135 167 273 337 307 378
70 85 135 205 162 304 30 104 25 224 -14 388 -18 74 -47 194 -64 265 -17 72
-49 204 -71 295 -34 139 -51 211 -85 353 -2 11 -20 83 -39 160 -19 78 -49 201
-66 272 -17 72 -56 231 -86 355 -31 124 -57 232 -59 240 -10 48 -67 284 -80
333 -32 122 -123 271 -207 340 -24 19 -295 162 -603 317 -1220 615 -1672 843
-1710 865 -22 13 -57 28 -77 34 -43 14 -181 19 -259 9z m224 -182 c18 -7 39
-19 48 -27 8 -8 221 -118 474 -245 1303 -655 1724 -870 1765 -897 93 -64 154
-146 166 -224 3 -21 14 -76 24 -123 19 -85 49 -224 96 -440 13 -63 27 -126 30
-140 3 -14 7 -32 9 -40 4 -19 45 -206 51 -234 3 -11 7 -32 10 -46 2 -14 7 -31
10 -39 2 -8 7 -30 10 -50 3 -20 10 -54 16 -76 5 -22 12 -51 15 -65 2 -14 20
-95 39 -180 19 -85 36 -164 38 -175 3 -11 9 -40 15 -65 5 -25 13 -61 16 -80 3
-19 12 -60 20 -90 8 -30 17 -70 20 -87 3 -18 12 -61 20 -95 8 -35 17 -79 20
-98 3 -19 8 -43 11 -52 3 -9 7 -25 9 -35 2 -10 9 -40 15 -68 6 -27 13 -59 15
-70 2 -11 10 -42 18 -70 22 -78 5 -193 -39 -263 -8 -13 -178 -231 -377 -485
-198 -254 -377 -483 -397 -508 -80 -105 -533 -684 -636 -815 -149 -188 -244
-263 -362 -287 -44 -9 -375 -12 -1323 -12 -1424 1 -1295 -6 -1426 79 -85 55
-129 105 -535 606 -411 509 -471 583 -478 590 -3 3 -23 28 -45 55 -21 28 -42
52 -45 55 -3 3 -41 50 -85 105 -75 94 -247 306 -284 350 -112 135 -182 228
-199 268 -11 26 -19 47 -17 47 2 0 -1 15 -6 33 -5 17 -12 71 -15 120 -5 81 0
110 61 392 36 167 68 312 70 322 2 10 20 92 40 183 20 91 45 208 56 260 11 52
23 104 25 115 3 11 7 31 10 45 3 14 7 33 10 42 3 10 7 30 10 45 3 16 16 78 30
138 13 61 27 124 30 140 3 17 9 46 14 65 5 19 12 51 15 70 3 19 10 51 15 70 5
19 11 46 14 60 2 14 14 70 26 125 12 55 23 105 24 110 2 6 8 37 15 70 8 33 14
65 15 70 54 270 134 394 264 412 47 6 87 23 295 122 60 28 110 51 112 51 1 0
56 25 121 56 66 31 161 76 212 100 52 24 95 44 97 44 2 0 50 22 107 49 139 66
261 123 328 154 30 14 96 44 145 67 50 23 146 68 215 100 69 32 159 73 200 93
127 60 271 127 352 164 64 29 81 42 95 72 25 51 88 81 170 81 35 0 78 -6 96
-14z"/>
<path d="M3276 6285 c-21 -19 -26 -29 -17 -34 10 -7 10 -18 -2 -57 -10 -35
-14 -94 -12 -210 1 -89 5 -166 8 -171 13 -21 18 -129 7 -158 -6 -16 -12 -32
-12 -35 -1 -17 -23 -42 -42 -50 -18 -7 -22 -14 -19 -34 4 -20 1 -26 -13 -26
-90 -3 -149 -12 -209 -35 -38 -14 -110 -39 -160 -54 -243 -76 -481 -184 -644
-293 -52 -34 -137 -103 -188 -153 -85 -82 -93 -88 -95 -65 -3 23 -6 25 -56 24
l-54 -1 -84 83 c-47 46 -89 95 -94 109 -5 14 -21 30 -35 35 -14 5 -25 16 -25
24 0 21 -32 36 -74 36 -24 0 -36 5 -36 14 0 23 -27 38 -82 43 -66 6 -118 -7
-132 -32 -6 -11 -19 -33 -30 -48 -14 -21 -17 -41 -14 -76 8 -78 61 -131 133
-131 24 0 48 -9 70 -26 19 -14 40 -27 47 -28 44 -8 58 -20 68 -55 10 -38 52
-84 133 -145 29 -22 37 -35 37 -60 0 -23 9 -41 29 -60 26 -25 28 -31 19 -52
-6 -14 -21 -27 -32 -30 -58 -16 -233 -483 -261 -694 -2 -14 -7 -50 -11 -80
-19 -120 -9 -440 16 -545 14 -58 13 -63 -15 -60 -17 2 -36 -7 -60 -31 -20 -19
-41 -34 -48 -34 -6 0 -24 -6 -38 -14 -14 -7 -50 -19 -80 -26 -30 -7 -85 -24
-124 -38 -61 -23 -87 -26 -197 -27 -145 -1 -152 -5 -194 -87 -65 -128 -4 -199
173 -200 131 -1 136 0 166 28 15 14 40 27 55 28 15 1 50 13 77 26 39 19 71 25
142 28 64 3 93 1 94 -7 1 -6 3 -15 4 -21 1 -5 3 -15 4 -21 0 -6 10 -9 20 -6
10 2 23 2 28 -2 6 -3 34 -51 63 -106 64 -120 146 -254 214 -350 183 -259 445
-524 566 -574 30 -13 72 -30 93 -39 l37 -16 -26 -27 c-26 -27 -30 -43 -38
-134 -5 -61 -37 -149 -72 -196 -14 -18 -32 -49 -41 -67 -8 -17 -22 -32 -29
-32 -8 0 -20 -11 -26 -25 -6 -13 -19 -27 -30 -30 -10 -4 -19 -11 -19 -16 -1
-5 -2 -17 -3 -26 -2 -10 -8 -36 -14 -58 -18 -63 -3 -113 51 -173 38 -41 122
-23 196 44 49 44 51 48 51 98 0 41 6 61 28 92 15 21 29 50 30 65 2 14 23 79
48 145 25 65 52 138 60 161 11 29 26 48 52 63 20 12 41 28 45 36 12 21 29 17
67 -19 123 -114 301 -197 495 -231 100 -17 376 -18 470 -2 69 12 102 20 317
71 133 31 149 31 180 0 14 -13 33 -26 44 -28 30 -4 44 -17 44 -38 0 -11 7 -30
15 -42 24 -37 94 -260 96 -308 3 -55 13 -83 39 -109 11 -11 20 -33 20 -50 0
-21 11 -39 41 -67 59 -55 96 -72 160 -73 74 0 81 12 83 166 2 124 -5 160 -34
169 -9 3 -22 16 -28 29 -6 13 -19 27 -30 30 -15 5 -33 48 -76 180 -55 166 -57
178 -59 286 l-2 113 66 43 c161 103 367 294 483 449 133 176 289 447 337 588
22 62 26 67 53 67 20 0 41 10 61 30 l31 30 59 -16 c116 -30 193 -44 254 -44
33 0 53 -7 80 -27 69 -53 231 -36 306 33 20 18 35 39 33 46 -6 17 -93 83 -138
105 -28 13 -70 17 -220 18 -102 1 -201 5 -220 10 -55 12 -148 64 -155 85 -4
14 -15 20 -34 20 l-28 0 9 48 c26 126 8 368 -44 597 -11 50 -22 101 -25 115
-48 266 -132 506 -229 651 -24 37 -44 71 -44 77 0 5 11 20 25 33 13 13 25 34
25 45 0 24 17 41 40 39 8 -1 40 22 70 50 59 54 168 125 193 125 8 0 21 14 29
30 7 17 19 30 26 30 8 0 27 11 44 25 20 17 42 25 69 25 l39 0 0 118 c-1 109
-2 118 -23 133 -40 29 -82 37 -200 38 l-117 2 0 -69 c0 -71 -4 -80 -50 -107
-31 -17 -184 -127 -207 -148 -16 -15 -38 -20 -80 -22 -55 -1 -58 -3 -63 -29
l-5 -27 -64 41 c-35 23 -85 61 -110 85 -208 197 -512 353 -856 439 -77 19
-312 66 -332 66 -2 0 -1 12 1 26 4 18 -3 34 -25 56 l-29 31 -1 271 c-1 290 -1
302 -24 345 -22 44 -61 63 -134 68 -60 3 -69 1 -95 -22z m524 -1249 c19 -4 51
-11 70 -16 19 -5 49 -11 65 -14 55 -10 199 -63 295 -109 313 -150 591 -433
733 -747 116 -256 157 -452 152 -730 -5 -290 -54 -498 -177 -744 -39 -77 -133
-236 -147 -246 -3 -3 -25 -31 -49 -63 -131 -175 -371 -368 -592 -475 -242
-117 -447 -163 -745 -167 -201 -2 -310 6 -433 35 -46 11 -93 20 -105 20 -13 0
-32 14 -47 34 -34 46 -104 93 -232 155 -128 63 -206 120 -310 227 -160 166
-289 374 -378 614 -62 167 -70 190 -76 224 -3 19 -17 81 -33 138 -28 106 -30
148 -17 310 9 110 25 228 41 315 18 95 19 101 27 109 4 3 4 13 1 22 -4 10 -2
13 6 8 9 -6 10 0 6 21 -4 17 -3 23 2 16 6 -9 16 8 30 52 12 36 18 63 13 60 -4
-3 -6 4 -3 16 4 16 8 17 14 7 6 -8 9 -9 9 -1 0 6 3 20 6 30 5 15 4 15 -5 3 -6
-8 -11 -10 -11 -5 0 13 20 43 20 30 0 -13 20 17 20 30 0 6 -5 3 -10 -5 -6 -9
-10 -10 -10 -3 0 7 8 16 18 22 9 5 16 12 14 15 -1 4 4 22 12 41 24 56 258 315
285 315 3 0 30 22 59 50 172 164 348 267 667 388 l80 31 350 -3 c193 -2 366
-7 385 -10z m-1919 -997 c-5 -13 -10 -19 -10 -12 -1 15 10 45 15 40 3 -2 0
-15 -5 -28z"/>
<path d="M3456 4873 c-4 -5 -89 -56 -189 -114 -100 -58 -181 -110 -180 -115 1
-5 -53 -43 -120 -85 -67 -42 -185 -116 -261 -164 -87 -55 -153 -90 -174 -92
-23 -2 -88 -40 -200 -116 l-167 -112 1 -55 c3 -110 15 -471 19 -557 2 -48 7
-155 10 -238 3 -82 8 -204 10 -270 3 -66 7 -176 10 -244 2 -68 7 -127 12 -131
4 -4 58 -34 118 -65 503 -262 828 -435 845 -448 8 -7 73 -41 144 -77 73 -37
131 -72 133 -82 9 -31 65 -12 198 67 72 43 137 86 145 95 8 10 119 74 245 142
127 69 246 134 265 145 19 11 78 43 130 71 52 28 160 86 240 130 l145 80 1
747 1 747 -21 12 c-12 7 -158 87 -326 178 -168 91 -330 179 -360 196 -457 250
-662 362 -664 362 -2 0 -6 -3 -10 -7z m249 -586 c289 -163 285 -161 285 -168
0 -5 -63 -46 -405 -261 l-75 -47 -1 47 c-1 26 -3 74 -4 107 -2 33 -6 147 -10
254 l-7 194 34 -20 c18 -12 101 -59 183 -106z m-631 -170 c-1 -45 -2 -90 -3
-99 -1 -15 -8 -14 -53 11 -29 16 -70 38 -91 49 l-37 20 82 50 c46 28 88 51 93
51 6 1 9 -32 9 -82z m1308 -722 c0 -251 -3 -459 -7 -463 -3 -3 -9 -2 -13 4 -4
6 -12 13 -18 15 -6 2 -128 75 -271 162 l-260 157 0 129 0 129 126 75 c69 41
151 89 181 106 30 18 62 36 70 41 75 48 185 108 188 105 3 -2 4 -209 4 -460z
m-1581 315 c118 -68 227 -130 243 -139 l29 -17 0 -212 c0 -117 -2 -214 -4
-216 -9 -8 -413 -236 -418 -236 -3 0 -24 -16 -45 -35 -22 -19 -41 -35 -42 -35
-2 0 -3 230 -3 511 0 407 3 510 13 506 7 -3 109 -60 227 -127z m1156 -979 c68
-42 123 -79 123 -82 0 -6 -255 -169 -263 -169 -2 0 -4 76 -4 170 0 122 3 168
11 163 6 -3 66 -40 133 -82z m-743 12 c-2 -38 -6 -116 -8 -176 -1 -59 -5 -109
-7 -111 -5 -6 -289 156 -289 164 0 3 28 23 63 43 34 21 69 42 77 47 28 18 164
100 166 100 1 0 0 -30 -2 -67z"/>
</g>
</svg>
